<?xml version="1.0" encoding="utf-8"?>
<!-- Generator: Adobe Illustrator 24.3.0, SVG Export Plug-In . SVG Version: 6.00 Build 0)  -->
<svg version="1.1" id="Ebene_1" xmlns="http://www.w3.org/2000/svg" xmlns:xlink="http://www.w3.org/1999/xlink" x="0px" y="0px"
	 viewBox="0 0 85.4 87" style="enable-background:new 0 0 85.4 87;" xml:space="preserve">
<style type="text/css">
	.st0{fill:#466B3B;}
	.st1{enable-background:new    ;}
	.st2{fill:#F7F2E1;}
</style>
<polygon class="st0" points="42.6,16.3 10.4,47.9 10.4,80.8 75,80.8 75,47.9 "/>
<g id="Gruppe_29" transform="translate(-872 83.397)">
	<g class="st1">
		<path class="st2" d="M922.1-35.5c0.4-0.4,0.7-0.5,0.9-0.4s0.4,0.3,0.5,0.8c0.1,0.4,0.2,1,0.2,1.7s0,1.5,0,2.3
			c0,0.9-0.1,1.8-0.2,2.7c-0.1,1-0.1,1.9-0.2,2.8s-0.1,1.8-0.1,2.6c0,0.8,0,1.6,0.1,2.2h0.1h0.1c1-1,1.8-2,2.6-3.1s1.4-2.1,2.1-3
			c0.6-1,1.2-1.8,1.6-2.5c0.5-0.7,0.9-1.2,1.3-1.4c0.3,0,0.5,0,0.7,0.1s0.3,0.3,0.3,0.6c0,0,0,0.1,0,0.2c0,0.1,0,0.1,0,0.2
			c-0.5,0.9-1,1.9-1.5,2.8c-0.6,1-1.2,1.9-1.8,2.8s-1.3,1.7-2.1,2.5s-1.6,1.5-2.4,2.2v0.1v0.1c0,0.2,0.2,0.4,0.5,0.6
			s0.7,0.4,1.2,0.6s1,0.4,1.6,0.6s1.2,0.4,1.7,0.5c0.6,0.1,1.1,0.3,1.6,0.4s0.9,0.1,1.2,0.1c0,0.1,0,0.2,0,0.4c0,0.2,0,0.4,0,0.6
			s-0.1,0.4-0.2,0.6c-0.1,0.2-0.2,0.3-0.4,0.3h-0.1h-0.1l-8-3.2c0,1.1-0.1,2-0.2,2.7c-0.1,0.7-0.3,1.2-0.5,1.5S922.2-13,922-13
			c-0.2,0-0.4-0.2-0.5-0.4L922.1-35.5z"/>
	</g>
	<g class="st1">
		<path class="st2" d="M909.7-9.9l6-34.4l2.1-0.3l-6.5,36.2c-0.4,0-0.7-0.1-1.1-0.3c-0.3-0.3-0.5-0.6-0.6-0.9L909.7-9.9z"/>
	</g>
	<g class="st1">
		<path class="st2" d="M898.1-35.5c0.4-0.4,0.7-0.5,0.9-0.4s0.4,0.3,0.5,0.8c0.1,0.4,0.2,1,0.2,1.7s0,1.5,0,2.3
			c0,0.9-0.1,1.8-0.2,2.7c-0.1,1-0.1,1.9-0.2,2.8s-0.1,1.8-0.1,2.6c0,0.8,0,1.6,0.1,2.2h0.1h0.1c1-1,1.8-2,2.6-3.1s1.4-2.1,2.1-3
			c0.6-1,1.2-1.8,1.6-2.5c0.5-0.7,0.9-1.2,1.3-1.4c0.3,0,0.5,0,0.7,0.1s0.3,0.3,0.3,0.6c0,0,0,0.1,0,0.2c0,0.1,0,0.1,0,0.2
			c-0.5,0.9-1,1.9-1.5,2.8c-0.6,1-1.2,1.9-1.8,2.8s-1.3,1.7-2.1,2.5s-1.6,1.5-2.4,2.2v0.1v0.1c0,0.2,0.2,0.4,0.5,0.6
			s0.7,0.4,1.2,0.6s1,0.4,1.6,0.6s1.2,0.4,1.7,0.5c0.6,0.1,1.1,0.3,1.6,0.4s0.9,0.1,1.2,0.1c0,0.1,0,0.2,0,0.4c0,0.2,0,0.4,0,0.6
			s-0.1,0.4-0.2,0.6c-0.1,0.2-0.2,0.3-0.4,0.3h-0.1h-0.1l-8-3.2c0,1.1-0.1,2-0.2,2.7c-0.1,0.7-0.3,1.2-0.5,1.5S898.2-13,898-13
			c-0.2,0-0.4-0.2-0.5-0.4L898.1-35.5z"/>
	</g>
</g>
</svg>
