<?xml version="1.0" encoding="utf-8"?>
<!-- Generator: Adobe Illustrator 24.3.0, SVG Export Plug-In . SVG Version: 6.00 Build 0)  -->
<svg version="1.1" id="Ebene_1" xmlns="http://www.w3.org/2000/svg" xmlns:xlink="http://www.w3.org/1999/xlink" x="0px" y="0px"
	 viewBox="0 0 144.9 144.9" style="enable-background:new 0 0 144.9 144.9;" xml:space="preserve">
<style type="text/css">
	.st0{enable-background:new    ;}
	.st1{fill:#E24F3A;}
</style>
<g id="Gruppe_31" transform="translate(-627 2477.397)">
	<g class="st0">
		<path class="st1" d="M718.4-2433.5c1-1,1.9-1.4,2.5-1.2c0.6,0.2,1.1,0.9,1.4,2c0.3,1.1,0.5,2.6,0.5,4.5c0,1.8,0,3.9,0,6.2
			s-0.2,4.7-0.4,7.3c-0.2,2.5-0.4,5-0.5,7.5s-0.2,4.8-0.3,7c0,2.2,0,4.2,0.2,5.8h0.2c0.1,0,0.2,0,0.2-0.1c2.6-2.6,4.9-5.3,6.9-8.2
			c2-2.9,3.9-5.6,5.5-8.1c1.6-2.5,3.1-4.8,4.3-6.6c1.3-1.9,2.4-3.2,3.5-3.9c0.7,0,1.4,0.1,1.9,0.4c0.5,0.2,0.8,0.8,0.8,1.7
			c0,0.1,0,0.3,0,0.5c0,0.2,0,0.4,0,0.5c-1.2,2.5-2.6,5.1-4.1,7.6c-1.5,2.5-3.1,5-4.8,7.4c-1.7,2.4-3.6,4.6-5.6,6.8
			c-2,2.1-4.2,4.1-6.5,5.8c0,0.1,0,0.1,0,0.3c0,0.1,0,0.2,0,0.3c0,0.5,0.4,1,1.2,1.6s1.9,1.2,3.1,1.7c1.3,0.5,2.7,1.1,4.2,1.6
			c1.6,0.5,3.1,1,4.6,1.4c1.5,0.4,2.9,0.7,4.2,1c1.3,0.2,2.3,0.4,3.1,0.4c0,0.2,0,0.6,0,1.1c0,0.5,0,1.1-0.1,1.7
			c-0.1,0.6-0.3,1.1-0.5,1.6c-0.2,0.5-0.6,0.7-1.2,0.7h-0.3c-0.1,0-0.2,0-0.2-0.1L721-2386c0,2.9-0.2,5.3-0.6,7.1
			c-0.3,1.8-0.8,3.1-1.2,4c-0.5,0.9-1,1.3-1.5,1.2s-1-0.4-1.4-1.2L718.4-2433.5z"/>
	</g>
	<g class="st0">
		<path class="st1" d="M685.4-2365l16.1-91.8l5.7-0.7l-17.4,96.7c-1,0.1-1.9-0.2-2.8-0.8c-0.9-0.7-1.4-1.5-1.5-2.5L685.4-2365z"/>
	</g>
	<g class="st0">
		<path class="st1" d="M654.4-2433.5c1-1,1.9-1.4,2.5-1.2c0.6,0.2,1.1,0.9,1.4,2c0.3,1.1,0.5,2.6,0.5,4.5c0,1.8,0,3.9,0,6.2
			s-0.2,4.7-0.4,7.3c-0.2,2.5-0.4,5-0.5,7.5s-0.2,4.8-0.3,7c0,2.2,0,4.2,0.2,5.8h0.2c0.1,0,0.2,0,0.2-0.1c2.6-2.6,4.9-5.3,6.9-8.2
			c2-2.9,3.9-5.6,5.5-8.1c1.6-2.5,3.1-4.8,4.3-6.6c1.3-1.9,2.4-3.2,3.5-3.9c0.7,0,1.4,0.1,1.9,0.4c0.5,0.2,0.8,0.8,0.8,1.7
			c0,0.1,0,0.3,0,0.5c0,0.2,0,0.4,0,0.5c-1.2,2.5-2.6,5.1-4.1,7.6c-1.5,2.5-3.1,5-4.8,7.4c-1.7,2.4-3.6,4.6-5.6,6.8
			c-2,2.1-4.2,4.1-6.5,5.8c0,0.1,0,0.1,0,0.3c0,0.1,0,0.2,0,0.3c0,0.5,0.4,1,1.2,1.6s1.9,1.2,3.1,1.7c1.3,0.5,2.7,1.1,4.2,1.6
			c1.6,0.5,3.1,1,4.6,1.4c1.5,0.4,2.9,0.7,4.2,1c1.3,0.2,2.3,0.4,3.1,0.4c0,0.2,0,0.6,0,1.1c0,0.5,0,1.1-0.1,1.7
			c-0.1,0.6-0.3,1.1-0.5,1.6c-0.2,0.5-0.6,0.7-1.2,0.7h-0.3c-0.1,0-0.2,0-0.2-0.1L657-2386c0,2.9-0.2,5.3-0.6,7.1
			c-0.3,1.8-0.8,3.1-1.2,4c-0.5,0.9-1,1.3-1.5,1.2s-1-0.4-1.4-1.2L654.4-2433.5z"/>
	</g>
</g>
</svg>
