<?xml version="1.0" encoding="utf-8"?>
<!-- Generator: Adobe Illustrator 25.3.1, SVG Export Plug-In . SVG Version: 6.00 Build 0)  -->
<svg version="1.1" id="Ebene_1" xmlns="http://www.w3.org/2000/svg" xmlns:xlink="http://www.w3.org/1999/xlink" x="0px" y="0px"
	 viewBox="0 0 470 1026.7" style="enable-background:new 0 0 470 1026.7;" xml:space="preserve">
<style type="text/css">
	.st0{fill:none;}
	.st1{fill:#E9AF16;}
</style>
<g id="Gruppe_1" transform="translate(-1033.507)">
	<g id="Gruppe_4" transform="translate(1033.507)">
		<path id="Pfad_127" class="st0" d="M431.8,39.3c8.2,13.9,7.1,31.1-0.7,45c-0.4,0.7-0.1,1.7,0.6,2.1c0.7,0.4,1.6,0.1,2-0.5
			c7.4-13.1,9.7-30.3,2.9-44.2c-1.8-3.6-4.1-6.9-6-10.4c-2-3.6-3.8-7.3-5.3-11.2c-2.4-6.6-4.5-13.2-6.1-20H416
			c1.7,6.4,3.4,12.9,5.7,19.1C424.3,26.3,427.9,32.7,431.8,39.3z"/>
		<path id="Pfad_128" class="st0" d="M402.8,33.7c1.4,4.3,4,7.9,5,12.3c3.1,13.5-4.3,27.2-17.2,32c-1.8,0.7-1,3.7,0.8,3
			c15.9-5.8,24.1-23.5,18.3-39.4c-0.2-0.5-0.4-1-0.6-1.4c-1.4-3.3-3.6-6.4-4-10c-0.7-6,2.5-11.8,5.1-17.1c2-4.1,4-8.5,4.8-13h-3.1
			C409.7,11.5,398.7,21.5,402.8,33.7z"/>
		<path id="Pfad_129" class="st1" d="M190.9,1.3c-1.9,1.5-3.8,3-5.6,4.6c-1.2,1.1-2.4,2.2-3.5,3.3c0.8,0,1.4,0.7,1.3,1.5
			c0,2.4,0,4.8,0,7.2c0,1.2,0,2.5,0.1,3.8l0.3,0.1c0.3,0.4,0.8,0.7,1.3,0.6c-0.9,0-1.6-0.7-1.6-1.6c0-0.5,0.3-1,0.7-1.3
			c4-2.4,7.7-5.3,11-8.7c2.3-2.5,5-7.6,2.4-10.7h-4.7C192,0.5,191.4,1,190.9,1.3z"/>
		<path id="Pfad_131" class="st1" d="M145.9,50.6c0.2,0.6,0.3,1.2,0.3,1.9c0,0.1,0,0.1,0,0.2c0.2-1.2,0.3-2.4,0.4-3.6
			c0.1-1.7-0.2-3.4-0.9-4.9C145.5,46.3,145.6,48.5,145.9,50.6z"/>
		<path id="Pfad_132" class="st1" d="M136.3,22.6c2.4,2.4,2.6,6.1,2.3,9.6c-0.1,0.9-0.9,1.5-1.8,1.4c0,0-0.1,0-0.1,0
			c0.4,0.3,0.7,0.7,0.9,1.1c0.2,0.4,0.3,0.9,0.1,1.3c0.7-0.3,1.3-0.6,1.9-1.1c0.3-0.3,0.7-0.5,1.2-0.4c0.2-0.1,0.3-0.1,0.5-0.1
			c-0.1-0.8,0.3-1.5,1.1-1.7c0.8-0.2,1.7,0.3,1.9,1.1c0.1,0.6,0.2,1.2,0.3,1.8c0.2,0.1,0.4,0.2,0.7,0.3c-0.1-3.4,0.5-6.8,3-9
			c-1.4,0.1-2.7-0.3-3.9-1C141.8,24.4,139.1,23.3,136.3,22.6z"/>
		<path id="Pfad_133" class="st1" d="M134,70.6c0.6-0.6,1.2-1.1,1.8-1.7c3.5-3.1,6-7.2,7.2-11.8c0.2-1.2,0.3-2.5,0.3-3.7
			c-0.2-0.7-0.3-1.4-0.4-2.1c-0.1-0.2-0.2-0.4-0.4-0.5c-0.8-0.6-2.6,0-3.6,0.1c-2.1,0.2-3.7,0.3-4.2,2.6c-0.6,3.2,1.5,6.3,1.9,9.4
			c0.2,1.4,0.1,2.8-0.4,4.2C135.6,68.3,134.8,69.5,134,70.6z"/>
		<path id="Pfad_134" class="st1" d="M156,49.2c0.7-0.8,1.4-1.6,2.2-2.4c-0.3-0.3-0.6-0.6-0.8-1c0,0,0-0.1-0.1-0.2
			c-0.2,0-0.4-0.1-0.6-0.2c-1.3-0.7-2.8-0.7-4.2-1.4c-1.3-0.8-2.4-1.7-3.5-2.7c-0.3-0.2-0.6-0.4-0.9-0.6c-0.2,0.2-0.4,0.3-0.6,0.3
			c-0.1,0-0.2,0-0.2,0c1.7,1.8,2.4,4.6,2.4,7.1c0,1.7-0.1,3.5-0.4,5.2c0.5-0.2,1.1-0.4,1.6-0.6c1.1-0.4,2.2-1,3.1-1.8
			c-0.2-0.8,0.3-1.7,1.1-1.9C155.4,49,155.7,49.1,156,49.2z"/>
		<path id="Pfad_135" class="st1" d="M167.5,24.6c-0.5,1.7-0.5,3.5,0,5.2c0.2,0.9,0.6,1.7,1.2,2.4c0.1-0.3,0.1-0.7,0.2-1
			c0.3-1.9,0-3.8-0.8-5.5C168,25.2,167.8,24.9,167.5,24.6z"/>
		<path id="Pfad_136" class="st1" d="M130.3,41.4c-1.9,1.2-2.2,3.4-2.2,5.5c0,0.6,0.2,5.8,1.5,4.9c0.7-0.4,1.7-0.2,2.1,0.5
			c0.1,0.1,0.1,0.2,0.1,0.3c0.3-1.9,1.5-3.5,3.2-4.3c0.8-0.3,1.6-0.5,2.5-0.5c0.1-0.3,0.3-0.5,0.6-0.6c3.6-1.8,4-6,3.7-9.7
			c-0.1-0.1-0.3-0.1-0.4-0.2c-1.6,1.2-3.4,1.9-5.3,2.3C134,40.1,132,40.4,130.3,41.4z"/>
		<path id="Pfad_137" class="st1" d="M131.7,23.4c-2.6-0.7-5.4-1.1-8.1-1.3c1.6,1.7,3.3,3.2,4.3,5.4c0.4,1.2,0.7,2.5,0.7,3.8
			c1,0.1,2,0.2,3.1,0.3c1.4,0.1,2.7,0.5,4,1.1c-0.1-0.2-0.1-0.4-0.1-0.6C135.9,28.4,135.9,24.6,131.7,23.4z"/>
		<path id="Pfad_138" class="st1" d="M164.5,24c-0.5,0.1-1,0.3-1.4,0.4c-2.3,0.7-4.6,1.4-7,2.1c-2,0.6-4.2,1.1-5.8,2.4
			c-2.4,2-2.4,5.4-2,8.4c0.7,0.4,1.4,0.8,2,1.3c0.3,0.2,0.6,0.5,0.9,0.7c-0.4-1.1-0.8-2.2-1.2-3.4c-0.7-1.9,2.3-2.7,3-0.8
			c0.5,1.3,1,2.7,1.5,4c0.4,1.1,0.5,1.9,1.8,2.1c2.2,0.3,4.3-0.1,6.3-1c2.3-1.1,4.1-2.9,5.3-5.1c-0.7-0.4-1.3-0.8-1.7-1.5
			c-1.6-2.3-2.2-5.1-1.8-7.8C164.3,25.2,164.4,24.6,164.5,24z"/>
		<path id="Pfad_139" class="st1" d="M179.8,19.5c0.5-1.6,0.2-3.4-0.7-4.8c-0.7-1.1-0.7-1-1.7-0.3c-0.8,0.6-1.6,1.1-2.5,1.7
			c-0.3,0.3-0.8,0.3-1.2,0.2c-2,1.4-3.7,3.2-5,5.3c3,1.9,3.6,6.7,3.2,10.3c0.1,0.1,0.3,0.1,0.4,0.2c0.1,0,0.1,0,0.2,0
			c0.2-0.1,0.4-0.1,0.6-0.2l0,0l0,0c0.1,0,0.2-0.1,0.3-0.1c0.4-0.2,0.8-0.4,1.2-0.7c0.1-0.1,0.2-0.1,0.3-0.2l0.1-0.1
			c0.2-0.1,0.3-0.3,0.5-0.4c0.1-0.1,0.3-0.3,0.4-0.4c-0.5-0.4-0.7-1-0.5-1.6C176.3,25,178.9,22.6,179.8,19.5z"/>
		<path id="Pfad_140" class="st1" d="M145.7,74.2c-1.9-4-4.6,2-5.6,3.7c-0.8,1.3-1.6,2.7-3.1,3.2c-1.4,0.5-3.1,0.1-4.1-1
			c0.1,1.2,0.3,2.4,0.4,3.4c0.5,4.8,0.8,13.1,5,16.7c-0.4-1.2-0.6-2.5-0.8-3.7c-0.6-4.1,1.4-7.5,3.8-10.6
			C143.5,82.9,147.7,78.4,145.7,74.2z"/>
		<path id="Pfad_141" class="st1" d="M149.2,71.5c-0.9-3.6-3.2-5.6-5.1-8.6c-0.8,1.8-1.9,3.4-3.1,4.9c-1.3,1.5-2.7,2.9-4.2,4.2
			c-1.3,1.2-3.6,3.4-2.3,5.3c1.6,2.3,3.7-2.5,4.4-3.7c0.8-1.3,1.5-3,2.9-3.7c2.6-1.4,5.5,0.7,6.6,3.1c2.8,6.1-2.7,11.5-5.8,16.1
			c-1.2,1.5-1.9,3.2-2.2,5.1c-0.2,2,0.5,3.9,1.1,5.8c1.4,4.1,2.7,8.3,4.1,12.4c0.1,0.5,0.3,1,0.6,1.5c0.3,0.3,1.6,0.9,2.1,0.4
			c0.6-0.5,0.3-2.2,0.3-2.9c-0.1-1.9-0.4-3.8-0.5-5.8c-0.2-4.3-0.2-8.7,0.2-13C148.9,85.8,150.9,78.4,149.2,71.5z"/>
		<path id="Pfad_142" class="st1" d="M115.5,19.6c-2.6,1-7.3,4.5-4.1,7.2c2.4,2,6.4,2.6,9.4,3.3c1.6,0.3,3.1,0.6,4.7,0.8
			c-0.3-1.8-1.2-3.5-2.5-4.9c-1.6-1.5-3-3.2-4.2-5c-0.5-0.9,0.1-2.4,1.3-2.3c2.4,0.3,4.9,0.6,7.3,0.9
			C123.5,18.5,119.4,18.1,115.5,19.6z"/>
	</g>
	<g id="Gruppe_5" transform="translate(1097.296 110.956)">
		<path id="Pfad_144" class="st0" d="M74.3,655.7c-2.2-0.1-4.2,1.1-5.1,3.1c-0.8,1.8-0.8,3.8-0.1,5.6c-0.8,0-1.5,0.7-1.5,1.5
			c0,0.8,0.7,1.5,1.5,1.5c2.6,0.1,5.6-0.1,7.7-1.7c2-1.5,3.4-4.1,2.5-6.6C78.5,657.1,76.5,655.8,74.3,655.7z M76.5,661.1
			c0,0.2-0.1,0.3-0.1,0.5c0,0.1-0.1,0.2-0.1,0.2c0.1-0.3,0,0-0.1,0.1c-0.1,0.2-0.2,0.3-0.3,0.5c0,0-0.1,0.1-0.1,0.1
			c0,0.1-0.1,0.1-0.1,0.2c-0.2,0.2-0.3,0.3-0.5,0.5c0,0,0,0,0,0c0,0,0,0-0.1,0c-0.1,0.1-0.2,0.1-0.3,0.2c-0.1,0.1-0.2,0.1-0.3,0.2
			c0,0-0.2,0.1-0.3,0.1c-0.5,0.2-1,0.4-1.6,0.5l-0.1,0c0-0.1-0.1-0.2-0.1-0.2c0,0,0,0,0,0l0,0c0-0.1-0.1-0.1-0.1-0.2
			c-0.1-0.2-0.2-0.3-0.3-0.5c0,0,0,0,0,0c0,0,0,0,0,0c0-0.1-0.1-0.1-0.1-0.2c-0.1-0.2-0.1-0.4-0.2-0.7c0,0,0-0.2,0-0.2l0-0.1
			c0-0.2,0-0.4,0-0.6c0-0.1,0-0.2,0-0.2c0,0,0,0,0,0v0c0-0.2,0.1-0.4,0.1-0.6c0-0.1,0.1-0.2,0.1-0.3v0c0.1-0.2,0.2-0.3,0.3-0.5
			c0-0.1,0.1-0.1,0.1-0.2c0,0,0-0.1,0.1-0.1c0.1-0.1,0.3-0.3,0.4-0.4c0,0,0,0,0.1,0c0.1,0,0.1-0.1,0.2-0.1c0,0,0.1,0,0.1-0.1l0.1,0
			c0.2,0,0.3-0.1,0.5-0.1c0.1,0,0.3,0,0.1,0c-0.3,0,0.1,0,0.2,0c0.2,0,0.3,0,0.5,0l0.1,0c0,0,0.1,0,0.1,0l0,0c0.2,0,0.3,0.1,0.5,0.1
			c0.1,0,0.1,0,0.2,0.1c0,0,0,0,0,0c0,0,0,0,0,0c0.1,0.1,0.3,0.1,0.4,0.2c0.1,0,0.1,0,0.1,0.1l0.1,0.1c0.1,0.1,0.2,0.2,0.3,0.3
			c0,0,0,0,0,0c0,0.1,0.1,0.2,0.2,0.3c0,0.1,0.1,0.3,0.1,0.1c0-0.2,0,0,0,0.1c0,0.1,0,0.2,0.1,0.3c0,0,0,0.1,0,0.1
			C76.5,660.7,76.5,660.9,76.5,661.1L76.5,661.1z"/>
		<path id="Pfad_145" class="st0" d="M71.6,548.9c1.2-2.5,0.3-5.4-1.9-6.9c-2.4-1.5-5.4-1.4-7.7,0.1c-2.2,1.5-3.7,4.2-2.5,6.8
			c1,2.2,3.6,3.1,5.8,2.1c0.1,0,0.1-0.1,0.2-0.1C67.7,552,70.4,551.1,71.6,548.9z M63.9,548.3L63.9,548.3L63.9,548.3
			C63.9,548.3,63.9,548.3,63.9,548.3l-0.1,0.1h0c0,0,0,0-0.1,0c-0.1,0-0.1,0-0.2,0c-0.1,0-0.2,0-0.3-0.1l0,0c0,0-0.1,0-0.1,0
			c-0.1-0.1-0.2-0.1-0.4-0.2c0,0-0.2-0.1-0.2-0.2c0,0-0.1-0.1-0.1-0.1c0,0,0-0.1-0.1-0.1l-0.1-0.2v0c0-0.1-0.1-0.5-0.1-0.2
			c0-0.2,0-0.3,0-0.5c0,0,0,0,0-0.1c0-0.1,0.1-0.3,0.1-0.4c0,0,0,0,0-0.1c0-0.1,0.1-0.1,0.1-0.2c0.1-0.2,0.2-0.3,0.3-0.5
			c0,0,0-0.1,0.1-0.1c0.1-0.1,0.1-0.1,0.2-0.2c0.2-0.2,0.3-0.3,0.5-0.5l0.1-0.1c0.1,0,0.2-0.1,0.2-0.2c0.2-0.1,0.3-0.2,0.5-0.2
			l0.2-0.1c0.1,0,0.2-0.1,0.3-0.1c0.2-0.1,0.5-0.1,0.7-0.2l0.1,0c0,0,0,0,0.1,0c0.1,0,0.2,0,0.3,0c0.2,0,0.4,0,0.6,0h0l0,0
			c0.1,0,0.3,0,0.4,0.1c0.1,0,0.2,0.1,0.3,0.1c0,0,0.2,0.1,0.3,0.1l0.2,0.1c0.1,0,0.2,0.1,0.3,0.2c0,0,0.1,0.1,0.2,0.1
			c0,0,0.1,0.1,0.1,0.1c0.1,0.1,0.2,0.2,0.4,0.4l0,0.1c0.1,0.1,0.1,0.2,0.2,0.4c0,0.1,0.1,0.1,0.1,0.2l0,0.1
			c0.1,0.2,0.1,0.4,0.1,0.5v0c0,0.1,0,0.2,0,0.3s0,0.2,0,0.3c0,0,0,0,0,0.1c0,0,0,0,0,0.1l-0.1,0.3c0,0,0,0,0,0.1c0,0,0,0,0,0
			c0,0.1-0.1,0.1-0.1,0.2c0,0,0,0,0,0h0c-0.1,0.1-0.1,0.1-0.2,0.2c0,0-0.1,0.1-0.2,0.2c0,0-0.1,0-0.1,0.1c-0.1,0.1-0.2,0.1-0.3,0.2
			l0,0c-0.1,0-0.2,0.1-0.3,0.1c-0.1,0-0.2,0-0.2,0.1c0.3-0.1,0,0-0.1,0c-0.1,0-0.2,0-0.2,0c0,0,0,0,0,0c0,0,0,0,0,0c0,0-0.1,0-0.1,0
			l-0.1,0c0,0,0.1,0,0.1,0c0,0-0.1,0-0.2-0.1c-0.4-0.2-0.8-0.2-1.2-0.1C65,547.8,64.3,547.9,63.9,548.3z"/>
		<path id="Pfad_146" class="st0" d="M78.5,603.2c0.8-1.2,1.1-2.5,1.1-3.9c-0.1-2.6-1.3-5.1-3.2-6.8c-2.2-2.1-5.3-3-8.3-2.4
			c-0.8,0.2-1.3,1.1-1.1,1.9s1.1,1.3,1.9,1.1l0,0c0.4-0.1,0.8-0.1,1.2-0.1c0.4,0,0.8,0,1.2,0.2c0.9,0.2,1.7,0.6,2.4,1.1
			c0.3,0.2,0.6,0.5,0.9,0.7c0.3,0.3,0.6,0.6,0.8,1c0.5,0.7,0.9,1.5,1.1,2.4c0,0.1,0.1,0.6,0.1,0.4c0,0.2,0,0.5,0,0.7
			c0,0.2,0,0.5,0,0.7c0-0.1,0.1-0.2,0,0.1c0,0.2-0.1,0.3-0.1,0.5c0,0.1-0.1,0.2-0.1,0.3c0-0.1,0.1-0.2,0,0.1c0,0-0.3,0.5-0.2,0.4
			c-0.1,0.1-0.2,0.2-0.3,0.3l0,0c0,0,0,0-0.1,0c-0.1,0,0,0,0,0c0,0-0.1,0-0.2,0c-0.1,0-0.2,0-0.3,0c-1.1,0-2.2-0.2-3.2-0.6
			c-1.1-0.2-2.1-0.6-3-1.2c-0.4-0.3-0.7-0.6-1-0.9c-0.1-0.2-0.3-0.4-0.4-0.6c-0.1-0.1-0.1-0.2-0.1-0.3s0-0.1,0,0
			c0-0.1-0.1-0.2-0.1-0.2c0-0.1-0.1-0.2-0.1-0.3c0,0-0.1-0.3-0.1-0.3s0-0.2,0-0.2c0-0.2,0-0.3,0-0.5c0,0,0,0,0,0l0,0
			c0-0.2,0.1-0.3,0.1-0.4l0,0l0,0c0.1-0.2,0.2-0.3,0.3-0.5c0.4-0.7,0.2-1.7-0.6-2.1c-0.7-0.4-1.7-0.2-2.1,0.5
			c-1.6,2.3-0.8,5.6,1.1,7.5c2.1,2.1,5.4,2.9,8.2,3.2C75.9,605.2,77.6,604.6,78.5,603.2z"/>
		<path id="Pfad_147" class="st0" d="M89.6,828.9c-3.4,0.5-7.3,0.2-9.5-2.8c-0.9-1.1-1.2-2.6-0.8-3.9c0.7-2,2.8-1.5,4.5-1.4
			c4,0.2,8,0,12-0.7c0.5-0.1,0.9-0.5,1.1-1.1c0.6-3.9-3.7-4.8-6.7-5l-14.7-0.7c-2-0.1-2,3,0,3.1l11,0.5c2.1,0,4.2,0.1,6.3,0.5
			c-1.8,0.2-3.6,0.4-5.4,0.4c-1.3,0-2.7,0-4-0.1c-1.1-0.2-2.2-0.2-3.3,0c-4.1,1-4.8,6.1-2.9,9.3c2.1,3.7,6.4,5.3,10.5,5.1
			c5.1-0.1,10.2-1.9,15.1-3.1c1.9-0.5,1.1-3.4-0.8-3C97.7,827,93.7,828.3,89.6,828.9z"/>
		<path id="Pfad_148" class="st0" d="M122.5,834.6c-0.4,0-2.2,1-2.4,1c-0.9-0.4,0.5-8.5,0.7-9.7c0.3-1.9-2.6-2.8-3-0.8
			c-0.5,2.9-0.8,5.9-0.9,8.9c0,1.7-0.2,4.1,1.9,4.8c0.8,0.2,1.6,0.1,2.3-0.3c0.5-0.2,0.9-0.6,1.5-0.6c1.2,0,0.8,1.7,0.7,2.6
			c-0.3,3-0.8,5.9-1.5,8.8c-0.8,2.8-5.2,2.6-7.5,3c-2,0.3-4.9,0.3-5.8,2.4c-1,2.2,0.1,5.1,0.7,7.3c0.8,2.8,1.5,5.7-0.4,8.1
			c-1.2,1.6,1.5,3.1,2.6,1.5c1.4-1.9,1.9-4.3,1.6-6.6c-0.2-1.3-0.5-2.6-0.9-3.9c-0.3-1.1-1.5-3.8-0.8-4.8c0.7-1,2.9-0.9,4.1-1.1
			c1.5-0.2,3.1-0.4,4.6-0.8c2-0.4,3.7-1.8,4.5-3.7c1-2.7,1.1-5.8,1.5-8.6c0.3-2.2,0.8-4.7-0.9-6.5
			C124.5,835,123.5,834.6,122.5,834.6z"/>
		<path id="Pfad_149" class="st0" d="M67.8,791.3c-2.4-0.5-4.8,0.3-7.2,0.7c-2.9,0.5-5.8-0.4-8-2.4c-0.6-0.6-1.6-0.6-2.2,0.1
			c-0.3,0.3-0.4,0.6-0.4,1c-0.2,3.3,1.4,6.1,3.2,8.8c2.1,2.9,3.8,6.2,5,9.6c2.2,6.6,2.4,13.8,0.4,20.5c-0.2,0-0.3,0-0.5,0
			c-3.1,0.6-6.3,0.8-9.4,0.8c1.6-1.4,3.1-2.8,4.5-4.4c0.6-0.6,0.6-1.6,0-2.2c-0.6-0.6-1.6-0.6-2.2,0c-2.1,2.5-4.6,4.8-7.3,6.6
			c-0.7,0.5-0.9,1.4-0.5,2.1c0.3,0.4,0.7,0.7,1.3,0.7c4.8,0.4,9.7,0.2,14.5-0.7c0.3-0.1,0.6-0.3,0.8-0.6c0.7,0.2,1.5-0.3,1.7-1
			c2.1-6.8,2.2-14,0.3-20.8c-0.9-3.3-2.3-6.5-4.1-9.5c-1.3-2.2-3.2-4.3-4.1-6.7c2.1,1,4.4,1.5,6.8,1.2c2-0.2,4-1,6-0.9
			c1.5,0.1,4.3,1.5,3,3.4c-1.1,1.6,1.5,3.2,2.6,1.5C74.3,795.9,71.2,792,67.8,791.3z"/>
		<path id="Pfad_150" class="st1" d="M99.6,724.2c-0.3,0-0.6-0.1-0.8-0.3c0,0-0.1,0-0.1,0.1c-0.8,5.7-1.1,11.4-0.9,17.1
			c0.2,5.4,0.2,12.9,4.6,16.9c0.5,0.4,0.6,1.2,0.3,1.7c0.4,0.2,0.8,0.4,1.1,0.6c1.6,0.7,3.1,1.6,4.5,2.7l6.1-16
			c-3,3.3-4.8,7.5-4.9,12c0,2-3.1,2-3.1,0c0.2-6.8,3.7-14.1,10-17.3c5.7-2.9,12-1.9,18-0.2C125.7,731.1,113.1,724.9,99.6,724.2z"/>
		<path id="Pfad_151" class="st1" d="M113.4,28.5c-0.3-2.5-3.1-3-5-3.9c-1.6-0.8-3.2-1.7-4.7-2.7c-3.1-2.2-5.8-4.9-8.1-8
			c-2.5-3.3-5.2-7.3-9.5-8.4c-1.9-0.6-4-0.1-5.3,1.4c-1.1,1.3-1.6,3.3-0.5,4.6c1,1.2-0.3,3.5-1.9,2.4L67.6,6.4
			c-1.3-0.9-4.4-3.9-6-3.2c-2.7,1.3,2,3.4,3.2,3.8c1.9,0.6,1.1,3.6-0.8,3c-2.4-0.8-5.2-1.9-6-4.6c-0.3-0.9-0.3-1.9,0-2.8
			c-2.5,1-5.7-0.3-8.1,1.3c-2.1,1.4-2.7,4.2-1.3,6.3c0.4,0.6,0.9,1.1,1.5,1.4c0.6,0.2,1.2,0.4,1.8,0.8c0.7,0.5,0.9,1.4,0.5,2.1
			c-0.4,0.6-1,0.8-1.7,0.7c-0.6-0.2-1.2-0.4-1.8-0.7c-2.5-0.5-5,1.4-6.4,3.5c-1.1,1.3-1.8,3-1.9,4.7c0.1,1.2,0.8,2.6,2.1,2.8
			c1.5,0.1,3.1-0.9,4.6-1.2c1.4-0.3,2.9-0.4,4.4-0.3c3.1,0.2,6,1.3,8.5,3.1c1.6,1.2,0,3.8-1.5,2.7c-3.2-2.5-7.4-3.3-11.4-2.3
			c-1.8,0.5-3.6,1.5-5.5,1c-1.7-0.5-3.1-1.7-3.7-3.4c-1.6-3.7,0.8-7.9,3.4-10.6c1.2-1.3,2.8-2.2,4.5-2.7c-1.5-2.3-1.5-5.2-0.2-7.6
			C46.8,1.7,49,0.3,51.3,0h0c-2.4,0.3-4.5,1.7-5.7,3.8c-1.4,2.4-1.3,5.3,0.2,7.6c-1.7,0.5-3.3,1.5-4.5,2.7c-0.2,0.2-0.4,0.5-0.6,0.7
			l-1.5,0c0.4,0.7,0.2,1.7-0.5,2.1c-0.7,0.4-1.7,0.2-2.1-0.6c-0.8-1.1-1.7-2.1-2.9-2.9c-0.2-0.1-0.3-0.2-0.5-0.2
			c0,0-0.2-0.1-0.2-0.1c-0.1,0-0.2-0.1-0.3-0.1c0,0-0.3,0-0.3,0c-0.1,0-0.3,0-0.4,0c-0.1,0-0.1,0-0.2,0c-0.2,0-0.3,0.1-0.5,0.1l0,0
			c0,0-0.1,0-0.1,0.1c-0.1,0.1-0.2,0.1-0.3,0.2c-0.1,0-0.1,0.1-0.2,0.1c0,0-0.1,0.1-0.1,0.1l0,0c0,0-0.1,0.1-0.1,0.2
			c0,0.1,0,0.1-0.1,0.2c0,0,0,0.5,0,0.3c0.1,0.4,0.2,0.7,0.3,1c0.7,1.8,1.6,3.6,2.4,5.3c0.4,0.7,0.2,1.7-0.6,2.1
			c-0.5,0.2-1,0.2-1.5,0c0.2,0.5,0.5,0.9,0.8,1.4c0.4,0.7,0.2,1.7-0.6,2.1c-0.7,0.4-1.7,0.2-2.1-0.6c-1.1-1.9-2.1-4-2.9-6.1
			c-0.6-1.6-1.7-2.9-3.1-3.8c-0.3-0.2-0.7-0.3-1-0.4c-0.3-0.1-0.6-0.1-0.9-0.2c-0.3,0-0.6,0-0.9,0.1c-0.2,0.1-0.4,0.1-0.6,0.3
			l-0.1,0c0.1,0.1,0.1,0.2,0.1,0.2c0.3,0.5,0.5,1.1,0.8,1.6c0.5,1,1.1,2.1,1.6,3.1c1.1,2.1,2.2,4.3,3.3,6.4c0.9,1.7-1.7,3.3-2.6,1.5
			c-0.1-0.1-0.1-0.3-0.2-0.4c-0.1,0-0.2-0.1-0.4-0.1c-2.2-1.1-4.8-2.6-7.3-3c-1.8-0.3-2.4,0-2.6,1.7c0,0.8,0,1.6,0,2.5
			c0,2-0.8,6.8,1.8,7.5c1.2,0.3,2.2-0.8,3-1.5c2.6-2.5,5.9-7.2,10-4.2c1.9,1.4,2.1,3.9,2.3,6.1c0.1,1.3,0.1,3,0.8,4.1
			c1,1.6,2.9,1.5,4.6,1.4c3.2-0.2,6.2-0.9,9.3,0.4c2.8,1.3,5.1,3.4,6.8,6c3.7,5.2,7.3,17.1,15.9,14.1c1.9-0.6,2.7,2.3,0.8,3
			c-0.5,0.2-1,0.3-1.4,0.4c1.7-0.3,3.3-0.5,5-0.8c0.8-0.2,1.6,0.3,1.9,1.1c1.2,3.6,2.4,7.2,3.6,10.9c1.6-0.4,3-1.1,4.2-2.2
			c1.2-1.2,1.9-3.5,0.4-4.7c-1.4-1.1-3.8,0-5.4-1.2c-1-0.7-1.6-1.8-1.5-3c0-0.7,0.5-1.3,1.1-1.5c0.2-0.1,0.4-0.2,0.7-0.2
			c-0.3-0.3-0.4-0.6-0.4-1c0.5-5.2-0.1-10.5-1.8-15.5c-0.1-0.3-0.1-0.6,0-0.9c-1.2-1.2-2.3-2.5-3.3-3.9c-3.6-4.8-6.5-10-9.5-15.1
			c-1-1.7,1.6-3.2,2.6-1.5c2.9,4.8,5.6,9.7,8.9,14.2c2.7,3.8,6.1,7.4,10.7,9c1.9,0.6,1.1,3.6-0.8,3c-1.7-0.6-3.3-1.4-4.8-2.4
			c1.1,4.3,1.4,8.8,1,13.2l0,0c4.5-1.8,8.7-4.4,12.3-7.7c0.6-0.6,1.6-0.6,2.2,0.1c0.2,0.2,0.3,0.4,0.4,0.6c1.7,4.5,1.2,9.5-1.4,13.5
			c1.7-0.2,3.4-0.5,5.1-0.9c2.1-0.5,5.1-1.1,6.9-2.4c2.5-1.8,0.6-5.4-1.1-7c-1.7-1.6-4.1-2.4-6.5-2.1c-0.1,0-0.3,0-0.4,0.1
			c-1.7,0.2-2.1-2.7-0.4-3c0.1,0,0.3,0,0.4,0v0c5.2-0.5,10.3-1.5,15.3-2.7c0.3-0.7,0.6-1.4,0.7-2.1c0.4-3.6-0.7-7.3-0.8-10.9
			c0-1.8,0.2-3.6,0.7-5.3C112.7,32.2,113.6,30.3,113.4,28.5z M62.1,17.8c-0.2,0.8-1.1,1.3-1.9,1.1L54.2,17c-0.8-0.2-1.3-1.1-1.1-1.9
			c0.2-0.8,1.1-1.3,1.9-1.1l6.1,1.9C61.9,16.2,62.3,17,62.1,17.8z"/>
		<path id="Pfad_152" class="st1" d="M66.8,548.2c0.1,0.1,0.2,0.1,0.2,0.1c0,0,0.1,0,0.1,0c0,0,0,0,0,0c0,0,0,0,0,0
			c0.1,0,0.2,0,0.2,0c0.1,0,0.4-0.1,0.1,0c0.1,0,0.2,0,0.2-0.1c0.1,0,0.2-0.1,0.3-0.1l0,0c0.1-0.1,0.2-0.1,0.3-0.2c0,0,0,0,0.1-0.1
			c0,0,0.2-0.2,0.2-0.2c0.1-0.1,0.1-0.1,0.2-0.2h0c0,0,0,0,0,0c0-0.1,0.1-0.1,0.1-0.2c0,0,0,0,0,0c0,0,0,0,0-0.1l0.1-0.3
			c0,0,0,0,0-0.1c0,0,0,0,0-0.1c0-0.1,0-0.2,0-0.3c0-0.1,0-0.2,0-0.3v0c0-0.2-0.1-0.4-0.1-0.5l0-0.1c0-0.1-0.1-0.1-0.1-0.2
			c-0.1-0.1-0.1-0.2-0.2-0.4l0-0.1c-0.1-0.1-0.2-0.3-0.4-0.4c0,0-0.1-0.1-0.1-0.1c0,0-0.1-0.1-0.2-0.1c-0.1-0.1-0.2-0.1-0.3-0.2
			l-0.2-0.1c-0.1,0-0.2-0.1-0.3-0.1c-0.1,0-0.2-0.1-0.3-0.1c-0.1,0-0.3-0.1-0.4-0.1l0,0h0c-0.2,0-0.4,0-0.6,0c-0.1,0-0.2,0-0.3,0
			c-0.1,0-0.1,0-0.1,0l-0.1,0c-0.2,0-0.5,0.1-0.7,0.2c-0.1,0-0.2,0.1-0.3,0.1l-0.2,0.1c-0.2,0.1-0.3,0.2-0.5,0.2
			c-0.1,0-0.2,0.1-0.2,0.2l-0.1,0.1c-0.2,0.1-0.3,0.3-0.5,0.5c-0.1,0.1-0.1,0.1-0.2,0.2c0,0,0,0-0.1,0.1c-0.1,0.1-0.2,0.3-0.3,0.5
			c0,0.1-0.1,0.1-0.1,0.2c0,0,0,0.1,0,0.1c0,0.1-0.1,0.3-0.1,0.4c0,0,0,0,0,0.1c0,0.2,0,0.3,0,0.5c0-0.3,0,0.1,0.1,0.2v0l0.1,0.2
			c0,0,0,0.1,0.1,0.1c0,0,0.1,0.1,0.1,0.1c0.1,0.1,0.2,0.2,0.2,0.2c0.1,0.1,0.2,0.2,0.4,0.2c0,0,0.1,0,0.1,0l0,0
			c0.1,0,0.2,0,0.3,0.1c0.1,0,0.1,0,0.2,0c0.1,0,0.1,0,0.1,0h0l0,0c0.1-0.1,0.1-0.1,0.1,0l0,0l0,0c0.5-0.4,1.2-0.5,1.8-0.3
			C66,548,66.4,548,66.8,548.2z"/>
		<path id="Pfad_153" class="st1" d="M67,548.3c0,0-0.1,0-0.1,0L67,548.3z"/>
		<path id="Pfad_154" class="st1" d="M195.4,542.6c-6.6-11.4-12.7-23.4-20.6-33.9c-3.6-4.9-7.9-9.3-12.7-13.1
			c-1.3-1-2.6-1.8-3.9-2.7c-0.1-0.1-0.3-0.2-0.4-0.3c-0.1,0.1-0.2,0.3-0.4,0.4c-0.7,0.6-1.7,0.5-2.2-0.2c-0.2-0.2-0.3-0.5-0.4-0.8
			c-0.1,0-0.1,0-0.2,0.1c-0.5,0.4-1,0.9-1.4,1.5c-2.1,2.3-4,4.7-5.8,7.3c-7.4,10.6-12,22.8-13.5,35.6c0.5,0,0.9,0.3,1.1,0.7
			c6.2,12.1,12.1,24.3,17.5,36.8c3.3,7.5,6.4,15.1,9.4,22.8c0.3-1.6,3-1.6,3,0.3c0,1.6,2.4,0.3,2.9-0.1c1-0.9,2-1.9,3-3
			c1.9-2.1,3.9-4.1,6.1-6c2.1-1.9,4.7-3.2,7.5-3.8c2.8-0.4,6.1,1.4,5.2,4.6c-0.3,0.8-1.1,1.3-1.9,1c-0.8-0.2-1.2-1-1-1.8
			c0.4-1.4-2.6-0.6-3.2-0.4c-1.3,0.5-2.4,1.1-3.5,1.9c-2.2,1.7-4.2,3.5-6,5.6c-1.8,2-3.8,4.6-6.5,5.5c-1.5,0.5-3.1,0.1-4.2-0.9
			c1,2.6,2,5.2,3,7.8c1.1,2.9,2.1,5.7,3.1,8.6c0.8,2,0.9,4.1,0.3,6.2c-0.8,2.4-2.6,4.5-3.8,6.8c-1.3,2.4-2.4,4.8-3.3,7.4
			c-3.6,9.9-5.3,20.5-9.4,30.3c-2.3,5.4-5.2,10.5-6,16.4c-1,6.4,0.1,12.9,1.1,19.3c0.3,1.9-2.4,2.7-2.9,1c-0.8-0.4-1.1-1.3-0.7-2.1
			c0.5-1.2-5.5-4.2-6.4-5.1c-1.7-1.9-2.8-4.2-3.2-6.7c-1.4-6.3-0.9-12.9-5.5-17.9c-2.2-2.4-5.6-3.6-6.9-6.7c-1.4-3.3-0.6-7.5-0.5-11
			c0.2-8.1,0.4-16.2,0.6-24.3c-3.9,1.1-7.8,1.7-11.9,1.7c-0.8,0-1.5-0.7-1.5-1.5c0.9-7.1,5.8-12,10.1-17.4c4-5.1,7.5-13.6,1.2-18.3
			c-2.6-2-3.8-4.1-2.6-7.4c1.5-3.9,3.2-7.7,5.2-11.3c3.9-7.8,8.2-15.3,13.1-22.6c0.2-0.4,0.6-0.6,1.1-0.7c-1.8-6.6-6-11.2-12.1-14.8
			c-2.9-1.7-6-3.2-8.8-5.1s-5.3-4.2-8-6.2c-3.1-2.3-6.3-4-10.2-4.2c-4-0.2-8,0.9-11.9,1.9c-7.9,2.1-15.8,4.3-23.6,6.7
			c-15.6,4.8-31,10.3-46.2,16.5c-1.8,0.7-2.6-2.2-0.8-3c2.4-1,4.8-1.9,7.1-2.8c-0.2-0.2-0.3-0.5-0.2-0.8c1.1-25.7,2.3-51.4,3.4-77
			c1.9-43.7,2.3-88.2,12.2-131c4.8-20.8,13-40.8,16.3-62c1.6-10.4,0.7-21.1,3-31.4c0.7-3.1,1.7-6.2,2.8-9.1
			c1.8-12.2,3.1-24.5,3.9-36.8c0.7-10.9,0.9-21.9,0.8-32.9c-0.1-5.3-0.3-10.6-0.5-15.9c-0.3-5.4-1-10.8-1.2-16.2
			c-0.1-2.2,0.8-4.7,2.8-5.3c-2,0.5-2.9,3.1-2.8,5.3c0.2,5.4,0.9,10.8,1.2,16.2c0.3,5.3,0.5,10.6,0.5,15.9c0.2,11-0.1,21.9-0.8,32.9
			c-0.8,12.3-2.1,24.6-3.9,36.8c-1.2,3-2.1,6-2.8,9.1c-2.3,10.3-1.4,21-3,31.4c-3.3,21.2-11.5,41.2-16.3,62
			c-9.9,42.8-10.3,87.3-12.2,131c-1.1,25.7-2.3,51.4-3.4,77c0,0,0,0.1,0,0.1l-2.3,1.7c-1.5,0.6-3.1,1.2-4.6,1.8
			c-0.8,0.4-1.2,1.3-0.9,2.2l-0.5,0.4c0.7,0.1,1.2,0.7,1.1,1.3c0,0,0,0.1,0,0.1c-0.5,5-0.6,10-0.6,15.1c0.2,0.3,0.2,0.7,0.1,1
			l-0.1,0.3c0.1,8.7,0.7,17.5,1.3,26.2c1,12.3,1.3,24.6,1.1,36.9c-0.2,6.1-0.4,12.3,0.6,18.3c1,5.9,3.4,11.1,6.2,16.3
			c11,20.7,14.6,43.6,17.8,66.6c0.1,0.4-0.1,0.9-0.3,1.2c3.5-0.1,7.1,0,10.2,1.6c4.3,2.2,6.9,7.3,4.7,11.9c-0.1,0.1-0.2,0.2-0.3,0.3
			c1.6-1,3.5-1.3,5.4-1c3,0.7,5.9,1.7,8.7,2.8c3,1.1,6,2.2,9,3.4c5.6,2.3,11.2,4.7,16.7,7.3c0.8,0.4,1.7,0.8,2.5,1.2
			c-2.6-4.3-3-10-3.3-14.8c-0.4-6.6-0.1-13.2,1-19.7c-4.5-2.3-9.5-3.5-14.6-3.5c-1.4,0-2.8,0.1-4.2,0.3c-1.4,0.3-1.9,1.1-2.8,2.1
			c-1.2,1.3-2.8,2.1-4.6,2.3c-2.2,0.3-4.5,0-6.7,0c-2.7,0-4.6,1-6.7,2.6c-3.8,2.7-7.7,3.8-12.1,1.7c-1.8-0.8-0.2-3.5,1.5-2.6
			c6,2.8,9-3.4,14.3-4.4c4.2-0.8,9.2,1.4,12.5-2.2c2-2.3,5.1-2.9,8.1-2.9c0.2-0.2,0.4-0.3,0.6-0.4c4.1-1.5,8-3.6,11.6-6.1
			c3.5-2.6,2.7-8.5,2-12.3c-1.3-7.6-4.6-14.7-5.9-22.4c-1.1-6.7-0.1-13,1.6-19.4c1.8-6.7,4.2-13.8,2.6-20.8
			c-0.9-3.8-2.8-7.2-4.1-10.8c-1-2.7-1.6-5.4-1.9-8.2c-0.7-6.3,0.1-12.6,1-18.9c1.1-6.6,2.5-13.2,2.9-19.9
			c0.3-6.8-0.9-13.6-3.7-19.9c-2.4-5.9-3.3-11.4-0.3-17.3c2.7-5.2,7.3-9.5,8.3-15.5c0.3-1.9,3.3-1.1,3,0.8c-1.1,6.7-6.4,11.2-9,17.2
			c-3.5,8,2.6,15.5,4.2,23.2c2.6,13.4-2.1,26.7-3.3,39.9c-0.6,6.7-0.1,13.2,2.5,19.4c1.5,3.5,3.2,7,3.8,10.8c0.4,3,0.4,6.1-0.1,9.1
			c-1.1,7.2-4.1,14.1-4.8,21.4c-0.7,7.4,1.8,14.4,4,21.3c1.9,6.2,4.1,13.5,2.4,20c-0.9,3.4-3.6,5-6.5,6.7c-1.5,0.9-3.1,1.7-4.7,2.5
			c3.4,0.5,6.7,1.5,9.8,3c0.6-1.6,3.2-0.8,2.9,1.1c0,0.1,0,0.3-0.1,0.4c0.2-0.1,0.3-0.1,0.5-0.1c13.3,0.6,25.8,6.3,34.9,15.9
			c1.2,1.3,2.2,2.7,3.5,3.9c1.8,1.8,3.8,2.2,6.3,2.3c3.3,0.3,6.7,0.4,10,0.3c7.4-0.3,14.2-2.4,19.1-8.2c4.1-4.8,6.7-10.9,9.5-16.5
			c3.4-6.8,6.8-13.6,10.3-20.4c3.4-6.8,6.8-13.6,10.3-20.4c3.1-6.3,7.1-12.6,8.6-19.5c1.5-6.6,0.6-13.6,1.8-20.3
			c1.1-6.3,3.4-12.2,5.4-18.3c2.1-6.3,4.2-12.7,4.2-19.4c0-7.1-2.7-13.5-6.1-19.6C210.3,568.1,202.7,555.4,195.4,542.6z M59.4,548.9
			c-1.2-2.6,0.4-5.3,2.5-6.8c2.3-1.6,5.3-1.6,7.7-0.1c2.3,1.5,3.1,4.5,1.9,6.9c-1.2,2.2-3.9,3.1-6.2,2c-2.1,1.1-4.8,0.3-5.9-1.8
			C59.5,549,59.5,549,59.4,548.9L59.4,548.9z M66.1,601.7c-1.9-1.9-2.7-5.2-1.1-7.5c0.4-0.7,1.4-1,2.1-0.5c0.7,0.4,1,1.4,0.6,2.1
			c-0.1,0.1-0.2,0.3-0.3,0.5l0,0l0,0c0,0.1-0.1,0.3-0.1,0.4l0,0c0,0,0,0,0,0c0,0.2,0,0.3,0,0.5c0,0,0,0.1,0,0.2s0.1,0.3,0.1,0.3
			c0,0.1,0.1,0.2,0.1,0.3c0,0.1,0.1,0.2,0.1,0.2c0-0.1,0-0.1,0,0s0.1,0.2,0.1,0.3c0.1,0.2,0.2,0.4,0.4,0.6c0.3,0.4,0.6,0.7,1,0.9
			c0.9,0.6,1.9,1,3,1.2c1,0.3,2.1,0.5,3.2,0.6c0.1,0,0.2,0,0.3,0c0.1,0,0.1,0,0.2,0c0,0-0.1,0,0,0c0,0,0,0,0.1,0l0,0
			c0.1-0.1,0.2-0.2,0.3-0.3c-0.1,0.1,0.2-0.3,0.2-0.4c0.2-0.3,0.1-0.2,0-0.1c0-0.1,0.1-0.2,0.1-0.3c0-0.2,0.1-0.3,0.1-0.5
			c0.1-0.3,0-0.2,0-0.1c0-0.2,0-0.5,0-0.7c0-0.2,0-0.5,0-0.7c0,0.2-0.1-0.3-0.1-0.4c-0.2-0.9-0.5-1.7-1.1-2.4
			c-0.2-0.4-0.5-0.7-0.8-1c-0.3-0.3-0.6-0.5-0.9-0.7c-0.7-0.5-1.5-0.9-2.4-1.1c-0.4-0.1-0.8-0.2-1.2-0.2c-0.4,0-0.8,0-1.2,0.1
			c-0.8,0.2-1.7-0.3-1.9-1.1c-0.2-0.8,0.3-1.7,1.1-1.9c3-0.6,6.1,0.3,8.3,2.4c2,1.7,3.1,4.2,3.2,6.8c0.1,1.4-0.3,2.7-1.1,3.9
			c-1,1.3-2.6,2-4.2,1.7C71.5,604.6,68.2,603.9,66.1,601.7L66.1,601.7z M76.8,665.8c-2.2,1.7-5.1,1.8-7.7,1.7
			c-0.8,0-1.5-0.7-1.5-1.5c0-0.8,0.7-1.5,1.5-1.5c-0.8-1.8-0.8-3.9,0.1-5.6c0.9-2,3-3.2,5.1-3.1c2.2,0,4.2,1.4,5.1,3.5
			C80.2,661.7,78.8,664.3,76.8,665.8L76.8,665.8z"/>
		<path id="Pfad_155" class="st1" d="M76.4,660.2C76.4,660.1,76.4,659.9,76.4,660.2c0,0.1,0-0.1-0.1-0.2s-0.1-0.2-0.2-0.3
			c0,0,0,0,0,0c-0.1-0.1-0.2-0.2-0.3-0.3l-0.1-0.1c0,0,0,0-0.1-0.1c-0.1-0.1-0.3-0.1-0.4-0.2c0,0,0,0,0,0c0,0,0,0,0,0
			c-0.1,0-0.1,0-0.2-0.1c-0.2-0.1-0.3-0.1-0.5-0.1l0,0c0,0-0.1,0-0.1,0l-0.1,0c-0.2,0-0.3,0-0.5,0c-0.1,0-0.5,0-0.2,0
			c0.3,0,0,0-0.1,0c-0.2,0-0.3,0.1-0.5,0.1l-0.1,0c-0.1,0-0.1,0.1-0.1,0.1c-0.1,0-0.1,0.1-0.2,0.1c0,0,0,0-0.1,0
			c-0.2,0.1-0.3,0.3-0.4,0.4c0,0,0,0.1-0.1,0.1c0,0-0.1,0.1-0.1,0.2c-0.1,0.2-0.2,0.3-0.3,0.5v0c0,0.1-0.1,0.2-0.1,0.3
			c-0.1,0.2-0.1,0.4-0.1,0.6v0c0,0,0,0,0,0c0,0.1,0,0.2,0,0.2c0,0.2,0,0.4,0,0.6l0,0.1c0,0,0,0.2,0,0.2c0,0.2,0.1,0.5,0.2,0.7
			c0,0.1,0.1,0.1,0.1,0.2c0,0,0,0,0,0c0,0,0,0,0,0c0.1,0.2,0.2,0.3,0.3,0.5c0,0.1,0.1,0.1,0.1,0.2l0,0c0,0,0,0,0,0
			c0.1,0.1,0.1,0.2,0.1,0.2l0.1,0c0.5-0.1,1.1-0.3,1.6-0.5c0.1,0,0.3-0.1,0.3-0.1c0.1-0.1,0.2-0.1,0.3-0.2c0.1-0.1,0.2-0.1,0.3-0.2
			c0,0,0,0,0.1,0c0,0,0,0,0,0c0.2-0.2,0.4-0.3,0.5-0.5c0.1-0.1,0.1-0.1,0.1-0.2c0,0,0.1-0.1,0.1-0.1c0.1-0.2,0.2-0.3,0.3-0.5
			c0-0.1,0.2-0.4,0.1-0.1c0-0.1,0.1-0.2,0.1-0.2c0.1-0.2,0.1-0.3,0.1-0.5c0-0.2,0-0.4,0-0.5c0,0,0-0.1,0-0.1
			C76.5,660.4,76.4,660.3,76.4,660.2z"/>
		<path id="Pfad_156" class="st1" d="M113,68.5c-4.6,3.6-10.7,5-16.2,6.7l-6.3,1.9c-1.1,0.3-2.9,0.6-3.9,1.2
			c-1.4,0.9-1.5,1.7-1.6,3.1c-0.1,4.6-0.2,9.1-0.4,13.7c-0.5,18.2-0.9,36.3-1.4,54.5c0.7-0.1,1.4-0.1,2.1-0.2
			c14.8-1.6,31.4-2.2,42.8-13C117.5,115.5,112.3,92.1,113,68.5z"/>
		<path id="Pfad_157" class="st1" d="M194.4,465.9c-0.7-3.5-1.8-6.5-4.8-8.8c-1.4-1-2.8-2.1-4-3.3c-1.2-1.2-2.2-2.5-3.3-3.6
			c-2.7-2.7-6.8-3.5-10.3-2c-3.7,1.4-6.4,4.5-8.7,7.5c-0.3,0.4-0.7,0.6-1.1,0.6c0.4,1.6,1,3.2,1.4,4.6c0.4,1.5,0.8,3,1.3,4.5
			c0.1,0.5,0.2,1.3,0.4,1.8c0.1,0,0.2-0.1,0.3-0.1l0.7-0.4c1.6-0.9,3.3-1.7,4.9-2.6c0.3-0.5,0.8-0.8,1.4-0.8c0.6-0.3,1.2-0.7,1.8-1
			c2.3-1.4,5.3-3.9,3.8-6.9c-0.4-0.8-0.1-1.7,0.7-2.1c0.2-0.1,0.5-0.2,0.7-0.2c0.7-0.4,1.5-0.1,1.9,0.6c0.1,0.1,0.1,0.2,0.1,0.4
			c0.8,3.5,2.3,7.3,4.8,10c0.5,0.5,1.1,1,1.7,1.4c0.1-0.1,0.3-0.3,0.4-0.4c1.1-1.3,2.9,0.2,2.5,1.6
			C192.2,466.9,193.4,466.6,194.4,465.9z"/>
		<path id="Pfad_158" class="st1" d="M107,59.6c0.1-0.3,0.1-0.5,0.2-0.8c0.4-1,1-1.9,1.7-2.8c-1.6,0.3-3.1,0.7-4.7,0.9
			C105.2,57.7,106.2,58.6,107,59.6z"/>
		<path id="Pfad_159" class="st1" d="M91.6,60c-3.8,3.1-8,5.5-12.6,7.3c1.2,0.2,2.8,0.2,3.2,0.4c0.7,0.3,1.4,0.7,1.9,1.3
			c1.1,1.3,1.5,3,1.3,4.7c-0.1,0.8-0.3,1.5-0.7,2.2c1.8-1,4.3-1.4,6-1.9c0.4-0.1,0.8-0.2,1.2-0.4c-1,0.1-1.9,0.2-2.9,0.2
			c-0.9,0-1.5-0.7-1.5-1.6c0-0.4,0.2-0.8,0.4-1C91,68.3,92.4,64.1,91.6,60z"/>
		<path id="Pfad_160" class="st1" d="M113.7,54.9c-1.7,2.3-5,5.8-3,7c1.7,1,3.8-0.7,4.3-2.2c0.4-1.7,0.5-3.5,0-5.2
			C114.5,54.7,114.1,54.8,113.7,54.9z"/>
		<path id="Pfad_161" class="st1" d="M107.6,68.3c1.7-0.8,3.2-1.8,4.6-3c-1,0.1-2-0.1-3-0.5c-0.2-0.1-0.4-0.2-0.6-0.4
			c0,0.4,0,0.9,0,1.3C108.5,66.6,108.2,67.5,107.6,68.3z"/>
		<path id="Pfad_162" class="st1" d="M162.2,476.9c0,0.8,0,1.7,0,2.5c1.3-1.1,2.8-1.9,4.5-2.2c1.1-0.2,2.4,0,3.4-0.4
			c1.2-0.5,1.5-2,1.8-3.2c0.5-2,0.4-4.1-0.2-6.1c-1.6,0.9-3.2,1.8-4.9,2.6c-2.8,1.4-4-0.3-4.7-2.5
			C162.1,470.6,162.2,473.8,162.2,476.9z"/>
		<path id="Pfad_163" class="st1" d="M82.3,78.5c-1.8,1.2-3.8,2.1-6,2.6c-0.8,0.2-1.6-0.3-1.9-1.1c-1.2-3.7-2.4-7.4-3.7-11l-4.1,0.6
			c-1.5,0.2-3.5,0.2-4.9,0.8c-2.6,1-1.7,7.9,1,8.7c2.1,0.6,3.4-3.6,5.9-3.7c2.6,0,2.8,2.1,2.9,4.2c0.6,14.7,0,29.3-1.9,43.9
			c0,0,0,0.1,0,0.1c2.5,1.6,4.6,3.6,6.3,6c2,2.6,3.6,5.6,4.6,8.8c0.4-15.4,0.8-30.8,1.2-46.2l0.2-7.6c-0.1-1.9,0-3.9,0.3-5.8
			C82.2,78.6,82.3,78.5,82.3,78.5z"/>
		<path id="Pfad_164" class="st1" d="M64.4,219.7c1.1-2.1,2.1-4.3,3.3-6.4c-0.7,0-1.3-0.5-1.3-1.2c0-0.1,0-0.2,0-0.2
			c1-9.7,2.1-19.3,3.1-29c0.9-8,1.4-16.2,2.6-24.2c0.5-2.9,1.5-5.7,4.1-7.3c0.8-0.5,1.6-0.8,2.5-1.1c1.1-8.3-2-16.6-8.2-22.2
			c-1.1-1-4.4-4-4.5-0.9c0,2,0.2,3.9,0.5,5.9c0.4,4.8,0.7,9.6,0.9,14.4c0.4,9.3,0.5,18.6,0.3,27.9C67.3,190.3,66.3,205.1,64.4,219.7
			z"/>
		<path id="Pfad_165" class="st1" d="M137.8,555.6c-4.3,6.6-8.3,13.4-11.8,20.4c-1,1.9-1.9,3.9-2.8,5.9c-0.9,1.9-2.4,4.3-2.7,6.4
			c-0.3,2.3,1.4,2.9,2.9,4.1c1.1,0.9,1.9,2,2.6,3.3c2.5,5.2,0.4,11.7-2.6,16.2c-3.5,5.4-9.3,9.8-10.8,16.3c3.8-0.2,7.6-0.9,11.2-2.1
			c0.8-0.2,1.7,0.3,1.9,1.1c0,0.1,0.1,0.3,0.1,0.4l-0.6,27.4c-0.1,2.2-0.3,4.5-0.1,6.8c0.2,2.5,1.5,3.6,3.4,5
			c2.7,1.8,4.8,4.3,6.3,7.2c2.7,5.5,1.8,11.7,3.9,17.3c1.1,3,3.3,4,5.7,5.5c-0.6-4.3-0.7-8.6-0.3-12.9c0.7-6.2,3.5-11.6,6-17.2
			c4.2-9.7,5.9-20.2,9.4-30.1c-0.5-0.2-0.8-0.7-0.8-1.2c-1.4-14.4-12.7-25.2-18.1-38.1c-2.8-6.6-3.3-13.5-2.9-20.7
			C137.7,569.6,138.8,562.6,137.8,555.6z"/>
		<path id="Pfad_166" class="st1" d="M131.3,138.4L131.3,138.4c-0.1-0.1-0.2-0.3-0.3-0.4c-0.1,0.1-0.2,0.2-0.3,0.3
			c-6.1,5.9-13.9,9.3-22.1,11.2c-4.5,1-9.1,1.7-13.6,2.1c-4.9,0.5-10,0.5-14.8,1.7c-5.6,1.3-5.3,7.3-5.8,11.9
			c-0.5,5.1-1.1,10.2-1.6,15.2c-1.1,10-2.1,19.9-3.2,29.9c0.7-0.2,1.5,0,1.9,0.6c0.2-2.3,0.4-4.6,0.6-6.9c0.2-2,3.2-2,3.1,0
			c-1.8,22.3-3.6,44.6-5.5,66.9c-0.8,9.3-1.8,18.6-4.1,27.6c-2.4,9.2-6.2,18.1-9,27.2c-5.6,18-8,36.8-7.1,55.6
			c0.5,9.5,1.8,18.9,3.9,28.1c2,8.9,4.1,17.7,3.8,26.9c-0.2,3.4-0.5,6.7-1.1,10.1c0.2,0.2,0.4,0.4,0.6,0.7c0.7-0.5,1.7-0.3,2.2,0.4
			c0.1,0.1,0.1,0.2,0.2,0.4c5.2,15.9,16.5,28.6,27.6,40.7c1.3,1.5-0.8,3.6-2.2,2.2c-11.4-12.3-22.8-25.3-28.2-41.5
			c-0.2,0.1-0.5,0.2-0.7,0.2c-2.5,13.4-7.2,26.5-7.8,40.2c-0.1,2-3.2,2-3.1,0c0.6-13.5,5.2-26.5,7.7-39.8c-1.3,1.7-2.6,3.5-3.7,5.3
			c-1.4,2.6-2.4,5.4-2.8,8.3c-0.9,5.3-0.9,11-4.2,15.6c-1.2,1.6-3.8,0-2.6-1.5c4.1-5.7,2.8-13.2,5-19.5c0.9-2.6,5-11.2,9.1-12.3
			c0.1-0.9,0.3-1.9,0.4-2.8c-3.8,2.7-7.2,5.9-10.3,9.4c-3.2,3.9-5.8,8.3-7.6,13c-0.7,1.8-3.7,1-3-0.8c2-5.1,4.7-9.8,8.1-14
			c3.7-4.5,8.2-8.1,12.8-11.5c0.1-0.1,0.2-0.1,0.3-0.1c0.2-3.1,0.3-6.2,0.1-9.3c-0.7-9.5-3.7-18.7-5.3-28
			c-1.6-9.1-2.4-18.4-2.4-27.7c0-18.5,3.1-36.8,9.2-54.3c3.1-8.9,6.5-17.7,8.4-26.9c2-9.5,2.6-19.3,3.4-29l4.1-50.7
			c-3.2,5.7-6,11.6-8.4,17.7c0,0.1,0,0.2,0,0.3c0,0.3-0.2,0.5-0.4,0.7c-1.6,4.4-2.8,8.9-3.3,13.5c-0.7,5.9-0.5,11.9-1.1,17.9
			c-0.6,5.8-1.5,11.6-2.8,17.3c-4.6,20.6-12.2,40.4-16.4,61.2c-4.3,21.2-6.3,42.8-7.6,64.4c-2.7,44.6-4.1,89.3-6.1,134
			c14.8-5.7,29.9-10.8,45.1-15.3c7.8-2.3,16-5.2,24.2-6c7.7-0.7,13.1,2.9,18.8,7.6c5.4,4.4,11.8,7,17.3,11.1c0-0.1,0-0.3,0-0.4
			c1.5-14.8,7.1-28.8,16.2-40.6c1.9-2.4,4.4-6.5,7.4-7.6c0.9-0.3,1.8-0.3,2.6,0c0.2-0.4,0.4-0.7,0.6-1.1c-0.6-0.4-0.9-1.2-0.5-1.9
			c0,0,0,0,0-0.1c0.5-0.9,1.1-1.8,1.7-2.7c0.3-2.8,0.4-5.7,0.3-8.5c-0.1-6.3-0.1-12.6-0.2-18.9c-0.2-1.3-0.2-2.7,0-4v0l0,0
			c0-0.1,0-0.3,0.1-0.4c0,0,0,0,0,0c-1.2-2.3-2.4-4.6-3.6-6.9c-0.4,0-0.8-0.1-1.1-0.4c-6.9-6.1-14-12.3-22.4-16.2
			c-7.5-3.5-17.2-5.2-21-13.6c-0.8-1.8,1.8-3.3,2.6-1.5c3.8,8.4,14.5,9.6,21.9,13.4c6.2,3.2,11.7,7.6,17,12.2
			c-0.8-1.9-1.5-3.8-2.1-5.8c-0.1-0.4-0.2-0.8-0.3-1.2c-2.8-2.8-4.8-6.2-7.1-9.6c-3-4.4-7.4-7.1-11-11c-3.7-4.1-4.6-9-4.5-14.3
			c0.1-5.6,1.2-12.2-2.6-16.9c-1.2-1.5,0.9-3.7,2.2-2.2c3.2,4,3.8,9,3.7,14c-0.2,5.7-1,11.8,2.8,16.5c3.1,3.8,7.5,6.3,10.5,10.2
			c2,2.5,3.6,5.5,5.5,8.1c0-4.4,1-8.7,2-13c1.4-6.6,1.7-12.6-0.3-19.1c-1.8-5.7-4.6-11.1-7-16.5c-5.1-11.6-7-23.9-7.5-36.5
			c-0.4-12.9,1.1-26.3-2.5-38.9c-3-10.2-10.8-20.5-22.1-21.7c-0.2,0-0.3,0-0.5-0.1c-1.7-0.2-1.3-3.2,0.4-3c0.1,0,0.3,0,0.4,0.1v0
			c3,0.4,6.5,1,9.3-0.6c3.1-1.8,2.7-4.5,1.8-7.4c-1.4-4.7-1.8-9.7-1.1-14.6c1.1-9.1,4.5-17.8,6.7-26.6c2.6-10.1,2.1-20.2,2.3-30.5
			c0.2-10.4,2.7-20.3,3.9-30.6c1.1-8.8,0.6-18.6-5.1-25.9c-0.6-0.8-0.4-1.8,0.4-2.4C130.8,138.6,131,138.4,131.3,138.4z"/>
		<path id="Pfad_167" class="st1" d="M145.2,600.6c5.4,10.4,13.4,19.8,15.7,31.5c0.5-1.1,1-2.1,1.5-3.2c1.1-2.1,2.5-4,3.6-6.1
			c1.7-3.2-0.1-6.5-1.3-9.7c-1-2.7-2-5.5-3-8.2c-6.2-16.5-13.2-32.7-20.8-48.7c0.9,7.4-0.3,14.8-0.6,22.3
			C140,586.2,141.7,593.8,145.2,600.6z"/>
		<path id="Pfad_168" class="st1" d="M38.6,729.3c-1.8-13.1-3.7-26.2-7.1-39c-1.5-5.6-3.3-11.1-5.5-16.5c-2.3-5.5-5.3-10.6-7.9-16.1
			c-5.1-10.9-4.6-22.5-4.3-34.3c0.4-16.7-1.5-33.4-2.2-50.2c-1.7,5.5-3.4,11.1-5.1,16.6C4,598.2,1,606.5,0.3,615.1
			c-0.6,7.4-0.3,14.9-0.2,22.4c0.1,7.5,0.2,15,0.6,22.5c0.8,14.9,2.6,29.8,6.5,44.2c1.7,6.4,3.6,13.5,7.9,18.7
			c4.5,5.4,11.3,6.9,18,7.2c1.8,0.1,3.7,0,5.6-0.2C38.7,729.7,38.6,729.5,38.6,729.3z"/>
		<path id="Pfad_169" class="st1" d="M124.5,811.3c-0.1-2.6,0.3-5.2-1.2-7.5c-1.1-1.5-2.3-2.9-3.7-4.2c-2.3-2.5-3.6-5.8-3.5-9.2
			c0-2.1,0.4-4.4,0-6.5c-0.5-2.2-2.2-3.2-3.9-4.5c-2.9-2.3-3.3-5.4-3.7-8.8c-0.3-2.4-0.9-4.5-3-5.9c-1.9-1.1-3.8-2.2-5.8-3.1
			c-4.4-2.2-8.9-4.4-13.5-6.4c-4.9-2.1-9.8-4.1-14.8-6c-2.4-0.9-4.8-1.8-7.2-2.6c-1.6-0.5-8.4-2.6-7.3,1.3c0.2,0.8-0.3,1.7-1.1,1.9
			c-0.2,0.1-0.5,0.1-0.8,0c-1.3,10.7-4.6,21-9.9,30.4c0.6,0.7,1.3,1,2.5,0.1c1.3-1,2-2.2,3.8-2.4c1.2-0.1,2.3,0.3,3.3,0.9
			c1.4,0.8,2.5,2,3.9,2.8c2.2,1.3,3.3-0.5,4.8-2c2.8-2.8,6.3-4.8,10.1-5.7c0.6-0.2,1.3-0.2,1.9-0.4c-3.3-0.4-6.5-1.4-9.8-1.3
			c-4.7,0.1-9.3,1.8-13,4.8c-1.6,1.2-3.1-1.5-1.5-2.7c4.6-3.6,10.4-5.4,16.2-5.2c3.1,0.2,7.8,1.7,11.7,1.6c1.2-0.8,2.6-1.2,4-1.1
			c0.1,0,0.1,0,0.2,0c0.9-0.5,1.6-1.2,2.1-2.1c1.1-1.7,1.2-4,3.5-4.5c1.3-0.4,2.7,0.2,3.3,1.4c0.9,1.9-0.8,4.4-1.6,6.1
			c-0.8,1.6-1.6,3.4-3.6,3.5c-1.2,0.1-2.2-0.7-3.3-1.1c-0.2-0.1-0.3-0.1-0.5-0.1c-0.9,0.3-1.8,0.6-2.8,0.7c-0.3,0.3-0.6,0.5-0.8,0.8
			c-1.5,1.7-2.8,1.9-4.9,2.4c-2.7,0.6-5.3,1.8-7.5,3.6c-1.7,1.4-3,3.6-5.1,4.5c-3.7,1.6-6-1.8-8.9-3.4c-2.4-1.3-3.2,1.5-5.1,2.4
			c-1.3,0.6-2.9,0.5-4.1-0.5c-0.2-0.1-0.3-0.3-0.4-0.4c-3,5.1-5.8,10-6,16.2c-0.3,6.5,1.6,12.9,3.8,18.9c0.2,0.5,0.1,1.1-0.3,1.4
			c0.5,0,1,0.3,1.3,0.7c0.7,0.9,2.1,0.7,3,0.4c1.5-0.6,2.9-1.5,4.1-2.6c2.7-1.9,6.4-3.1,9.1-0.7c1.5,1.3-0.7,3.5-2.2,2.2
			c-1-0.9-2.5-0.5-3.6,0c-1.5,0.9-3,1.9-4.4,2.9c-2,1.4-4.5,1.7-6.7,0.9c0,0,0,0.1,0,0.1c-0.9,3.3-1.7,6.7-2.3,10.1
			c4,2.5,4.3,8.3,4.7,12.9c0.3,3.5,1.5,7.5,4.9,9.3c2.6,1.4,5.9,0.5,7.3-2.1c0.1-0.1,0.1-0.2,0.1-0.3c0.4-0.7,1.4-1,2.1-0.5
			c0.3,0.2,0.6,0.5,0.7,0.9c0.6,3.8,5,4.2,7.3,1.6c1.4-1.6,1.9-3.8,3.4-5.3c0.9-1.2,2.4-1.7,3.8-1.4c1,0.2,2.1,1.7,3.1,1.6
			c0.9-0.2,1.9-1.5,2.6-2c2.8-1.9,5.6-1.1,8,1c1.9,1.7,3.7,4.8,6.3,5.7l0.6-8c0-0.9,0.7-1.5,1.6-1.5c0.3,0,0.5,0.1,0.7,0.2
			c4.6,2.7,11.3-0.7,11.7-6.1c0.2-3-1.1-5.9-0.6-8.9c0.2-1.1,0.7-2.2,1.4-3.1c1-1.2,2.4-1.9,2.7-3.6c0.5-3.5-0.1-7.4-0.2-11
			c0.1-1.8,0-3.7-0.1-5.5c-0.3-1.5-0.2-1.7-1.6-1.2c-0.5,0.2-1,0.4-1.5,0.4c-2.3,0.2-4.5-1.1-5.4-3.2c-1.3-2.7-0.5-5.6,0.4-8.3
			c0.6-1.9,3.6-1.1,3,0.8c-0.7,2-2,5.3,0,7c1.6,1.4,3.1-0.3,4.8-0.5c3.4-0.2,3.3,3.4,3.4,5.8c0.1,4.3,0.2,8.7,0.3,13
			c0.2,1.5,0,3.1-0.5,4.6c-0.6,1.1-1.5,2.1-2.5,2.9c-2.6,2.7-0.3,7.2-0.5,10.5c-0.1,2.4-1.1,4.7-2.8,6.5c-2.9,3.1-7.3,4.3-11.3,3.2
			c-0.2,2.5-0.4,5-0.6,7.5c0,0.8-0.7,1.5-1.5,1.5c-3.9,0.2-6.4-3.2-8.8-5.7c-1-1.1-2.4-2.7-4.1-2.3c-2.2,0.6-3.2,3.2-5.7,3.3
			c-1,0-2-0.4-2.7-1.1c-0.9-0.7-1-0.9-1.8,0c-0.4,0.4-0.7,0.9-0.9,1.4c-1.3,2.2-2.2,4.3-4.5,5.6c-3.1,1.7-7,0.9-9.1-1.9
			c-3.3,3.1-9,2.6-12.3-0.7c-2.1-2.3-3.5-5.2-3.9-8.2c-0.4-3,0.1-8.8-2.4-11.5c-0.8,5.9-1.1,11.9-0.8,17.9c0.2,4.6,0.7,9.1,1.6,13.7
			c0.7,3.7,1,8.3,5.2,9.5c5.7,1.6,12.3-0.5,16,5.5c1.8,3,2,6.5,3,9.7c0.5,1.8,1.4,3.4,2.7,4.7c1.8,1.5,3.5,0.9,5.6,0.8
			c4.1-0.2,5.3,3,6.8,6.2c1.6,3.5,3.2,7,4.9,10.5c1.4-3.2-0.1-7.3-0.1-10.6c-0.1-3.2,0.6-7,3.4-9c1.6-1.2,3.2-1,5-1.2
			c3.1-0.3,2.4-2.6,3.1-4.9c1.1-3.8,4.6-3.8,7.9-4c2.4-0.1,3.6-0.8,4.6-2.9c0.5-1.4,1.2-2.7,1.9-3.9c0.8-1.1,2-2,3.3-2.3
			c1.9-0.5,4.8,0.6,6.1-1.2c1-1.3,0.8-3.6,0.9-5.2c0.1-1.4,0.4-2.8,1-4.1c1.4-3.2,4.3-5.2,6.1-8.1c2.1-3.5-1-7,0.4-10.8
			c0.8-2.1,2.3-4,3.1-6.1c0.8-2,1.3-4.1,1.5-6.3c0.4-4.6-0.5-9.2-2.6-13.3C127.1,818.3,124.7,815.5,124.5,811.3z M72,799.1
			c-1.1,1.6-3.8,0.1-2.6-1.5c1.3-1.9-1.5-3.3-3-3.4c-2-0.1-4,0.7-6,0.9c-2.3,0.2-4.7-0.2-6.8-1.2c0.9,2.4,2.8,4.5,4.1,6.7
			c1.8,3,3.2,6.2,4.1,9.5c1.9,6.8,1.8,14.1-0.3,20.8c-0.2,0.7-1,1.2-1.7,1c-0.2,0.3-0.5,0.5-0.8,0.6c-4.8,0.9-9.7,1.1-14.5,0.7
			c-0.9,0-1.5-0.7-1.5-1.6c0-0.5,0.3-1,0.7-1.3c2.7-1.9,5.2-4.1,7.3-6.6c0.6-0.6,1.6-0.6,2.2,0c0.6,0.6,0.6,1.6,0,2.2
			c-1.4,1.6-2.9,3.1-4.5,4.4c3.2,0,6.3-0.2,9.4-0.8c0.2,0,0.3,0,0.5,0c1.9-6.7,1.8-13.9-0.4-20.5c-1.2-3.4-2.9-6.6-5-9.6
			c-1.8-2.6-3.5-5.4-3.2-8.8c0-0.9,0.7-1.5,1.6-1.5c0.4,0,0.7,0.2,1,0.4c2.2,2,5.1,2.8,8,2.4c2.4-0.3,4.8-1.2,7.2-0.7
			C71.2,792,74.3,795.9,72,799.1L72,799.1z M102.5,829c-4.9,1.2-10,3-15.1,3.1c-4.1,0.1-8.4-1.4-10.5-5.1c-1.8-3.2-1.2-8.3,2.9-9.3
			c1.1-0.2,2.2-0.2,3.3,0c1.3,0.1,2.7,0.1,4,0.1c1.8,0,3.6-0.2,5.4-0.4c-2.1-0.3-4.2-0.5-6.3-0.5l-11-0.5c-2-0.1-2-3.2,0-3.1L90,814
			c3,0.1,7.3,1,6.7,5c-0.1,0.5-0.5,0.9-1.1,1.1c-3.9,0.7-8,0.9-12,0.7c-1.7-0.1-3.8-0.7-4.5,1.4c-0.4,1.4-0.1,2.8,0.8,3.9
			c2.2,3,6.1,3.3,9.5,2.8c4.1-0.6,8.1-1.8,12.2-2.8C103.6,825.6,104.4,828.5,102.5,829L102.5,829z M126.1,842.2
			c-0.4,2.8-0.6,5.9-1.5,8.6c-0.7,1.9-2.4,3.3-4.5,3.7c-1.5,0.4-3.1,0.5-4.6,0.8c-1.2,0.2-3.5,0.1-4.1,1.1c-0.7,1.1,0.4,3.7,0.8,4.8
			c0.4,1.3,0.7,2.6,0.9,3.9c0.4,2.3-0.2,4.7-1.6,6.6c-1.2,1.5-3.9,0-2.6-1.5c1.9-2.5,1.2-5.4,0.4-8.1c-0.6-2.1-1.7-5.1-0.7-7.3
			c1-2.2,3.9-2.1,5.8-2.4c2.4-0.4,6.8-0.2,7.5-3c0.7-2.9,1.2-5.8,1.5-8.8c0.1-0.9,0.5-2.6-0.7-2.6c-0.6,0-1,0.4-1.5,0.6
			c-0.7,0.4-1.6,0.5-2.3,0.3c-2-0.7-1.9-3.1-1.9-4.8c0.1-3,0.4-6,0.9-8.9c0.3-1.9,3.3-1.1,3,0.8c-0.2,1.1-1.6,9.3-0.7,9.7
			c0.2,0.1,2-0.9,2.4-1c1,0,2,0.3,2.7,1.1C127,837.5,126.5,840,126.1,842.2L126.1,842.2z"/>
		<path id="Pfad_170" class="st1" d="M178.4,463.3c-1.1,0.9-2.3,1.7-3.6,2.3c1.5,2.2,2.8,4.9,5.3,5.8c2,0.7,3.4-1,4.7-2.3
			c0.4-0.4,0.8-0.9,1.2-1.3c-2.4-1.9-4.3-4.4-5.5-7.2C180,461.7,179.3,462.6,178.4,463.3z"/>
	</g>
</g>
</svg>
