<svg id="Gruppe_1" data-name="Gruppe 1" xmlns="http://www.w3.org/2000/svg" width="276.296" height="272.09" viewBox="0 0 276.296 272.09">
  <path id="Pfad_1430" data-name="Pfad 1430" d="M-752.4,125.836a10.7,10.7,0,0,1-2.222,1.5c5.931-.942,11.281-4.065,17.057-5.728a35.33,35.33,0,0,0-13.126-7.6,7.739,7.739,0,0,1,.929,1.535C-748.206,119.091-749.565,123.334-752.4,125.836Z" transform="translate(943.531 -12.447)" fill="#e9af16"/>
  <path id="Pfad_1431" data-name="Pfad 1431" d="M-757.643,117.964c.009,0,0,0,.009,0l.009,0h0l-.007,0a.541.541,0,0,1,.2-.051.156.156,0,0,0,.034-.006.856.856,0,0,0,.093-.049,2.221,2.221,0,0,1,.207-.126c.009-.006,0,0,.01,0a4.577,4.577,0,0,0,.387-.368c.447-.48.677-.99.311-1.522,0,.009-.124-.071-.108-.073a.883.883,0,0,0-.455.187,1.684,1.684,0,0,0-.557,1.194,1.2,1.2,0,0,1-.425.707c.149.053.289.092-.027.021h0c.055.013.111.032.171.048A.561.561,0,0,0-757.643,117.964Z" transform="translate(942.785 -12.055)" fill="#e9af16"/>
  <path id="Pfad_1432" data-name="Pfad 1432" d="M-836.109,115.014c-.964.436-1.687,1.57-.542,2.259.99.6,2.14-.351,2.458-1.286a1.1,1.1,0,0,0-.361-1.315A4.756,4.756,0,0,0-836.109,115.014Z" transform="translate(925.081 -12.298)" fill="#e9af16"/>
  <path id="Pfad_1433" data-name="Pfad 1433" d="M-786.424,190.686c-2.809,1.081-5.688,2.965-8.837,2.352-3.323-.647-4.572-4.425-8.052-4.505-3.526-.083-6.574,2.233-9.61,3.678a13.632,13.632,0,0,1-8.237,1.559c-.016.186-.037.372-.056.558a21.383,21.383,0,0,0,16.233,2.223c1.9-.464,3.494-.595,5.043.782,1.9,1.693,3.467,3.116,6.151,3.3,4.928.339,7.747-4.382,12.227-5.456,2.64-.634,4.886.736,7.5.735a13.605,13.605,0,0,0,4.524-.844c-3.151-.642-5.465-2.762-8.229-4.24C-780.725,189.249-783.385,189.516-786.424,190.686Z" transform="translate(928.659 4.195)" fill="#e9af16"/>
  <path id="Pfad_1434" data-name="Pfad 1434" d="M-842.355,126.658c-1.847-2.454-2.356-6.01-2.064-8.986a11.261,11.261,0,0,1,2.115-5.547c-4.745,2.208-8.454,6.5-11.778,10.415,3.672,3.73,8.459,5.346,13.476,5.757A7.518,7.518,0,0,1-842.355,126.658Z" transform="translate(921.319 -12.867)" fill="#e9af16"/>
  <path id="Pfad_1435" data-name="Pfad 1435" d="M-841.3,125.817l.014.012c.139.1.279.2.426.284s.272.148.409.223a.841.841,0,0,1,.12.072.9.9,0,0,1,.133.037c.338.109.67.2,1.016.275a1.064,1.064,0,0,1,.138.037,1.014,1.014,0,0,1,.139,0c.16.011.322.024.483.031a11.335,11.335,0,0,0,1.24-.043c.055,0,.109-.012.164-.018l.038-.006c.214-.037.427-.073.639-.119a14.776,14.776,0,0,0,2.3-.714c.045-.018.038-.013.06-.022l.057-.027c.084-.038.169-.075.252-.114q.314-.145.623-.3c.351-.179.695-.371,1.034-.573q.565-.338,1.1-.714.253-.178.5-.365l.013-.009.037-.029.21-.171a15.521,15.521,0,0,0,1.755-1.682c.131-.148.256-.3.38-.454.039-.053.131-.171.175-.232a9.764,9.764,0,0,0,.565-.889c.092-.163.171-.332.257-.5a.89.89,0,0,1,.055-.094.222.222,0,0,1,.015-.065c.1-.3.19-.585.261-.888a.768.768,0,0,1,.038-.125.314.314,0,0,1-.006-.076c0-.127.012-.254.01-.383,0-.04-.013-.17-.021-.261s-.042-.2-.051-.239c-.031-.113-.093-.264-.1-.292-.04-.082-.079-.165-.126-.243s-.149-.212-.175-.253c-.068-.078-.135-.158-.208-.232-.044-.044-.231-.21-.3-.279-.078-.053-.281-.2-.334-.236a4.506,4.506,0,0,0-1.559-.619,5.384,5.384,0,0,1-3.577,5.729,4.609,4.609,0,0,1-5.828-2.918c-.71-2.334.8-4.421,2.816-5.407a1.885,1.885,0,0,1,.927-.728,4.1,4.1,0,0,1,2.684-.009l.132-.006a20.278,20.278,0,0,0-4.586-1.118,1.486,1.486,0,0,1-1.5,1.223c-3.929.026-5.274,4.455-5.113,7.676a11.8,11.8,0,0,0,.781,3.816c.008.021.008.022.007.021.01.018.028.054.065.13.053.105.1.212.16.316q.159.3.349.582c.059.089.12.175.184.262l.027.029c.137.154.274.307.423.45C-841.48,125.658-841.389,125.735-841.3,125.817Z" transform="translate(923.665 -13.103)" fill="#e9af16"/>
  <path id="Pfad_1436" data-name="Pfad 1436" d="M-765.415,116.835a13.8,13.8,0,0,0,2.2,5.422c.231.366.477.723.739,1.068.048.058.18.223.212.261.109.127.22.252.336.374s.243.237.365.356c.032.032.044.043.065.062a8.72,8.72,0,0,0,1.222.639,8.162,8.162,0,0,0,7.374-.767,6.523,6.523,0,0,0,2.962-5.91,4.732,4.732,0,0,0-1.744-3.025,4.491,4.491,0,0,1,.274,2.691c-.579,2.7-3.869,4.707-6.408,3.332a5.446,5.446,0,0,1-2.636-4.925,5.149,5.149,0,0,1,1.541-3.438,21.7,21.7,0,0,0-5.007,1.058,1.4,1.4,0,0,1-.177.086c-.151.038-.3.078-.444.13l-.012,0c-.128.067-.59.42-.325.177a2.65,2.65,0,0,0-.22.217c-.07.109-.131.221-.19.336,0,.039-.109.357-.13.443,0,.023-.02.117-.029.185,0,.048-.007.1-.007.119,0,.214-.011.426,0,.64.007.148.02.3.034.444C-765.425,116.744-765.468,116.507-765.415,116.835Z" transform="translate(941.111 -12.678)" fill="#e9af16"/>
  <path id="Pfad_1437" data-name="Pfad 1437" d="M-832.647,126.587c6.245-1.209,12.385-2.976,18.68-3.675-.292-.153-.58-.323-.871-.483a1.345,1.345,0,0,1-1.731-.352c-.339-.394-.635-.818-.954-1.226-2.933-1.824-5.791-3.818-8.719-5.45a5.852,5.852,0,0,1,.139,3.7C-827.033,122.285-829.732,124.858-832.647,126.587Z" transform="translate(926.106 -12.136)" fill="#e9af16"/>
  <path id="Pfad_1438" data-name="Pfad 1438" d="M-761.487,126.227a11.658,11.658,0,0,1-2.806-3.243,17.038,17.038,0,0,1-2.459-7.153,29.719,29.719,0,0,0-3.236,2.814,13.6,13.6,0,0,1-3.931,2.974,45.776,45.776,0,0,0,8.256,3.44C-764.292,125.517-762.893,125.9-761.487,126.227Z" transform="translate(939.221 -12.04)" fill="#e9af16"/>
  <path id="Pfad_1439" data-name="Pfad 1439" d="M-660.471,248.038c18.741-22.464,26.732-51.415,27.63-80.263a166.994,166.994,0,0,0-1.466-28.736,1.828,1.828,0,0,1-.251-1.66,126.028,126.028,0,0,0-2.552-12.488,1.78,1.78,0,0,1-.486-1.708c-3.685-13.279-9.716-25.79-19.007-36.6-9.064-10.547-20.077-19.216-31.537-27.007-12.294-8.356-25.236-16.032-39.184-21.294a117.69,117.69,0,0,0-55.307-6.446,1.78,1.78,0,0,1-1.73.231,137.476,137.476,0,0,0-23.474,5.161,161.008,161.008,0,0,0-41.108,19.766c.125.161.26.314.384.476,1.273,1.658-1.548,3.272-2.8,1.638-.076-.1-.159-.191-.235-.29q-3.775,2.626-7.4,5.456c.015,1.122-1.127,2.135-2.135,1.671a166.83,166.83,0,0,0-14.884,13.569c-18.4,18.946-34.806,44.507-32.188,72.02a1.3,1.3,0,0,1-.848,1.434c.421,6.722.977,13.434,1.8,20.119,3.506,28.542,11.965,56.624,29.13,80.036,15.882,21.662,38.5,38.7,64.57,45.829,28.432,7.777,58.912,3.9,86.268-6.136C-702.019,283.543-677.839,268.856-660.471,248.038Zm-56.072-84.375c-8.4.848-18.289.141-23.818-7.112a1.631,1.631,0,0,1,.582-2.22,1.677,1.677,0,0,1,2.219.582c4.715,6.184,14.033,6.21,21.017,5.5a1.634,1.634,0,0,1,1.623,1.623A1.671,1.671,0,0,1-716.543,163.663Zm-23.438-50.59c7.506-3.183,16.438-5,24.557-3.5,12.25,2.255,23.97,8.545,33.24,16.755,1.567,1.388-.736,3.675-2.295,2.295a69.9,69.9,0,0,0-16.548-10.859c-5.319-2.51-11.367-4.805-17.271-5.336a43.471,43.471,0,0,0-23.017,4.836c-3.267,1.691-6.5,3.9-8.58,7a9.907,9.907,0,0,0-1.779,7.323,9.753,9.753,0,0,0,.555,1.855c4.19-6.791,11.387-10.591,18.975-12.428a43.663,43.663,0,0,1,13.338-1.42c4.772.374,8.648,2.688,12.622,5.171a66.443,66.443,0,0,1,10.616,7.95,38.286,38.286,0,0,1,4.36,4.888c1,1.341,2.505,3.039,2.173,4.85-.286,1.556-1.408,2.081-2.776,2.574-2.409.867-3.373,2.619-4.883,4.559-2.092,2.684-5.26,4.546-8.558,2.9-1.87-.933-.225-3.732,1.638-2.8,3.121,1.559,5.794-4.519,7.679-6.148a7.7,7.7,0,0,1,1.53-1.039c.369-.187,1.584-.354,1.732-.6.564-.943-1.835-3.3-2.461-4.032-4.551-5.293-10.577-9.248-16.613-12.655-6.645-3.751-14.765-2.557-21.81-.453-5.981,1.785-11.529,5-14.838,10.436a1.478,1.478,0,0,1-1.293.744c1.113,1.392,2.62,2.318,4.4,1.779,2.411-.732,4.223-3.643,6.186-5.153a21.065,21.065,0,0,1,4.843-2.784c.1-.04.205-.06.3-.1a6.091,6.091,0,0,1,1.061-.372c.033-.009.059,0,.092,0a26.412,26.412,0,0,1,11.492-1.056,37,37,0,0,1,22.461,11.531,1.54,1.54,0,0,1,.409.991,1.394,1.394,0,0,1-1.1,1.863c-8.737,1.661-16.1,7.107-25.28,6.751a43.242,43.242,0,0,1-13.471-2.932c-3.747-1.41-7.675-2.975-10.7-5.657a1.552,1.552,0,0,1-.332-.442c-3.249-1.645-5.336-5.714-5.669-9.2C-755.846,122.212-747.2,116.136-739.98,113.073ZM-769.648,201.3c2.947-1.661,5.419-4.035,8.44-5.582a1.636,1.636,0,0,1,2.267.829,1.515,1.515,0,0,1,1.826,1.095,8.023,8.023,0,0,0,6.085,5.586,7.363,7.363,0,0,0,6.842-2.326,9,9,0,0,0,2.2-6.789c-.289-3.359-2.673-6-4.828-8.39-1.4-1.548.893-3.849,2.295-2.295,2.512,2.784,5.073,5.795,5.652,9.628A11.834,11.834,0,0,1-746,205.942c-5.754,2.206-12.294-1.38-14.132-7.093-2.629,1.464-4.888,3.478-7.474,5.016a14.549,14.549,0,0,1-4.773,1.808c.034.064.081.119.109.185a16.359,16.359,0,0,1,1.352,5.515,10.3,10.3,0,0,1-1.434,5.666,1.654,1.654,0,0,1-2.22.582,1.644,1.644,0,0,1-.582-2.22,6.451,6.451,0,0,0,.848-2.1c.013-.058.125-.669.088-.409.023-.166.035-.336.047-.505a9.538,9.538,0,0,0,0-1.183c-.012-.2-.031-.4-.055-.592q-.02-.174,0,.007c-.017-.114-.037-.226-.057-.339-.075-.4-.169-.8-.278-1.188a20.877,20.877,0,0,0-.837-2.371,1.178,1.178,0,0,1,.011-.855c-.362-.017-.717,0-1.084-.045a16.846,16.846,0,0,1-8.233-3.752c-.882-.7-5.084-5.5-6.235-3.272-.96,1.858-3.76.215-2.8-1.638,1.354-2.62,4.636-2.448,6.9-1.179a22.8,22.8,0,0,1,3.5,3.022,17.272,17.272,0,0,0,4.033,2.672A10.439,10.439,0,0,0-769.648,201.3Zm-74.884-58.771a1.559,1.559,0,0,1-.088-2.059,1.618,1.618,0,0,1,.24-1.782c3.592-4.225,7.473-8.608,12.511-11.132a18.58,18.58,0,0,1,15.462-.439,75.877,75.877,0,0,1,11.01,5.5c-.648-.938-1.319-1.862-2.038-2.75a18.064,18.064,0,0,0-11.366-6.684c-10.136-1.649-19.364,4.165-26.711,10.488-1.576,1.357-3.88-.93-2.295-2.295,7.942-6.833,17.641-12.839,28.56-11.51a20.939,20.939,0,0,1,12.622,6.027c3.118,3.2,5.206,7.185,7.845,10.755,4.525,2.721,12.9,7.263,13.29,3.256.2-2.1-.973-5.076-1.5-7.106a54.063,54.063,0,0,0-1.937-6.086c-1.9-4.853-4.715-9.051-9.417-11.525-18.345-9.648-49.53-8.131-58.662,13.732-.794,1.9-3.933,1.062-3.129-.862,5.061-12.116,17.111-19.174,29.712-21.173,11.537-1.829,24.728.108,34.862,6.142,8.613,5.131,12.181,17.029,13.271,26.438.5,4.344-3.222,5.3-6.781,4.956a1.415,1.415,0,0,1-1,.333C-807.3,143.963-830.162,158.147-844.532,142.53Zm29.05,20.366c-5.522,1.607-12.667.833-16.964-3.26-1.516-1.444.783-3.735,2.3-2.294,4.078,3.885,12.084,4.1,16.692,1.1,2.742-1.786,4.825-4.457,7.761-5.975,2.674-1.385,6.354-1.911,8.459.74,1.287,1.62-1,3.931-2.294,2.295-2.269-2.856-6.563,1.015-8.4,2.623C-810.224,160.131-812.5,162.029-815.482,162.9Zm11.465,20.839a12.5,12.5,0,0,1,3.63-3.628c1.719-1.106,3.917-1.391,5.527-2.658s3.934,1,2.295,2.295c-2.458,1.937-5.725,2.256-7.879,4.639a11.432,11.432,0,0,0-2.728,7.421,10.884,10.884,0,0,0,2.726,7.569c1.338,1.423,5,3.493,6.541,1.19,1.158-1.729,3.968-.1,2.8,1.638-2.169,3.236-6.637,3.066-9.641,1.123a13.041,13.041,0,0,1-5.494-9.046A15.253,15.253,0,0,1-804.017,183.735Zm44.482,66.929a8.483,8.483,0,0,1-4.781,1.417c-2.433-.039-4.727-1.25-7.176-.947-3.955.489-7.6,3.354-11.651,1.563-2.9-1.28-4.37-4.361-6.595-6.447-1.529-1.431.771-3.721,2.295-2.295,1.806,1.692,3.107,4.454,5.321,5.641,2.962,1.585,6.749-1.1,9.7-1.593a14.872,14.872,0,0,1,5.831.46,6.709,6.709,0,0,0,4.7-.18c2.719-1.359,4.039-4.547,4.463-7.389.308-2.063,3.435-1.181,3.13.862A12.981,12.981,0,0,1-759.535,250.664Zm22.779-16.1a12.137,12.137,0,0,1-5.927-7.1c-.08.113-.15.231-.236.34a7.183,7.183,0,0,1-.8.849,1.5,1.5,0,0,1-.308,2.449,25.341,25.341,0,0,1-8.569,3.11,13.085,13.085,0,0,1-3.7-.018c-1.747-.269-3.346-1.086-5.134-.625-2.421.626-4.37,2.759-6.5,3.962a11.469,11.469,0,0,1-6.234,1.528,11.677,11.677,0,0,1-6.367-2.283c-1.506-1.125-1.669-2.173-3.964-1.916-1.211.136-2.411.563-3.638.708a24.106,24.106,0,0,1-14.013-2.668c-.128.559-.263,1.116-.428,1.665-.6,2-3.729,1.143-3.129-.862a24.435,24.435,0,0,0-.241-14.769c-.663-1.99,2.472-2.836,3.129-.862a27.273,27.273,0,0,1,1.354,7.616c.018,0,.034,0,.053,0,6.378,1.5,11.584-5.511,18.1-5.221,2.63.117,4.308,1.414,6.124,3.162,2.973,2.863,6.348.321,9.525-.9,5.545-2.122,9.431-.626,14.228,2.445,3.011,1.927,6.573,3.233,8.689-.489,1.215-2.138,1.879-4.427,3.893-6l.022.028c.107-.092.193-.193.307-.281,1.464-1.123,3.4,1.429,1.966,2.548a6.356,6.356,0,0,0-1.16,1.215c-1.769,3.033,2,8.348,4.609,9.558C-733.222,232.645-734.873,235.441-736.755,234.569Z" transform="translate(909.045 -30.987)" fill="#e9af16"/>
</svg>
