<svg id="Gruppe_1" data-name="Gruppe 1" xmlns="http://www.w3.org/2000/svg" width="470.035" height="333.722" viewBox="0 0 470.035 333.722">
  <path id="Pfad_127" data-name="Pfad 127" d="M384.6,39.5c8.217,13.919,7.128,31.113-.734,44.981a1.535,1.535,0,0,0,2.648,1.548c7.435-13.112,9.681-30.33,2.872-44.178-1.773-3.6-4.059-6.912-6.043-10.4a82.613,82.613,0,0,1-5.253-11.179A186.436,186.436,0,0,1,371.943.24h-3.171c1.677,6.45,3.422,12.889,5.719,19.148C377.121,26.553,380.738,32.957,384.6,39.5Z" transform="translate(47.204 -0.24)" fill="none"/>
  <path id="Pfad_128" data-name="Pfad 128" d="M366.724,33.932c1.407,4.26,4.037,7.888,5.046,12.328a27.563,27.563,0,0,1-17.218,32.011c-1.824.7-1.032,3.666.815,2.958a30.727,30.727,0,0,0,17.7-40.863c-1.416-3.322-3.594-6.361-4.014-10.029-.7-6.048,2.5-11.84,5.061-17.087,2.02-4.146,4.038-8.466,4.778-13.01h-3.1C373.694,11.715,362.69,21.734,366.724,33.932Z" transform="translate(36.054 -0.24)" fill="none"/>
  <path id="Pfad_129" data-name="Pfad 129" d="M242.622,1.575c-1.927,1.454-3.8,2.982-5.62,4.566-1.21,1.052-2.363,2.167-3.526,3.272a1.419,1.419,0,0,1,1.348,1.451q.008,3.6.017,7.208c0,1.243.048,2.5.055,3.761l.3.062a1.4,1.4,0,0,0,1.29.609,1.57,1.57,0,0,1-.883-2.877,53.169,53.169,0,0,0,10.957-8.674C248.832,8.5,251.547,3.309,248.923.24h-4.655C243.672.7,243.109,1.208,242.622,1.575Z" transform="translate(-51.695 -0.24)" fill="#e9af16"/>
  <path id="Pfad_130" data-name="Pfad 130" d="M209.314,75.478a25.2,25.2,0,0,0,13.194-3.569c3.767-2.091,7.4-4.3,11.5-5.695A40.656,40.656,0,0,1,259.025,66c-.113-1.073-.211-2.112-.31-3.083-.466-4.539-1.412-10,.916-14.2a26.853,26.853,0,0,0,2.127-3.4,7.1,7.1,0,0,0-.2-4.6c-.388-1.342-.883-2.636-1.2-3.98a3.283,3.283,0,0,1-.334.135,4.94,4.94,0,0,1-.793.126,3.824,3.824,0,0,1-1.231-.1,2.685,2.685,0,0,1-.415-.13c-.173-.071-.341-.156-.511-.239a1.178,1.178,0,0,1-1.006.767c-7.533,1.084-16.32,2.2-23.046-2.268a52.087,52.087,0,0,1-4.364-3.71c-2.086-1.74-4.45-2.091-7.085-2.207-5.326-.234-10.673-.258-16-.3q-32.4-.273-64.739,2.145a1.3,1.3,0,0,1-.955-.294Q134.445,41.677,128.46,52.4c7.985,1.627,15.061-4.689,21.838-8.108C158,40.4,166.415,41.177,174.8,41.2l56.442.135a1.541,1.541,0,0,1,.407,3.014L185.286,59.077,162.1,66.444c-4.838,1.537-9.886,3-14.082,5.847,6.848.843,11.791,7.848,15.3,13.538.59.954,1.167,1.923,1.807,2.846.282.405.788,1.364,1.16,1.544a3.71,3.71,0,0,0,2.763-.4c1.653-.907,3.092-2.721,4.6-3.888A50.528,50.528,0,0,1,184.44,79.57C192.531,76.067,200.609,75.348,209.314,75.478Z" transform="translate(-128.46 20.626)" fill="#e9af16"/>
  <path id="Pfad_131" data-name="Pfad 131" d="M212.847,32.192a5.916,5.916,0,0,1,.341,1.889c.016.068.033.135.047.2a30.521,30.521,0,0,0,.35-3.628,9.7,9.7,0,0,0-.893-4.881A26.893,26.893,0,0,0,212.847,32.192Z" transform="translate(-66.977 18.425)" fill="#e9af16"/>
  <path id="Pfad_132" data-name="Pfad 132" d="M207.224,13.282c2.406,2.415,2.584,6.124,2.264,9.569a1.619,1.619,0,0,1-1.87,1.437,5.655,5.655,0,0,1,.912,1.12,1.452,1.452,0,0,1,.1,1.3,6.021,6.021,0,0,0,1.894-1.136,1.459,1.459,0,0,1,1.187-.409,1.382,1.382,0,0,1,.505-.142,1.521,1.521,0,0,1,1.073-1.708,1.543,1.543,0,0,1,1.887,1.07c.092.6.18,1.2.265,1.809.225.1.448.2.673.294-.1-3.412.538-6.751,3.041-9.032a6.9,6.9,0,0,1-3.893-1.033A40.952,40.952,0,0,0,207.224,13.282Z" transform="translate(-70.885 9.294)" fill="#e9af16"/>
  <path id="Pfad_133" data-name="Pfad 133" d="M205.894,49.473c.583-.585,1.2-1.136,1.774-1.662a23.811,23.811,0,0,0,7.159-11.76,31.531,31.531,0,0,0,.317-3.692q-.244-1.067-.409-2.143a1.514,1.514,0,0,0-.419-.518c-.808-.615-2.619.028-3.592.13-2.1.222-3.72.256-4.153,2.622-.594,3.244,1.456,6.277,1.882,9.423a8.172,8.172,0,0,1-.433,4.166A22.439,22.439,0,0,1,205.894,49.473Z" transform="translate(-71.857 21.101)" fill="#e9af16"/>
  <path id="Pfad_134" data-name="Pfad 134" d="M222.251,32.164c.73-.8,1.445-1.617,2.195-2.4a4.464,4.464,0,0,1-.8-.988c-.028-.048-.038-.1-.064-.152a1.573,1.573,0,0,1-.6-.175c-1.288-.682-2.823-.734-4.151-1.355a21.349,21.349,0,0,1-3.516-2.688c-.293-.22-.608-.4-.912-.6a1.386,1.386,0,0,1-.609.344,1.474,1.474,0,0,1-.249.014c1.741,1.835,2.354,4.632,2.4,7.137a29.955,29.955,0,0,1-.431,5.189c.524-.208,1.054-.405,1.579-.6a11.434,11.434,0,0,0,3.137-1.809A1.584,1.584,0,0,1,222.251,32.164Z" transform="translate(-66.263 16.986)" fill="#e9af16"/>
  <path id="Pfad_135" data-name="Pfad 135" d="M225.386,14.444a9.873,9.873,0,0,0-.005,5.167A5.472,5.472,0,0,0,226.63,22c.066-.329.138-.654.175-.992a10.507,10.507,0,0,0-.763-5.537A4.618,4.618,0,0,0,225.386,14.444Z" transform="translate(-57.863 10.143)" fill="#e9af16"/>
  <path id="Pfad_136" data-name="Pfad 136" d="M204.641,25.864c-1.89,1.174-2.223,3.443-2.19,5.494.01.589.177,5.847,1.489,4.914a1.547,1.547,0,0,1,2.1.55,1.431,1.431,0,0,1,.116.339,5.677,5.677,0,0,1,3.206-4.291,7.654,7.654,0,0,1,2.5-.474,1.3,1.3,0,0,1,.564-.632c3.626-1.824,3.99-5.962,3.67-9.719-.147-.059-.294-.121-.441-.178a12.86,12.86,0,0,1-5.345,2.287C208.4,24.573,206.332,24.813,204.641,25.864Z" transform="translate(-74.375 15.569)" fill="#e9af16"/>
  <path id="Pfad_137" data-name="Pfad 137" d="M207.954,14.267a39.573,39.573,0,0,0-8.1-1.262c1.575,1.695,3.336,3.247,4.331,5.376a12.791,12.791,0,0,1,.689,3.8c1.014.113,2.03.222,3.05.334a10.1,10.1,0,0,1,3.954,1.12,1.447,1.447,0,0,1-.064-.582C212.155,19.339,212.144,15.539,207.954,14.267Z" transform="translate(-76.274 9.091)" fill="#e9af16"/>
  <path id="Pfad_138" data-name="Pfad 138" d="M230.414,14.081c-.481.128-.954.293-1.388.422q-3.482,1.049-6.964,2.1c-1.966.594-4.2,1.077-5.8,2.442-2.356,2.008-2.38,5.382-2.037,8.366a21.574,21.574,0,0,1,2.037,1.29c.3.215.575.464.864.694q-.61-1.675-1.219-3.351c-.675-1.863,2.29-2.657,2.958-.817q.73,2.01,1.461,4.021c.383,1.054.521,1.9,1.753,2.091a11.168,11.168,0,0,0,6.3-1.037,11.449,11.449,0,0,0,5.255-5.1,5.142,5.142,0,0,1-1.734-1.457,11.212,11.212,0,0,1-1.838-7.8A14.24,14.24,0,0,1,230.414,14.081Z" transform="translate(-65.882 9.878)" fill="#e9af16"/>
  <path id="Pfad_139" data-name="Pfad 139" d="M236.962,13.849a5.694,5.694,0,0,0-.711-4.76c-.715-1.071-.666-1.023-1.651-.346-.822.566-1.637,1.141-2.456,1.712a1.259,1.259,0,0,1-1.213.175,17.723,17.723,0,0,0-4.98,5.293c3.015,1.913,3.628,6.671,3.164,10.289a1.762,1.762,0,0,1,.415.228c.054-.016.111-.019.164-.036.213-.068.422-.145.63-.225l.01-.005.033-.016c.1-.048.2-.1.3-.145a9.4,9.4,0,0,0,1.151-.682c.1-.066.189-.135.284-.2l.074-.061c.173-.142.341-.291.5-.443.132-.125.284-.265.431-.407a1.588,1.588,0,0,1-.542-1.6C233.456,19.392,236.048,17.013,236.962,13.849Z" transform="translate(-57.197 5.619)" fill="#e9af16"/>
  <path id="Pfad_140" data-name="Pfad 140" d="M218.05,43.679c-1.861-3.974-4.644,2.039-5.627,3.689-.767,1.286-1.584,2.659-3.064,3.209a3.836,3.836,0,0,1-4.1-1.013c.128,1.189.279,2.354.389,3.439.49,4.791.791,13.065,4.975,16.747a29.208,29.208,0,0,1-.808-3.739c-.573-4.085,1.352-7.466,3.751-10.607C215.862,52.395,219.994,47.829,218.05,43.679Z" transform="translate(-72.323 30.538)" fill="#e9af16"/>
  <path id="Pfad_141" data-name="Pfad 141" d="M221.038,45.173c-.881-3.6-3.244-5.645-5.136-8.584a25.93,25.93,0,0,1-3.06,4.923,38.23,38.23,0,0,1-4.192,4.246c-1.276,1.181-3.621,3.388-2.261,5.286,1.613,2.255,3.7-2.456,4.438-3.7.763-1.3,1.5-2.981,2.891-3.749,2.621-1.449,5.517.706,6.59,3.067,2.78,6.105-2.673,11.544-5.821,16.129a11.327,11.327,0,0,0-2.216,5.1c-.215,2.006.507,3.94,1.123,5.82,1.355,4.132,2.693,8.271,4.08,12.394a4.986,4.986,0,0,0,.568,1.492c.27.315,1.565.876,2.056.445.573-.5.348-2.212.3-2.908-.137-1.925-.363-3.839-.464-5.768a98.309,98.309,0,0,1,.185-12.991C220.674,59.462,222.729,52.064,221.038,45.173Z" transform="translate(-71.796 26.331)" fill="#e9af16"/>
  <path id="Pfad_142" data-name="Pfad 142" d="M197.361,11.988c-2.55,1-7.256,4.457-4.057,7.236,2.363,2.049,6.443,2.6,9.391,3.256,1.575.346,3.15.6,4.729.808a8.9,8.9,0,0,0-2.475-4.869,28.891,28.891,0,0,1-4.215-5.018c-.535-.916.128-2.448,1.324-2.307,2.43.282,4.864.556,7.294.852C205.384,10.869,201.29,10.452,197.361,11.988Z" transform="translate(-81.847 7.612)" fill="#e9af16"/>
  <path id="Pfad_143" data-name="Pfad 143" d="M491.661,20.28a82.617,82.617,0,0,0,5.253,11.179c1.984,3.484,4.27,6.794,6.043,10.4,6.81,13.848,4.563,31.066-2.872,44.178a1.535,1.535,0,0,1-2.648-1.548c7.862-13.869,8.951-31.063.734-44.981-3.864-6.547-7.481-12.951-10.111-20.116-2.3-6.259-4.042-12.7-5.719-19.148h-1.03c-.739,4.544-2.757,8.864-4.778,13.01-2.558,5.247-5.757,11.038-5.061,17.087.421,3.668,2.6,6.708,4.014,10.029a30.727,30.727,0,0,1-17.7,40.863c-1.847.708-2.64-2.259-.815-2.958A27.563,27.563,0,0,0,474.188,46.26c-1.009-4.44-3.639-8.068-5.046-12.328-4.033-12.2,6.971-22.217,9.07-33.692H433.858a91.417,91.417,0,0,0,15.688,23.465,1.555,1.555,0,0,1-.31,2.41c-13.387,8.008-29.311,8.911-44.519,8.188-7.687-.365-15.356-1.087-23.048-1.317-7.59-.225-15.065.507-22.629.917-7.507.407-14.592-1-22.032-1.537a31.062,31.062,0,0,0-11.5,1.239,101.207,101.207,0,0,1-10.556,3.045c-7.054,1.331-14.251,1.146-21.392,1a201.889,201.889,0,0,0-22.091.637,181.719,181.719,0,0,0-41.551,8.767,1.6,1.6,0,0,1-.178.528,1.55,1.55,0,0,1-.916.7,4.74,4.74,0,0,1-1.317.073c-.99.93-1.883,1.966-2.8,2.976,6.884,5.276,16.52,4.715,24.751,3.388,10.054-1.622,20.031-3.91,30.017-5.9,4.94-.985,9.884-2.056,14.9-2.564a55.008,55.008,0,0,1,14.644.668c5.209.865,10.386,2.044,15.7,1.92.812-.019,1.617-.1,2.423-.164a21.189,21.189,0,0,1-2.922-3.259c-1.151-1.612,1.511-3.142,2.648-1.549a17.331,17.331,0,0,0,4.5,4.3c2.61-.422,5.2-.98,7.783-1.556,8.809-1.97,17.93-4.1,26.777-1.158,1.868.62,1.063,3.581-.815,2.958-9.726-3.233-19.633.042-29.33,2.051a43.533,43.533,0,0,0,11.591,2.493c8.233.793,16.566.86,24.826,1.219,8.684.377,17.44,1.042,26.129.433,8.83-.62,17.4-2.958,26.046-4.688,8.691-1.736,17.485-2.873,26.269-4.018,1.954-.254,1.93,2.818,0,3.069-10.917,1.419-21.738,3.055-32.5,5.406-8.838,1.932-17.589,3.507-26.668,3.524-9.268.019-18.554-.628-27.812-1.03-10.426-.452-23.65.194-33-5.529a48.1,48.1,0,0,1-12.832.14c-5.1-.66-10.109-1.939-15.243-2.321-10.987-.815-22.269,2.607-32.963,4.738-9.148,1.824-18.418,4.265-27.77,4.717-6.886.334-13.915-.808-19.333-5.11a12.512,12.512,0,0,1-1.71,1.281c-1.708,1.037-3.711,1.421-5.453,2.382a4.848,4.848,0,0,0-.549.36c-.37,1.421-.779,2.827-1.255,4.173a1.589,1.589,0,0,1-.163.308c.826,1.137,1.873,2.164,2.655,3.287a16.713,16.713,0,0,1,2.3,4.883c1.575,5.416.943,11.175.189,16.867a5.944,5.944,0,0,1,4.7-1.835,1.748,1.748,0,0,1,1.085.45,1.344,1.344,0,0,1,.353.606l12.032-1.326q28.167-3.105,56.333-6.209,13.956-1.54,27.912-3.078c9.114-1,18.511-2.737,27.7-2.165,16.647,1.033,29.9,13.052,46.413,14.869,17.1,1.882,34.012-3.336,51.113-2.775,7.088.234,14.907,1.2,20.367,6.18,4.861,4.437,6.451,11.038,6.955,17.362.587,7.372-.009,14.767.711,22.141a118.93,118.93,0,0,0,5.269,24.556c5.122,16.022,12.861,31.047,20.846,45.8,7.767,14.345,17.343,28.783,20.656,44.978,3.145,15.376,1.168,31.137-.073,46.605-1.091,13.6-1.715,27.727,2.643,40.754L527.8,293.59q2.121-20.3,4.244-40.6c1.366-13.062,3.015-26.129,3.945-39.229.879-12.387.7-25.208-3.985-36.9-2.95-7.362-7.628-14.27-9.855-21.859-2.444-2.681-4.937-5.321-7.516-7.878a1.571,1.571,0,0,1,0-2.169,7.854,7.854,0,0,1,7.7-2.761,1.3,1.3,0,0,1,.933,1.966,1.279,1.279,0,0,1,.717,1.281,25.787,25.787,0,0,0,.933,8.066q4.456,4.946,8.6,10.164a134.858,134.858,0,0,0-10.254-69.442c-2.224-5.094-5.191-9.841-7.358-14.944-2.134-5.023-1.708-9.984-.123-15.1,1.752-5.655,3.694-11.175,4.968-16.972a118.645,118.645,0,0,0,2.56-18.539A120.245,120.245,0,0,0,521.56.24H485.513A186.436,186.436,0,0,0,491.661,20.28Z" transform="translate(-66.365 -0.24)" fill="#e9af16"/>
</svg>
