<svg xmlns="http://www.w3.org/2000/svg" width="459" height="843.641" viewBox="0 0 459 843.641">
  <g id="Gruppe_1" data-name="Gruppe 1" transform="translate(-1074.143 -100.702)">
    <path id="Pfad_278" data-name="Pfad 278" d="M1197.106,278.652l.021-.008c.027-.107.053-.215.087-.319-.015-.057-.028-.113-.043-.168A2.538,2.538,0,0,0,1197.106,278.652Z" transform="translate(108.916 157.184)" fill="#e9af16"/>
    <path id="Pfad_279" data-name="Pfad 279" d="M1184.379,279.706a3.306,3.306,0,0,0,.454-.155,2.325,2.325,0,0,0-.349-.126A1.183,1.183,0,0,1,1184.379,279.706Z" transform="translate(97.643 158.306)" fill="#e9af16"/>
    <path id="Pfad_280" data-name="Pfad 280" d="M1270.7,407.774q-3.935-.255-7.841-.781c-1.81-.241-3.732-.422-5.263-1.51-1.708-1.214-2.589-3.325-3.126-5.539-5.186,4.105-10.245,8.354-15.258,12.669-1.569,1.352-3.01,2.072-5.02,1.12a25.692,25.692,0,0,1-6.36-4.92q-.846-.826-1.637-1.708a9.591,9.591,0,0,0-1.135-1.4,1.293,1.293,0,0,1-.185-.106c-1.256-.305-3.554,2.284-4.4,2.972-2.389,1.942-4.72,4.034-7.209,5.848-2.124,1.546-3.719.705-5.8-.573a75.723,75.723,0,0,1-6.972-4.88,1.127,1.127,0,0,1-.49-.947,6.465,6.465,0,0,1-1.46,2.054c-1.488,1.352-3.547,1.4-5.438,1.539-5.248.387-10.5.732-15.765.9-1.961.062-3.922.083-5.885.081a1.451,1.451,0,0,1-.928,1.544,38.908,38.908,0,0,0-8.579,4.556c-.673.475-1.326.977-1.961,1.5,1,.257,1.987.643,2.938.99,1.937.707,3.868,1.429,5.772,2.218a53.374,53.374,0,0,1,9.836,5.1,33.865,33.865,0,0,1,4.418,3.564c1.55,1.5,2.859,3.289,4.688,4.469,3.943,2.542,9.542,2.759,14.025,1.918,3.99-.749,7.453-3.1,11.522-3.43,4.432-.355,8.82.466,13.163,1.2,1.228.207,2.58.513,3.746-.155.749-.43,1.3-1.192,2.018-1.68,1.207-.822,3.858-1.194,4.88-2.476-6.651-.213-13.319.087-19.953-.245-6.428-.321-11.083-3.579-15.844-7.609a1.424,1.424,0,0,1,1.376-2.363c9.486,3.289,21.853-7.23,29.8,2.074,1.177,1.377-.816,3.387-2,2-3.568-4.177-9.289-3.281-14.036-2.121a42.329,42.329,0,0,1-9.182,1.575,22.627,22.627,0,0,0,3.268,2.014,19.936,19.936,0,0,0,9.116,1.644c6.442-.038,12.859-.06,19.3.253a1.457,1.457,0,0,1,1.414,1.414c.388,3.9-3.477,4.467-6.1,5.912a10.445,10.445,0,0,0-1.729,1.324c7.252.147,15,.334,21.077,4.669,6.5,4.645,7.737,11.822,5.435,19.152-.686,2.184-1.582,4.3-2.436,6.417-.881,2.189-1.74,4.007.177,5.84,2.357,2.254,5.946,2.782,8.914,3.822a12.836,12.836,0,0,1,6.434,4.185,17.093,17.093,0,0,0,1.29,1.971c.939.947,1.028.639,2.041-.057a3.778,3.778,0,0,1,1.49-.69q1.078-10.211,2.4-20.4c.813-6.2,1.569-12.488,4.264-18.2,2.825-5.989,7.454-11.215,6.174-18.3a26.3,26.3,0,0,0-4.077-9.47c-1.614-2.495-3.547-4.72-4.177-7.7a1.369,1.369,0,0,1,.189-1.06Q1276.153,408.119,1270.7,407.774Z" transform="translate(76.033 265.057)" fill="#e9af16"/>
    <path id="Pfad_281" data-name="Pfad 281" d="M1211.217,295.458c2.367.832,1.39-3.594,1.439-4.76a21.255,21.255,0,0,1,1.729-7.072c.937-2.3,2.542-4.7,2.819-7.211a6.685,6.685,0,0,0-2.785-6.167c-1.422-.984-4.857-2.163-6.048-.277a1.338,1.338,0,0,1-1.608.573c-.323.532-.647,1.065-.952,1.622a9.4,9.4,0,0,0-.532,1.145,4.271,4.271,0,0,1,.409.641,1.439,1.439,0,0,1-.377,1.818,24.183,24.183,0,0,0,2.1,2.953,8.739,8.739,0,0,1,1.288,4.616c.8-2.133,1.4-4.36.649-6.6-.583-1.731,2.15-2.468,2.727-.752,1.652,4.907-1.635,9.106-2.608,13.736C1209.084,291.555,1209,294.683,1211.217,295.458Z" transform="translate(116.156 149.046)" fill="#e9af16"/>
    <path id="Pfad_282" data-name="Pfad 282" d="M1194.288,276.79a3.48,3.48,0,0,1,.219-.888l-.545.124C1194.087,276.281,1194.2,276.6,1194.288,276.79Z" transform="translate(106.131 155.185)" fill="#e9af16"/>
    <path id="Pfad_283" data-name="Pfad 283" d="M1189.8,397.6h0l0,0Z" transform="translate(102.441 262.977)" fill="#e9af16"/>
    <path id="Pfad_284" data-name="Pfad 284" d="M1189.821,397.587l.006,0-.008,0Z" transform="translate(102.462 262.967)" fill="#e9af16"/>
    <path id="Pfad_285" data-name="Pfad 285" d="M1189.809,397.6l-.007,0-.019.006.013,0Z" transform="translate(102.429 262.977)" fill="#e9af16"/>
    <path id="Pfad_286" data-name="Pfad 286" d="M1189.8,397.6l.011,0C1189.708,397.606,1189.746,397.609,1189.8,397.6Z" transform="translate(102.397 262.979)" fill="#e9af16"/>
    <path id="Pfad_287" data-name="Pfad 287" d="M1285.168,233.022c-.057,0-.1,0-.106.015C1285.011,233.126,1285.087,233.084,1285.168,233.022Z" transform="translate(186.809 117.204)" fill="#e9af16"/>
    <path id="Pfad_288" data-name="Pfad 288" d="M1283.94,290.618a12.594,12.594,0,0,0-1.292-2.821c-.251,2.661-.419,5.6-1.569,7.877a16.078,16.078,0,0,1-2,2.655,9.391,9.391,0,0,0-1.774,4.2c-.53,2.695-.43,5.516-1.292,8.148-.8,2.436-2.378,4.053-4.048,5.912-1.113,1.235-2.186,2.5-1.433,4.232a9.676,9.676,0,0,0,.792,1.388c0-.019,0-.036,0-.055a14.773,14.773,0,0,1,5.278-8.674,14.59,14.59,0,0,1,4.247-2.367,12.809,12.809,0,0,0,2.366-.768c.864-.522,1.162-1.59,1.75-2.37.041-.055.1-.1.139-.151a1.151,1.151,0,0,1-.56-.232,1.316,1.316,0,0,1-.436.219,1.427,1.427,0,0,1-1.739-.988c-.587-3.815.792-7.279,1.573-10.947A10.533,10.533,0,0,0,1283.94,290.618Z" transform="translate(173.729 165.722)" fill="#e9af16"/>
    <path id="Pfad_289" data-name="Pfad 289" d="M1260.8,259.03a.273.273,0,0,0-.07-.023C1260.789,259.056,1260.84,259.1,1260.8,259.03Z" transform="translate(165.275 140.221)" fill="#e9af16"/>
    <path id="Pfad_290" data-name="Pfad 290" d="M1189.151,389.974l0-.007h0Z" transform="translate(101.87 256.219)" fill="#e9af16"/>
    <path id="Pfad_291" data-name="Pfad 291" d="M1189.141,390.013a.082.082,0,0,0,.019-.023v-.021l-.011.019Z" transform="translate(101.861 256.223)" fill="#e9af16"/>
    <path id="Pfad_292" data-name="Pfad 292" d="M1189.113,390.023h0Z" transform="translate(101.836 256.27)" fill="#e9af16"/>
    <path id="Pfad_293" data-name="Pfad 293" d="M1189.113,390.039l.011,0,.019-.032-.021.019Z" transform="translate(101.836 256.254)" fill="#e9af16"/>
    <path id="Pfad_294" data-name="Pfad 294" d="M1189.114,390.041l.008-.009c.028-.043.026-.045,0-.015Z" transform="translate(101.837 256.246)" fill="#e9af16"/>
    <path id="Pfad_295" data-name="Pfad 295" d="M1189.15,390.006h0l.008-.025-.028.045Z" transform="translate(101.85 256.232)" fill="#e9af16"/>
    <path id="Pfad_296" data-name="Pfad 296" d="M1189.118,390.024a.182.182,0,0,0-.009.034l.021-.036-.011,0Z" transform="translate(101.832 256.269)" fill="#e9af16"/>
    <path id="Pfad_297" data-name="Pfad 297" d="M1189.123,390.024a.2.2,0,0,0-.028,0v0Z" transform="translate(101.82 256.27)" fill="#e9af16"/>
    <path id="Pfad_298" data-name="Pfad 298" d="M1187.654,389.05a.34.34,0,0,1,.015.055v-.021A.2.2,0,0,0,1187.654,389.05Z" transform="translate(100.544 255.408)" fill="#e9af16"/>
    <path id="Pfad_299" data-name="Pfad 299" d="M1190.476,391.267c0-.091,0-.179,0-.27,0-.03-.01-.057-.015-.081-.03-.123-.074-.241-.109-.362l-.04-.079c-.066-.128-.14-.253-.219-.375-.034-.049-.068-.1-.1-.149-.045-.066-.17-.147-.025-.04.168.124-.025-.024-.062-.07l-.121-.136q-.124-.136-.254-.26c-.109-.1-.221-.2-.336-.3l-.083-.057a5.807,5.807,0,0,0-.666-.4c-.055-.028-.111-.055-.168-.083-.1-.032-.309-.115-.336-.123l-.047-.011a.76.76,0,0,1-.1.173l-.006.015c-.019.055-.036.111-.053.166-.036.134-.072.575-.051.14-.008.147-.027.29-.027.439,0,.06.006.121.01.183a.25.25,0,0,1,.03.128c.015.083.025.168.04.223s.041.126.062.189c.064.117.122.234.194.347.019.028.038.055.055.081.151.156.313.3.466.451l.049.034c.049.032.1.062.149.092.1.06.2.111.307.164.022.011.049.019.072.028.111.038.223.072.338.1.066.017.136.03.2.043.111,0,.232.017.339.013.038,0,.073,0,.111-.006.066-.019.2-.059.281-.079l.005,0a.156.156,0,0,0,.042-.036.16.16,0,0,1,.058-.074Z" transform="translate(100.547 254.899)" fill="#e9af16"/>
    <path id="Pfad_300" data-name="Pfad 300" d="M1189.142,390.031l.005,0h-.005C1189.061,390.061,1188.951,390.138,1189.142,390.031Z" transform="translate(101.768 256.273)" fill="#e9af16"/>
    <path id="Pfad_301" data-name="Pfad 301" d="M1189.151,389.969l-.007.024,0,0,.007-.025Z" transform="translate(101.864 256.22)" fill="#e9af16"/>
    <path id="Pfad_302" data-name="Pfad 302" d="M1187.664,389.137c0,.092.025.091.028.049a.491.491,0,0,0-.03-.107Z" transform="translate(100.551 255.433)" fill="#e9af16"/>
    <path id="Pfad_303" data-name="Pfad 303" d="M1189.154,389.959l-.005.015h0Z" transform="translate(101.868 256.212)" fill="#e9af16"/>
    <path id="Pfad_304" data-name="Pfad 304" d="M1111.77,201.568a1.377,1.377,0,0,1-.628-1.122A1.377,1.377,0,0,0,1111.77,201.568Z" transform="translate(32.772 88.349)" fill="#e9af16"/>
    <path id="Pfad_305" data-name="Pfad 305" d="M1118.709,203.519c-.888-.338-1.763-.647-2.5-.977C1116.946,202.872,1117.821,203.181,1118.709,203.519Z" transform="translate(37.257 90.206)" fill="#e9af16"/>
    <path id="Pfad_306" data-name="Pfad 306" d="M1113.067,194a11.433,11.433,0,0,0-1.843,1.888A11.433,11.433,0,0,1,1113.067,194Z" transform="translate(32.845 82.636)" fill="#e9af16"/>
    <path id="Pfad_307" data-name="Pfad 307" d="M1201.55,144.394c1.622-1.548.917-4.505.428-6.406a7.632,7.632,0,0,0-3.012-4.829l-.368,4.471a38.5,38.5,0,0,0-.283,4.465,3.445,3.445,0,0,0,1.02,2.617A1.642,1.642,0,0,0,1201.55,144.394Z" transform="translate(109.98 28.749)" fill="#e9af16"/>
    <path id="Pfad_308" data-name="Pfad 308" d="M1119.847,314.392c-.028.2-.081.379-.119.571a23.649,23.649,0,0,0,2.6-1.78,14.055,14.055,0,0,0,1.659-1.571c.33-.371,1.141-1.171,1.158-1.7a2.237,2.237,0,0,0-.362-.641c-.272-.417-.543-.83-.815-1.245q-.767-1.177-1.535-2.352l-3.163-4.843a1.389,1.389,0,0,1-.183-.464,1.6,1.6,0,0,1-.379-.04C1118.8,305.043,1120.564,309.638,1119.847,314.392Z" transform="translate(39.476 176.825)" fill="#e9af16"/>
    <path id="Pfad_309" data-name="Pfad 309" d="M1140.133,401.077a.88.88,0,0,0-.568.973,79.061,79.061,0,0,1-9.9,8.825c-3.777,2.832-7.313,5.012-8.7,9.806a38.294,38.294,0,0,0-1.381,13.134c.336,4.239,2.206,8.156,2.785,12.352a12.858,12.858,0,0,1-2.682,10.013c-1.283,1.7-2.757,3.287-3.491,5.322a13.372,13.372,0,0,0-.383,6.762c.719,4.185,2.755,7.977,4.264,11.9.364.949.745,1.933,1.031,2.938.686-1.033,1.4-2.055,2.067-3.121,2.188-3.524,2.823-7.49,3-11.569.3-6.9.06-13.553,2.559-20.127a48,48,0,0,1,10.33-15.98c2.193-2.293,5.131-4.347,6.5-7.285,1.631-3.5.8-8.348.736-12.084q-.167-9.538-.332-19.076A21.718,21.718,0,0,1,1140.133,401.077Z" transform="translate(36.69 259.672)" fill="#e9af16"/>
    <path id="Pfad_310" data-name="Pfad 310" d="M1189.5,145.988c1.4,1.307,2.606,1.314,4.377.747a3.531,3.531,0,0,0,2.6-3.132c.352-1.661.571-3.364.764-5.05a78.217,78.217,0,0,0,.507-9.327c-.019-3.121-.349-5.814-2.795-7.975a60.314,60.314,0,0,0-4.933-3.56,1.264,1.264,0,0,1-.841.032c-1.639-.5-2.207,1.989-2.582,3.095-.526,1.546-1.041,3.1-1.48,4.671a25.1,25.1,0,0,0-1.082,9.648,18.086,18.086,0,0,0,2.727,7.537A17.108,17.108,0,0,0,1189.5,145.988Z" transform="translate(97.236 15.019)" fill="#e9af16"/>
    <path id="Pfad_311" data-name="Pfad 311" d="M1177.221,142.433a4.486,4.486,0,0,0,.16,1.488c.264.517,1.4.326,1.892.27,1.414-.158,3.236-.781,3.854-2.2.871-1.993-1.03-3.937-2.4-5.112-1.392-1.194-2.83-2.336-4.269-3.477l.592,7.026C1177.108,141.1,1177.164,141.766,1177.221,142.433Z" transform="translate(90.628 28.968)" fill="#e9af16"/>
    <path id="Pfad_312" data-name="Pfad 312" d="M1236.6,202.678a1.4,1.4,0,0,1,.513.106,9.81,9.81,0,0,1,9.25-3.715l-.053-2.855a1.306,1.306,0,0,1-1.35,1.311q-14.805-.1-29.609-.14-51.775-.144-103.549.413a3.6,3.6,0,0,0,.389,3.064,5.334,5.334,0,0,0,2.437,1.816H1236.6Z" transform="translate(33.201 84.601)" fill="#e9af16"/>
    <path id="Pfad_313" data-name="Pfad 313" d="M1186.226,458.933a40.938,40.938,0,0,1,10-6.346c-1.857-.059-3.713-.141-5.567-.289q-3.768-.3-7.507-.871c-2.176-.336-4.582-.553-6.453-1.822-2.736-1.857-3.449-5.354-3.577-8.444-.217-5.207.341-10.521.528-15.725q.586-16.426.907-32.861.255-13.068.323-26.139a1.221,1.221,0,0,1-.737-.228c-1.844-1.3-3.883-1.331-6.061-1.352-2.267-.021-4.518-.089-6.774-.309a82.278,82.278,0,0,1-12.7-2.319,170.153,170.153,0,0,1-21.426-7.519c1.873,3.888,4.394,7.464,6.1,11.447,2.351,5.472,1.648,11.269,3.177,16.9a10.351,10.351,0,0,0,4.5,6.574c2.07,1.2,4.586,1.7,6.794,2.619a26.632,26.632,0,0,1,11.03,7.9c6.061,7.813,5.12,18.186,4.924,27.466-.106,4.988.023,10.151,1.731,14.9a18.436,18.436,0,0,0,4.179,6.685,52.814,52.814,0,0,1,4.737,4.922c1.669,2.225,2.366,5.073,4.886,6.574a5.951,5.951,0,0,0,3.179.984C1183.956,461.56,1185.134,459.882,1186.226,458.933Z" transform="translate(46.977 224.99)" fill="#e9af16"/>
    <path id="Pfad_314" data-name="Pfad 314" d="M1103.072,329.767a10.382,10.382,0,0,1-2.87-2.295,36.055,36.055,0,0,0,2.131,3.475,29.084,29.084,0,0,1,2.148,4.992,7.43,7.43,0,0,0,1.716,2.587,52.18,52.18,0,0,0-1.235-5.957A4.059,4.059,0,0,0,1103.072,329.767Z" transform="translate(23.082 200.864)" fill="#e9af16"/>
    <path id="Pfad_315" data-name="Pfad 315" d="M1240.534,271.591c.869-.383,1.672-2.212,1.825-3.068.409-2.31-.845-2.863-2.65-3.4a129.6,129.6,0,0,0-14.992-3.189,81.406,81.406,0,0,0-32.352.686c-5.073,1.169-10.053,2.7-14.994,4.328-2.223.732-6.193,1.288-7.645,3.172-1.535,1.993-.155,4.317,1.247,6.127a1.328,1.328,0,0,1,.222-.145c5.622-2.244,11.207-4.69,16.921-6.693,5.248-1.841,10.585-1.922,16.086-2.052,9.6-.23,19.359-.173,28.726,2.182,1.365.343,2.719.735,4.052,1.182C1238.035,271.078,1239.54,272.025,1240.534,271.591Z" transform="translate(84.069 141.67)" fill="#e9af16"/>
    <path id="Pfad_316" data-name="Pfad 316" d="M1215.1,240.459a37.207,37.207,0,0,0-1.875-5.093c-.613-1.633-1.16-3.308-1.844-4.911a4.059,4.059,0,0,0-.943-1.484,1.319,1.319,0,0,1-.373.869c-1.782,1.852-1.077,3.87.1,5.8a12.731,12.731,0,0,1,1.924,6.557,5.861,5.861,0,0,1-.619,2.953,6.024,6.024,0,0,1-2.3,1.9c-1.776,1.186-1.067,3.551-.349,5.291a36.146,36.146,0,0,0,4.607.19,14.184,14.184,0,0,1,2.246-.025c-.321-.886-.658-1.788-.96-2.755a10.614,10.614,0,0,1-.545-3.928C1214.3,244.006,1215.484,242.29,1215.1,240.459Z" transform="translate(118.608 113.616)" fill="#e9af16"/>
    <path id="Pfad_317" data-name="Pfad 317" d="M1202.022,266.686c-.023.585-.04,1.167-.019,1.752a6.494,6.494,0,0,0,.179,1.539,6.41,6.41,0,0,0,.223.747c.021.042.1.221.111.247.068.132.149.256.223.385a2.482,2.482,0,0,0,.42.492c.079.077.166.149.251.221.03.025.079.06.115.085.741.505,1.569.905,2.359,1.345a43.83,43.83,0,0,0,2.6-4.8c-.786-.3-1.55-.641-2.236-.858C1204.857,267.4,1203.444,267.018,1202.022,266.686Z" transform="translate(113.246 147.022)" fill="#e9af16"/>
    <path id="Pfad_318" data-name="Pfad 318" d="M1178.066,275.064c1.1-1.671.021-4.128.3-6.008.025-.172.064-.339.1-.509-2.6,1.071-5.188,2.167-7.781,3.2.108.073.213.151.315.23a1.48,1.48,0,0,1,1.531.922c.8,1.986,1.518,3.943,2.14,5.9C1175.523,277.291,1177.132,276.486,1178.066,275.064Z" transform="translate(85.519 148.671)" fill="#e9af16"/>
    <path id="Pfad_319" data-name="Pfad 319" d="M1166.865,277.356a5.922,5.922,0,0,0,.615,3.325,12.563,12.563,0,0,0,2.459,2.323,15.745,15.745,0,0,1,3.977,4.688c1.049,2.129.777,4.118.89,6.4.034.705.321,2.606,1.456,2.342.758-.177.454-2.084.436-2.634-.136-3.881.339-8.888-3.566-11.058-1.618-.9-3.14-2.088-2.917-4.145.253-2.335,2.451-3.276,3.807-4.882.024-.032.056-.04.083-.066l-.13-.334a1.333,1.333,0,0,1-.5-.5,3.365,3.365,0,0,0-4.735-1.145C1167.033,272.888,1166.874,275.459,1166.865,277.356Z" transform="translate(82.128 150.952)" fill="#e9af16"/>
    <path id="Pfad_320" data-name="Pfad 320" d="M1170.228,276.83c.236.453,1.014.726,1.429.958a10.458,10.458,0,0,1,1.671,1.1,6.389,6.389,0,0,1,.5.488,42.993,42.993,0,0,0-1.563-5.42C1171.211,274.8,1169.762,275.931,1170.228,276.83Z" transform="translate(85.029 153.465)" fill="#e9af16"/>
    <path id="Pfad_321" data-name="Pfad 321" d="M1179.278,267.521a4.039,4.039,0,0,0,1.8,1.914,2.905,2.905,0,0,0,.7.3.468.468,0,0,1,.025-.209c0-.275-.011-.549-.027-.824-.079-2.086-.055-3.945,1.056-5.782a6.61,6.61,0,0,0,1.3-2.446c.1-.952-.75-1.113-1.492-1.409a6.1,6.1,0,0,1-3.609-3.485c-.756-1.8-.675-3.839-1.446-5.623a2.943,2.943,0,0,0-1.5-1.7,1.24,1.24,0,0,0-.781,0,33.05,33.05,0,0,1,.332,6.151c.094.513.19,1.026.251,1.546a7.077,7.077,0,0,1-.294,4c-.011.021-.028.038-.04.06a5.293,5.293,0,0,0,.805,2.084,2.237,2.237,0,0,1,1.912.571C1179.6,263.94,1178.572,265.973,1179.278,267.521Z" transform="translate(89.591 130.641)" fill="#e9af16"/>
    <path id="Pfad_322" data-name="Pfad 322" d="M1294.779,302.3a1.105,1.105,0,0,1-.481-.984c-.032-.053-.07-.1-.1-.155-.535-.99-.869-2.691-2.04-3.127-1.3-.483-3.415.47-4.62.945a6.457,6.457,0,0,0-3.425,3.093c-1.656,2.638-5.18,2.57-7.583,4.292a11.75,11.75,0,0,0-3.64,4.362,18.374,18.374,0,0,1,4.884-1.243c1.492-.16,2.983-.058,4.481-.081a15.265,15.265,0,0,0,4.544-.867,11.277,11.277,0,0,1,8-.07,21.478,21.478,0,0,1,5.416,3.392C1302.077,308.25,1297.3,304.255,1294.779,302.3Z" transform="translate(176.044 174.669)" fill="#e9af16"/>
    <path id="Pfad_323" data-name="Pfad 323" d="M1289.544,330.352c-1.567-2.182-3.161-4.339-4.55-6.608.077.649.164,1.3.3,1.912C1285.726,327.593,1287.951,328.981,1289.544,330.352Z" transform="translate(186.764 197.562)" fill="#e9af16"/>
    <path id="Pfad_324" data-name="Pfad 324" d="M1286.677,346.068c.519,3.626,1.737,6.955-.36,10.338a43.422,43.422,0,0,1-4.918,6.238c2.887-.358,5.936-.258,8.482-1.725,3.164-1.824,4.928-5.68,6.761-8.682,1.1-1.8,2.336-3.589,3.3-5.471a5.083,5.083,0,0,0,.439-1.243,1.458,1.458,0,0,1-2.078-1.61,13.009,13.009,0,0,0,.256-4.8,40.589,40.589,0,0,0-5.637-8.073,41.864,41.864,0,0,0-3.368-3.306C1289.655,334,1285.776,339.76,1286.677,346.068Z" transform="translate(183.58 201.095)" fill="#e9af16"/>
    <path id="Pfad_325" data-name="Pfad 325" d="M1268.417,345.645a89.1,89.1,0,0,0,4.188-14.1q.382-1.963.707-3.937c-1.367,2.491-3.181,4.669-4.52,7.249C1266.979,338.347,1267.94,341.983,1268.417,345.645Z" transform="translate(171.474 200.981)" fill="#e9af16"/>
    <path id="Pfad_326" data-name="Pfad 326" d="M1275.644,342.976c-1.448,8.018-4.39,15.593-7.37,23.151a1.405,1.405,0,0,1,1,1.678,61.985,61.985,0,0,0-1.5,12.376q-.028,1.417.01,2.836a11.268,11.268,0,0,0,.125,2.614c.215.747,1.176.86,1.886,1.116q1.25.45,2.512.858c1.648.532,3.483,1.279,5.244,1.131a16.449,16.449,0,0,0,4.324-1.416,12.21,12.21,0,0,1,2.269-.664,9,9,0,0,0,1.891-.366c1.339-.562.23-2.463-.155-3.392a13.67,13.67,0,0,1-.334-9.657,1.012,1.012,0,0,1,.078-.134c.134-1.533.354-3.068.554-4.564.662-4.954,1.644-9.866,2.078-14.85.715-8.209-.286-16.663,2.934-24.4a7.117,7.117,0,0,1,.2-7.709c.869-1.226,2.386-1.861,3.213-3.076,1.486-2.18-2.2-3.064-3.632-3.33-2.216-.411-4.439-.784-6.659-1.177-2.34-.413-4.339-.969-6.474.094,1.414,4.626.46,9.548-.1,14.249C1277.155,333.236,1276.521,338.126,1275.644,342.976Z" transform="translate(171.503 188.474)" fill="#e9af16"/>
    <path id="Pfad_327" data-name="Pfad 327" d="M1287.834,326.223l-.5-6.261a19.713,19.713,0,0,0-2.978,4.232c-.017.03-.055.047-.074.077-3.621,8.043-2.108,17.394-3.1,25.944-.468,4.039-1.2,8.041-1.773,12.067a67.554,67.554,0,0,0-.726,7.3c-.019.59.138.873.385.994a1.331,1.331,0,0,1,.183-.294c2.487-2.655,5.38-5.5,7.181-8.684,1.76-3.108-.205-6.727-.309-10.023-.2-6.306,4.067-12.184,2.9-18.5a1.38,1.38,0,0,1,.153-.93,4.225,4.225,0,0,1-.713-1.088C1287.837,329.6,1287.958,327.773,1287.834,326.223Z" transform="translate(181.175 194.212)" fill="#e9af16"/>
    <path id="Pfad_328" data-name="Pfad 328" d="M1290.615,293.617a17.5,17.5,0,0,0-3.283-.943c-1.429-.117-2.236,1.3-3.1,2.267q-1.428,1.6-2.855,3.2c-.8.9-2.58,2.293-2.329,3.611a1.247,1.247,0,0,1,0,.253,16.329,16.329,0,0,1,7.394-2.237,4.524,4.524,0,0,1,3.6,2.206c.351.551.622,1.535,1.032,2.308q1.066-2.922,2.131-5.846c.343-.943,1.6-3.168.62-3.822A12.364,12.364,0,0,0,1290.615,293.617Z" transform="translate(181.476 170.036)" fill="#e9af16"/>
    <path id="Pfad_329" data-name="Pfad 329" d="M1302.266,308.876a1.415,1.415,0,0,1,.1-.932,16.465,16.465,0,0,0-4.914-2.97c-2.653-.9-4.848.143-7.4.82s-5.086.294-7.668.507a15.74,15.74,0,0,0-7.215,2.544,1.22,1.22,0,0,1-1.141.124c.04.089.09.172.125.264a8.421,8.421,0,0,1-.677,7.034c-1.166,1.965-4.6,3.225-5.141,5.416-.419,1.7,1.516,3.9,2.355,5.259.2.322.4.647.6.969a1.4,1.4,0,0,1,1.35,2.4c.066.134.13.256.191.366a1.49,1.49,0,0,1,1.256,1.026,1.414,1.414,0,0,1-.032,1.058,1.3,1.3,0,0,1,.14.27c.176.615.315,1.237.436,1.861.528-3.841,1.135-7.865.177-11.616-2.012.869-4.26,1.222-5.81-.762-1.107-1.418.88-3.432,2-2,1.216,1.556,3.317-.074,4.536-.8a7.739,7.739,0,0,1,5.135-1.256c2.176.257,4.341.736,6.5,1.116a39.342,39.342,0,0,1,6.217,1.239c2.995,1.054,5.231,4.324,3.015,7.224-.888,1.164-2.321,1.807-3.153,3.006a4.324,4.324,0,0,0-.669,2.946,21.506,21.506,0,0,1,5.48-5.442c1.435-.981,3.468-1.712,4.039-3.519.535-1.7-.14-3.617-.7-5.222a1.206,1.206,0,0,1,.021-.894c-1.273-.781-2.482-1.869-3.223-2.389a6.618,6.618,0,0,0-4.96-1.169c-1.95.19-3.9.411-5.844.617a13.611,13.611,0,0,0-3.047.323c-.677.26-1.169.9-1.865,1.186a9.021,9.021,0,0,1-4.735.207c-1.8-.247-1.028-2.972.752-2.729a7.954,7.954,0,0,0,2.287.075,3.509,3.509,0,0,0,1.675-.924c1.143-.849,2.813-.743,4.172-.886l5.078-.537a14.621,14.621,0,0,1,4.913-.053c2.614.615,4.292,2.793,6.577,4.011l.079.034c.021-.177.042-.353.053-.53a18.341,18.341,0,0,0,.01-2.433,16.34,16.34,0,0,0-.656-3.57A8.009,8.009,0,0,1,1302.266,308.876Z" transform="translate(171.959 180.625)" fill="#e9af16"/>
    <path id="Pfad_330" data-name="Pfad 330" d="M1176.367,239.044a4.179,4.179,0,0,1,.14.568,6.391,6.391,0,0,1,.121-.756,3.482,3.482,0,0,1,.832-1.563,11.762,11.762,0,0,1-2.508-.933,6.009,6.009,0,0,1-1.377-.926l0,.656a1.3,1.3,0,0,1-.26.781A3.412,3.412,0,0,1,1176.367,239.044Z" transform="translate(87.84 119.34)" fill="#e9af16"/>
    <path id="Pfad_331" data-name="Pfad 331" d="M1121.373,551.243c.558.145,1.124.228,1.69.321-2.789-3.8-4.822-8.163-7.028-12.3q-3.957-7.425-7.915-14.849a1.044,1.044,0,0,1-.03-.1c-.922-.336-1.759.123-2.668.471a29.67,29.67,0,0,0-9.561,6.059,31.337,31.337,0,0,0-9.206,16.125c.025.015.055.03.079.045a13.391,13.391,0,0,1,6.308,10.134c.117,1.03.1,3.03,1.015,3.792,2.991.047,5.987.109,8.967.009,1.848-.062,1.941-1.554,2.382-3.093a22.492,22.492,0,0,1,1.422-4.056C1109.906,547.748,1116.2,549.9,1121.373,551.243Z" transform="translate(11.082 375.114)" fill="#e9af16"/>
    <path id="Pfad_332" data-name="Pfad 332" d="M1122.776,545.258a15.956,15.956,0,0,1-6.61-3.722c-1.007-.089-2.014-.181-3.017-.343-2.674-.43-5.19-1.546-7.868-1.931-3.368-.483-5.29,1.067-6.346,4.164-.449,1.316-.692,2.906-1.265,4.271l.432-.011q9.812-.255,19.623-.513l5.606-.145c.613-.017,4.2.36,4.671-.123a.606.606,0,0,0,.081-.747A35.307,35.307,0,0,1,1122.776,545.258Z" transform="translate(20.84 388.383)" fill="#e9af16"/>
    <path id="Pfad_333" data-name="Pfad 333" d="M1087.407,537.734c-1.49.04-3.068.275-4.607.462,1.131.287,1.765,1.918.46,2.523a12.162,12.162,0,0,0-6.985,9.01l9.265-.39,5.425-.228c1.545-.064,4.251.592,3.97-1.539-.317-2.4-3.14-4.35-4.69-5.974A12.77,12.77,0,0,1,1087.407,537.734Z" transform="translate(1.889 387.106)" fill="#e9af16"/>
    <path id="Pfad_334" data-name="Pfad 334" d="M1215.635,528.569a14.978,14.978,0,0,0-7.966,21.343,60.592,60.592,0,0,1,3.215-9.2C1212.5,537.044,1215.99,532.778,1215.635,528.569Z" transform="translate(116.656 378.988)" fill="#e9af16"/>
    <path id="Pfad_335" data-name="Pfad 335" d="M1244.458,399.353a74.27,74.27,0,0,1,16.306,40.674c.394,4.773-.69,10.534,1.226,15.045a1.711,1.711,0,0,1,.166.062,1.441,1.441,0,0,1-.645,2.634,1.613,1.613,0,0,1-.288.109c.324.2.39.313.628.984a7,7,0,0,1,.266.96,6.726,6.726,0,0,1,.083,2.057c-.007.06-.024.126-.034.189,5.7-.415,11.245-.187,15.537,4.064,3.979,3.939,5.65,9.384,7.273,14.583a43.381,43.381,0,0,0,3.886,9.365c1.675,2.829,3.615,5.5,4.886,8.546a21.247,21.247,0,0,1,.979,3.021q.079-4.073.162-8.148.113-5.564.222-11.128c.062-3.1.383-6.319-.085-9.4-.338-2.231-1.111-4.775-3.487-5.533-1.635-.521-3.507-.253-4.818-1.582-1.669-1.69-.937-4.465-.779-6.547q.351-4.58.464-9.172c.081-3.257.174-6.557-.034-9.81a7.244,7.244,0,0,0-.8-3.483c-.82-1.22-2.2-1.335-3.449-1.861-4.332-1.833-4.209-7.432-6.617-10.9-5.657-8.137-18.652-10.492-20.515-21.258-1-5.774-.575-12.05-.089-17.858a114.218,114.218,0,0,1,1.9-13.142,62.55,62.55,0,0,0-4.6,6.536,33.167,33.167,0,0,1-3.189,4.2c-1.13,1.22-2.627,2.191-3.591,3.553-1.4,1.971-1.056,4.712-1.092,7.021q-.045,3.021-.09,6.044A1.341,1.341,0,0,1,1244.458,399.353Z" transform="translate(150.665 240.15)" fill="#e9af16"/>
    <path id="Pfad_336" data-name="Pfad 336" d="M1254.592,388.8a47.579,47.579,0,0,0-18.326,19.131,34.079,34.079,0,0,0-3.956,12.307,29.591,29.591,0,0,0,2.039,12.593c2.333,6.636,4.677,13.044,6,19.85a12.566,12.566,0,0,1,7.136-4.366c3.921-.722,8.1-.373,12.067-.381l6.683-.015c.769,0,2.5.326,3.181-.008.656-.322.719-1.335.632-2.114-.183-1.644-1.563-3.106-.505-4.745a2.7,2.7,0,0,1,.273-.294c-1.424-3.971-.888-8.277-1.045-12.478a70.171,70.171,0,0,0-2.176-14.811,71.82,71.82,0,0,0-11.831-24.824A1.545,1.545,0,0,1,1254.592,388.8Z" transform="translate(140.018 255.048)" fill="#e9af16"/>
    <path id="Pfad_337" data-name="Pfad 337" d="M1209.645,260.553a7.159,7.159,0,0,0,2.938-.509c-.113.051.034-.034.134-.09l0-.009a.506.506,0,0,0,.008-.081c0-.064,0-.072,0-.1-.006,0-.011,0-.023-.051,0-.017-.058-.188-.064-.222a4.082,4.082,0,0,0-.3-.5,11.221,11.221,0,0,1-1.66-2.572c-.164-.454-.253-.932-.407-1.392l-.07-.175c-.028-.049-.083-.145-.092-.158-.019-.028-.015-.028-.017-.036a.744.744,0,0,1-.075-.066c.1.1.047.1-.013-.006l-.053-.028a.424.424,0,0,0-.113-.032c-.1,0-.24.007-.264,0a2.937,2.937,0,0,0-.425.113c.213-.075-.179.1-.264.149-.047.028-.32.249-.147.1-.066.058-.129.126-.194.183l-.057.049a2.854,2.854,0,0,0-.187.29,3.961,3.961,0,0,0-.43,1.143c-.253,1.011-.29,1.856-.462,2.893-.087.526-.2,1.047-.338,1.561a1.657,1.657,0,0,1,.65-.409A5.943,5.943,0,0,1,1209.645,260.553Z" transform="translate(117.748 136.248)" fill="#e9af16"/>
    <path id="Pfad_338" data-name="Pfad 338" d="M1194.606,219.586l.009.006a1.451,1.451,0,0,1,2.031,1.426c1.388,1.2,1.522,3.306,1.482,5.069-.008.322.026.635.047.95l.019-.03a2.213,2.213,0,0,0,.287-.769c.032-.123.087-.392.1-.46,0-.03.019-.14.019-.138.011-.1.019-.2.026-.294.038-.513.053-1.03.053-1.543a22.019,22.019,0,0,0-.2-3.11c-.072-.52-.168-1.037-.277-1.55-.045-.206-.092-.409-.143-.613l-.021,0c-.294.047-.588.1-.884.145q-.772.13-1.548.256c-.475.079-.954.147-1.427.241l.011.013A3.583,3.583,0,0,0,1194.606,219.586Z" transform="translate(106.326 104.368)" fill="#e9af16"/>
    <path id="Pfad_339" data-name="Pfad 339" d="M1204.84,250.234a7.484,7.484,0,0,1-1.458,2.427,1.158,1.158,0,0,1-1.36.364,5.164,5.164,0,0,1-3.866,1.993c.313,3.321,2.4,6.385,1.362,9.874-.217.728-.983,1.965-.326,2.632a3.436,3.436,0,0,0,2.044.609c.075.006.151.008.226.011a10.381,10.381,0,0,1,.332-1.571q.326-1.793.652-3.587c.388-2.133.568-4.286,1.844-6.1a10.47,10.47,0,0,0,1.967-5.578,15.955,15.955,0,0,0-.009-3.046c-.072-.553-.089-.647-.658-.724-.128-.008-.258-.006-.386-.008A5.134,5.134,0,0,1,1204.84,250.234Z" transform="translate(109.847 130.055)" fill="#e9af16"/>
    <path id="Pfad_340" data-name="Pfad 340" d="M1193.749,254.254a6.8,6.8,0,0,0-1.533-2.1,14.937,14.937,0,0,1-1.7-1.433,3.264,3.264,0,0,1-.652-2.429c.036-.364.138-.749.2-1.133a1,1,0,0,1-.13,0,1.3,1.3,0,0,1-.575.724c-.637.388-.592,1.384-.6,2.046a21.735,21.735,0,0,1-.105,2.48,6.948,6.948,0,0,1-2.455,4.763c-.624.477-1.447.726-1.645,1.558a5.07,5.07,0,0,0,.336,2.621,16.679,16.679,0,0,0,2.516,4.814c.3.383,1.113,1.233,1.7.8.379-.283.119-1.842.108-2.28-.047-1.752-.5-4.068.324-5.7.76-1.5,2.323-1.854,3.875-1.829.26,0,.521.019.781.023a.917.917,0,0,0,.215-.021c-.036-.245-.049-.668-.06-.771A6.651,6.651,0,0,0,1193.749,254.254Z" transform="translate(97.732 129.73)" fill="#e9af16"/>
    <path id="Pfad_341" data-name="Pfad 341" d="M1194.115,218.771c.047-.068-.139-.062,0,0Z" transform="translate(106.22 104.538)" fill="#e9af16"/>
    <path id="Pfad_342" data-name="Pfad 342" d="M1197.98,231.964l.005-.006-.005.006Z" transform="translate(109.69 116.262)" fill="#e9af16"/>
    <path id="Pfad_343" data-name="Pfad 343" d="M1198.067,231.988l-.008,0c.023.011.051.011.074.025Z" transform="translate(109.76 116.286)" fill="#e9af16"/>
    <path id="Pfad_344" data-name="Pfad 344" d="M1200.066,228.58h0l0,0h0Z" transform="translate(111.532 113.27)" fill="#e9af16"/>
    <path id="Pfad_345" data-name="Pfad 345" d="M1200.011,228.608a.27.27,0,0,1,.066-.011v0C1200.057,228.6,1200.034,228.6,1200.011,228.608Z" transform="translate(111.489 113.283)" fill="#e9af16"/>
    <path id="Pfad_346" data-name="Pfad 346" d="M1200.053,228.581h0Z" transform="translate(111.526 113.271)" fill="#e9af16"/>
    <path id="Pfad_347" data-name="Pfad 347" d="M1200.069,228.586l0,0-.021.021h.008Z" transform="translate(111.52 113.273)" fill="#e9af16"/>
    <path id="Pfad_348" data-name="Pfad 348" d="M1200.451,244.583c.042.083.075.173.117.26.1-.245.213-.487.3-.737a8.892,8.892,0,0,0,.536-3.2,11.092,11.092,0,0,1,.96-5.342,22.773,22.773,0,0,0-.554-6.923c-.024-.017-.053-.032-.077-.051.017.011-.061.047-.038.006l-.005,0c-.04.042-.079.085-.1.108-.032.06-.126.215-.143.249s-.023.038-.025.036l-.021.072c-.043.134-.087.266-.125.4a12.322,12.322,0,0,0-.453,3.379c-.013,1.233.13,2.568-.628,3.636a3.032,3.032,0,0,1-1.959,1.252c.032.734.015,1.46-.025,2.214a3.3,3.3,0,0,0,.456,2.3A16.352,16.352,0,0,1,1200.451,244.583Z" transform="translate(109.876 113.28)" fill="#e9af16"/>
    <path id="Pfad_349" data-name="Pfad 349" d="M1200.087,228.593l0,0-.034.008h0Z" transform="translate(111.523 113.279)" fill="#e9af16"/>
    <path id="Pfad_350" data-name="Pfad 350" d="M1186.318,218.9q.139,2.011.277,4.022l.275,4.015a5.111,5.111,0,0,1,3.058-.635,6.032,6.032,0,0,0,3.253-.336c.389-.217,1.037-1,.641-1.48-.2-.236-.769-.173-1.045-.185a5.991,5.991,0,0,1-1.865-.289,4.353,4.353,0,0,1-2.327-2.182,9.192,9.192,0,0,1-.809-3.255c-.064-.632-.042-2.252-.549-2.88a3.749,3.749,0,0,0-.809.206,1.4,1.4,0,0,1-.237.215.362.362,0,0,0-.011.124c.011.215,0,.432.007.647C1186.212,217.559,1186.271,218.229,1186.318,218.9Z" transform="translate(99.229 101.857)" fill="#e9af16"/>
    <path id="Pfad_351" data-name="Pfad 351" d="M1187.255,240.341a3.477,3.477,0,0,1,1.629.377,2.615,2.615,0,0,1,.472.36q.059-1.219.119-2.435a21.973,21.973,0,0,1,.388-4c.279-1.2.979-2.27,1.06-3.519a3.513,3.513,0,0,0-.087-.9c-.249.658-.447,1.339-.7,2a6.3,6.3,0,0,1-1.58,2.527c-.307.277-.83.471-1.086.79a2.377,2.377,0,0,0-.219,1.477,1.24,1.24,0,0,1-.624,1.135l-.123.72a7.53,7.53,0,0,0-.266,1.512.312.312,0,0,0,.175,0A3.456,3.456,0,0,1,1187.255,240.341Z" transform="translate(99.286 114.727)" fill="#e9af16"/>
    <path id="Pfad_352" data-name="Pfad 352" d="M1179.41,226.872a1.2,1.2,0,0,0,.579.341c.189.051.077.045.27.032-.122.009.2-.043.262-.064a1.289,1.289,0,0,1,.264-.026,1.32,1.32,0,0,1,.2-.307,1.145,1.145,0,0,0,.309-.735c.013-.075.023-.2.032-.379.011-.206.015-.409.019-.613q.022-1.527.032-3.055c.006-.909.019-1.818.008-2.727,0-.14-.01-.279-.021-.419-.372.332-1.015.966-1.085,1.05a8.087,8.087,0,0,0-1.028,1.675,6.508,6.508,0,0,0-.543,3.594A2.89,2.89,0,0,0,1179.41,226.872Z" transform="translate(92.563 104.713)" fill="#e9af16"/>
    <path id="Pfad_353" data-name="Pfad 353" d="M1185.956,222.693l-.042-.585q-.1-1.423-.194-2.844a3.247,3.247,0,0,1-.305.247c-.481.319-1.26.349-1.448.964a1.271,1.271,0,0,0,.483,1.29A10.928,10.928,0,0,0,1185.956,222.693Z" transform="translate(97.241 105.019)" fill="#e9af16"/>
    <path id="Pfad_354" data-name="Pfad 354" d="M1200.054,228.595h0Z" transform="translate(111.52 113.282)"/>
    <path id="Pfad_355" data-name="Pfad 355" d="M1210.029,257.159l.011.023C1210.029,257.151,1210.025,257.147,1210.029,257.159Z" transform="translate(120.361 138.578)"/>
    <path id="Pfad_356" data-name="Pfad 356" d="M1118.9,203.671a6.806,6.806,0,0,1,1.4,1.015,3.924,3.924,0,0,1,1.013,2.28,3.924,3.924,0,0,0-1.013-2.28A6.806,6.806,0,0,0,1118.9,203.671Z" transform="translate(39.646 91.206)"/>
    <path id="Pfad_357" data-name="Pfad 357" d="M1110.262,197.326a6.653,6.653,0,0,0,.109,2.359A6.653,6.653,0,0,1,1110.262,197.326Z" transform="translate(31.942 85.586)"/>
    <path id="Pfad_358" data-name="Pfad 358" d="M1189.8,397.6l-.013,0-.011,0,.04-.006,0,0Z" transform="translate(102.423 262.977)"/>
    <path id="Pfad_359" data-name="Pfad 359" d="M1141.766,319.873c.117-4.424,2.361-8.7,2.191-13.106a25.892,25.892,0,0,0-6.395,13.444c-.485,3.179-.671,6.306-2.084,9.257a16.654,16.654,0,0,1-5.525,6.353,1.354,1.354,0,0,1-.4.172c-.907.975-2.808-.323-2.175-1.814a20.277,20.277,0,0,0,.313-14.915c-1.677-4.509-5.514-7.615-6.232-12.531-.349-2.391-.224-4.8-.4-7.207a31.589,31.589,0,0,0-1.88-8.15c-1.648-4.709-3.766-9.235-4.624-14.177-2.163,1.079-1.752,4.322-1.488,6.368.377,2.921.816,5.835,1.282,8.742q1.349,8.452,3.119,16.829c.373,1.778-2.353,2.531-2.729.75q-2.167-10.307-3.719-20.73c-.275-1.85-.821-4.381-.958-6.845a1.4,1.4,0,0,1-.3-.279,14.169,14.169,0,0,0-4.458-3.962,11.018,11.018,0,0,0-.347,4q.014,2.857.037,5.712c.023,3.466-.015,6.943.272,10.4.585,7.034,3.781,13.583,3.845,20.681a1.415,1.415,0,0,1-2.829,0,29.247,29.247,0,0,0-.743-5.961,1.245,1.245,0,0,1-.937-.653c-.871-1.85-1.791-3.956-3.666-4.992a3.941,3.941,0,0,0-2.691-.341,17.031,17.031,0,0,0-1.724.453,3.176,3.176,0,0,0-1.09.451l-.006,0a.306.306,0,0,0-.034.16c.017.309-.006.628,0,.937,0,.618.006,1.237.008,1.856s0,1.237.007,1.856a3.478,3.478,0,0,0,.013.573.476.476,0,0,0,.138.126,15.355,15.355,0,0,1,1.5,1.092l.109.079c1.442.462,2.853,1.056,4.22,1.644a23.076,23.076,0,0,1,.905,3.643,1.425,1.425,0,0,1-1.935.507l-3.438-2.495c-.345-.251-.7-.5-1.047-.741-.334-.1-.669-.192-1.011-.268a10.482,10.482,0,0,0-2.435-.262,6.692,6.692,0,0,0-1.016.025c-.228.175-.375.822-.483,1.075-.56,1.311-1.567,2.91-1.46,4.375.113,1.552,1.886,1.65,3.1,1.388,1.535-.332,2.761-1.571,4.409-1.5a3.2,3.2,0,0,1,2.865,2.514c.136.445.141,1.256.535,1.563s1.183.141,1.62.1c1.152-.115,2.3-.266,3.451-.419a6.266,6.266,0,0,0-2.644-2.55c-1.622-.833-.189-3.272,1.427-2.442a8.982,8.982,0,0,1,4.575,5.767,1.44,1.44,0,0,1-1.363,1.791c-1.943.243-3.9.6-5.855.717a3.825,3.825,0,0,1-3.868-1.865,9.542,9.542,0,0,1-.573-1.786c-.16-.553-.2-.649-.771-.449-.737.256-1.4.709-2.131.994a7.41,7.41,0,0,1-2.259.485,7.027,7.027,0,0,1-.994-.017q-.059,3.3-.117,6.606c-.013.662-.445,3.391-.068,3.741.362.336,1.6.334,2.1.517,3.136,1.143,6.923,4.294,7.819,7.6.977,3.6.76,7.515,1.567,11.175a21.16,21.16,0,0,0,1.918,5.5,44.406,44.406,0,0,0,2.981,4.162c1.111,1.6,1.427,3.355,2.008,5.171.064.2.157.381.232.573a1.551,1.551,0,0,1,.7-1.358,1.462,1.462,0,0,1,1.937.507c.719.939,2.1,1.392,3.01,2.125a6.763,6.763,0,0,1,2.106,3.728,55.541,55.541,0,0,1,1.6,8.644,23.605,23.605,0,0,0,9.814,1.846c4.616-.285,5.31-4.96,5.482-8.691a7.853,7.853,0,0,0-.39-3.755,12.032,12.032,0,0,0-1.965-2.386,7.263,7.263,0,0,1-1.588-3.885,56.142,56.142,0,0,1-.059-12.493,1.5,1.5,0,0,1,.164-.556,1.373,1.373,0,0,1,.079-.6c2.593-7.294,10.594-11.509,12.44-19.035C1144.034,330.282,1141.63,325.057,1141.766,319.873Zm-18.526,18.741a1.45,1.45,0,0,1,.509,1.935,49.836,49.836,0,0,0-4.535,14.813,1.424,1.424,0,0,1-1.741.988,1.463,1.463,0,0,1-.988-1.739,52.147,52.147,0,0,1,4.82-15.49A1.424,1.424,0,0,1,1123.24,338.613Zm-22.861.892a1.415,1.415,0,0,1-.753-2.727,44.01,44.01,0,0,0,11.071-4.5,101.631,101.631,0,0,0,9.542-6.711,1.422,1.422,0,0,1,1.935.507,1.461,1.461,0,0,1-.507,1.935,98.414,98.414,0,0,1-9.859,6.9A46.818,46.818,0,0,1,1100.379,339.506Zm9.37-.047c1.593.483,2.412,1.776,3.4,3a21.982,21.982,0,0,0,1.627,1.8c.211.209.456.46.707.7.011-.025.025-.049.034-.075.162-.37.328-.83.472-1.243.313-.905.583-1.825.869-2.738a17.741,17.741,0,0,1,2.506-5.456,1.447,1.447,0,0,1,1.935-.507,1.424,1.424,0,0,1,.507,1.935c-2.234,2.972-2.514,6.872-4.188,10.162-.557,1.1-1.669,1.761-2.813.992a15.65,15.65,0,0,1-2.437-2.182,25.772,25.772,0,0,1-1.956-2.336,3.685,3.685,0,0,0-1.414-1.322C1107.258,341.659,1108,338.928,1109.749,339.458Zm9.344,26.578a13.124,13.124,0,0,1-9.853-3.807,1.415,1.415,0,0,1,2-2,8.282,8.282,0,0,0,1.693,1.373c.319.2.649.388.984.558.17.085.339.166.513.243l.081.034c.078.032.157.062.236.092a11.754,11.754,0,0,0,2.253.6l.164.025.16.015c.211.023.424.038.636.047.377.015.755.009,1.131-.009a1.414,1.414,0,0,1,0,2.829Zm5.618-5.222-7.141-.183a1.441,1.441,0,0,1-1.414-1.414,1.425,1.425,0,0,1,1.414-1.414l7.141.183a1.444,1.444,0,0,1,1.414,1.414A1.428,1.428,0,0,1,1124.71,360.815Z" transform="translate(13.575 156.333)" fill="#e9af16"/>
    <path id="Pfad_360" data-name="Pfad 360" d="M1219.787,416.311c-1.493-19.093-1.871-38.273-2.55-57.408q-.9-25.441-1.8-50.88a7.04,7.04,0,0,1-.835,1.914c-1.923,2.9-6.37,3.385-9.463,4.247-3.7,1.032-7.319,2.252-9.8,5.344a1.43,1.43,0,0,1-2,0,5.489,5.489,0,0,0-.73-.5c-.69,29.254-1.284,58.73,3.828,87.658a1.4,1.4,0,0,1-.2,1.024c3.125,12.222,2.414,25.4,2.553,37.913q.223,19.846-.076,39.693a55.4,55.4,0,0,0,4.669,4.767c.837.7,2.346,2.237,3.44,2.482,1.576.354,3.16-1.641,4.235-2.565q6.378-5.482,12.982-10.694a1.446,1.446,0,0,1,1.476-.2c-.156-.988-.271-1.944-.388-2.8-1.352-9.9.066-19.989-1.954-29.812a1.386,1.386,0,0,1,.209-1.1C1221.7,435.77,1220.549,426.055,1219.787,416.311Z" transform="translate(104.533 183.637)" fill="#e9af16"/>
    <path id="Pfad_361" data-name="Pfad 361" d="M1231.49,281.214a6.276,6.276,0,0,1-1.4-3.87c0-.057.019-.108.023-.164-.07-.045-.14-.089-.211-.132-.224-.134-.454-.258-.685-.381a13.946,13.946,0,0,1-2.868-1.78c-2.093-1.85-2.208-4.822-2.106-7.407a1.508,1.508,0,0,1,.1-.432c-.417-.077-.83-.179-1.249-.251a105.632,105.632,0,0,0-18.311-1.131c-6.234.049-12.855-.283-18.852,1.633-1.82.581-3.619,1.241-5.412,1.927a1.257,1.257,0,0,1-1,1.231c-1.354.349-1.114,2.48-1.013,3.5.185,1.842.305,3.709-.822,5.3-.9,1.275-2.4,2.074-3.195,3.408-.907,1.516-.424,3.692-.288,5.35a1.147,1.147,0,0,1-.473,1.088,31.688,31.688,0,0,1,.176,5.654c-.2,3.178-.56,6.572,1.041,9.472.026.049.066.094.094.143a1.469,1.469,0,0,1,1.522,1.358c.025.334.051.668.077,1,1.5,1.94,3.3,3.758,4.818,5.559,1.167,1.384-.826,3.394-2,2-.788-.935-1.62-1.865-2.448-2.8q.119,1.508.236,3.017c.211,2.714-.1,5.744,1.931,7.811,3.774,3.839,8.331,7.13,12.5,10.534,3.579,2.927,7.494,7.6,12.525,6.815,4.407-.692,8.952-3.11,12.674-5.484a43.794,43.794,0,0,0,9.486-8.6c1.39-1.618,2.714-3.291,4.024-4.973,1.712-2.195,3.475-4.188,3.034-7.166-.305-2.076-.664-4.092-.948-6.114-.434.818-.888,1.627-1.369,2.416-1.173,1.923-2.6,4.648-5.244,4.511a1.414,1.414,0,0,1,0-2.829,2.625,2.625,0,0,1,.272,0,1.594,1.594,0,0,0,.19-.053c-.215.077.307-.194.26-.158a6.787,6.787,0,0,0,.724-.768c.605-.826,1.12-1.731,1.646-2.61a23.14,23.14,0,0,0,2.7-5.929,1.317,1.317,0,0,1,.366-.592c0-.256-.027-.5-.021-.762.109-4.513,1.493-8.763,1.808-13.215C1233.985,284.678,1232.959,283.265,1231.49,281.214Zm-47.02,14.3a4.851,4.851,0,0,1-4.073-4.228,6.562,6.562,0,0,1,.256-3.47,2.329,2.329,0,0,1,1.665-1.262,26.322,26.322,0,0,1-5.616-1.458,1.43,1.43,0,0,1-.624-2.363c1.645-1.422,3.9-.96,5.9-.862l7.068.347c2.063.1,4.4-.053,6.359.685,1.9.713,2.981,2.278,3.922,3.987a1.458,1.458,0,0,1,.166.524,12.6,12.6,0,0,1,1.724-2.5c.969-1.033,2.565-1.918,3.772-.69,1.173,1.194,1.822,3.308,2.291,4.871.528,1.75-2.2,2.489-2.727.752a15.385,15.385,0,0,0-1.214-2.966c-.226.226-.483.471-.54.549a52.714,52.714,0,0,0-2.736,4.765,6.018,6.018,0,0,1-1.039,1.35c-.081.245-.172.49-.275.728a1.423,1.423,0,0,1-2.442,0c-.066-.121-.134-.249-.2-.375a11.386,11.386,0,0,1-4.286,1.452A18.8,18.8,0,0,1,1184.47,295.512Zm10.328,9.568a5.763,5.763,0,0,1,2.24-1.058,1.65,1.65,0,0,0,.943-1.258,16.323,16.323,0,0,0,.626-5.452c-.073-1.824,2.755-1.814,2.828,0,.125,3.189-.087,8.4-3.8,9.478-.69.2-1.009.292-1.261,1.007a4.89,4.89,0,0,0-.268,1.656,2.092,2.092,0,0,0,.315,1.363c.375.371,1.005.017,1.418-.147,1.384-.554,2.855-1.1,4.247-.219.717.453.905,1.105,1.358,1.754.171.243.03.245.3.232a1.268,1.268,0,0,0,.619-.347c1.028-.884,1.6-2.421,3.076-2.693a2.147,2.147,0,0,1,2.02.86,6.063,6.063,0,0,0,.845.769c.155.111.6.288.822.437.087-.115.2-.238.264-.321.228-.315.453-.632.664-.958a7.309,7.309,0,0,0,.937-1.878,2.435,2.435,0,0,0-.805-2.893,1.415,1.415,0,0,1,1.428-2.442c3.025,1.739,2.71,5.6,1.146,8.216-.76,1.275-1.816,3.228-3.519,3.227a4.45,4.45,0,0,1-2.365-.945,9.13,9.13,0,0,1-1.066-.854c-.045-.043-.087-.092-.13-.136-.351.366-.683.913-.916,1.179a4.884,4.884,0,0,1-1.6,1.252,3.052,3.052,0,0,1-4.021-1.039c-.275-.43-.337-1.069-.909-1.067a6.866,6.866,0,0,0-1.958.718,3.5,3.5,0,0,1-4.167-1.1A6.321,6.321,0,0,1,1194.8,305.08ZM1210,329.04a25.143,25.143,0,0,1-2.557.036,1.647,1.647,0,0,1-.173.04q-2.351.153-4.7.3c-1.433.092-3.043.145-3.87-1.273a1.43,1.43,0,0,1,1.222-2.129q1.5-.054,3-.087a1.61,1.61,0,0,1,.852-.077c.132.026.264.04.4.064a43.69,43.69,0,0,1,5.833.3,1.414,1.414,0,1,1,0,2.829Zm8.382-4.535c-.1.038-.189.049-.283.079a2.651,2.651,0,0,1-2.42.992,8.194,8.194,0,0,1-2.365-.949,16.809,16.809,0,0,0-2.561-.9,34.931,34.931,0,0,0-5.176-1.094,11.62,11.62,0,0,0-2.359-.021c-.075.053-.142.1-.221.151a4.5,4.5,0,0,1-2.864.866,2.333,2.333,0,0,0-1.607.215,3.3,3.3,0,0,1-1.488.647,2.265,2.265,0,0,1-.437-.024q-.614.252-1.218.507a1.421,1.421,0,0,1-1.74-.988,1.463,1.463,0,0,1,.988-1.739l.1-.043a2.55,2.55,0,0,1,1.4-1.8,26.651,26.651,0,0,0,2.778-1.32c1.855-1.207,3.952-2.487,6.245-1.7a27.125,27.125,0,0,0,2.844,1.109c1.171-.034,2.34-.055,3.506-.091,1.524-.047,3.2-.33,4.418.8a13.916,13.916,0,0,1,1.573,2.008c.128.173.26.347.385.522C1219.377,321.411,1219.955,323.86,1218.384,324.505Zm12.414-39.462c-1.445,1.742-4.209,1.314-6.225,1.345-.092,0-.188,0-.281,0a6.691,6.691,0,0,1,1.275,3.153,5.77,5.77,0,0,1-4.22,6.453,10.909,10.909,0,0,1-8.35-1.648,6.457,6.457,0,0,1-2.6-5.991c-.226-.368-.458-.734-.664-1.116-.532-.992-1.192-2.146-.8-3.3.43-1.271,1.746-1.454,2.882-1.718l3.936-.913c4.271-.992,9.116-2.352,13.415-.762C1231.064,281.244,1232.272,283.262,1230.8,285.044Z" transform="translate(88.202 146.112)" fill="#e9af16"/>
    <path id="Pfad_362" data-name="Pfad 362" d="M1266.545,273.712a1.433,1.433,0,0,1-1.74.988,30.4,30.4,0,0,0-6.216-1.137c-.775-.053-1.629.025-2.457,0q.993,9.991,1.45,20.021c.351,7.886.325,15.755.291,23.646a13.516,13.516,0,0,0,.917,5.263,13.432,13.432,0,0,1,1.246,4.217c.155,2.953-1.458,4.071-3.56,5.682-2.506,1.918-2.12,5.638-1.641,8.411.292,1.7.592,3,2.246,3.822a34.573,34.573,0,0,0,5.162,1.561c3.922,1.245,8.271,5.9,4.678,9.851a1.341,1.341,0,0,1-.39.285l.057.04c2.252,1.646,4.292,3.734,6.99,4.641a11.03,11.03,0,0,0,3.76.569l1.467-2.093a1.41,1.41,0,0,1,.9-.588c-.194-.321-.4-.637-.59-.96-1.364-2.31-2.112-4.724-.328-7.034,1.85-2.395,5.057-3.345,5.235-6.84.159-3.136-3.042-5.082-2.576-8.284.385-2.649,2.674-4.292,4.265-6.227,2.156-2.623,2.165-5.97,2.586-9.185a13.427,13.427,0,0,1,2.768-7.177,8.788,8.788,0,0,0,2.193-4.869c.3-2.04.56-4.09.841-6.134a1.067,1.067,0,0,1,.764-.947,1.5,1.5,0,0,1,2.642-.419c.438.643.843,1.284,1.226,1.931a176.57,176.57,0,0,1,1.856-27.832c-6.242-.588-12.488-1.214-18.667-2.291a100.332,100.332,0,0,1-9.955-2.223c-.852-.241-1.7-.494-2.549-.764.137.043-2.18-.643-1.709-.866C1267.2,269.009,1266.685,273.118,1266.545,273.712Z" transform="translate(159.738 148.867)" fill="#e9af16"/>
    <path id="Pfad_363" data-name="Pfad 363" d="M1194.86,202.03a1.282,1.282,0,0,1-1.3-.977c-.6.17-1.205.311-1.8.47-1.48.392-2.938.864-4.375,1.392.015,1.6.062,3.2.172,4.794.044.662.089,1.331.153,2,1.518-.792,3.383.636,4.626,1.509a23.627,23.627,0,0,1,2.065,1.629c.307.273.6.556.894.849.032-.057.054-.117.089-.172a6.469,6.469,0,0,1,3.9-2.857,1.356,1.356,0,0,1,.707,0,1.27,1.27,0,0,1,2.12.7,93.246,93.246,0,0,0,1.665,9.595,5.648,5.648,0,0,0,.826,1.675,1.35,1.35,0,0,1,.349-.087,599.079,599.079,0,0,1,70.906,1.188,1.471,1.471,0,0,1,.715,2.672l.6,37.127,2.188,134.892a1.268,1.268,0,0,1-.405,1,8.7,8.7,0,0,1,1.114.764,6.62,6.62,0,0,1,7.49-2.648c5.237,1.493,5.776,6.623,5.944,11.522,1.533-2.672,3.789-4.786,7.106-5.216a9.243,9.243,0,0,1,.945-.041c-1.175-9.738-2.01-19.512-2.595-29.3-2.1-35.249-1.186-70.6-3.4-105.844q-1.038.028-2.07.126c-.734.072-1.183.132-1.909.26-.7.123-1.4.272-2.093.441a1.444,1.444,0,0,1-1.739-.988,1.429,1.429,0,0,1,.988-1.741,32.4,32.4,0,0,1,9.025-.916,1.445,1.445,0,0,1,1.414,1.414,1.413,1.413,0,0,1-.8,1.256c.628,9.966,1.018,19.948,1.284,29.931.941,35.286.492,70.688,4.763,105.789a6.724,6.724,0,0,1,2.14,1.122c2.159,1.759,2.08,4.234,2.727,6.719,1.124,4.317,6.081,2.037,9.11,1.778a9.941,9.941,0,0,1,5.555,1.214,1.361,1.361,0,0,1,.373-1.048c1.443-1.588-.556-3.826-1.978-4.577-1.924-1.015-4.239-1.152-6.255-1.942-3.347-1.314-4.234-3.519-4.731-6.906-.4-2.731-.552-5.821.866-8.312a9.969,9.969,0,0,1,3.159-2.959c2.327-1.754.737-4.305-.062-6.453-1.512-4.054-.8-8.727-.8-12.968q0-7-.264-14c-.307-8.033-.9-16.053-1.727-24.049a6.754,6.754,0,0,1-.354-3.245c-.089-.786-.164-1.575-.258-2.361l0,0a9.659,9.659,0,0,1-1.6-.771c-1.467-1.011-1.548-2.7-1.624-4.343a27.29,27.29,0,0,1,1.616-10.511,1.481,1.481,0,0,1,2.044-.881l.56-41.607c0-.026.015-.043.015-.07a3.33,3.33,0,0,1-.562-.492c-1.2-1.365.8-3.372,2-2q1.867-.308,1.639-2.008c.021-.445.03-.892.028-1.337a9.363,9.363,0,0,0-.29-2.533c-.56-1.863-1.863-1.631-3.091-2.67-1.139-.966-1.007-2.3-.928-3.666.128-2.18.285-4.358.426-6.534q.9-13.77,1.8-27.538.226-3.5.456-7a26.383,26.383,0,0,1,.515-5.7c.879-2.942,4.937-4.324,7.686-5.42q-12.375.178-24.751.33Q1246.365,202.075,1194.86,202.03Zm108.1,56.846h-14.413a1.415,1.415,0,0,1,0-2.829h14.413A1.415,1.415,0,0,1,1302.959,258.876Zm-4.349-14.964a1.415,1.415,0,0,1-2.829,0q0-8.769-.005-17.536c0-1.358.085-2.746-.017-4.1-.1-1.326-.824-1.418-2.014-1.433-2.789-.04-5.58-.021-8.371-.03a1.415,1.415,0,0,1,0-2.829q2.557.008,5.116.019a37.51,37.51,0,0,1,4.513.085c2.964.37,3.594,2.772,3.6,5.365Q1298.623,233.682,1298.611,243.913Z" transform="translate(100.314 88.887)" fill="#e9af16"/>
    <path id="Pfad_364" data-name="Pfad 364" d="M1115.495,345.993c-7.777,6.038-14.635,13.1-21.251,20.368-5.706,6.268-11.575,12.714-15,20.572-1.618,3.707-3.426,8.922-2.714,13.029.287,1.648.9,2.116,2.469,2.182,1.165.051,2.346.013,3.511.019,2,.011,4,.06,6,.023,4.566-.085,8.073-2.167,12.2-3.811a43.114,43.114,0,0,1,11.2-2.748,44.174,44.174,0,0,1,22.586,3.545c1.667.73.224,3.166-1.427,2.444a40.9,40.9,0,0,0-13.255-3.249c2.314,1.978,3.587,4.846,5.116,7.522,2.408,4.213,6.227,6.272,10.755,7.645a74.792,74.792,0,0,0,13.577,2.557c4.1.453,8.284.881,12.137,2.45,7.437,3.03,11.341,10.015,13.708,17.324,1.4,4.335,2.434,8.771,3.947,13.072,1.505,4.279,3.206,8.527,3.842,13.046a22.845,22.845,0,0,1-.136,7.021,1.278,1.278,0,0,1,.681,1.147l.487,27.954a28.259,28.259,0,0,1-.5,7.886c7.2-2.642,15.186-4.254,22.61-1.546,6.423,2.344,11.594,7.072,17.83,9.761.666-.905,1.371-2,2.156-3.087a10.211,10.211,0,0,1-3.485-1.426c-2.269-1.471-3.274-3.57-4.577-5.836-1.482-2.576-3.879-4.305-5.855-6.464a20.818,20.818,0,0,1-3.719-5.716c-1.965-4.492-2.463-9.48-2.514-14.336-.106-10.125,2.18-22.429-5.772-30.382-4.028-4.028-9.1-5.3-14.156-7.468-4.432-1.906-6.713-6.023-7.577-10.619-.564-2.987-.562-6.04-1.007-9.04a24.9,24.9,0,0,0-2.534-7.7c-2.089-4.107-4.709-7.905-6.355-12.21l-.717-.3c-1.625-.675-.95-3.3.658-2.746a1.445,1.445,0,0,1,2.229.717c.024.075.055.145.079.219,8.005,3.313,16.082,6.536,24.5,8.652a73.154,73.154,0,0,0,14.562,2.25c3.4.153,7.094-.317,10.14,1.412q.091-18.245-.132-36.489a1.312,1.312,0,0,1-.27-.784l-.257-29.078q-.059-6.568-.115-13.132c-.011-1.239-.115-2.519-.034-3.753.007-.107-.053-.388-.07-.6-.232,0-.541-.051-.6-.043a23.009,23.009,0,0,1-5.22.036c-3.053-.424-3.157-4.128-3.392-6.6-.371-3.888.032-7.794-.1-11.688-.049-1.4.143-1.7-1.193-1.882a11.491,11.491,0,0,1-1.733-.3,8.235,8.235,0,0,1-3.545-2.155,6.048,6.048,0,0,1-1.222-1.69l-.022-.045a20.394,20.394,0,0,1-2.341,4.156c-3.464,5.72-7.545,11.2-8.891,17.862,1.646.909,3.266,1.867,4.818,2.927a24.357,24.357,0,0,1,5.638,4.7c1.484,1.893,1.822,4.124,2.065,6.455.311,2.978.579,5.959.858,8.938q.834,8.941,1.584,17.888c.153,1.818-2.678,1.8-2.828,0q-.614-7.321-1.284-14.637c-.422-4.609-.46-9.51-1.4-14.047-.907-4.392-6.061-7.019-9.636-9.106-1.708-1-4.816-3.383-6.723-2.237-1.692,1.018-3.211,2.944-4.526,4.383a1.228,1.228,0,0,1-.875.421c.311.321.63.635.932.964,4.4,4.8,7.894,10.377,12.686,14.824,1.337,1.243-.668,3.238-2,2-4.134-3.837-7.307-8.514-10.922-12.81a42.546,42.546,0,0,0-5.885-5.927c-.042-.034-.21-.145-.364-.262l-.1.247c-.245.564-.453,1.147-.668,1.726a1.292,1.292,0,0,1-.194.5l-.04.1c-.545,1.448-1.058,2.91-1.556,4.377a9.379,9.379,0,0,1,3.649,1.856c1.75,1.609,2.427,4.168,3.294,6.3l3.151,7.762c2.012,4.956,3.975,9.91,4.313,15.307.115,1.82-2.715,1.808-2.828,0-.285-4.533-1.886-8.79-3.568-12.965-1.6-3.983-3.185-7.979-4.846-11.939-.977-2.333-2.34-3.138-4.682-3.854a21.414,21.414,0,0,1-4.96-2.093,18.265,18.265,0,0,1-4.177-3.509c-.773-.875-1-1.5-1.844-.377a13.032,13.032,0,0,0-1.677,3.079,1.236,1.236,0,0,1-.109.172,9.265,9.265,0,0,1,3.223,3.913c1.241,3,1.754,6.372,2.736,9.474,1,3.155,2.129,6.27,3.321,9.359,2.44,6.329,5.15,12.552,7.62,18.869,1.26,3.221,2.48,6.466,3.528,9.763a5.44,5.44,0,0,1,.353,3.666c-.215.543-1.648,1.56-1.686,1.95-.179,1.8-3.008,1.81-2.829,0a3.534,3.534,0,0,1,.873-2.025c.46-.673.913-1.032.826-2.014a10.682,10.682,0,0,0-.671-2.056c-.962-2.872-2.02-5.712-3.121-8.531-2.1-5.378-4.381-10.687-6.517-16.052a154.656,154.656,0,0,1-5.767-16.732c-.871-3.221-1.261-5.855-4.364-7.69a19.67,19.67,0,0,0-8.175-2.6,1.4,1.4,0,0,1-.907-.449,66.96,66.96,0,0,0-.213,8.561,18.065,18.065,0,0,0,.432,4.347c.387,1.28,1.448,2,2.248,2.993,2.414,3.006,1.822,8.1.845,11.6-2.278,8.182-11.669,6.851-18.016,4.43a1.324,1.324,0,0,1-2-.928,11.214,11.214,0,0,1-5.207-6.41,32.62,32.62,0,0,0-3.17-5.938,27.086,27.086,0,0,1-2.042-5.514,9.379,9.379,0,0,0-1.5-2.582l-.044.036a1.449,1.449,0,0,0-.226-.313A1.128,1.128,0,0,1,1115.495,345.993Z" transform="translate(1.969 178.236)" fill="#e9af16"/>
    <path id="Pfad_365" data-name="Pfad 365" d="M1164.317,279.225a104.379,104.379,0,0,1,30.468-44.1c11.449-9.583,25.264-16.608,40.108-18.869,17.775-2.706,36.041.969,53.1,5.959a91.572,91.572,0,0,1,38.505,21.907,88.971,88.971,0,0,1,21.979,34.279q14.768.059,29.535.14a1.392,1.392,0,0,1-.111-.2,1.49,1.49,0,0,1-.336-.534q-5.021-13.645-11.156-26.838c-3.5-7.5-7.205-14.939-11.318-22.12-4.019-7.021-10.132-12.484-16.323-17.59a45.42,45.42,0,0,0-9.457-6.206c-2.717-1.277-6.828-1.618-8.1-4.779a31.593,31.593,0,0,1-1.228-6.134q-.509-2.888-1.022-5.78c-.349-1.963-.255-4.856-2.218-5.744-1.69-.764-4.169-.888-5.989-1.277a1.233,1.233,0,0,1-.965-1.58,1.1,1.1,0,0,1-.155-.632,8.814,8.814,0,0,0-.081-3.151,2.086,2.086,0,0,0-.617-1.015,6.473,6.473,0,0,0-1.288-.83,14.936,14.936,0,0,0-6.919-1.778,1.433,1.433,0,0,1-1.414-1.414,1.367,1.367,0,0,1,.251-.745,1.43,1.43,0,0,1-.038-.247c.06-1.177.1-2.353.121-3.532.013-.822.213-2.086-.354-2.772-.905-1.094-2.991-.935-4.249-.939a44.787,44.787,0,0,1-6.265-.034c-2.123-.317-1.98-2.4-1.78-4.079.413-3.481,2.233-7.3.784-10.762-1.612-3.851-6.429-1.907-9.617-2.693a1.336,1.336,0,0,1-.784-2.052,1.25,1.25,0,0,1-.27-.83c.053-1.8.063-3.589.011-5.382a15.849,15.849,0,0,0-.124-2.54,3.126,3.126,0,0,0-1.169-1.754,9.685,9.685,0,0,0-3.619-2.416c-1.249-.349-2.614.385-3.668-.641-1.931-1.874.56-5.061,1.557-6.747a4.879,4.879,0,0,0,.677-1.522.71.71,0,0,0,.007-.094c-.04.011-.079.021-.119.034-1.637.475-3.27.962-4.9,1.443a1.392,1.392,0,0,1-1.656-1.852,1.258,1.258,0,0,1-.188-.726,33.269,33.269,0,0,0-2.125-13.217,30.112,30.112,0,0,0-1.3-2.934q-.4-.8-.849-1.575a7.541,7.541,0,0,1-.933-1.526.953.953,0,0,1-.1-.106c-.047.064-.094.126-.14.19-.349.47-.694.943-1.039,1.414l-2.225,3.032c-1.339,1.825-2.96,3.689-3.242,6.019-.275,2.291.43,4.656-.058,6.93-.494,2.293-2.342,2.433-4.334,2.225l-5.116-.536a15.739,15.739,0,0,0,4.26,3.7,1.489,1.489,0,0,1-.275,2.587,1.086,1.086,0,0,1-.939.762q-4.014.617-8.026,1.235c-1.245.19-2.583.272-3.8.583-1.362.351-1.965.73-2.1,2.118-.505,5.078-.6,10.234-.892,15.329a1.456,1.456,0,0,1-1.414,1.414q-2.323.209-4.646.421a10.734,10.734,0,0,0-2.324.209c-1.271.436-.905,1.13-.9,2.172l.064,9.9a1.427,1.427,0,0,1-2.129,1.22,16.206,16.206,0,0,0-8.156-2.335q.735,4.418,1.469,8.835a1.441,1.441,0,0,1-.592,1.435,1.418,1.418,0,0,1-.677,2.636c-2.48-.045-4.958,0-7.432.158-1.133.072-2.265.17-3.395.287-.684.072-2.519-.034-3,.63-.42.573,0,1.929.047,2.58a5.877,5.877,0,0,1-.241,2.3,3.255,3.255,0,0,1-3.138,2.212c-1.133.043-2.281-.074-3.413-.1-1.333-.036-1.3.009-1.573,1.312q-.736,3.448-1.3,6.932c-.651,4.043-1.073,8.116-1.365,12.2a1.48,1.48,0,0,1,.072,2.793c-.328.123-.645.27-.969.4a1.543,1.543,0,0,1-.366.151c-6.885,2.842-12.942,7.268-18.616,12.048-5.793,4.877-12,9.842-16.255,16.182-4.426,6.589-7.422,14.185-10.574,21.435-1.684,3.877-3.332,7.769-4.979,11.662-1.684,3.99-3.506,8-3.894,12.365-.147,1.656-2.518,1.78-2.783.388-3.607-1.111-7.482-2.035-11.192-1a11.4,11.4,0,0,0-4.249,2.425q13.659-.141,27.321-.241C1148.165,279.255,1156.242,279.255,1164.317,279.225ZM1271.55,166.236q.184-2.226.366-4.45a1.442,1.442,0,0,1,1.414-1.414,1.321,1.321,0,0,1,.436.094,1.455,1.455,0,0,1,2.11-1.213,9.719,9.719,0,0,1,4.428,6.11c.683,2.3,1.216,5.08.449,7.415-.777,2.355-3.119,4.3-5.7,3.726-2.674-.59-3.783-3.474-3.8-5.929C1271.241,169.129,1271.432,167.675,1271.55,166.236ZM1244.7,142.721a54.528,54.528,0,0,1,2.742-9.18c.779-1.98,2.342-3.762,4.467-3.7a1.468,1.468,0,0,1,1.931-.047c2.3,1.9,5.125,3.185,7.126,5.44,2.189,2.468,2.606,5.5,2.636,8.693a77.748,77.748,0,0,1-.577,10.26c-.324,2.661-.36,6.24-2.186,8.388a8.38,8.38,0,0,1-7.045,2.365c-2.646-.487-4.745-3.293-6.161-5.391C1244.25,154.546,1243.539,148.557,1244.7,142.721Zm-.094,34.449c-.224,2.208-.607,5.376,1.786,6.532,1.846.894,4.043.62,5.861,1.675,1.71.99,2.316,2.655,3.21,4.3.788,1.452,1.654,2.088,3.408,1.665a18.488,18.488,0,0,0,3.735-1.488,8.058,8.058,0,0,0,3.289-2.525c.82-1.246.354-2.467.82-3.738.7-1.918,3.363-2.15,5.071-2.419a26.179,26.179,0,0,1,14.649,2c1.667.726.224,3.162-1.427,2.442a23.111,23.111,0,0,0-9.938-1.929,13.436,13.436,0,0,0-4.678.643c-.884.394-.771.268-.964,1.3a10.713,10.713,0,0,1-.347,1.629,9.265,9.265,0,0,1-4.752,4.9c-2.093,1.084-4.671,2.359-7.087,2.157-2.116-.177-3.434-1.656-4.339-3.438a7.516,7.516,0,0,0-1.837-2.919c-1.009-.735-2.523-.79-3.707-1.028-5.052-1.013-6.046-5.161-5.58-9.757C1241.957,175.373,1244.786,175.359,1244.6,177.17Zm-13.615-18.128c.026-.034.041-.081.072-.113a1.458,1.458,0,0,1,2,0l4.343,3.5a21.012,21.012,0,0,1,3.543,3.277c1.778,2.276,2.28,5.418.315,7.741a8.509,8.509,0,0,1-6.359,2.583,3.821,3.821,0,0,1-3.485-1.563c-.745-1.269-.611-3.072-.732-4.5q-.4-4.792-.809-9.58A1.375,1.375,0,0,1,1230.989,159.042Z" transform="translate(34.212 0)" fill="#e9af16"/>
    <path id="Pfad_366" data-name="Pfad 366" d="M1195.787,374.3c7.464-6.325,15.1-12.452,22.955-18.281a1.154,1.154,0,0,1,1.018-.228c-.017-.792,0-1.586-.023-2.327-.1-2.857-2.2-4.856-4.237-6.611a12.23,12.23,0,0,1-2.855-2.953,7.639,7.639,0,0,1-.869-3.549,13.211,13.211,0,0,1,1.2-6.885,6.026,6.026,0,0,1,5.271-3.117c-1.865-2.795-3.242-6.4-1.479-9l-5.51-6.547c-1.333-1.584-3.3-3.289-4.048-5.267-.758-2,.451-3.647.909-5.546a10.731,10.731,0,0,0-1.169-7.788,1.394,1.394,0,0,1,1.931-1.88c.383-5.618-.866-10.832-2.742-16.293-2.05-5.965-1.563-11.271-.143-17.323a1.429,1.429,0,0,1,2.586-.338c.472.983,1,1.957,1.42,2.963.377.892.175,1.135,1.139.345a10.6,10.6,0,0,0,2.563-3.376,43.348,43.348,0,0,0,3.057-9.412,120.085,120.085,0,0,0,3.419-22.657,1.421,1.421,0,0,1,2.778-.377l1.589,4.861a8.345,8.345,0,0,0,.764,2.223c.854,1.026,2.029.588,2.793-.117a37.772,37.772,0,0,0,5.19-6.6c-10.36-2.212-21.358-1.527-31.866-1.62l-34.673-.309.01,36.8q.008,34.088.017,68.174c0,11.186-.034,22.377-.29,33.561-.245,10.658-.409,21.494-3.532,31.779-.528,1.739-3.257.994-2.727-.752,3.577-11.788,3.336-24.417,3.541-36.62.75-44.889.164-89.826.153-134.721a1.424,1.424,0,0,1,2.327-1.058l36.112.321c10.587.094,21.582-.519,32,1.782a5.293,5.293,0,0,0-.424-2.27c-.511-1.316-1.077-2.617-1.5-3.968a12.2,12.2,0,0,1-.3-7.092,1.425,1.425,0,0,1,2.076-.847,5.622,5.622,0,0,0,6.125.366c1.8-1.077,2.681-3.362,3.986-4.958,1.486-1.816,4.109-5.629-.377-5.259-2.621.217-5.241.464-7.86.7a1.235,1.235,0,0,1-1.328-1.09H1120.043l1.724.769c2.78,1.241,6.319,2.242,7.281,5.506a19.276,19.276,0,0,1,.372,5.307l.034,6.6q.031,6.124.06,12.25.059,11.711.117,23.419c1.761-.36,2.5,2.342.732,2.729a4.564,4.564,0,0,0-.717.219v.021a1.365,1.365,0,0,1-1.8,1.3,4.141,4.141,0,0,0-.943,2.7c.03,2.035,1.937,3.464,2.689,5.246.781,1.85.635,3.934.628,5.895q-.017,4-.034,8-.116,27.048-.23,54.093-.057,13.408-.113,26.812c-.017,4.135.351,8.5-.359,12.589s-2.432,8.113-3.788,12.046a1.335,1.335,0,0,1,1.088.628l3.794,5.81c.6.922,1.22,1.835,1.807,2.766a3.244,3.244,0,0,1,.556,2.683,10.133,10.133,0,0,1-3.44,4.43,36.421,36.421,0,0,1-4.708,3.176,1.281,1.281,0,0,1-1.132.126c-2.567,5.41-7.984,9.184-10.675,14.579a25.678,25.678,0,0,1,8.216,2.127c.754-1.874,1.861-4.258,3.675-5.156,1.969-.971,3.36.588,4.575,1.92a15.536,15.536,0,0,0,5.789,3.994c.536-1.575,1.092-3.14,1.684-4.692q.023-15.609.047-31.217.085-55.846.172-111.694a1.415,1.415,0,0,1,2.828,0l-.049,31.577q-.082,53.5-.164,107c1.46-.355,2.721.928,3.758,1.81.349.3.677.617,1.013.928a1.341,1.341,0,0,1,.368-.967c1.682-1.839,3.605-4.113,5.8-5.346,1.778-1,3.406-.111,5.057.707,1.767-7.741,6.985-13.941,10.7-20.823.59-1.092,1.082-2.919,2.431-3.323a2.369,2.369,0,0,1,2.572,1.13c1.339,1.769,2.1,3.481,4.62,3.741a18.27,18.27,0,0,1,2.006.17C1182.739,385.49,1189.27,379.822,1195.787,374.3ZM1137.7,210.684c.074-1.818,2.9-1.822,2.829,0-.321,7.884.888,15.673,1.78,23.483a106.536,106.536,0,0,1,.824,11.935c0,.758-.115,1.567-.038,2.314.149,1.409.313,1.231,1.724,1.226q2.911-.014,5.823-.026a1.415,1.415,0,0,1,0,2.829c-2.3.009-4.611.047-6.917.03-1.369-.009-2.717-.232-3.283-1.658-.666-1.68-.119-4.092-.151-5.87-.04-2.186-.179-4.369-.373-6.547C1139.1,229.159,1137.324,220,1137.7,210.684Zm-2.048,51.555a1.415,1.415,0,0,1,0-2.829c4.524.025,9.048.047,13.574.028,2.189-.009,4.381-.021,6.572-.066a13.891,13.891,0,0,0,5.874-1.018c1.635-.788,3.066,1.65,1.429,2.442-3.911,1.891-8.588,1.439-12.812,1.465C1145.415,262.29,1140.534,262.265,1135.656,262.239Zm19.027,12.7h-14.99a1.415,1.415,0,0,1,0-2.829h14.99A1.415,1.415,0,0,1,1154.683,274.939Z" transform="translate(34.407 88.966)" fill="#e9af16"/>
    <path id="Pfad_367" data-name="Pfad 367" d="M1282.983,197.389a1.464,1.464,0,0,1-2.525-.006q-46.545-.181-93.091.026c.023.7.042,1.4.044,2.091l4.45-.032c1.526-.011,3.477-.285,4.594,1.015a3.179,3.179,0,0,1,.091,3.779q13.685.011,27.368-.023,51.5-.136,103-.913a1.276,1.276,0,0,1,.9.332,3.218,3.218,0,0,0,.351-1.137c.271-1.841.288-5.437-1.371-6.312-1.477-.781-4.8-.611-6.481-.722-1.464-.1-2.927-.138-4.392-.151a1.4,1.4,0,0,1-1.114,2.22q-14.118-.1-28.234-.16C1285.376,197.391,1284.178,197.392,1282.983,197.389Z" transform="translate(100.29 83.824)" fill="#e9af16"/>
    <path id="Pfad_368" data-name="Pfad 368" d="M1220.555,217.657c-.022-.14-.057-.273-.07-.421a1.427,1.427,0,0,1,1.414-1.414,1.45,1.45,0,0,1,1.414,1.414.446.446,0,0,1,0,.109.255.255,0,0,1,.032.075c.036.109.062.224.1.334a.085.085,0,0,1,.007.036l.037.072c.042.081.085.164.132.243a4.4,4.4,0,0,0,.731.975c.636.705,1.328,1.356,1.916,2.1a6.846,6.846,0,0,1,1.124,2.046q14.044-.068,28.089-.1,32.164-.068,64.331.077a86.464,86.464,0,0,0-24.6-35.6c-11.588-10.038-25.211-15.776-39.933-19.572-16.474-4.245-33.906-7.111-50.736-3.178-29.544,6.906-52.39,31.421-62.835,59.179q38.3-.127,76.6.081a1.321,1.321,0,0,1,1.346,1.3q-.06-3.23-.119-6.464A1.252,1.252,0,0,1,1220.555,217.657Z" transform="translate(59.849 55.175)" fill="#e9af16"/>
    <path id="Pfad_369" data-name="Pfad 369" d="M1166.858,316.852c.875,1.06,1.769,2.1,2.653,3.153l5.012,5.953c.019.024.023.051.04.075.068-.036.119-.077.188-.111,2.872-1.439,6.265-2.2,9.316-3.187q3.725-1.2,7.5-2.24c-.092-.028-.187-.051-.277-.087a6.808,6.808,0,0,1-3.607-3.285,6.885,6.885,0,0,1-.69-2.325,5.766,5.766,0,0,1-.007-.651,1.223,1.223,0,0,1-1.149.206,4.778,4.778,0,0,1-2.838-5.925,3.681,3.681,0,0,1,.46-.839,14.364,14.364,0,0,1-.028-1.973c.049-.952.145-1.9.226-2.849a21.064,21.064,0,0,0-.577-2.167,1.209,1.209,0,0,1,.562-1.5c-.036-.385-.055-.769-.105-1.152a1.4,1.4,0,0,1-.769-1.563,3.29,3.29,0,0,1,.422-1.048,1.543,1.543,0,0,1,1.7-1.448,4.09,4.09,0,0,1,1.682-.355,5.036,5.036,0,0,1,4.215,3.01c.833,1.684.909,3.532,1.407,5.314a4.251,4.251,0,0,0,1.2,2.184,9.234,9.234,0,0,0,2.12.982,3.688,3.688,0,0,1,2.275,3.809c-.193,1.884-1.654,3.047-2.2,4.76-.573,1.788.334,3.781-.34,5.529a2.634,2.634,0,0,1-.242.458,86.4,86.4,0,0,1,35.79-1.169c3.462.59,6.9,1.314,10.324,2.093,2.169.494,4.818.792,6.844,1.912a1.236,1.236,0,0,1,.113-.207l.221-.266a1.393,1.393,0,0,1,1.377-.364c.649.19,1.135.869,1.7,1.03,1.616.462,1.875-1.565,2.1-2.823a6.653,6.653,0,0,1,2.063-4.352c1.39-1.132,3.162-1.169,4.813-1.633a3.229,3.229,0,0,0,1.444-.641c.943-.982-.183-2.1-1.1-2.678-.786-.5-1.714-.79-2.519-1.271a1.468,1.468,0,0,1-.649-1.6,34.227,34.227,0,0,1,1.6-4.428c.562-1.725-.019-3.038-.816-4.547a12.488,12.488,0,0,1-1.371-4.071,5.7,5.7,0,0,1-1.867-3.072,17.927,17.927,0,0,1-.194-4.4c0-.217.005-.434,0-.649l0-.024c-.551.015-1.735.09-1.876.092a35.954,35.954,0,0,1-4.528-.213,1.675,1.675,0,0,1-.232-.058,1.144,1.144,0,0,1-1.68-.564c-1.051-2.382-2.059-4.973-.994-7.537a5.061,5.061,0,0,1,2.189-2.474c.545-.319,1-.468,1.237-1.081a4.3,4.3,0,0,0,.111-1.667,9.458,9.458,0,0,0-1.2-4.164,14.643,14.643,0,0,1-1.727-3.393,6.727,6.727,0,0,1,1.409-5.97,1.84,1.84,0,0,1-.419-.149,3.509,3.509,0,0,1-1.6-2.278c-1.612-4.745-2.331-9.691-4.694-14.015l-.1,4.752a1.427,1.427,0,0,1-2.636.715c-3.285-5.144-6.61-10.355-11.085-14.566-1.867-1.756-3.713-3.144-4.426-5.718a68.226,68.226,0,0,1-1.443-8.128,3.579,3.579,0,0,0-1.78,1.362,11.379,11.379,0,0,1-.86,1.49,1.935,1.935,0,0,1-1.9.69,3.112,3.112,0,0,1-1.465-1.122q-.659-.693-1.384-1.32a18.2,18.2,0,0,0-3.032-2.112c-.1-.058-.2-.113-.307-.17-.038.038-.087.083-.109.108a2.192,2.192,0,0,1-1.6.773c-1.588-.028-2.063-1.531-2.2-2.834a77.175,77.175,0,0,1-.421-8.784,1.362,1.362,0,0,1,1.7-1.322c.03-.011.053-.034.083-.045a49,49,0,0,1,5.2-1.635c.358-.091.718-.173,1.075-.266.189-.049.375-.1.56-.158.092-.03.185-.06.275-.094l.06-.023a3.268,3.268,0,0,0,.441-.251c.025-.026.158-.136.183-.16l.013-.011c.041-.066.079-.132.115-.2-.125.226-.009-.051.034-.183l0-.028a.936.936,0,0,1-.1-.03l-.078-.015a21.654,21.654,0,0,0-2.449-.008l-5.587.043a1.438,1.438,0,0,1-1.414-1.414.7.7,0,0,1,.026-.141,1.429,1.429,0,0,1-.119-.534,31.085,31.085,0,0,0-.12-4.217,4.051,4.051,0,0,0-1.209-2.182c-.432-.477-.871-.937-1.286-1.407q.085,4.662.172,9.325a1.376,1.376,0,0,1-2.076,1.186,6.9,6.9,0,0,0-6.813,1.318c1.452-.13,2.9-.262,4.356-.385,1.544-.13,3.123-.326,4.409.724,2.327,1.9,1.561,5.252.036,7.354-1.1,1.51-2.261,2.927-3.311,4.477a8.842,8.842,0,0,1-3.4,3.178,8.355,8.355,0,0,1-6.634.285c-.141,3.758,2.54,6.757,2.948,10.519a3.8,3.8,0,0,1-.181,1.576,1.484,1.484,0,0,1-.979,1.9c-.347.511-.722,1.005-1.062,1.492q-1.615,2.3-3.389,4.482c-1.657,2.04-4.311,5.131-7.3,3.551a5.069,5.069,0,0,1-2.163-2.866c-.015-.04-.026-.083-.041-.123a115.682,115.682,0,0,1-4.409,21.662c-1.052,3.4-2.491,6.9-5.391,9.129-2.3,1.767-3.679.869-4.731-.766a23.113,23.113,0,0,0-.469,5.984c.234,3.155,1.531,6.091,2.531,9.055a35.806,35.806,0,0,1,1.281,17.9,1.159,1.159,0,0,1-.321.622,13.627,13.627,0,0,1-.662,7.626C1165.269,314.708,1165.789,315.556,1166.858,316.852Zm76.081-1.514a18.363,18.363,0,0,0,.569-1.918c.155-.7.24-1.314.324-1.954a8.284,8.284,0,0,1,1.544-4.42c1.6-1.908,5.016-2.282,6.293.189a9.344,9.344,0,0,1,.607,1.775,3.34,3.34,0,0,0,.651,1.231c.869,1.09,1.756,2.21,1.614,3.7-.162,1.7-1.541,2.491-3.047,2.874a11.665,11.665,0,0,1-2.27.338,9.563,9.563,0,0,1-.958,0c-.124-.006-.247-.019-.372-.028-.1.166-.222.332-.292.434a4.45,4.45,0,0,1-.619.737,3.266,3.266,0,0,1-2.033.9,2.75,2.75,0,0,1-2.887-2.563A1.368,1.368,0,0,1,1242.939,315.338Zm-2.995-20.943c.62,1.763.345,4.2.087,6.012a12.639,12.639,0,0,1-2.306,5.648c-1.233,1.759-1.277,4.33-1.652,6.395-.23,1.271-.457,2.544-.692,3.813a2.475,2.475,0,0,1-1.394,2.138,6.613,6.613,0,0,1-4.967-.734c-1.807-1.092-2.075-3.091-1.458-4.973a7.1,7.1,0,0,0,.532-3.11,14.237,14.237,0,0,0-.656-2.661,14.527,14.527,0,0,1-1.007-5.963c.1-.824.837-1.718,1.792-1.363a2.311,2.311,0,0,0,3.017-1.171,1.474,1.474,0,0,1,1.744-.907,4.645,4.645,0,0,0,.5-2.295,2.733,2.733,0,0,1,1.081-2.593C1236.3,291.594,1239.268,292.469,1239.945,294.394Zm-10.811-29.416c0-.126,0-.253,0-.381a20.565,20.565,0,0,1,.289-3.922,5.477,5.477,0,0,1,1.546-3.4,2.918,2.918,0,0,1,3.089-.436,1.438,1.438,0,0,1,1.418,1.015,26.15,26.15,0,0,1,.89,7.009,1.369,1.369,0,0,1,.3,1.748,6.467,6.467,0,0,0-1.237,2.659,22.886,22.886,0,0,0-.076,3.319,15.549,15.549,0,0,1-1.78,5.778c-.457.95-1.037,1.944-2.246,1.882-1.256-.062-1.6-1.132-1.791-2.163a4.855,4.855,0,0,0-.862-2.035,12.082,12.082,0,0,1-1.737-2.318,6.383,6.383,0,0,1-.434-2.874,13.135,13.135,0,0,0,.072-2.495,1.58,1.58,0,0,1,.469-1.473,1.522,1.522,0,0,1,.164-.558,1.4,1.4,0,0,1,1.7-.583l.017,0c.03-.036.052-.062.062-.072a.693.693,0,0,1,.049-.094,2.211,2.211,0,0,0,.079-.33C1229.12,265.208,1229.134,264.992,1229.134,264.978Zm-9.291-26.2a5.442,5.442,0,0,1,2.156-.6q1.106-.184,2.212-.366a6.2,6.2,0,0,1,2.357-.183,2.37,2.37,0,0,1,1.667,1.576,17.128,17.128,0,0,1,.769,4.4,19.963,19.963,0,0,1-.03,4.23,5.675,5.675,0,0,1-1.346,3.289c-.979,1.024-2.863,1.478-3.943.341-1.054-1.109-.79-2.951-.782-4.345a3.5,3.5,0,0,0-.247-1.667,1.228,1.228,0,0,0-.626-.615,1.152,1.152,0,0,1-.53-.592,4.453,4.453,0,0,1-1.535-.969C1218.728,242.089,1218.123,239.9,1219.842,238.783Zm-4.979,68.225a5.747,5.747,0,0,1-2.621.241c-.345,0-.922-.064-1.171.224-.228.264-.134.9-.13,1.222.017,1.23.064,2.459.1,3.687a5.374,5.374,0,0,1-.554,3.426,3.26,3.26,0,0,1-2.348,1.29c-2.127.234-3.651-1.275-4.671-2.966a18.3,18.3,0,0,1-2.68-6.242,4.889,4.889,0,0,1,2.295-5.431c3.513-2.2.2-7.543,3.84-9.751a1.3,1.3,0,0,1,.73-.19,1.013,1.013,0,0,1,.053-.168l.434-.649a1.391,1.391,0,0,1,.507-.507l.337-.143a1.416,1.416,0,0,1,.753,0l.337.143a1.05,1.05,0,0,1,.4.364c.038.04.045.1.073.14a1.2,1.2,0,0,1,1.264,1,4.879,4.879,0,0,1,.066,1.8c-.053.379-.389,1.292-.219,1.671.14.315.8.632,1.05.832a8.82,8.82,0,0,1,1.184,1.147,9.554,9.554,0,0,1,2.3,6.174A2.778,2.778,0,0,1,1214.864,307.008Zm-10.145-38.967a1.161,1.161,0,0,1,.53-.83,3.655,3.655,0,0,1,1.479-1.963,4.675,4.675,0,0,0,1.652-2.778,7.092,7.092,0,0,1,1.824-3.4c1.384-1.133,2.993-.187,3.585,1.269a7.5,7.5,0,0,1,.187,4.931c-.232.754-.6,1.454-.8,2.218a12.2,12.2,0,0,0-.281,2.457c-.09,1.8-.173,3.59-.26,5.386-.085,1.75.051,3.673-.807,5.259a1.43,1.43,0,0,1-2.586-.338,40.131,40.131,0,0,0-.892-4.211c-.162-.5-.177-.6-.688-.6a6.988,6.988,0,0,1-1.729-.066C1202.786,274.541,1204.351,270.2,1204.719,268.041Zm-4.216-27.181a3.3,3.3,0,0,1,1.116-.834,2.462,2.462,0,0,0,.877-.447,3.209,3.209,0,0,0,.419-1.852,1.373,1.373,0,0,1,.933-1.258,4.365,4.365,0,0,1,.477-2.514,1.2,1.2,0,0,1,.652-.909c1.043-.458,2.418-1.065,3.579-.745a3.349,3.349,0,0,1,1.963,2.259c.66,1.733.213,3.783,1.1,5.433a1.63,1.63,0,0,0,1.646.869,4.866,4.866,0,0,1,2.525.6,3.508,3.508,0,0,1,1.067,4.384,4.946,4.946,0,0,1-4.38,2.691c-.983.092-1.958-.109-2.932-.034-.913.07-.768.236-.7,1.005a2.5,2.5,0,0,1-.871,2.178,1.54,1.54,0,0,1,.04,1.492,1.459,1.459,0,0,1-1.935.507c-1.686-.739-2.131-2.608-2.422-4.241a2.624,2.624,0,0,0-.854-1.916,9.211,9.211,0,0,1-2.154-1.524A3.931,3.931,0,0,1,1200.5,240.859Zm-9.555.992c.973-1.729,3.11-4.426,5.384-3.526a3,3,0,0,1,1.678,2.744,32.571,32.571,0,0,1,.017,3.353c-.01,1.182.015,2.376-.051,3.558a4.543,4.543,0,0,1-1.169,3.113,1.3,1.3,0,0,1-.9.4,1.339,1.339,0,0,1-.811.668c-2.734.854-4.931-1.6-5.32-4.092A9.624,9.624,0,0,1,1190.947,241.851Zm-11.1,29.435q.008-2.484.013-4.965a1.43,1.43,0,0,1,2.414-1,6.806,6.806,0,0,1,1.516,3.472,2.853,2.853,0,0,0,1.939,2.112,6.34,6.34,0,0,0,1.708.585,6.714,6.714,0,0,0,1.9-.439c1.273-.268,3.155-.5,4.3.26,1.345.9.792,2.627-.415,3.327-1.28.741-2.932.607-4.262,1.209-.962.434-.562,2.393-.569,3.213a45.912,45.912,0,0,1-.32,4.9,1.437,1.437,0,0,1-2.414,1,7.458,7.458,0,0,1-2.519-4.926c-.135-.928-.094-1.88-.236-2.8-.113-.724-.573-.728-1.235-.709a6.017,6.017,0,0,1-3.249-.394,2.966,2.966,0,0,1-1.584-2.444A2.541,2.541,0,0,1,1179.844,271.286Z" transform="translate(78.744 82.466)" fill="#e9af16"/>
    <path id="Pfad_370" data-name="Pfad 370" d="M1251.089,371.2c4.056,4.528,6.547,10.968,11.922,14.179a25.364,25.364,0,0,0,4.23,1.788l-.617-37.981q-1.086-66.968-2.172-133.938a599.669,599.669,0,0,0-66.558-1.122c.7.607,1.394,1.2,1.974,1.814a69.52,69.52,0,0,1,7.3,9.536l.092-4.5a1.428,1.428,0,0,1,2.414-1,25.506,25.506,0,0,1,4.7,8.041c.605,1.6,1.09,3.253,1.542,4.9a34.408,34.408,0,0,0,1.316,4.993c.509,1.126.573.95,1.739,1.18a4.5,4.5,0,0,1,1.812.639,6.3,6.3,0,0,1,2.008,2.759,78.579,78.579,0,0,1,3.932,10.434,7.318,7.318,0,0,1-.2,4.516,8.5,8.5,0,0,0,.143,5.814c1.1,3.147,2.329,5.759,2.163,9.172-.1,2.057-.439,4.045.426,5.993a30.914,30.914,0,0,1,1.876,3.945c.773,2.721-.73,4.869-1.482,7.317,2.18,1.133,4.856,2.269,4.739,5.139-.1,2.534-2.636,3.794-4.8,4.256-2.12.453-3.617.792-4.152,3.16-.347,1.531-.385,3.074-1.4,4.36a3.968,3.968,0,0,1-2.774,1.541,2.458,2.458,0,0,1-1.831-.615,7.965,7.965,0,0,1-2.021,7.634,10.727,10.727,0,0,1,7.56,4.186,9.494,9.494,0,0,1,1.546,6.506c-.339,2.674-1.858,5.058-2.864,7.515a17.728,17.728,0,0,0-1.609,7.8c.119,1.961.268,4.228-1.522,5.527a3.514,3.514,0,0,1-1.4.607,127.121,127.121,0,0,0,15.078,11.758C1240.029,362.79,1246.406,365.972,1251.089,371.2Z" transform="translate(109.613 100.065)" fill="#e9af16"/>
    <path id="Pfad_371" data-name="Pfad 371" d="M1369.073,377.785c1.823,3.69,2.336,6.549.179,10.2-2.182,3.69-4.284,7.662-6.964,11.017a12.955,12.955,0,0,1-9.146,4.846c-2.18.272-4.458.27-6.555,1-1.107.387-2.248,1.15-3.415.99a10.7,10.7,0,0,0,.232,1.1c.556,1.867,1.839,3.719,1.313,5.753-.449,1.746-2.042,2.527-3.685,2.8a25.24,25.24,0,0,0-4.964,1.546,9.821,9.821,0,0,1-5.534.564,41.9,41.9,0,0,1-6.165-1.893c-1.7-.615-3.555-1.12-3.885-3.155a35.227,35.227,0,0,1-.207-6.355,63.727,63.727,0,0,1,.59-7.243,1.4,1.4,0,0,1-2.4-.941c-.347-4.1,2.8-7.339,2.623-11.486-.157-3.777-1.471-7.454-.636-11.247s3.759-6.472,5.527-9.787a17.826,17.826,0,0,0,1.269-13.323,1.412,1.412,0,0,1-.041-.524,6.732,6.732,0,0,1-1.218-1.7,14.453,14.453,0,0,1-3.519.92q-3.14,4.472-6.276,8.948l-4.309,6.142q-1,1.434-2.01,2.866c-.462.658-1.933,2.118-1.65,2.979.568,1.737-2.165,2.474-2.729.752-.771-2.365,1.56-4.622,2.8-6.387q2.3-3.278,4.6-6.553l6.11-8.712a13.606,13.606,0,0,1-5.459-1.865c-2.282-1.38-4.137-3.37-6.451-4.7-3.017-1.735-5.776-.568-8.971-.241-2.225.228-4.686-.2-6.182-2.012-1.737-2.1-.884-5.058-2.346-7.189-1.555-2.265-5.108-2-7.124-.588-2.68,1.872-3.719,5.363-4.4,8.384a1.425,1.425,0,0,1-2.727,0c-.816-4.281.479-9.235-1.575-13.212a4.391,4.391,0,0,0-7.711-.456,5.4,5.4,0,0,1,.055,5.1,1.425,1.425,0,0,1-2.444,0,7.339,7.339,0,0,1-.577-4.579c-1.6-1.533-4.843-2.389-6.227-2.985a17.726,17.726,0,0,1-6.281-4.735c-3.826-4.373-6.353-9.636-10.8-13.493-5.167-4.481-11.486-7.415-17.042-11.366a186.49,186.49,0,0,1-15.854-13.112,57.853,57.853,0,0,0,1.2,12.306c.681,3.583-.573,6.134-2.427,8.692a1.323,1.323,0,0,1,.481.683c1.254,4.185.43,8.41-.3,12.612l-.53,3.036a1.339,1.339,0,0,1,1.067,1.3q.58,16.321,1.158,32.639c.671,18.924,1.288,37.849,2.024,56.771s1.859,37.872,5.31,56.52a1.417,1.417,0,0,1-.217,1.071c1.341,8.633.516,17.4,1.4,26.088a42.124,42.124,0,0,0,1.335,7.224c.7,2.476,1.91,3.645,4.435,4.052a99.509,99.509,0,0,0,13.827,1.13q3.708.073,7.417-.094c1.716-.079,5.8.377,6.444-1.59.3-.924-.14-2.544-.224-3.538-.09-1.032-.2-2.059-.315-3.089-.249-2.227-.536-4.45-.781-6.679-1.982-18.064-2.157-36.258-2.333-54.408a1.276,1.276,0,0,1,.389-.966,839.281,839.281,0,0,1,16.936-99.348c.4-1.671,2.806-1.084,2.738.466a1.413,1.413,0,0,1,.6,1.471,145.347,145.347,0,0,0-2.6,31.534,11.8,11.8,0,0,1,.072,2.091c.006.117.011.236.015.353a13.875,13.875,0,0,0,1.469-2.057,52.014,52.014,0,0,0,2.3-6.953l4.737-15.216c.539-1.735,3.27-.99,2.727.751q-2.947,9.47-5.893,18.937c-.684,2.2-1.378,4.575-3.028,6.266-1.228,1.26-3.445,2.359-4.648.443a6.567,6.567,0,0,1-.53-3.221q-.091-2.438-.1-4.88c-.01-2.7.075-5.408.217-8.109-5.392,26.157-9.4,52.586-12.375,79.13a1.514,1.514,0,0,1-.179.56q.063,6.294.159,12.587a1.1,1.1,0,0,1,.115-.091l17.445-8.629c4.709-2.329,10.306-4.454,13.5-8.854,1.06-1.461,3.513-.047,2.442,1.428-3.315,4.575-8.463,6.875-13.385,9.312l-18.571,9.186a1.381,1.381,0,0,1-1.509-.151c.117,6.351.292,12.7.617,19.046.528,10.332,2.08,20.551,2.74,30.857.1,1.616.394,3.585-.9,4.818-1.346,1.279-3.811,1.09-5.5,1.209-.673.047-1.348.074-2.021.108a1.39,1.39,0,0,1,.181.415c.7,3.325,3.317,5.914,4.977,8.8a26.641,26.641,0,0,1,3.342,8.769c1.052,6.274-1.669,11.333-4.677,16.61-3.628,6.359-4.784,13.078-5.725,20.246q-.781,5.929-1.46,11.869a9.88,9.88,0,0,1,.817-.7c1.784-1.314,3.854-2.167,5.742-3.317a49.23,49.23,0,0,0,6.374-4.78c3.3-2.825,7.317-5.768,8.51-10.153,1.233-4.543.147-9.789-.775-14.292a85.838,85.838,0,0,0-4.053-13.419c-1.556-4.073-3.136-8.162-3.666-12.519-1-8.252,2.408-16.6,6.91-23.363a50.616,50.616,0,0,1,16.6-15.6,1.4,1.4,0,0,1-.275-.726,1.24,1.24,0,0,1-.751-1.209q.056-3.788.115-7.577c.03-1.98-.07-4.107.769-5.953a12.019,12.019,0,0,1,3.17-3.777,25.717,25.717,0,0,0,4.086-4.814c2.161-3.223,4.066-6.662,7.026-9.248.419-.366.869-.683,1.311-1.015.036-.143.063-.289.1-.432a1.308,1.308,0,0,1,1.837-.884,33.559,33.559,0,0,1,6.149-2.929c7.119-2.57,14.973-2.842,21.283-7.341a27.218,27.218,0,0,1,8.46-4.252,1.32,1.32,0,0,1,.081-.122,10.425,10.425,0,0,1,1.373-1.19c.22-.164.464-.289.7-.43a1.3,1.3,0,0,1,.366-.7,40.031,40.031,0,0,1,12.8-8.5c4.211-1.767,8.87-3.157,11.8-6.9,1.122-1.433,3.109.583,2,2-2.906,3.713-7.432,5.348-11.66,7.055a38.831,38.831,0,0,0-12.218,7.7,69.991,69.991,0,0,1,7.115-.681,71.368,71.368,0,0,1,22.642,2.674c1.513.43,3,.926,4.482,1.46a1.532,1.532,0,0,1,2.088.784l0,.009c1.384.549,2.757,1.128,4.1,1.761.971.456,2.653,1.642,3.417.607a6.871,6.871,0,0,0,.464-2.24,34.26,34.26,0,0,1,1.454-5.139c2.665-7.366,7.6-14.635,6.883-22.789-.651-7.424-6.926-12.55-11.183-18.086-4.58-5.959-6.7-13.038-8.5-20.234-.526-2.114-.6-4.292-2.978-4.963a38.413,38.413,0,0,1-4.149-1.213,19.719,19.719,0,0,1-2.759-1.416c3.86,6.114,9.142,11.743,10.193,18.629C1368.833,377.359,1368.966,377.566,1369.073,377.785Zm-77.35-21.692c.324-2.148.69-4.294,1.228-6.4.413-1.62.762-3.845,2.369-4.711s3.031,1.578,1.428,2.442c-.5.272-.7,1.656-.845,2.182-.232.835-.436,1.68-.619,2.529-.4,1.842-.687,3.707-.962,5.571a45.183,45.183,0,0,0-.728,11.254c.189,1.812-2.642,1.791-2.828,0C1290.316,364.658,1291.08,360.336,1291.723,356.093Zm7.8,75.908-8.618-.758c-1.743-.155-3.938-.079-4.464-2.15-.549-2.157.317-5.3.6-7.473.343-2.595.766-5.176,1.239-7.75,2.1-11.392,5.091-22.659,5.308-34.306a1.415,1.415,0,0,1,2.829,0c-.183,9.821-2.276,19.42-4.226,29.007-1.024,5.044-2.016,10.11-2.591,15.227-.115,1.035-.716,2.985-.356,3.936.247.647.4.537,1.228.643.57.072,1.15.1,1.724.151l7.324.645C1301.324,429.331,1301.335,432.159,1299.521,432Z" transform="translate(116.178 162.235)" fill="#e9af16"/>
    <path id="Pfad_372" data-name="Pfad 372" d="M1374.453,308.973c0,.021-.008.023-.068-.1l-.038-.059-.03-.032c-.032-.034-.1-.1-.121-.123a2.749,2.749,0,0,0-.241-.155c-.042-.023-.136-.07-.16-.085a3.548,3.548,0,0,0-.353-.117c-.115-.032-.232-.058-.349-.083-.04-.008-.115-.017-.16-.023-1.294-.109-2.585.177-3.881.021a1.449,1.449,0,0,1-1.414-1.414,1.422,1.422,0,0,1,1.414-1.414c.136.017.273.011.411.019a38.29,38.29,0,0,0,.113-4.339,24.719,24.719,0,0,1-6.872-.426c-.3-.06-.592-.128-.886-.2-.109-.026-.219-.053-.328-.077l0,0c-.026.1-.058.206-.087.3q-.481,1.672-.958,3.345a1.436,1.436,0,0,1-1.74.986,1.378,1.378,0,0,1-.773-.585c-12.6-3.293-25.8-1.982-38.558-4.311a1.151,1.151,0,0,1-.994-1.322,1.241,1.241,0,0,1,.143-1.128c1.7-2.7,2.416-6.07,2.951-9.184a42.83,42.83,0,0,0,.487-9.968,1.324,1.324,0,0,1,2.027-1.179,1.167,1.167,0,0,1,.311-.06,43.044,43.044,0,0,1,9.589,1.443,2.062,2.062,0,0,1,1.765,1.914,9.27,9.27,0,0,1-.581,2.416q-.464,1.646-.926,3.289l4.639.119,2.868.074c.458.011.918.023,1.377.036l.4.009V286.4l-.005-1.23c0-.858-.01-1.716-.011-2.572a1.42,1.42,0,0,1,2.329-1.054q2.331.074,4.666.085c.767,0,1.533,0,2.3-.011h.092c.057-.221.119-.447.125-.475l1.588-7.453c-.364-.089-.726-.183-1.1-.247-.141-.026-.285-.047-.426-.07l-.057-.011-.058-.006c-.266-.03-.532-.058-.8-.077-.532-.04-1.066-.051-1.6-.045a3.105,3.105,0,0,1-1.82-.424c-1.126-.771-1.183-2.05-1.171-3.289q.014-1.219.024-2.44a1.363,1.363,0,0,1-.675.006c-2.142-.6-4.279-1.235-6.432-1.8-.09.509-.2,1.015-.328,1.512a20.256,20.256,0,0,1-1.171,3.195,1.423,1.423,0,0,1-1.935.507,1.311,1.311,0,0,1-.436-.411,1.3,1.3,0,0,1-.709-.03c-3.011-.982-6.144-.362-9.242-.524-1.256-.064-2.644-.4-2.928-1.831a5.144,5.144,0,0,1,.245-2.086q.272-1.219.553-2.44,1.117-4.879,2.355-9.731.619-2.427,1.265-4.845c.386-1.439.951-2.614,2.636-2.38a1,1,0,0,1,.522.249,1.624,1.624,0,0,1,.788-.057,18.713,18.713,0,0,0,3.781.405c.349,0,.7,0,1.047-.017h.015c.008-.2.015-.4.025-.6a21.269,21.269,0,0,1,1.324-6.355q-1.493-.71-2.989-1.418-.753-.359-1.507-.715a4.948,4.948,0,0,1-1.435-.866c-.928-.922-.745-2.32-.755-3.515q-.008-1.078-.015-2.157a19.31,19.31,0,0,1-4.8-.53,17.489,17.489,0,0,1-2.291-.73c-.3-.117-.589-.249-.883-.379v.147q0,.82.008,1.641.014,1.737.04,3.474a1.419,1.419,0,0,1-.883,1.3,1.614,1.614,0,0,1-.792.3,39.48,39.48,0,0,1-4.652.058q-1.109-.054-2.21-.17c-.368-.04-.734-.089-1.1-.134-.089-.011-.307-.041-.477-.053l-.057.16c-.109.379-.207.76-.3,1.143q-.26,1.041-.475,2.1c-.205,1.011-.333,2.033-.469,3.055a6.6,6.6,0,0,1,5.446,3.609,1.446,1.446,0,0,1-.241,1.686,1.415,1.415,0,0,1-.143.72c-2.595,5.131-2.336,10.9-2.566,16.5a1.414,1.414,0,0,1-1.724,1.322,1.288,1.288,0,0,1-.677.006l-8.293-2.427a9.424,9.424,0,0,1-2.088-.692,2.278,2.278,0,0,1-1.048-2.056c-.028-.949-.019-1.9-.019-2.849l-3.475-.366q-1.033-.11-2.067-.219c-.32-.034-.769-.136-1.15-.158-.026.1-.055.19-.079.285-.078.289-.147.579-.221.867-.156.632-.309,1.265-.519,1.882a7,7,0,0,1-2.412,3.517,1.241,1.241,0,0,1-1.314.019,1.266,1.266,0,0,1-.49-.036l-4.19-1.284c-.513-.157-1.067-.294-1.591-.47.009,2.512.041,5.024.064,7.534a20.988,20.988,0,0,1,3.366.62,5.174,5.174,0,0,1,3.085,1.622c.656.958.447,2.378.453,3.477,0,.73.005,1.458.009,2.188.051.017.1.021.153.041a15.653,15.653,0,0,0,3.641,1.033,14.621,14.621,0,0,0,1.882.166c.2.006.417-.013.621,0a8.223,8.223,0,0,1,.275-1.767,15.2,15.2,0,0,1,.424-1.731,2.681,2.681,0,0,1,1.848-2.133,11.934,11.934,0,0,1,3.091-.04,29.631,29.631,0,0,1,3.394.3,13.5,13.5,0,0,1,5.391,1.959,1.394,1.394,0,0,1,2.482.854c-.132,3.506-2.107,6.385-2.951,9.7-.837,3.289-.5,6.711-2.046,9.827a1.239,1.239,0,0,1-1.929.426,1.354,1.354,0,0,1-.747.028,148.608,148.608,0,0,0-37.289-4.375,1.383,1.383,0,0,1-1.222-2.023,1.092,1.092,0,0,1-.066-.373c.083-1.039.12-2.078.105-3.119-.007-.485-.011-.975-.057-1.456l0-.1c-.117,0-.234-.009-.351-.011-.262,0-.526.008-.788-.009a3.441,3.441,0,0,1-1.9-.618,5.58,5.58,0,0,1-.115.628,9.393,9.393,0,0,1-5.75,6.2,1.249,1.249,0,0,1-1.226-.275,1.205,1.205,0,0,1-1.19-.392l-.486-.524a1.317,1.317,0,0,1-1.463-1.356l0-.219v0a24.842,24.842,0,0,0-.777,7.383c.019.417.04.837.089,1.252.021.168.12.611.123.613a2.742,2.742,0,0,0,.939.522c1.131.483,2.2,1.035,2.534,2.329a1.333,1.333,0,0,1-.045.8,1.515,1.515,0,0,1,.024.594,12.433,12.433,0,0,0-.16,1.49q.091.8.177,1.607c.209.364.573.488,1.124.317a18.036,18.036,0,0,0,2.928.179,33.553,33.553,0,0,1,4.222.766c.383-2.38.841-5.54,3.5-5.461,1.552.047,3.245.971,4.728,1.4,1.848.532,3.711,1,5.589,1.409a199.185,199.185,0,0,0,24.3,3.281,1.446,1.446,0,0,1,1.365,1.79,172.361,172.361,0,0,0-1.725,36.518,1.192,1.192,0,0,1-.883,1.288c-.36,2.582-1.4,5.18-1.8,7.8.134-.185.251-.37.4-.553,1.277-1.552,2.676-3.015,4.011-4.515,1.12-1.256,2.227-2.957,3.919-3.451,1.522-.445,3.123.2,4.571.63.624.185,1.375.36,2.144.57q1.892-17.224,2.783-34.532a1.436,1.436,0,0,1,1.224-2.069,140.515,140.515,0,0,1,37.531,3.973.894.894,0,0,1,.1.049,1.535,1.535,0,0,1,.684-.221,1.436,1.436,0,0,1,1.414,1.414q.068,1.793.136,3.585l.068,1.793,0,.064c.5.081.788.117,1.371.175q.831.085,1.669.121a30.893,30.893,0,0,0,3.157-.04c0-.752,0-1.5.008-2.255q0-.905.006-1.812a3.171,3.171,0,0,1,.424-2.063c.99-1.28,2.717-.571,4.005-.264l2.964.707q.47-1.638.941-3.276c.188-.66.394-1.32.564-1.988a2.7,2.7,0,0,0,.113-1.314C1374.464,309.024,1374.459,309,1374.453,308.973Z" transform="translate(158.611 114.124)" fill="#e9af16"/>
    <path id="Pfad_373" data-name="Pfad 373" d="M1307.31,361.435c-7.711-.251-16.849.1-23.357,4.68a31.8,31.8,0,0,1-10.115,5.091c-3.564.988-7.209,1.635-10.753,2.71a31.821,31.821,0,0,0-8.756,3.988,110.2,110.2,0,0,0-2.942,20.329c-.306,6.444-1.288,14.652,3.655,19.6,3.549,3.555,8.227,5.825,12.082,9.027a25.034,25.034,0,0,1,4.933,5.329,27.268,27.268,0,0,1,2.68,6.282,4.719,4.719,0,0,0,3,3.37,10.946,10.946,0,0,1,2.627,1.133,6.91,6.91,0,0,1,2.6,4.958c.826,5.784.27,12.069-.085,17.875-.1,1.682-.24,3.36-.379,5.039-.117,1.4-.364,2.22,1.173,2.661,1.876.541,3.512.451,5.071,1.816,2.944,2.578,3.26,7.094,3.228,10.734-.113,12.55-.492,25.1-.753,37.651l26.6,2.125c2.4.192,4.807.436,7.213.571,1.737.1,3.886.247,5.278-1,1.524-1.367,1.855-3.868,2.7-5.669a20.991,20.991,0,0,1,2.512-4.045c1.1-1.4,2.44-2.5,3.642-3.79,2.129-2.295,1-4.594-.388-6.951-1.071-1.816-2.189-3.606-3.285-5.408-.649-1.069-1.331-2.687-2.482-3.313a8.623,8.623,0,0,0-3.4-.569c-2.731-.245-5.882-.992-7.141-3.732a4.616,4.616,0,0,1,1.76-6.038,1.282,1.282,0,0,1,.273-.087,1.489,1.489,0,0,1,.433-1.89q5.29-3.9,10.417-8.011c2.97-2.395,6-4.926,8-8.222,3.5-5.755,3.211-13.234,3.155-19.744-.055-6.28-.741-13.274-5.425-17.947-2.432-2.425-5.548-4-8.361-5.916a39.152,39.152,0,0,1-6.672-5.716,40.1,40.1,0,0,1-8.735-15.062,1.246,1.246,0,0,1,.109-1.082,1.318,1.318,0,0,1-.631-1.516c1.635-6.54,7.609-10.381,10.692-16.11a23.938,23.938,0,0,0,1.467-18.878A68.434,68.434,0,0,0,1307.31,361.435Z" transform="translate(156.743 230.894)" fill="#e9af16"/>
    <path id="Pfad_374" data-name="Pfad 374" d="M1116.252,533.884c4.611-.581,9.172-1.535,13.806-1.948,4.458-.4,8.929-.206,13.395-.27,3.083-.043,10.038.511,10.947-3.572a1.059,1.059,0,0,1,.06-.136,6.23,6.23,0,0,1,.309-3.125,8.812,8.812,0,0,0-.124-6.087c-1.337-3.939-3.375-7.622-4.443-11.656a18.572,18.572,0,0,1-.349-9.065c.811-3.338,3.14-5.521,4.963-8.292,4.107-6.24-1.156-13.917-1.413-20.594-.228-5.952.449-13.93,4.383-18.714,2.242-2.725,5.478-4.475,8.222-6.628a76.5,76.5,0,0,0,8.246-7.556c.028-.03.062-.036.091-.062a1.149,1.149,0,0,1,.477-.911,19.583,19.583,0,0,0,7.021-10.935c1.114-4.833-.051-9.706-1.584-14.307-1.345-4.03-2.853-7.981-4.011-12.073a72.738,72.738,0,0,0-3.934-11.811,20.626,20.626,0,0,0-7.318-8.869c-3.536-2.206-7.749-2.9-11.82-3.379-7.4-.873-15.309-1.561-22-5.15a16.787,16.787,0,0,1-6.73-6.672c-1.627-2.838-2.825-6.153-5.887-7.745a1.2,1.2,0,0,1-.685-1.322,40.745,40.745,0,0,0-12.961,2.289c-3.747,1.331-7.111,3.447-11.013,4.175a1.058,1.058,0,0,1,.14.294,55.773,55.773,0,0,1,1.086,11.305,1.3,1.3,0,0,1-.328.862,1.46,1.46,0,0,1,.156,1.428q-2.5,5.9-5,11.8c-.883,2.082-1.954,3.949-1.29,6.249a27.177,27.177,0,0,0,2.014,4.879,10.044,10.044,0,0,0,3.489,4.107,41.214,41.214,0,0,0,4.884,2.106,26.493,26.493,0,0,1,8.446,6.116,1.335,1.335,0,0,1,.2,1.626,1.352,1.352,0,0,1,.068.321v6.63a1.358,1.358,0,0,1-.5,1.047,1.476,1.476,0,0,1-.939,1.352,261.94,261.94,0,0,0-24.353,11.307q-2.566,1.355-5.1,2.768a8.594,8.594,0,0,0-2.4,1.426c-.513.662-.288,1.784-.255,2.544.179,3.958.387,7.916.579,11.875s.387,7.916.579,11.877c.172,3.521-.507,8.465,2.3,11.077,2.627,2.44,6.149,4.254,9.206,6.112a77.576,77.576,0,0,0,9.813,5.144c2.4,1.024,4.539,2.065,5.514,4.663,1.263,3.368,1.61,7.281,2.323,10.805.337,1.673-2.022,2.41-2.614,1.024a1.34,1.34,0,0,1-.739.586,74.6,74.6,0,0,0-7.019,2.657c-1.807.8-4.456,1.626-5.848,3.1-1.62,1.712-.977,5.514-1.019,7.711q-.057,3.191-.117,6.378-.065,3.646-.132,7.29a30.512,30.512,0,0,0-.068,3.645c.209,1.984.62,2.646,2.533,2.87a108.411,108.411,0,0,0,13.263.234A114.893,114.893,0,0,0,1116.252,533.884Z" transform="translate(0 223.48)" fill="#e9af16"/>
    <path id="Pfad_375" data-name="Pfad 375" d="M1105.431,594.129c3.089-2.5,7.5-5.561,11.581-5.98a3.692,3.692,0,0,1,2.321.517c.339-4.637.747-9.612,3.475-13.544a13,13,0,0,1,4.313-4.035c2.078-1.143,4.154-.76,6.27-1.454,2.216-.73,3.217-4.23,4.22-6.208q1.734-3.425,3.468-6.853a83.252,83.252,0,0,0,5.929-13.949c2.927-10.01,3.385-20.894,3.979-31.251,1.2-20.86.634-41.762.045-62.632a14.073,14.073,0,0,1-2.234.543c-4.677.741-9.531.372-14.245.422-9.01.1-17.779,2.357-26.765,2.825-2.723.141-5.449.173-8.176.166a161.848,161.848,0,0,1,8.461,21.888,73.5,73.5,0,0,1,2.459,24.628c-.93,15.09-5,30.149-2.976,45.324a46.824,46.824,0,0,0,2.672,10.664c.99,2.561,1.846,4.9-.626,6.881-2.276,1.822-4.692,2.208-5.718,5.3-.952,2.87-.536,6.018-.143,8.944.8,5.974.824,11.79-4.624,15.51-6.2,4.234-13.38,7.066-19.393,11.567-2.664,2-5.65,6-3.238,9.312,1.477,2.027,4.288,1.884,6.523,1.7,1.55-.128,3.2-.379,4.833-.471.667-2.355,3.573-2.118,6.012-1.305A33.956,33.956,0,0,1,1105.431,594.129Z" transform="translate(1.29 308.28)" fill="#e9af16"/>
    <path id="Pfad_376" data-name="Pfad 376" d="M1272.436,449a1.694,1.694,0,0,1-.557-.143,1.263,1.263,0,0,1-.669-.068q-.337,14.389-.468,28.78-.43,52.63,2.144,105.222a15.163,15.163,0,0,1,7.4-6.15c3-1.184,4.86-.526,6.317,2.321a82.825,82.825,0,0,1,3.924,9.372c2.389,6.549,4.428,13.342,8.286,19.222a19.761,19.761,0,0,0,3.8,4.612c2.067,1.663,4.262,1.05,6.453,0,2.908-1.4,5.553-2.667,8.8-3.036a20.155,20.155,0,0,1,3.232-.077c-1.42-5.782-6.155-9.6-10.64-13.153-3.784-3-10.564-7.053-9.744-12.719.647-4.475,6.078-7.62,4.588-12.418-1.286-4.139-5.4-7.305-4.788-12,.379-2.923,2.659-5.188,3.886-7.779a25.712,25.712,0,0,0,2.257-8.525c.577-6.019-.511-12.082-2.137-17.862-3.53-12.555-10.277-24.592-9.915-37.976.162-5.923,2.091-11.343,4.452-16.71,2.536-5.763,5.376-11.518,5.4-17.952a1.238,1.238,0,0,1,.062-.3c-1.077-.126-2.127-.26-3.111-.339Z" transform="translate(174.087 308.321)" fill="#e9af16"/>
    <path id="Pfad_377" data-name="Pfad 377" d="M1453.573,649.519c-2.908-1.641-5.061-5.028-6.717-7.833-3.762-6.378-5.763-13.583-8.384-20.457-.673-1.763-1.386-3.511-2.193-5.218-.6-1.277-.945-2.765-2.793-2.738a7.577,7.577,0,0,0-2.866,1.294c-3.59,2.091-6.234,6.4-3.775,10.366.962,1.552-1.486,2.972-2.444,1.428a9.513,9.513,0,0,1-1.015-2.242,1.422,1.422,0,0,1-1.616-1.341q-.8-15.668-1.346-31.345-1.915-55.458-.526-110.962a1.315,1.315,0,0,1,.332-.851,7.9,7.9,0,0,1-.1-1.212c-.021-2.738.671-5.314.285-8.084-.881-6.313-5.49-10.9-7.935-16.58-2.384-5.54-3.23-11.754-6.583-16.859a12.962,12.962,0,0,0-6.476-5.4c-2.959-1-6.182-.715-9.24-.49a1.2,1.2,0,0,1-.905-.29,2.61,2.61,0,0,1-.756.666c-1.328.747-3.44.366-4.89.37q-2.866.006-5.729.013a111.188,111.188,0,0,0-11.269.145c-3.805.4-6.029,2.585-8.292,5.431.089.673.189,1.341.255,2.023.356,3.707.23,7.554-1.571,10.907-1.85,3.443-5.167,6-8.08,8.493a52.587,52.587,0,0,1-9.612,6.7c-1.878.994-3.828,2.023-4.929,3.928a14.939,14.939,0,0,0-1.461,5.859,1.434,1.434,0,0,1-.636,1.054,1.379,1.379,0,0,1-1.9.554c.323.177-.769.866-1.146,1.065a3.658,3.658,0,0,1-1.7.534,3.813,3.813,0,0,1-2.817-1.58c-.977-1.122-1.509-2.529-2.668-3.5a12.614,12.614,0,0,0-4.113-2.063c-4.3-1.475-12.95-3.332-11.95-9.661.313-1.984,1.392-3.919,2.125-5.774a43,43,0,0,0,2.141-6.47c.967-4.377.26-8.673-2.966-11.937-4.219-4.268-10.115-5.363-16-5.7a1.269,1.269,0,0,1,0,.192,389.487,389.487,0,0,0-6.661,41.747c-2.482,24.487-2.359,49.343,1.565,73.675,3.873,24.025,11.132,47.5,12.284,71.931.087,1.823-2.744,1.812-2.829,0-.664-14.077-3.381-27.909-6.31-41.662-2.544-11.941-5.193-23.864-6.826-35.971a270.263,270.263,0,0,1-2.369-36.746c.058-24.641,3.227-49.194,8.326-73.277-1.716-.045-3.411-.062-5.037-.1a1.35,1.35,0,0,1-1.341-1.3,13.44,13.44,0,0,1-2.746-.241,61.068,61.068,0,0,0-11.152-1.218c-3.926.034-7.053,2.059-10.753,3.021-5.884,1.529-13.57,1.4-18.628-2.391-2.691-2.018-4.667-4.8-7.388-6.819a44.731,44.731,0,0,0-8.652-4.852,82.432,82.432,0,0,0-9.365-3.607c-2.574-.771-3.622.343-5.116,2.265q-1.42,1.833-2.838,3.668c.173.954-.515,2.048-1.665,1.622-6.393-2.365-11.516-6.977-17.7-9.734-7.637-3.406-15.837-1.626-23.344,1.22a1.119,1.119,0,0,1-1.23-.213c-1.446,2.37-3.647,4.192-5.588,6.138a44.075,44.075,0,0,0-11.158,17.717c-2.138,6.879-1.13,13.926-2.01,20.96a22.569,22.569,0,0,1-3.085,9.252c-1.748,2.815-4.011,5.286-4.641,8.639a1.186,1.186,0,0,1-.543.826,1.894,1.894,0,0,0,.141.669,1.478,1.478,0,0,1-.336,1.675,5.7,5.7,0,0,1-1.976,2.742,1.406,1.406,0,0,1,.172.639c.338,11.965.673,23.932.681,35.9.007,10.4-.232,20.811-.939,31.192-.677,9.949-1.209,20.455-4.377,29.984a99.5,99.5,0,0,1-5.884,13.323q-1.835,3.635-3.677,7.268c-.86,1.7-1.586,3.736-2.853,5.182-1.346,1.539-3.017,1.68-4.929,1.81a8.317,8.317,0,0,0-5.734,2.8c-3.3,3.579-3.643,8.789-3.979,13.4a1.406,1.406,0,0,1-1.126,1.3c.375.428.732.883,1.084,1.324a62.7,62.7,0,0,1,4.667,6.685,1.349,1.349,0,0,1-.89,2.027q1.081,2.031,2.165,4.062a120.523,120.523,0,0,0,6.628,11.876,19.011,19.011,0,0,0,2.3,2.759,27.322,27.322,0,0,1,4.054.6,20,20,0,0,1,7.037,3.3,9.964,9.964,0,0,1,1,.843,28.376,28.376,0,0,1,7.581,1.724,3.6,3.6,0,0,0,.332-1.318,1.153,1.153,0,0,1-.1-1.082,3.677,3.677,0,0,0-.743-1.488,1.432,1.432,0,0,1,.624-2.365c2.363-.624,2.135-6.719,2.369-8.58q.583-4.639,1.167-9.28,1.2-9.51,2.395-19.022c2.806-22.284,5.878-44.509,6.777-66.973.854-21.328,1.033-42.948,7.032-63.61a1.416,1.416,0,0,1,2.729.751c-3.566,12.278-5.084,24.969-5.863,37.7-.685,11.171-.847,22.367-1.458,33.54-.649,11.852-2,23.636-3.472,35.409q-2.2,17.625-4.436,35.249-1.14,9.046-2.278,18.094c-.339,2.7-.332,6.747-2.625,8.612a6.555,6.555,0,0,1,.6,1.793l9.327,8.328c.964.86,2.2,2.5,3.692,2.278a10.746,10.746,0,0,0,2.027-1.133,18.246,18.246,0,0,1,3.864-1.352c6.817-1.552,13.8.426,20.585,1.181,6.979.775,13.9-.3,20.71-1.841,3.219-.73,6.578-1.774,8.354-4.794,1.418-2.406,1.6-5.35,1.686-8.075.46-14.9.358-29.833.46-44.734q.311-45.683.011-91.365a1.415,1.415,0,0,1,2.828,0q.176,27.316.14,54.631-.034,24.256-.241,48.507-.1,12.245-.253,24.489c-.06,4.931.584,11.015-1.245,15.9a1.391,1.391,0,0,1,.328.011c12.028,2.9,24.025,6.031,36.1,8.712,1.6.355,4.075.858,5.587-.081,1.8-1.122.877-3.53.862-5.261-.028-2.831,2.135-5.207,5.065-4.038,1.706.681,2.764,2.263,4.29,3.206,2.29,1.414,5.637.76,8.207.673q8.211-.277,16.423-.556l8.446-.285c1.052-.036,3.3.275,4.222-.143a2.331,2.331,0,0,0,.519-.317c.119-.59.24-1.15.354-1.68a7.888,7.888,0,0,0-.445-1.03c-1.839-3.694-3.374-6.992-3.2-11.252a18.4,18.4,0,0,1,13.3-16.742,1.434,1.434,0,0,1,1.739.986c1.329,4.079-.645,7.847-2.546,11.386a58.09,58.09,0,0,0-5.163,13.1c-.3,1.167-.547,2.346-.773,3.53a4.026,4.026,0,0,1-.6,3.4c-.339,1.908-.669,4.326.947,5.374.79.513,2.559.34,3.481.409q1.635.121,3.274.239,3.273.229,6.549.428,13.572.823,27.168,1.075,13.362.246,26.723-.055c.852-.019,3.475.315,4.072-.545.364-.526-.036-2.3-.09-2.914q-.277-3.168-.554-6.336-.574-6.562-1.148-13.125a1.429,1.429,0,0,1,2.414-1l7.651,7.679q1.912,1.921,3.826,3.841c.63.632,3.856,4.113,4.43,1.639a1.43,1.43,0,0,1,2.585-.337q1.867,3.391,3.737,6.785c.4.718.9,2.21,1.609,2.685,1.081.726,2.416-.562,3.281-1.137a64.935,64.935,0,0,1,34.9-10.811q-7.813-12.35-15.627-24.7c-.977-1.544,1.471-2.961,2.442-1.427l16.966,26.816a1,1,0,0,1,.068.155,50.337,50.337,0,0,1,12.286-.134,75.45,75.45,0,0,1,12.173,2.948,7.455,7.455,0,0,0,2.77.447c1.584-.17,2.123-1.25,2.872-2.444a23.46,23.46,0,0,1,3.34-4.258,22.116,22.116,0,0,1,6.813-4.56,18.258,18.258,0,0,0-18.937-1.067C1460.051,649.83,1456.788,651.331,1453.573,649.519ZM1193.26,486.248c-1.5,1.043-2.911-1.411-1.427-2.442,4.863-3.389,4.492-10.23,2.855-15.224-1.935-5.908-5.644-11.139-8.627-16.546q-4.747-8.6-8.7-17.615c-1.735-3.951-3.025-8.739-5.507-12.476-.448,19.827-.469,39.854,4.8,59.119a1.416,1.416,0,0,1-2.729.752c-5.612-20.543-5.331-41.949-4.82-63.066a1.221,1.221,0,0,1,.155-1.922,1.415,1.415,0,0,1,2.708.528c0,.089-.005.181-.007.272,4.4,4.4,6.091,11.465,8.556,16.962a217.33,217.33,0,0,0,10.141,19.821C1195.672,463.1,1204.552,478.384,1193.26,486.248Zm58.974,107c-3.474-8.746-6.453-17.671-9.172-26.676-9.6-31.794-16.231-64.91-32.345-94.29-.877-1.6,1.567-3.025,2.442-1.427a203.943,203.943,0,0,1,11.639,25.46c11.988,31.443,17.73,64.885,30.164,96.181C1255.636,594.189,1252.9,594.919,1252.234,593.248Zm17.553,2.189A577.329,577.329,0,0,0,1244.661,487.5c-.583-1.733,2.15-2.468,2.729-.752a581.207,581.207,0,0,1,25.226,108.693C1272.855,597.238,1270.024,597.215,1269.787,595.437Zm74.318-93.4c-3.756,25.656-3.969,51.677-3.63,77.554.29,22.158,2.244,46.388-9.561,66.232a1.416,1.416,0,0,1-2.444-1.428c6.551-11.011,8.673-23.734,9.233-36.367.526-11.916-.042-23.876-.136-35.8-.1-12.874.009-25.756.687-38.613,1.335-25.309,5.172-50.339,12.872-74.525.551-1.731,3.279-.986,2.727.752A266.209,266.209,0,0,0,1344.1,502.035Zm28.511-49.809a1.523,1.523,0,0,1-2.423.57c-2.612,8.954-3.517,18.3-4.526,27.56-4.33,39.729-8.563,79.507-9.934,119.469-.062,1.818-2.891,1.82-2.828,0q.591-17.249,1.82-34.47c1.411-20.17,3.357-40.3,5.469-60.407q1.578-15.014,3.238-30.018c1.026-9.263,2.252-18.552,5.484-27.345a1.437,1.437,0,0,1,2.365-.624A4.614,4.614,0,0,1,1372.615,452.227Zm10.6,44.5q-1.346,51.973-.977,103.973a1.415,1.415,0,0,1-2.828,0q-.1-14.822-.07-29.642.119-51.991,1.955-103.958c.064-1.818,2.893-1.822,2.829,0Q1383.6,481.911,1383.213,496.727Zm32.507,131.221a301.658,301.658,0,0,0-2-34.172c-2.269-20.385-5.948-40.6-9.312-60.823l-10.111-60.8c-.3-1.784,2.429-2.544,2.727-.752q2.9,17.4,5.789,34.809c3.407,20.485,6.951,40.955,10.162,61.47,3.125,19.949,5.625,40.046,5.572,60.269A1.415,1.415,0,0,1,1415.72,627.948Z" transform="translate(22.626 274.05)" fill="#e9af16"/>
    <path id="Pfad_378" data-name="Pfad 378" d="M1158.059,345.546q.065,7.27.128,14.539.122,13.575.24,27.147a1.312,1.312,0,0,1,.27.779q.458,34.753-.258,69.5-.319,15.258-.867,30.513c-.174,4.85-.6,9.746-.528,14.6.026,1.935.188,4.132,1.36,5.752,1.373,1.9,4.03,2.033,6.167,2.374,9.806,1.56,19.812,1.373,29.693.813,2.553-.145,5.1-.317,7.654-.5,2.776-.194,5.139-.1,6.1-3.127,1.554-4.894.577-10.325-.177-15.265a185.588,185.588,0,0,1-1.671-28.8q.054-15.3.152-30.591c.059-10.036.157-20.07.229-30.106.06-8.9-.047-17.841-1.5-26.633a1.181,1.181,0,0,1-.27-.886c.011-.138.015-.275.026-.413-.149-.82-.289-1.643-.462-2.459a1.377,1.377,0,0,1,.717-1.544,179.378,179.378,0,0,0-3.347-46.4,7.146,7.146,0,0,1-.93-1.622c-.779-1.963-.513-4.277-.509-6.342l.017-8.013a1.4,1.4,0,0,1,.1-.5,8.562,8.562,0,0,1-2.953-3.9c-.664-2.246-.556-4.863-.737-7.179l-.494-6.361c-.358-.487-.724-.971-1.047-1.477a11.345,11.345,0,0,1-1.186-2.559,3.5,3.5,0,0,1-3.562-.13,3.96,3.96,0,0,1-1.729-2.193c-7.66,5.682-15.09,11.66-22.365,17.824-6.583,5.578-13.276,11.271-17.819,18.714a18.082,18.082,0,0,1,.16,3.121c.036,2.171-.068,4.343-.077,6.513-.01,2.071-.342,5.454.662,7.317.783,1.456,4.183.707,5.729.718C1158.895,338.811,1158.033,342.6,1158.059,345.546Z" transform="translate(65.868 162.868)" fill="#e9af16"/>
    <path id="Pfad_379" data-name="Pfad 379" d="M1182.479,424.106c-.057,10.858-.351,21.752.07,32.607a145.929,145.929,0,0,0,1.61,16.208c.711,4.72,1.352,9.576.277,14.3a15.1,15.1,0,0,1-.6,1.969,1.547,1.547,0,0,1,2.2-.355,38.41,38.41,0,0,0,7.1,4.861c.873.4,1.305.681,2.227.155a15.6,15.6,0,0,0,1.816-1.471q1.556-1.267,3.115-2.533a78.075,78.075,0,0,1,6.172-5,3.308,3.308,0,0,1,1.48-.534q.255-18.649.073-37.3c-.07-6.508-.156-13.016-.335-19.519a83.418,83.418,0,0,0-2.171-18.78,1.311,1.311,0,0,1,.194-1.137c-5.148-29.375-4.558-59.26-3.857-88.955-2.911-.334-6.279.443-8.95-.313-4.037-1.143-5.942-4.939-9.018-7.424a56.97,56.97,0,0,0-5.34-3.359,182.17,182.17,0,0,1,2.489,47.28c1.875,10.766,1.79,21.718,1.69,32.627Q1182.559,405.766,1182.479,424.106Zm13.068,16.612.028.1c.024-.017.049-.03.073-.047.04-.036.075-.073.111-.111l.043-.049a10.739,10.739,0,0,0,.647-1.126c.057-.111.109-.224.166-.338l0-.006.034-.089a3.183,3.183,0,0,0,.107-.353.736.736,0,0,0,.021-.094c0-.059-.008-.132-.009-.209a1.4,1.4,0,0,1-1.531-.628,1.421,1.421,0,0,1,.507-1.935,2.493,2.493,0,0,1,2.363.034,2.987,2.987,0,0,1,1.337,1.6,4.469,4.469,0,0,1-.616,3.57,4.7,4.7,0,0,1-2.4,2.493,2.686,2.686,0,0,1-3.249-1.156,4.406,4.406,0,0,1-.447-2.695,1.632,1.632,0,0,1,.415-1,1.423,1.423,0,0,1,1-.415,1.438,1.438,0,0,1,1,.415,1.407,1.407,0,0,1,.415,1,7.063,7.063,0,0,0-.013,1.016Zm5.984,35.688a1.434,1.434,0,0,1-1.739.986.188.188,0,0,1-.03-.009l-.039.006c-.087.026-.2.049-.276.075l-.049.032c-.066.036-.128.075-.19.115l-.078.049c-.045.036-.091.074-.128.108a7.467,7.467,0,0,0-.632.662l-.007.011c-.031.043-.06.087-.091.132a4.713,4.713,0,0,0-.247.409c-.034.06-.064.124-.1.187-.032.1-.108.317-.113.337-.015.06-.026.121-.04.181.028-.115,0,.162,0,.224h0v0c.013.041.028.087.038.128l.043.081h0a.842.842,0,0,0,.066.077.548.548,0,0,0,.047.043c.062.03.122.07.183.106.079.026.219.06.251.066l.038.011a.374.374,0,0,1,.058,0l.251,0,.045-.011c.068-.015.136-.034.2-.055.051-.015.1-.032.149-.047l.027-.008a2.184,2.184,0,0,0,.294-.168l.154-.1c.017-.017.143-.111.153-.119l.158-.141c.089-.085.175-.173.258-.264s.173-.194.256-.294l0,0c.04-.057.081-.111.121-.168a10.123,10.123,0,0,0,.845-1.507c.04-.087.077-.177.119-.264l0-.009c.047-.117.1-.234.141-.351.1-.247.192-.494.281-.745a1.594,1.594,0,0,1-.4-.964,1.441,1.441,0,0,1,1.414-1.414,1.961,1.961,0,0,1,1.89,2.263,8.862,8.862,0,0,1-.96,2.806,8.065,8.065,0,0,1-3.1,3.77,4.05,4.05,0,0,1-4.946-.494,3.99,3.99,0,0,1-.058-4.948c1.024-1.56,2.759-3.012,4.743-2.523A1.437,1.437,0,0,1,1201.531,476.406Zm-.579-11.914a3.825,3.825,0,0,1-4.586,1.256,5.16,5.16,0,0,1-3.275-3.3,4.769,4.769,0,0,1,1.069-4.564,1.2,1.2,0,0,1,.649-.349,1.666,1.666,0,0,1,1.2-.251,6.977,6.977,0,0,1,4.134,2.48C1201.171,461.052,1201.9,462.942,1200.952,464.492Zm.156-55.883a7.353,7.353,0,0,1-1.4,2.97,4.162,4.162,0,0,1-1.38,1.386,2.129,2.129,0,0,1-2.5-.289c-.879-.852-.866-2.346-.76-3.483a10.322,10.322,0,0,1,.994-3.566,1.387,1.387,0,0,1,1.752-.564,1.524,1.524,0,0,1,.134-.215,1.443,1.443,0,0,1,1-.415,1.524,1.524,0,0,1,1,.415A4.015,4.015,0,0,1,1201.108,408.609Zm-2.763-65.636a6.288,6.288,0,0,1-.1,1.929,1.871,1.871,0,0,1-2.335,1.167,3.3,3.3,0,0,1-2.155-2.467,4.581,4.581,0,0,1,.53-3.274,7.611,7.611,0,0,1,1.264-1.569,1.431,1.431,0,0,1,1.38-1.247,1.14,1.14,0,0,1,.373.07,1.459,1.459,0,0,1,1.056.39,1.425,1.425,0,0,1,0,2l-.015.015Q1198.344,341.481,1198.346,342.973Zm-1.388,43.961c-.036-.013-.074-.019-.109-.028l-.036.009-.025.015-.005,0c-.021.04-.049.074-.068.115l.017-.04a1.5,1.5,0,0,1-.581.709,1.428,1.428,0,0,1-1.09.143,1.572,1.572,0,0,1-.845-.651,1.457,1.457,0,0,1-.141-1.09,2.8,2.8,0,0,1,.652-1.145,3.059,3.059,0,0,1,.505-.419,1.759,1.759,0,0,1,.275-.162,3.1,3.1,0,0,1,1.3-.332,3.046,3.046,0,0,1,.668.072,2.879,2.879,0,0,1,.619.234,1.392,1.392,0,0,1,.507.507l.143.338a1.434,1.434,0,0,1-.143,1.09,1.6,1.6,0,0,1-.845.651,1.083,1.083,0,0,1-.564.025,1.016,1.016,0,0,1-.239-.077l-.068,0Zm-2.785,1.7a1.413,1.413,0,0,1,1.935-.507,1.293,1.293,0,0,1,.46.464,1.42,1.42,0,0,1,0-.528c.047-.113.094-.226.141-.337a1.415,1.415,0,0,1,2.585.337,4,4,0,0,1-.1,2.039,3.278,3.278,0,0,1-.4.839,3.359,3.359,0,0,1-.864.864,1.762,1.762,0,0,1-.276.151,2.545,2.545,0,0,1-.543.2,2.681,2.681,0,0,1-1.235-.028,2.862,2.862,0,0,1-1.637-1.214,2.4,2.4,0,0,1-.347-1.12A2.2,2.2,0,0,1,1194.173,388.633Zm6.114-29.039a19.613,19.613,0,0,1-.524,2.319,17.5,17.5,0,0,1-.539,1.944,3.434,3.434,0,0,1-1.362,1.816,2.261,2.261,0,0,1-2.5-.153c-1.245-.96-1.215-2.687-1.153-4.113a19.962,19.962,0,0,1,.77-4.679,1.441,1.441,0,0,1,1.74-.988.968.968,0,0,1,.119.058,2.731,2.731,0,0,1,2.678.883A3.6,3.6,0,0,1,1200.286,359.595Zm-7.373-33.774q.008-1.013.019-2.025a1.382,1.382,0,0,1,.75-1.213c-.013-.036-.04-.062-.053-.1a1.426,1.426,0,0,1,.988-1.739,4.24,4.24,0,0,1,3.864.99,3.464,3.464,0,0,1,.984,3.458A5.311,5.311,0,0,1,1197.2,328a10.033,10.033,0,0,1-1.256.751,2.345,2.345,0,0,1-1.654.289,1.783,1.783,0,0,1-1.2-1.047A5.449,5.449,0,0,1,1192.913,325.82Zm-.819,98.693a22.907,22.907,0,0,1,.526-3.136,1.436,1.436,0,0,1,1.739-.988,1.215,1.215,0,0,1,.7.485,1.36,1.36,0,0,1,.952.151,3.6,3.6,0,0,1,1.573,3.089,4.381,4.381,0,0,1-1.258,2.832,2.793,2.793,0,0,1-3.306.9,2.18,2.18,0,0,1-1.009-1.906A10.635,10.635,0,0,1,1192.094,424.514Z" transform="translate(92.477 183.192)" fill="#e9af16"/>
    <path id="Pfad_380" data-name="Pfad 380" d="M1228.348,296.37a65.8,65.8,0,0,1-9.455,10.219,46,46,0,0,1-11.986,6.941c-4.071,1.68-8.607,2.976-12.619.438-4.324-2.736-8.222-6.532-12.154-9.8-1.56-1.294-3.1-2.608-4.639-3.924q-.009,3.1-.013,6.2c0,1.961-.3,4.186.677,5.918a1.2,1.2,0,0,1,.536.745c.043.049.072.1.119.149,2.821,2.876,6.917,4.088,9.727,7.073,1.373,1.456,2.606,3.228,4.317,4.318,1.85,1.179,3.99,1.2,6.113,1.145,2.9-.07,5.68-.16,8.15,1.22,4.209-4.411,10.494-4.786,15.984-6.874,2.793-1.062,2.876-3.413,3.325-5.993q.56-3.219,1.122-6.44c.653-3.747,1.569-7.588.807-11.352Z" transform="translate(91.494 173.306)" fill="#e9af16"/>
  </g>
</svg>
