<svg xmlns="http://www.w3.org/2000/svg" width="809.048" height="869.701" viewBox="0 0 809.048 869.701">
  <g id="Gruppe_3" data-name="Gruppe 3" transform="translate(43.551 113.85)">
    <g id="Gruppe_1" data-name="Gruppe 1" transform="translate(343.729 -23.082)">
      <path id="Pfad_1237" data-name="Pfad 1237" d="M-1843.167-610.826c.651,2.511,1,5.433,3.476,6.839,2.279,1.293,5.265,1.063,7.789,1.047,6.126-.036,12.249-.151,18.354-.695,11.375-2.972,22.07-10.849,25.725-22.373.389-1.226.669-2.479.955-3.729-17.281,10.369-35.949,20.07-56.6,17.944C-1843.362-611.473-1843.255-611.159-1843.167-610.826Z" transform="translate(1986.283 905.226)" fill="#e9af16"/>
      <path id="Pfad_1238" data-name="Pfad 1238" d="M-1854.24-753.306q-1.394,2.569-2.791,5.135a1.416,1.416,0,0,1-1.353.79,7.428,7.428,0,0,1-2.889,3.527c-.186.3-.373.6-.552.9a32.648,32.648,0,0,1,5.458.442A45.982,45.982,0,0,0-1854.24-753.306Z" transform="translate(1982.423 879.246)" fill="#e9af16"/>
      <path id="Pfad_1239" data-name="Pfad 1239" d="M-1774.432-674.255c-2.977.116-5.58-1.907-8.5-1.784-2.005.085-2.157,1.14-3.027,2.6a5.986,5.986,0,0,1-2.343,1.975,8.571,8.571,0,0,0-4.666,7.075c3.177,2.437,15.571.537,17.374.111a46.3,46.3,0,0,0,16.233-7.274,39.579,39.579,0,0,0,6.923-6.305c.472-.545,3.164-3.237,1.622-3.358-.564-.045-3.192,2.6-3.744,3-5.5,4.011-11.744,6.823-17.923,9.6a1.676,1.676,0,0,1-2.428-.988,5.519,5.519,0,0,1,1.129-4.76C-1774-674.328-1774.209-674.264-1774.432-674.255Z" transform="translate(1996.9 894.403)" fill="#e9af16"/>
      <path id="Pfad_1240" data-name="Pfad 1240" d="M-1766.044-655.206a9.256,9.256,0,0,1-1.547.905c-3.6,1.675-7.427,2.963-11.115,4.43q-11.742,4.671-23.485,9.339l-24,9.543c-7.057,2.807-14.073,5.632-21.669,6.48a1.621,1.621,0,0,1-.057.606,5.77,5.77,0,0,0-.1,3.182,8.091,8.091,0,0,0,1.662,2.922,11.918,11.918,0,0,1,2.727,7.548,1.622,1.622,0,0,1-.094.449,1.535,1.535,0,0,1,.2-.012c21.631,2.994,41.308-8.475,59.085-19.295.146-.35.259-.709.437-1.05a24.13,24.13,0,0,1,5.594-6.673c4.932-4.371,13.146-9.343,12.025-17.052a1.711,1.711,0,0,1,.338-1.32Z" transform="translate(1985.289 899.871)" fill="#e9af16"/>
      <path id="Pfad_1241" data-name="Pfad 1241" d="M-1873.011-712.447c-1.211,1.295-2.556,2.555-3.666,3.939-1.465,1.825.3,2.937,1.887,3.592a21.347,21.347,0,0,1,6.775,4.143c2.079,1.932,3.9,4.293,6.413,5.688,2.393,1.326,6.044,2.1,7.677-.773,1.269-2.234.649-5.145-.1-7.439-.661-2.03,2.531-2.891,3.187-.879,1.589,4.877,1.317,11.847-4.713,13.379-5.547,1.411-10.084-2.966-13.637-6.506a21.647,21.647,0,0,0-3.59-3.068,16.63,16.63,0,0,0-2.787-1.3,52.809,52.809,0,0,0-.851,9.483l-.269,7.828a5.262,5.262,0,0,1,3.112-.5c2.683.326,4.2,2.361,6.364,3.7,2.221,1.375,4.786,1.537,6.77,3.391,1.807,1.691,3.243,5.142,6.054,5.229,2.125.067,2.127,3.372,0,3.305-2.794-.087-4.754-1.831-6.425-3.913a15.8,15.8,0,0,0-2.336-2.617,14.279,14.279,0,0,0-3.926-1.675,12.887,12.887,0,0,1-3.448-2.093,8.521,8.521,0,0,0-3.068-2c-1.335-.323-1.685.276-2.333,1.132a1.35,1.35,0,0,1,.363.994,3.464,3.464,0,0,0,4.6,3.771,17.034,17.034,0,0,1,2.137-.975,3.228,3.228,0,0,1,2.442.424,8.309,8.309,0,0,1,1.422,1.265c.083.085.167.172.253.254.053.051.145.127.173.154.046.03.093.058.14.086h.006c.051,0,.045-.012.029-.016.016,0,.022.013-.029.016a.262.262,0,0,0,.056.036,1.654,1.654,0,0,1,1.5,1.618,1.667,1.667,0,0,1-1.652,1.652,3.834,3.834,0,0,1-2.356-1.018c-.253-.219-.479-.466-.711-.707-.1-.1-.2-.207-.3-.306s-.324-.27-.088-.1c-.025-.018-.093-.071-.157-.122l-.871.453a7.059,7.059,0,0,1-2.9.8,6.493,6.493,0,0,1-4.5-1.535c-.017,1.083-.05,2.169-.01,3.247.086,2.412.879,4.639,3.36,5.423a11.612,11.612,0,0,0,7.153-.509c2.922-.963,5.7-2.157,8.795-2.448a1.665,1.665,0,0,1,1.652,1.653,1.7,1.7,0,0,1-1.652,1.652c-3.368.317-6.413,2.028-9.66,2.846a12.791,12.791,0,0,1-8.34-.466,7.052,7.052,0,0,1-2.041-1.4c-2.491,5.654-6.178,11.856-4.261,17.948,1.051,3.339,3.869,5.6,6.563,7.633s5.424,4.062,8.1,6.138c5.922,4.593,11.713,9.359,17.238,14.425,3.776,3.461,7.306,7.15,8.417,12.19,7.191-.755,13.909-3.547,20.572-6.2l19.91-7.917,20.421-8.122c1.788-.71,15.873-5.663,19.122-7.985q-.314-3.8-.361-7.608a51.707,51.707,0,0,1-5.572.438c-2.953.057-6.4.091-8.848-1.817a6.312,6.312,0,0,1-1.434-1.566,1.349,1.349,0,0,1-.254-.459,5.565,5.565,0,0,1-.08-5.015,1.318,1.318,0,0,1,1.378-.824,11.056,11.056,0,0,1,2.41-3.214c.992-.891,2.929-1.473,3.684-2.511.835-1.146.911-2.356,2.219-3.2,2.909-1.883,6.091-.725,9.082.2a12.341,12.341,0,0,0,1.707.409,5.378,5.378,0,0,1-.7-.445c-2.355-1.866-2.329-4.9-1.329-7.479-6.13-.715-12.991-2.62-14.7-9.324-.457-1.8.358-4.092-.433-5.733-.71-1.474-2.8-2.227-3.991-3.27a10.3,10.3,0,0,1-3.442-7.93c.078-3.016,1.611-5.382,3.479-7.629,2.391-2.877,5.555-6.845,1-9.4-2.544-1.423-4.86-2.437-6.319-5.15a9.65,9.65,0,0,1-.807-7.214,9.888,9.888,0,0,1,5.133-6.052c.633-.3,4.944-1.46,4.5-2.49-.473-1.1-4.061.341-4.751.547-5.49,1.635-12.507,3.722-17.254-.9-1.258-1.222-1.887-3.006-3.22-4.133a8.261,8.261,0,0,0-4.529-1.585c-2.6-.3-5.223-.16-7.8-.678-6.067-1.224-8.547-6.316-10.281-11.687-1.368-4.237-4.777-3.139-8.336-3.407a9.86,9.86,0,0,1-6.579-3.051c-1.421-1.42-3.164-4.365-5.5-4.249-2.038.1-2.972,2.961-3.782,4.453-.033.059-.064.117-.1.177a1.63,1.63,0,0,1,.239.79,49.418,49.418,0,0,1-4.031,21.115,1.36,1.36,0,0,1-.487,1.347c-.065.057-.126.119-.191.175-.073.156-.135.316-.211.472a1.333,1.333,0,0,1-1.2.817q-6.855,6.111-13.229,12.728Q-1869.512-716.207-1873.011-712.447Zm40.979-28.559c6.188,1.438,11.362,5.5,17.6,6.781,5.982,1.231,12.308,1.172,17.094,5.52,1.578,1.433-.765,3.764-2.337,2.337-4.525-4.111-11.255-3.55-16.825-4.939-5.76-1.437-10.624-5.168-16.411-6.512C-1834.984-738.3-1834.1-741.487-1832.032-741.006Zm-6.544,21.512c.221-6.259,4.358-11.62,10.772-12.2,6.291-.568,13.264.662,18.178,4.825,1.626,1.378-.723,3.7-2.337,2.337-3.931-3.331-9.4-4.049-14.385-3.932-2.631.062-4.936.707-6.669,2.782a10.234,10.234,0,0,0-2.255,6.186,1.558,1.558,0,0,1-.444,1.049c7.11,4.725,15.95,4.323,24.147,3.886,2.129-.114,2.115,3.191,0,3.3-8.978.479-18.731.759-26.4-4.721a1.746,1.746,0,0,1-.3-2.551A1.464,1.464,0,0,1-1838.576-719.494Z" transform="translate(1978.2 877.423)" fill="#e9af16"/>
      <path id="Pfad_1242" data-name="Pfad 1242" d="M-1767.057-684.113c.387-2.665-2.5-.812-3.243.4-.817,1.33-.643,2.989-1.067,4.442a7.992,7.992,0,0,1-.439,1.083,12.446,12.446,0,0,0,2.271-1.912C-1768.624-681.121-1767.261-682.7-1767.057-684.113Z" transform="translate(2001.349 893.507)" fill="#e9af16"/>
      <path id="Pfad_1243" data-name="Pfad 1243" d="M-1863.792-739.989a35.036,35.036,0,0,0-1.122,3.607,17.938,17.938,0,0,0,1.905-.148,1.283,1.283,0,0,1,1.076.421c1.44-1.341,2.87-2.693,4.348-3.991.251-.548.5-1.1.732-1.651l-.053-.01-.35-.05c-.16-.021-.321-.04-.48-.058q-1.136-.124-2.281-.161c-.978-.033-1.957,0-2.932.064Q-1863.4-740.991-1863.792-739.989Z" transform="translate(1981.773 881.614)" fill="#e9af16"/>
      <path id="Pfad_1244" data-name="Pfad 1244" d="M-1877.773-843.477c-4.237,6.865-8.841,14.843-9.228,23.084-.2,4.282,1.172,7.881,3.368,11.476,1.858,3.038,3.614,5.987,4.129,9.572.554,3.857-.165,7.7-.563,11.532a25.005,25.005,0,0,0,1.29,11.661c1.256,3.432,2.854,6.791,3.1,10.49.23,3.444-1.142,6.408-2.754,9.356-2.133,3.9-3.247,7.506-1.825,11.906,1.27,3.931,3.847,7.4,6.491,10.515,2.557,3.01,5.295,6.549,8.673,8.662a7.871,7.871,0,0,0,6.754.836c.1-.153.179-.316.281-.467a1.58,1.58,0,0,1,1.3-.725,4.249,4.249,0,0,0,.708-1.365,1.554,1.554,0,0,1,1.528-1.142c2.336-4.3,4.589-8.659,7.016-12.909,1.495-2.615,3.546-4.839,6.858-4.071,4.12.954,5.43,5.544,9.164,6.843,2.929,1.019,6.213-.224,9.151.958,2.689,1.083,3.493,3.378,4.261,5.948,1.031,3.453,2.719,7,6.367,8.25,5.162,1.774,11.5-.494,15.677,3.965,1.285,1.372,1.925,3.208,3.545,4.282a8.9,8.9,0,0,0,4.914,1.237c3.5,0,6.8-1.49,10.144-2.366,2.436-.638,6.137-1.342,7.016,1.913a4.835,4.835,0,0,1-2.5,5.206c-1.658.956-3.643,1.116-5.142,2.383a6.407,6.407,0,0,0-2.285,4.919c.073,3.763,2.989,5.222,5.865,6.8,6.268,3.447,3.99,9.447.225,13.935-2.5,2.983-4.37,6.512-1.85,10.17,1.649,2.4,4.894,3.092,6.044,5.929.651,1.607.242,3.13.338,4.785a7.144,7.144,0,0,0,2.675,4.961c3.161,2.707,7.625,2.992,11.582,3.3a1.669,1.669,0,0,1,1.427,2.486c-.87,1.268-1.675,2.756-1.219,4.325.339,1.167,2.205,2.488,3.115.936a1.506,1.506,0,0,1,1.875-.683c.116-.51.207-1.043.309-1.6.5-2.787,2.127-5.421,4.995-6.292,2.681-.814,5.507.663,5.556,3.649.049,2.9-2.125,5.751-4.062,7.725a18.655,18.655,0,0,1-3.68,2.885,25.287,25.287,0,0,0-3.7,2.188c2.826-1.3,5.63-2.646,8.345-4.163,1.737-.972,3.438-2.009,5.074-3.143,1.716-1.191,3.2-2.7,4.9-3.879,2.142-1.481,4.99-.87,5.565,1.917.6,2.895-2.3,5.675-4.071,7.6a45.357,45.357,0,0,1-15.663,10.916,51.265,51.265,0,0,1-10.342,3.137c.013,1.858.092,3.714.2,5.568a1.611,1.611,0,0,1,.722.859,3.419,3.419,0,0,1,.189,1.366,1.279,1.279,0,0,1,1,1.126,26.208,26.208,0,0,0,26.8,22.336c12.558-.541,20.3-9.6,25.978-19.815,2.661-4.789,5.068-9.728,8.1-14.3a97.753,97.753,0,0,1,10.7-13.136c8.053-8.473,17.054-16.054,24.452-25.142a79.776,79.776,0,0,0,15.979-33.477,1.668,1.668,0,0,1,2.76-.729c5.784,5.2,13.624,5.825,21.018,4.711,2.176-.328,18.1-3.682,19.976-7.076-4.1,1.043-8.52,1.806-12.485.071-3.678-1.608-6.444-5.031-6.23-9.162a1.686,1.686,0,0,1,1.652-1.652l15.339-.2,6.573-.084c1.96-.025,4.161.1,5.952-.885,3.207-1.761-1.165-3.6-2.9-4.078a35.444,35.444,0,0,0-5.83-.877c-3.521-.367-7.02-.754-9.97-2.878-4.648-3.344-7.048-10.211-1.261-13.814,3.287-2.047,7.621-2.785,11.278-3.92l11.594-3.6a18.236,18.236,0,0,0-13.716-5.134,1.71,1.71,0,0,1-1.594-1.213c-2.451-6.088,6.932-8.417,10.817-9.676l20.521-6.65-24.351-15.262c-4.488-2.813-8.986-5.611-13.464-8.439-3.172-2-6.384-4.141-8.127-7.589-3.709-7.339-.34-16.323-6.871-22.5-5.254-4.972-13.351-6.175-20.057-3.886a1.673,1.673,0,0,1-1.866-.759,82.846,82.846,0,0,0-11.8-16.094,39,39,0,0,0-7.189-6.535c-3.561-2.223-7.023-.487-10.758.126-11.583,1.9-22.815-3.721-34.424-2.269-5.933.742-11.621,2.752-17.41,4.15a51.408,51.408,0,0,1-16.826,1.427c-12.34-1.109-24.648-4.432-36.781-6.868-3.281-.658-6.8-1.833-10.053-.53-1.95.782-3.748,2.073-5.883,2.315a6.08,6.08,0,0,1-5.57-2.3,41.589,41.589,0,0,0-10.091,17.129,1.673,1.673,0,0,1-2.762.729c-5.221-4.69.794-15.321-6.953-17.591-7.42-2.176-14.7,4.123-22.154,1.492-3.286-1.159-4.874-3.895-7.347-6.113a12.771,12.771,0,0,0-10.039-2.8C-1868.222-856.37-1873.78-849.947-1877.773-843.477Z" transform="translate(1977.125 857.367)" fill="#e9af16"/>
      <path id="Pfad_1245" data-name="Pfad 1245" d="M-1784.331-600.38c2.672.6,3.994,2.688,4.885,5.087.747,2.009,1.237,4.013,3.8,4.048,1.8.025,3.679-1.159,5.128-2.117,3.284-2.172,6.431-4.851,7.641-8.719,1.072-3.432,1.4-6.66,3.6-9.64,4.1-5.531,13.464-10.633,8.22-18.482-1.95-2.919-4.46-5.327-6.15-8.446a30.547,30.547,0,0,1-3.148-9.082c-1.841,3.447-4.9,6.361-8.012,8.921-2.875,2.366-6.036,4.759-7.943,8.026-.087.148-.152.3-.231.455a1.535,1.535,0,0,1-.694,1.831c-.05.031-.1.062-.151.092-.979,2.763-1.3,5.776-2.335,8.531-4.365,11.588-14.986,19.729-26.7,23a1.7,1.7,0,0,1-.736.248c-.124.012-.248.018-.372.029-.42.107-.839.223-1.261.316a1.583,1.583,0,0,1-1.059-.133c-5.887.453-11.8.566-17.7.566-4.4,0-9.3-.508-11.612-4.818-2.039-3.806-1.341-9.079-5.845-11.162a2.945,2.945,0,0,1-2.525,2.174c-1.207.272-2.147.048-3.117,1.052a6.154,6.154,0,0,0-1.358,2.809c-1.045,4.078-.339,8.336-4.287,11.041a16.671,16.671,0,0,1-6.271,2.187c-2.312.47-6.184,1.054-6.664,3.911-.6,3.585,3.41,2.037,5.3,1.683a5.529,5.529,0,0,1,4.5.715,1.718,1.718,0,0,1,.76,1.866q-.906,3.676-1.813,7.353c-.587,2.379-1.578,4.967-1.718,7.421q-.47,2.2,2.194,2.256a9.882,9.882,0,0,0,.957-1.038c.778-.9,1.479-1.865,2.169-2.828q1.741-2.433,3.237-5.026c1.6-2.781,2.735-7,6.26-7.906,2.814-.724,5.745.914,7.662,2.855.73.738,1.368,2.116,2.534,2.238a9.564,9.564,0,0,0,3.1-.853,52.839,52.839,0,0,0,6.2-2.491c2.585-1.238,5.052-2.977,8.055-2.549,1.769.253,3.287,1.174,5,1.6,2.027.508,2.585-.373,3.385-2.112,1.115-2.423,2.81-3.969,5.618-3.878,3.006.1,5.2,2.007,7.493,3.695,1.5,1.106,3.591,2.759,4.04-.006.262-1.618-.338-3.573-.2-5.262C-1794.079-596.06-1790.246-601.7-1784.331-600.38Z" transform="translate(1980.854 901.443)" fill="#e9af16"/>
      <path id="Pfad_1246" data-name="Pfad 1246" d="M-1866.919-461.311a33.733,33.733,0,0,1-.43-7.936,38.587,38.587,0,0,1-5.479,12.318,18.8,18.8,0,0,0-2.922,4.71c-.8,2.324-.19,4.558.587,6.8a56.419,56.419,0,0,1,3.1,12.34c.339,3.041.329,6.112-2.264,8.167-2.539,2.011-6.048,2.32-9.078,3.142a27.85,27.85,0,0,0-10.375,4.754c-2.727,2.2-4.548,5.18-6.215,8.21-2.886,5.249-5.519,10.855-10.966,13.9-1.862,1.04-3.526-1.817-1.669-2.854,6.146-3.434,8.212-10.69,11.88-16.258,4.11-6.239,10.239-9.338,17.314-11.16a43.464,43.464,0,0,0,5.368-1.394c2.416-.966,2.955-2.446,2.848-4.964a40.117,40.117,0,0,0-2.612-11.571c-1.186-3.335-2.309-6.7-1.055-10.2,1.1-3.056,3.529-5.334,5.091-8.127,1.907-3.408,2.741-7.362,3.786-11.1q1.67-5.969,3.339-11.938c2.272-8.157,4.463-16.471,3.961-25.017a45.448,45.448,0,0,0-7.031-21.592c-1.814-2.854-4.718-5.383-5.971-8.547-1.274-3.214-.386-6.531-.206-9.843.228-4.171-1.82-6.339-4.539-9.2a16.353,16.353,0,0,1-4.444-7.72c-1.377-5.98.848-15.082-5.213-18.932a1.62,1.62,0,0,1-1.151.649,1.746,1.746,0,0,1-.484.525c-5.252,3.817-12.163,4.322-18.456,4.063a54.934,54.934,0,0,1-17.438-3.714,17.086,17.086,0,0,0-1.141,9.556c.417,2.444,1.171,4.822,1.171,7.324,0,4.8-2.182,9.185-3.356,13.74a13.819,13.819,0,0,0-.313,6.862c.4,1.606.837,2.944-.171,4.427-1.262,1.855-3.028,3.272-4.207,5.239a18.721,18.721,0,0,0-2.583,6.735c-.432,2.907,1.17,4.891,2.232,7.425a14.542,14.542,0,0,1,1.086,5.547c.025,4.471-1.716,8.675-3.825,12.535-1.195,2.187-2.526,4.3-3.714,6.487-1.4,2.586-2.29,4.945.218,7.191,2.924,2.62,6.494,4.48,9.455,7.086a17.736,17.736,0,0,1,5.823,8.564c.973,3.765-1.469,10.381,2.308,12.866,1.772,1.164.115,4.025-1.668,2.854-4.44-2.92-3.415-7.8-3.526-12.381-.133-5.41-4.283-9.026-8.346-11.995-.086-.063-.185-.127-.274-.19-.647,15.039-.96,30.031,1.9,44.9a75.6,75.6,0,0,1,1.46,9.906c.184,3.19-.03,6.386.105,9.578.273,6.393,3.021,11.271,6.4,16.521,2.894,4.5,5.271,8.849,6.131,14.183.283,1.756.489,3.607,2.251,4.507a10.886,10.886,0,0,0,3.841.761,52.157,52.157,0,0,0,7.643.182c10.739-.517,21.737-4.475,29.014-12.648,5.837-6.556,10.264-20.632,21.306-18.488.713-10.6,1.234-21.545-2.113-31.753C-1862.237-451.451-1865.838-455.948-1866.919-461.311Z" transform="translate(1965.181 914.565)" fill="#e9af16"/>
      <path id="Pfad_1247" data-name="Pfad 1247" d="M-1660.9-266.317c-11.34.332-22.941-.263-34,2.73-5.189,1.405-10.017,3.741-14.965,5.8-4.256,1.769-9.635,4.139-14.369,3.766-.134-.01-.243-.036-.367-.053a1.537,1.537,0,0,1,.165,2.382,21.77,21.77,0,0,0-5.347,7.937c-1.062,2.82-1.121,5.624-1.552,8.559a9.923,9.923,0,0,1-3.012,5.68c-1.648,1.677-4.146,3.288-4.2,5.893-.077,3.509,3.1,4.145,5.678,5.16,2.284.9,3.049,2.2,4.2,4.253,1.486,2.655,6.466,2.154,9.137,2.091a41.194,41.194,0,0,0,9.779-1.469,1.665,1.665,0,0,1,2.091,1.594c-.2,2.378-1.422,3.947-3.114,5.544-1.081,1.02-3.765,3.228-1.812,4.644.967.7,2.538.426,3.63.223,5.58-1.037,10.028-3.227,15.624-.909,1.821.754,3.165,1.132,5.077.427,1.048-.387,2.031-.931,3.07-1.341a10.053,10.053,0,0,1,6.64-.234c1.32.334,3.587,1.181,4.219-.591a3.815,3.815,0,0,0-.929-3.294c-1.642-2.071-4.707-2.97-6.809-4.5a1.681,1.681,0,0,1,0-2.854,14.382,14.382,0,0,1,11.339-2.332,14.224,14.224,0,0,1,5.4,2.314c1.8,1.28,2.809,3.033,4.283,4.612,3.087,3.309,5.326-1.6,7.678-3.373a5.92,5.92,0,0,1,3.663-1.352,7.332,7.332,0,0,1,2.255.5c1.4.482,1.712.1.96-1.015-.967-1.437-3.061-2.136-3.385-4.012a3.2,3.2,0,0,1,1.634-3.191c1.917-1.3,4.075-1.8,5.782-3.5a6.75,6.75,0,0,0,1.991-6.931c-1.243-3.726-3.788-6.152-2-10.256.829-1.9,2.048-3.095-.28-4.828-.5-.37-1.171-.49-1.68-.9a4.13,4.13,0,0,1-1.458-3.96c.282-1.965,1.583-3.637,2.675-5.225,1.3-1.89,2.629-3.757,4.065-5.544,1.822-2.266,6.1-5.514,6.762-8.835-.176.169-.321.349-.517.512-3.385,2.809-8.06,3.74-12.273,4.474A110.415,110.415,0,0,1-1660.9-266.317Z" transform="translate(2008.339 980.291)" fill="#e9af16"/>
      <path id="Pfad_1248" data-name="Pfad 1248" d="M-1615.871-398.858c-4.911,3.188-9.859,6.332-14.885,9.337-9.666,5.778-19.76,10.9-30.554,14.18.431,1.565.884,3.128,1.387,4.678q17.442-6.9,34.353-15.052,4.317-2.084,8.6-4.252c2.441-1.234,5.169-2.4,6.918-4.584,2.365-2.96,2.519-6.948,2.141-10.73A37.928,37.928,0,0,1-1615.871-398.858Z" transform="translate(2024.58 952.418)" fill="#e9af16"/>
      <path id="Pfad_1249" data-name="Pfad 1249" d="M-1923.677-570.2a51,51,0,0,0,17.183,3.8c5.762.241,11.974-.114,16.789-3.613a1.513,1.513,0,0,1,.292-.132,33.394,33.394,0,0,0-7.638-20.427,41.265,41.265,0,0,0-8.406-7.829c-3.238-2.278-6.5-4.408-8.8-7.7-1.222-1.749,1.645-3.4,2.854-1.668,2.219,3.174,5.67,5.117,8.768,7.358-2.867-10.348-2.8-23.359-12.187-29.922-.038-.025-.051-.062-.085-.088a35.485,35.485,0,0,0-2.473,15.69c.148,2.126-3.157,2.111-3.305,0a38.559,38.559,0,0,1,3.327-18.4,37.2,37.2,0,0,1,4.278-7.239c1.659-2.2,3.826-3.935,5.486-6.1,2.837-3.7-2.623-3.689-4.975-2.9a23.367,23.367,0,0,0-7.606,4.9c-8.43,7.343-14.868,17.632-14.815,29.1a1.653,1.653,0,0,1-3.3,0,37.654,37.654,0,0,1,6.081-20.187,50.989,50.989,0,0,1,13.269-14.088c2.664-1.912,5.795-3.487,9.14-3.542.069,0,.139.007.208.007a1.655,1.655,0,0,1,.2-.591c1.723-2.987-3.876-3.005-5.353-2.747a44.685,44.685,0,0,0-6.873,1.838,98.641,98.641,0,0,0-13.309,6.065,29.458,29.458,0,0,0-6.067,3.619,16.608,16.608,0,0,0-3.859,5.728c-2.028,4.465-4.165,9.465-3.6,14.455.239,2.113-3.069,2.089-3.305,0a21.973,21.973,0,0,1,1.587-10.012,55.642,55.642,0,0,1,3.529-8.227c3.056-5.446,8.72-7.816,14.083-10.48,5.685-2.823,11.747-5.507,18.091-6.351a13.51,13.51,0,0,1,2.561-.1c.077-.079.166-.145.24-.227.059-.065.119-.133.176-.2l.054-.065c.036-.047.121-.157.137-.18.052-.073.1-.145.151-.22a8.633,8.633,0,0,0,.6-1.043c.039-.08.076-.161.114-.242l.012-.023c0-.007,0,0,0-.013.057-.169.125-.334.18-.5a8.994,8.994,0,0,0,.3-1.165c.016-.085.029-.169.042-.254l0-.035c.017-.2.034-.4.041-.6a10.686,10.686,0,0,0-.034-1.133c0-.027,0-.021,0-.036-.007-.048-.016-.1-.024-.143-1.561.3-3.114.551-4.6.821l-28.137,5.107c-.838.152-1.682.317-2.53.479a1.409,1.409,0,0,1-.689.718l-2.348,1.165a1.511,1.511,0,0,1-.072.381q-5.468,13.272-9.775,26.977c-1.284,4.112-3.52,9.049-3.38,13.406.15,4.681,4.806,7.691,8.133,10.292,12.337,9.643,27.281,19.533,29.666,36.356A1.5,1.5,0,0,1-1923.677-570.2Z" transform="translate(1961.472 897.585)" fill="#e9af16"/>
      <path id="Pfad_1250" data-name="Pfad 1250" d="M-1558.116-390.283a1.713,1.713,0,0,1-.015-.686c-7.932-22.42-15.362-45.11-24.1-67.227-3.886-9.832-8.59-19.241-13.276-28.707a240.819,240.819,0,0,1-11.741-27.881c-3.426-9.848-7.3-19.166-12.807-28.051-5.2-8.393-10.647-16.709-16.423-24.718a127.047,127.047,0,0,0-19.468-21.9,153.334,153.334,0,0,0-22.6-15.8c-15.665-9.279-32.208-17.143-46.784-28.164a1.685,1.685,0,0,1-.541-.724,28.816,28.816,0,0,1-12.752-.542,28.926,28.926,0,0,1-15.3-10.486,27.961,27.961,0,0,0,4.755,8.753c2.253,2.792,4.888,5.608,5.238,9.355.882,9.452-10.642,13.34-12.72,21.7-.9,3.639-1.714,6.823-4.329,9.651a26.636,26.636,0,0,1-8.8,6.339c-2.591,1.07-5.636,1.394-7.911-.529-2.475-2.091-2.34-8.057-6.223-7.854-4.847.253-5.338,6.156-5.072,9.819.19,2.6.713,6.342-2.844,6.82-3.228.433-5.829-2.227-8.227-3.922-1.756-1.243-4.357-2.486-5.886-.313-.875,1.243-1.01,2.793-2.221,3.855-2.246,1.972-5.03.927-7.478.019-2.583-.957-4.1-.761-6.576.477-1.8.9-3.6,1.757-5.467,2.509-2.8,1.128-6.944,3.326-9.827,1.426-1.623-1.071-2.441-2.909-4.208-3.852-2.519-1.343-3.9.105-5.008,2.282a65.61,65.61,0,0,1-6.558,10.481c-1.72,2.222-4.023,5.1-7.182,3.559-2.8-1.363-3.112-4.581-2.6-7.3.782-4.172,1.967-8.31,3.022-12.434-1.733-.213-3.954.965-5.631.894a4.724,4.724,0,0,1-4.267-2.837c-1.826-4.2,1.565-7.87,5.313-9.169,2.655-.92,5.741-.869,8.213-2.295,2.924-1.687,2.729-5.075,3.147-8.016a10.432,10.432,0,0,1,2.318-5.583,6.075,6.075,0,0,1,2.234-1.6,8.91,8.91,0,0,1,1.863-.393,20.422,20.422,0,0,0-9.68,2.02c-9.071,4.225-14.738,13.2-17.4,22.546-3.1,10.878-3.007,22.479-3.541,33.691-.562,11.8-.978,23.616-1.889,35.394a1.679,1.679,0,0,1-.262.772,46.407,46.407,0,0,1,2.314,4.38,48.684,48.684,0,0,1,4.456,22.35c-.386,8.6-2.907,16.913-5.221,25.148a1.661,1.661,0,0,1,.617,1.174c.566,6.138-1.208,12.645.879,18.591,1.756,5.007,4.83,9.32,6.291,14.5,2.594,9.192,2.418,18.845,1.842,28.325a1.753,1.753,0,0,1,.818,1.755,68.716,68.716,0,0,0,1.817,28.089c2.4,8.608,7.114,15.928,10.69,24.023a36.338,36.338,0,0,1,3.1,10.474c.385,3.326-.45,6.592-.16,9.894.376,4.3,5.184,7.293,8.239,9.853q4.624,3.87,9.542,7.364c.651.464,1.33.915,1.993,1.375-4.043-9.45-7.981-19.187-10.047-29.179-2.465-11.923-1.919-24.165-1.323-36.246a1.483,1.483,0,0,1-.6-1.242l.012-20.589.007-10.3c0-1.612.448-3.959-1.168-5.009-1.12-.73-2.9-.977-4.157-1.5-4.184-1.748-7.565-3.4-6.81-8.433a167.049,167.049,0,0,1,3.666-16.85c2.923-11.346,6.3-22.572,8.242-34.147,3.962-23.625,3.1-47.726,2.8-71.579-.027-2.131,3.278-2.125,3.3,0,.172,13.464.494,26.935.058,40.4a234.837,234.837,0,0,1-3.431,34.669c-2.107,11.525-5.6,22.719-8.427,34.073-.717,2.873-1.388,5.758-1.981,8.661-.586,2.871-2.252,7.082.916,8.784,2.427,1.3,5.106,1.888,7.55,3.079a4.492,4.492,0,0,1,2.627,3.431c.48,2.62.117,5.562.115,8.218q0,4.335,0,8.669l-.011,18.2a1.4,1.4,0,0,1,.6,1.28c-.584,11.825-1.219,23.872,1.2,35.547,2.376,11.491,7.246,22.669,11.874,33.416,10.824,7.011,22.776,13.124,35.133,16.078,8.742,2.089,18,2.446,26.937,3.072q12.964.906,25.96,1.2,7.036.156,14.075.133a48.357,48.357,0,0,0,11.465-.973c7.753-1.928,13.4-7.858,18.711-13.459a1.426,1.426,0,0,1,1.536-.41c-.054-1.444-.126-2.885-.269-4.313-.651-6.518-6.327-10.553-8.793-16.373-2.262-5.338-3.016-11.121-3.778-16.824q-1.438-10.756-2.6-21.548-.5-4.671-.945-9.349a1.358,1.358,0,0,1-1.371-.478,64.722,64.722,0,0,1-16.126-42.321c0-4.266.594-8.556.972-12.842a1.6,1.6,0,0,1-.321-.114c-7.246-4.348-12.389-11.011-17.287-17.746-4.549-6.258-9.072-12.894-15.439-17.468-6.938-4.983-15.808-6.819-21.845-13.126-5.985-6.253-8.437-14.932-11.612-22.761a232.757,232.757,0,0,0-13.362-27.462c-1.054-1.854,1.8-3.517,2.854-1.668a238.638,238.638,0,0,1,14.264,29.664c3.258,8.186,5.97,17.408,13.516,22.747,6.638,4.7,14.639,6.745,20.877,12.135,10.908,9.427,16.383,24.1,28.593,32.1a37.993,37.993,0,0,0-.367-7.8,42.731,42.731,0,0,0-5.468-14.066,1.653,1.653,0,0,1-1.046-1c-2.364-6.09-10.874-5.987-15.992-8.212-5.329-2.316-10.233-6.363-14.69-10.043-7.6-6.27-11.584-14.126-14.643-23.315a118.435,118.435,0,0,0-4.905-13.5,35.561,35.561,0,0,0-8.456-11.22c-3.254-2.971-6.739-5.917-8.53-10.055-2.038-4.7-.991-10.029-5.347-13.554-1.761-1.426-3.714-2.63-4.984-4.563a16.31,16.31,0,0,1-2.038-6.049c-.616-3.236-1.2-6.479-1.794-9.719a13.741,13.741,0,0,1-1.566-9.358c.334-1.55,2.89-1.6,3.187,0,.489,2.649.929,5.326,1.38,8,.182.344.372.686.571,1.024,1.279,2.18,3.012,5.543,5.6,6.255,2.327.638,5.272.14,7.669,0,2.963-.168,5.919-.458,8.855-.885,3.654-.53,9.013-2.854,12.4-.449,2.706,1.924,2.951,5.738,2.851,8.754-.071,2.125-3.375,2.128-3.305,0,.057-1.734.232-4.4-1.107-5.75-1.761-1.777-6.683.127-8.929.477a97.847,97.847,0,0,1-15.947,1.326,9.434,9.434,0,0,1-7.245-2.989c.307,1.521.632,3.038,1,4.536,1.346,5.441,7.41,6.808,9.41,11.91.919,2.345,1.025,4.872,1.6,7.3a14.827,14.827,0,0,0,3.6,6.648c3.006,3.34,6.725,5.952,9.546,9.473,5.708,7.123,7.736,16.208,10.748,24.624,1.67,4.669,3.719,9.3,6.938,13.13,3.6,4.273,8.187,7.574,12.692,10.815a33.337,33.337,0,0,0,8.073,4.674c2.44.873,5.012,1.306,7.47,2.118.438.145.866.307,1.289.476a99.1,99.1,0,0,1-6.521-11.311c-3.115-6.643-4.409-13.722-5.115-20.981-.747-7.683-.9-15.479-2.752-23.009-1.869-7.591-5.977-14.211-9.074-21.311-6.222-14.261-5.824-29.857-5.174-45.088.091-2.123,3.4-2.126,3.305,0-.37,8.676-.737,17.417.252,26.068,1.006,8.808,3.958,16.585,7.876,24.474,3.323,6.688,6,13.316,7.122,20.746,1.125,7.484,1.215,15.075,2.26,22.566a53.636,53.636,0,0,0,6.486,19.346c3.2,5.647,7.035,10.9,10.2,16.566,3.058,5.471,5.369,11.3,5.85,17.6.581,7.6-1.253,15.141-1.13,22.739a61.142,61.142,0,0,0,13.769,37.359q-1.282-14.127-2.106-28.292c-.122-2.129,3.183-2.114,3.305,0q1.369,23.838,4.065,47.574c.813,7.115,1.582,14.27,2.758,21.334,1.061,6.369,2.9,12.038,6.978,17.132a20.811,20.811,0,0,1,4.178,7.056,33.631,33.631,0,0,1,.856,8.9c.113,6.834-.069,13.669-.124,20.5-.054,6.806.013,13.624.631,20.406.653,7.167,2.378,13.975,3.96,20.966a55.039,55.039,0,0,1,.95,18.785c-.776,6.808-2.025,13.552-1.159,20.418.146,1.17-.807,1.659-1.731,1.526-.079,4.893-1.911,9.292-3.886,13.7-.575,1.282-1.168,2.557-1.7,3.859a7.684,7.684,0,0,0-.813,2.154c.12.739-.144.381.729.482,2.282.264,5.5-1.04,7.638-1.765,8.963-3.036,16.98-7.559,26.463-9.032,9.649-1.5,19.427-1.144,29.152-1.475a97.4,97.4,0,0,0,14.812-1.432c3.747-.709,9.228-1.565,11.416-5.136a4.276,4.276,0,0,0,.221-.449,1.291,1.291,0,0,1,.379-1.132c.662-3.728-3.274-8.069-4.694-11.154a40.351,40.351,0,0,1-3.217-11.127,24.377,24.377,0,0,1-6.76,6.436c-1.808,1.136-3.465-1.725-1.669-2.854,8.812-5.541,11.013-16.4,13.439-25.758a63.2,63.2,0,0,1,4.34-12.474c2.083-4.172,4.909-7.9,7.3-11.894,2.349-3.93,4.4-8.385,4.318-13.065-.079-4.414-2.26-7.842-5.444-10.719-2.818-2.546-6.06-4.57-8.968-7.007a34.207,34.207,0,0,1-7.225-8.5c-3.218-5.3-5.175-11.217-6.8-17.189a1.814,1.814,0,0,1-.412-1.548q-.49-1.861-.958-3.717a1.509,1.509,0,0,1,.462-1.553c-1.794-14.171.634-28.258,1.061-42.445.414-13.727-1.87-27.406-2.145-41.13-.272-13.592-.783-27.007-2.682-40.488-3.789-26.894-9.111-53.624-13.794-80.374-.364-2.084,2.821-2.97,3.187-.879q3.961,22.621,7.921,45.242c2.319,13.246,4.794,26.481,6.506,39.823,1.708,13.305,1.878,26.561,2.243,39.945.368,13.533,2.612,26.952,1.964,40.508-.591,12.354-2.5,24.759-1.271,37.115,7.016-3.47,14.051-6.9,21.045-10.417,6.584-3.306,12.042-7.536,17.856-11.989a45.478,45.478,0,0,1,9.12-5.422c3.419-1.542,6.368-3.245,8.5-6.435C-1555.9-374.984-1556.512-383.1-1558.116-390.283Zm-238.813-54.534c2.715,6.484,4.767,12.884,4.968,19.963.2,6.929-.838,13.85-.336,20.776.525,7.266,3.5,13.527,7.453,19.537a184.58,184.58,0,0,0,12.786,17.117c4.3,5.133,8.969,9.878,11.589,16.147,2.558,6.123,3.978,12.682,6.37,18.881,5.147,13.337,12.278,25.8,19.337,38.187a1.666,1.666,0,0,1-2.261,2.261c-13.581-6.788-20.434-20.842-27.9-33.259-3.7-6.155-7.786-12.184-13.276-16.9-2.649-2.274-5.677-4.143-7.746-7.019-1.859-2.587-2.793-5.687-3.782-8.677-5.072-15.345-10.567-30.623-15.18-46.11a35.453,35.453,0,0,1-1.8-11.656c.166-3.684,1.113-7.265,1.556-10.913.9-7.427-1.946-13.775-5.456-20.126-3.4-6.154-6.609-12.254-8.621-19.018-.022.473-.031.946-.057,1.42-.415,7.678-1.518,15.291-1.981,22.962-.807,13.368,2.835,25.609,7.395,38.019,2.156,5.865,4.393,11.708,6.161,17.7a136.216,136.216,0,0,1,3.917,19.444c1.906,13.376,4.3,26.2,11.117,38.07,6.758,11.762,16.751,21.555,25.7,31.641,1.409,1.587-.922,3.932-2.337,2.337-10.193-11.488-21.576-22.627-28.473-36.529-6.022-12.135-7.709-25.035-9.723-38.263-2-13.13-6.6-25.145-11.024-37.59a114.3,114.3,0,0,1-5.168-18.309,76.6,76.6,0,0,1-.586-20.256c1.289-14.523,2.451-28.8,1.7-43.4a1.552,1.552,0,0,1,2.217-1.472,1.524,1.524,0,0,1,2.7.044C-1810.492-474.933-1803.308-460.054-1796.929-444.817Z" transform="translate(1978.678 901.982)" fill="#e9af16"/>
      <path id="Pfad_1251" data-name="Pfad 1251" d="M-1825.584-491.147c2.626,7.479,7.178,13.908,10.39,21.1a30.634,30.634,0,0,1,2.427,18.074c-.694,4.426-1.642,8.686-.973,13.186a61.532,61.532,0,0,0,2.717,10.067c4.914,14.942,9.565,30.015,14.813,44.842a18.629,18.629,0,0,0,6.542,8.943,60.172,60.172,0,0,1,7.154,6.395c4.454,4.854,7.96,10.48,11.284,16.139,5.537,9.425,11.018,19.6,19.8,26.239-6.581-11.656-12.926-23.481-17.486-36.091-2.337-6.459-3.536-13.6-7.1-19.539-3.649-6.089-9.081-11.162-13.434-16.753-7.966-10.233-16.1-21.012-16.791-34.426-.358-6.931.669-13.85.361-20.782-.344-7.707-3.312-14.644-6.318-21.636-5.367-12.493-11.24-24.762-17.152-37.006A67.3,67.3,0,0,0-1825.584-491.147Z" transform="translate(1989.252 929.897)" fill="#e9af16"/>
      <path id="Pfad_1252" data-name="Pfad 1252" d="M-1661.937-377.322c10.2-3.112,19.732-7.906,28.895-13.337,4.8-2.844,9.5-5.842,14.193-8.852,4.3-2.759,8.743-5.528,11.066-10.268a1.489,1.489,0,0,1,.137-.175c-.082-.364-.173-.727-.259-1.092-3.2,2.226-7.041,3.322-10.329,5.424-3.434,2.2-6.471,4.933-9.7,7.41a64.727,64.727,0,0,1-9.514,5.988c-7.674,4.013-15.523,7.719-23.285,11.56a1.629,1.629,0,0,1-1.348.074c.009.053.01.105.018.159a1.714,1.714,0,0,1-.334,1.317Q-1662.167-378.22-1661.937-377.322Z" transform="translate(2024.352 951.205)" fill="#e9af16"/>
    </g>
    <g id="Gruppe_2" data-name="Gruppe 2" transform="translate(-43.551 -113.85)">
      <path id="Pfad_1253" data-name="Pfad 1253" d="M-2250.417-309.246a80.835,80.835,0,0,0,6.8,27.3,80.288,80.288,0,0,0,5.682,10.5c2.571,4.007,5.136,7.092,10.153,7.573,8.083.773,16.288-2.084,24.25.41,7.271,2.278,12.314,9.421,19.929,10.7,3.711.626,7.185-1.342,10.935-.742a24.692,24.692,0,0,1,3.625.948c-6.193-5.56-11.427-12.831-15.974-19.107-11.812-16.3-24.251-35.187-26.036-55.757a1.358,1.358,0,0,1,1.276-1.544,16.151,16.151,0,0,0-1.9-.263c-3.628-.252-6.293,1.224-8.948,3.548-4.19,3.669-8.744,5.555-14.3,3.763-12.473-4.026-14.294-18.693-14.281-29.928.007-6.414,1.044-12.794,4.385-18.361,2.7-4.508,6.462-8.272,10.25-11.866,3.942-3.742,8.129-7.373,11.341-11.793,4.047-5.57,4.636-11.453,5.774-18.057,2.312-13.413,11.5-24.062,16.182-36.577a1.653,1.653,0,0,1,.529-.713c-.27-.123-.537-.248-.807-.37-7.161-3.254-14.212-6.811-20.035-12.156a66.15,66.15,0,0,1-7.977,3.235c-1.019.4-2.038.8-3.057,1.208a64.609,64.609,0,0,0-19.255,18.321c-8.152,11.848-11.262,25.552-11.213,39.8.029,8.265,1.3,16.728-.282,24.917-1.439,7.468-5.762,13.73-8.963,20.5a48.7,48.7,0,0,0-4.794,21.235,47.86,47.86,0,0,0,1.348,10.9c.514,2.117,1.136,5.789,3.994,5.881a3.657,3.657,0,0,0,2.692-1.284c1.187-1.187,1.553-2.907,3.5-1.53,1.541,1.088,2.729,3.118,4.2,4.382a32.861,32.861,0,0,0,4.593,3.32c.917.546,1.972,1.141,3.087,1.687v0c0-.029-.005-.058-.008-.087C-2253.872-311.372-2250.567-311.355-2250.417-309.246Z" transform="translate(2277.133 1032.318)" fill="#e9af16"/>
      <path id="Pfad_1254" data-name="Pfad 1254" d="M-2006.622-689.189a5.362,5.362,0,0,0-4.043-.281,19.067,19.067,0,0,0,3.41,10.546c2.222,3.231,6.2,6.775,10.285,7.211,2.06.219,3.978-1.788,1.485-2.922-1.585-.72-3.472-.464-5.157-.712-4.046-.6-5.838-3.616-6.137-7.464a12.938,12.938,0,0,1,.789-6.021C-2006.2-688.948-2006.4-689.09-2006.622-689.189Z" transform="translate(2333.157 984.38)" fill="#e9af16"/>
      <path id="Pfad_1255" data-name="Pfad 1255" d="M-2129.446-613.906c2.112-.73,4.7-1.876,7.172-2.155a1.557,1.557,0,0,1,.313-.41,5.32,5.32,0,0,1,5.239-1.017,25.927,25.927,0,0,0,2.99.931c1.781.222,1.654-.269,1.715-1.756.18-4.445,6.388-5.5,9.648-6.724,2.137-.8,4.388-1.879,6.724-1.855,1.922.019,3.01.945,4.433,2.065,2,1.573,4.281,1.153,6.707,1.176a38.458,38.458,0,0,1,6.047.448,13.968,13.968,0,0,1,9.236,5.486c.913,1.193,1.571,2.334,3.107,2.6,1.356.234,2.641-.419,3.94-.777a35.323,35.323,0,0,1,6.468-1.148c10.208-.84,18,4.081,24.363,11.643a87.2,87.2,0,0,1,9.287,12.559c-.033-.134-.045-.269-.08-.4-.779-2.911-2.375-5.315-3.846-7.9-2.723-4.781-3.5-10.388-5.442-15.5a92.132,92.132,0,0,0-8.467-16.02c-2.571-4.119-4.8-8.716-3.476-13.594-2.18-.156-4.352-.349-6.5-.668-5.133-.764-10.277-2.872-12.795-7.7a10.541,10.541,0,0,1-1.213-6.387,7.015,7.015,0,0,1,.692-2.1,1.612,1.612,0,0,1-.967.859c-14.519,5.055-28.216,12.185-41.315,20.186a135.725,135.725,0,0,0-31.315,25.695q-3.07,3.458-6.042,7.024c1.878-.731,3.875-1.271,5.735-1.912Z" transform="translate(2305.372 989.977)" fill="#e9af16"/>
      <path id="Pfad_1256" data-name="Pfad 1256" d="M-1987.476-671.942c1.94-.15,4.428-.329,4.991-2.586.467-1.871-.212-4.4-1-6.11a3.734,3.734,0,0,0-4.83-2.239c-3.625,1-6.621,3.9-10.633,2.624a5.365,5.365,0,0,1-3.555-3.528c-.132-.415-.206-1.453-.376-2.407q-.853-.608-1.677-1.273c-.483,1.263-.187,4.122-.07,4.869.294,1.892,1.14,3.168,3.133,3.506,3.122.529,6.959,0,8.822,3.254a4.008,4.008,0,0,1,.01,4.043C-1990.934-671.777-1989.2-671.809-1987.476-671.942Z" transform="translate(2334.385 984.859)" fill="#e9af16"/>
      <path id="Pfad_1257" data-name="Pfad 1257" d="M-2035.536-601.553a24.114,24.114,0,0,1-3.821-5.119c-2.56-4.882-3.857-10.407-6.052-15.462A112.658,112.658,0,0,0-2053.243-637c-1.519-2.427-3.264-4.778-4.675-7.282,1.141,4.066,4.366,7.884,6.368,11.317a76.84,76.84,0,0,1,6.763,15.2c.9,2.792,1.432,5.731,2.533,8.451,1.11,2.738,2.989,5.079,4.209,7.765a22.992,22.992,0,0,1,1.618,13.459c.108.479.2.963.28,1.452a14.178,14.178,0,0,1,.521,3.228,182.393,182.393,0,0,1-.04,21.66c-.431,7.253-2.591,13.861-5.4,20.514-5.549,13.141-11.219,26.231-16.838,39.342a1.53,1.53,0,0,1,.425.735c.657,2.649,3.989,2.4,6.1,2.348a12.3,12.3,0,0,1,5.712.829c3.01,1.426,4.725,4.425,5.86,7.421a34.724,34.724,0,0,1,2.095,12.664c-.027,2.343-.32,5.062,1.676,6.733,1.455,1.216,3.511,1.484,5.341,1.575,3.573.179,7.2-.385,10.614,1.012,3.334,1.364,4.127,3.869,5.45,6.918,1.1,2.532,2.805,2.514,5.233,2.986a12.427,12.427,0,0,1,4.539,1.877,13.01,13.01,0,0,1,4.518,5.277c.577-1.3.354-3.211.409-4.39a11.581,11.581,0,0,1,.7-3.707,27.591,27.591,0,0,1,3.9-6.18c1.755-2.422,2.912-4.847,2.635-7.928-.293-3.248-1.7-6.326-2.591-9.433a22.549,22.549,0,0,1,1.391-16.614c.936-1.88,1.963-3.358,1.331-5.56-.443-1.539-1.233-2.958-1.642-4.524a24.714,24.714,0,0,1-.547-9.388,1.686,1.686,0,0,1,.509-1c.875-6.031-3.758-11.2-7.171-15.763-3.325-4.45-4.854-8.809-6.021-14.172a19.624,19.624,0,0,0-2.361-6.8,10.357,10.357,0,0,0-5.542-3.788c-3.725-1.341-7.816-2.358-9.859-6.113-2.379-4.373-1.133-9.646-3.551-14.068-2.365-4.324-4.357-7.468-4.137-12.567C-2032.736-596.942-2033.2-599.018-2035.536-601.553Z" transform="translate(2323.222 993.937)" fill="#e9af16"/>
      <path id="Pfad_1258" data-name="Pfad 1258" d="M-1907.77-701.052a.192.192,0,0,0-.036-.1.346.346,0,0,0-.135-.036c-1.061.077-1.858,1.369-2.528,2.086q-1.4,1.5-2.927,2.871c-.75.675-1.547,1.3-2.338,1.928,2.164.149,4.328.3,6.492.438.931.059,2.487.3,3.166-.543.575-.713-.3-.963-.825-1.556a4.366,4.366,0,0,1-.983-3.517C-1907.833-700-1907.808-700.564-1907.77-701.052Z" transform="translate(2353.116 981.974)" fill="#e9af16"/>
      <path id="Pfad_1259" data-name="Pfad 1259" d="M-2067.934-403.721c-4.492-.725-8.528-2.667-12.641-4.515-.553-.248-1.115-.477-1.673-.715-.018.047-.012.091-.035.139-3.285,6.832-4.1,15.106-10.247,20.244a13.248,13.248,0,0,1-1.645,1.155c3.74,1.941,7.447,3.938,11.155,5.939,3.477,1.876,7.107,3.662,11.04,4.169-2.038-9.788,7.763-16.853,10.19-25.742-.061-.006-.121-.013-.181-.018C-2063.964-403.236-2065.957-403.4-2067.934-403.721Z" transform="translate(2315.6 1043.415)" fill="#e9af16"/>
      <path id="Pfad_1260" data-name="Pfad 1260" d="M-1976.048-360.485c-2.77.543-5.237,1.929-8.084,2.209a20.455,20.455,0,0,1-6.975-.7c-5.286-1.335-10.168-3.859-15.74-3.781-6.346.091-12.819,1.587-19.087,2.511-3.684.543-9.142,2.732-11.334-1.368-2.752-5.147-5.452-9.722-9.722-13.816a1.482,1.482,0,0,1-.46-.934c-2.671,3.677-6.081,6.552-10.632,7.107a1.439,1.439,0,0,1-1.255.583c-4.877-.14-9.34-2.062-13.59-4.312-4.709-2.493-9.363-5.081-14.114-7.5a1.517,1.517,0,0,1-.243-.194,15.726,15.726,0,0,1-10.478-2.285c-3.093-1.765-5.935-3.9-9.205-5.348-3.443-1.526-7.084-2.542-10.634-3.782-2.432-.85-5.844-1.631-6.815-4.363-.876-2.466.264-5.174,1.623-7.228a32.765,32.765,0,0,1,13.413-11.468c-4.142-2.111-8.163-4.506-12.13-6.751-7.94-4.494-15.933-8.935-24.644-11.76,2.933,5.823,3.374,12.482,5.677,18.583a48.989,48.989,0,0,0,5.786,10.451c2.244,3.24,5.089,6.275,6.626,9.943,1.345,3.211,1.242,6.615.985,10.018a88.769,88.769,0,0,0-.206,12.36,73.68,73.68,0,0,0,1.839,12.193,1.6,1.6,0,0,1,.466-.092c8.739.045,19.405.733,24.5,9.01,2.652,4.306,3.055,9.561,3.416,14.484.353,4.839.554,9.975-1.407,14.528a15.735,15.735,0,0,1-5,6.2,154,154,0,0,0,16.959,8.314c4.62,1.906,9.565,3.636,13.285,7.111,3,2.8,5.375,7.339,3.724,11.445a8.018,8.018,0,0,1-.67,1.285c5.13-1.543,10.772-1.889,15.944-2.506,4.716-.564,9.46-1.052,14.209-1.4a21.356,21.356,0,0,1-9.326-14.233c-.8-4.607-.6-13.033,5.243-14.148,3.414-.651,6.136,1.362,8.956,2.934,3.093,1.723,6.7,1.889,9.924,3.257,3.182,1.348,4.778,5.081,8.073,5.877,3.138.759,6.4,0,9.485,1.2,5.093,1.988,8.13,8.633,13.723,9.205a1.657,1.657,0,0,1,1.086.554c.025-.011.039-.03.065-.04q9.915-3.709,19.537-8.133c2.624-1.214,6.005-2.284,8.076-4.393,2.463-2.51-.39-5.409-.73-8.272-.62-5.217,2.278-10.368,3.468-15.323,1.361-5.674,2.952-12.815-.453-18.038C-1965.508-355.288-1970.765-361.522-1976.048-360.485Z" transform="translate(2304.671 1038.22)" fill="#e9af16"/>
      <path id="Pfad_1261" data-name="Pfad 1261" d="M-1996.163-316.683a14.68,14.68,0,0,1,2.41-3.833c-5.107,2.245-10.269,4.363-15.494,6.318a1.331,1.331,0,0,1-1.626-.437,1.479,1.479,0,0,1-.4.041c-6.627-.678-9.159-7.2-14.9-9.446-3.383-1.322-7.209-.151-10.605-1.536a10.1,10.1,0,0,1-3.709-2.961,9.9,9.9,0,0,0-4.778-3.124c-3.563-1.094-6.8-1.705-10.056-3.622-1.7-1-4.292-2.808-6.345-1.572-1.575.948-1.9,4.279-2.005,5.936a18.11,18.11,0,0,0,9.978,17.206,1.354,1.354,0,0,1,.815,1.432c1.657-.085,3.313-.16,4.97-.194a71.242,71.242,0,0,1,20.12,2.053c6.234,1.694,11.893,4.855,17.4,8.159,5.982,3.591,9.989,8.532,14.226,13.97q1.395,1.79,2.775,3.594a63.433,63.433,0,0,0-2.327-21.592C-1996.711-309.754-1997.59-313.2-1996.163-316.683Z" transform="translate(2322.005 1058.485)" fill="#e9af16"/>
      <path id="Pfad_1262" data-name="Pfad 1262" d="M-2097.971-286.6a54.222,54.222,0,0,1,17.922-18.458c3.473-2.168,9.173-4.26,7.775-9.366-1.124-4.11-5.271-6.579-8.853-8.3-3.915-1.884-8.029-3.34-11.979-5.153-4.5-2.065-8.885-4.364-13.172-6.84-.161.1-.32.195-.483.288a105.5,105.5,0,0,0-13.809,8.733c-2.263,1.789-4.057,3.191-3.868,6.324a53.8,53.8,0,0,1,.229,7.725c-.348,4.207-1.75,8.474-4.87,11.456-3.378,3.227-7.616,3.234-11.893,4.287a11.727,11.727,0,0,0-6.47,4.44c.59,3.062,3.4,4.807,5.735,6.583l6.906,5.246c4.336,3.294,8.94,7.956,14.154,9.781,5.269,1.846,9.916-2.416,13.676-5.528C-2103.049-278.628-2100.533-282.26-2097.971-286.6Z" transform="translate(2304.4 1059.022)" fill="#e9af16"/>
      <path id="Pfad_1263" data-name="Pfad 1263" d="M-2007.328-307.7c-11.357-6.19-23.706-6.873-36.376-6.066-6.257.4-12.5,1.013-18.725,1.786-5.567.692-11.809,1.048-16.961,3.545a2.1,2.1,0,0,1-.607.7,20.033,20.033,0,0,1-8.312,3.667,2.072,2.072,0,0,1-.6.018,50.559,50.559,0,0,0-8.758,8.451c-3.511,4.317-5.624,9.577-9.228,13.8a45.593,45.593,0,0,1-7.716,7.127c5.324,4.109,10.64,9.1,17.551,9.75,3.537.334,7.153.133,10.7.116,1.978-.01,10.631.875,9.21-3.052-.657-1.817,2.091-2.824,3.021-1.274,1.1,1.841,2.383,4.144,4.661,4.661,1.6.364,3.19-.025,4.757.65a10.632,10.632,0,0,1,3.6,3.158,23.762,23.762,0,0,0,4.259,3.587,39.7,39.7,0,0,1,7.5,7.252c2.511,2.968,6.282,6.224,10.531,4.756,5.4-1.869-4.3-19.715-7.162-22.4-5.224-4.905-14.125-4.681-16.566-12.514-.635-2.039,2.556-2.9,3.187-.879,1.568,5.029,7.574,6.085,11.685,8.221a19.609,19.609,0,0,1,8.4,9.112c.55,1.1,1.387,2.738,2.24,4.615a1.721,1.721,0,0,1,1.873.192c3.459,2.735,5.54,6.574,7.954,10.178,2.449,3.656,6.4,7.744,11.088,6.912.194-5.131-.167-9.824-3.352-14.188-3.053-4.185-6.846-7.926-10.379-11.7q-11.165-11.936-23.158-23.054c-1.562-1.451.781-3.783,2.337-2.337q13.031,12.1,25.121,25.167c3.578,3.873,7.676,7.753,10.3,12.37.01.017.015.033.024.05a1.448,1.448,0,0,1,1.629-.023c2.13,1.289,6.595,4.529,8.945,3.314s1.1-5.965.6-8.121a39.835,39.835,0,0,0-7.634-15.157c-7.381-9.573-16.8-17.787-25.317-26.333a1.653,1.653,0,0,1,2.337-2.337c4.991,5.009,10,10,14.968,15.034a1.529,1.529,0,0,1,.331-.123c12.358-1.913,23.381,4.77,31.354,13.7,1.941,2.175,3.7,4.485,5.453,6.812,1.629,2.169,5.263,6.856,8.019,3.311,2.156-2.775,0-6.5-1.513-9.014s-3.157-4.96-4.852-7.357c-3.764-5.325-7.725-10.615-11.955-15.579C-1996.839-301.881-2002-304.795-2007.328-307.7Z" transform="translate(2311.303 1063.37)" fill="#e9af16"/>
      <path id="Pfad_1264" data-name="Pfad 1264" d="M-1915.609-642.349l15.926-2.891c4-.726,8.246-1.271,11.866-3.235,9.693-5.256,5.24-17.423,3.624-25.938-.287.006-.575.016-.86,0-3.62-.176-7.239-.485-10.855-.73a2.049,2.049,0,0,1-.211-.05c-.094.061-.182.132-.277.191-1.8,1.144-3.46-1.717-1.668-2.854a45.967,45.967,0,0,0,8.608-7.038,28,28,0,0,1,2.222-2.245,1.644,1.644,0,0,1-.189-.738q-.138-6.737-.277-13.474c-2.5.906-5,1.2-6.487-1.824-1.608-3.27.7-6.333,2.857-8.633,1.459-1.554,3.792.788,2.337,2.337a8.786,8.786,0,0,0-2.269,3.1q-.721,1.812,1.369,2.425,1.118-.45,2.222-.933c2.511-1.07,5.024-2.142,7.524-3.236,1.887-.825,3.989-1.652,5.011-3.57,1.11-2.084.7-4.751-.125-6.856-2.762-7.026-10.276-10.923-15.985-15.231-6.06-4.575-10.607-9.969-11.75-17.7-1.292-8.754,1.041-17.743-1.159-26.371-2.79,5.615.747,12.3-2.041,18.057-2.3,4.753-7.453,7.03-12.2,8.584-6.93,2.266-13.866,4.238-20.563,7.179-5.46,2.4-10.144,5.226-11.569,11.411-.729,3.162-.887,6.422-2,9.493a37.012,37.012,0,0,1-3.371,6.662c-2.9,4.721-6.35,9.285-6.465,15.058-.114,5.75,1.365,11.259-2.762,16.036-1.915,2.216-4.246,4.028-6.159,6.261-1.829,2.136-3.5,4.408-5.367,6.508a27.457,27.457,0,0,1-6.137,5.25,7.373,7.373,0,0,1,1.36-.076c4.013.189,6.015,3.636,6.892,7.15.852,3.418.8,7.557-2.681,9.47a13.944,13.944,0,0,1-5.85,1.211,65.813,65.813,0,0,1-7.491.053,1.572,1.572,0,0,1-1.04-.449c-.145.025-.286.076-.432.09-3.559.315-7.241-1.9-9.9-4.047a22.48,22.48,0,0,1-8.07-14.824,26.579,26.579,0,0,0-4.532,7.806c-1.488,3.644-1.955,6.614-.642,10.369a18.08,18.08,0,0,1,1.4,7.672c-.448,5.386-3.561,10.467-7.409,14.134a25.377,25.377,0,0,1-7.523,4.974,124.967,124.967,0,0,0,10.909,21.5,69.273,69.273,0,0,1,5.251,9.779,55.308,55.308,0,0,1,2.886,10.84,54.615,54.615,0,0,0,3.453,11.6c1.385,3.19,2.948,6.305,4.147,9.573,1.233,3.36,1.292,7.008,2.5,10.321a7.672,7.672,0,0,0,1.392,2.22,1.733,1.733,0,0,1,2.157,1.525,60.548,60.548,0,0,0,5.967,21.4,67.46,67.46,0,0,0,6.364-5.261c2.16-2.176,2.32-4.718,1.278-7.506a51.011,51.011,0,0,0-4.365-7.921l-5.036-8.451a1.608,1.608,0,0,1-.228-.752c-5.146-7.19-2.285-16.185,1.619-23.237,4.9-8.851,10.243-17.491,15.409-26.189,4.263-7.179,8.836-14.49,15.387-19.824,3.643-2.965,7.807-4.987,11.989-7.063l7.9-3.921c-.6-.013-1.207-.048-1.808-.119a26.985,26.985,0,0,1-10.994-4.388c-7.117-4.454-14.4-9.377-19.905-15.783-1.381-1.606.948-3.953,2.337-2.337a61,61,0,0,0,11.262,9.893c3.856,2.725,7.817,5.683,12.111,7.683,5.013,2.333,9.912,1.729,15.2.772Q-1923.573-640.9-1915.609-642.349Zm-18.316-79.815q6.62-4.568,13.24-9.135a120.816,120.816,0,0,0,12.343-9.427c1.577-1.421,3.921.91,2.337,2.337-.707.638-1.439,1.245-2.169,1.855a1.583,1.583,0,0,1,.544,1.164c.142,3.378,1.462,6.615,1.368,10.017a14.682,14.682,0,0,1-2.7,7.944c-3.579,5.089-9.445,7.638-15.455,8.485a1.7,1.7,0,0,1-2.033-1.155,1.664,1.664,0,0,1,1.155-2.032c5.209-.735,10.661-2.716,13.7-7.284a11.444,11.444,0,0,0,2-7.105c-.161-2.665-.968-5.237-1.239-7.892-2.536,1.97-5.15,3.843-7.789,5.671q-6.812,4.716-13.638,9.41C-1934.013-718.1-1935.664-720.963-1933.925-722.164Z" transform="translate(2329.361 965.856)" fill="#e9af16"/>
      <path id="Pfad_1265" data-name="Pfad 1265" d="M-1991.946-406.081c-.83-.03-1.68-.121-2.5-.168-3.758-.213-7.519-.4-11.286-.425a70.551,70.551,0,0,0-19.743,2.255c-6.015,1.709-11.634,4.508-17.529,6.553a15.973,15.973,0,0,1-4.246,1.18,32.473,32.473,0,0,1-2.424,8.233c7.494,1.312,15.3,2.463,22.775.628,3.6-.885,7.052-2.817,10.845-2.721,3.193.081,5.839,1.853,8.535,3.351,10.129,5.629,22.294,7.736,31.181,15.344-.2-6.074-2.245-11.876-4.564-17.526-2.347-5.717-4.74-12.216-10.281-15.578A1.527,1.527,0,0,1-1991.946-406.081Z" transform="translate(2324.955 1043.893)" fill="#e9af16"/>
      <path id="Pfad_1266" data-name="Pfad 1266" d="M-2004.345-420.9a1.881,1.881,0,0,1-.432.178c-.437.179-.881.321-1.311.536a1.624,1.624,0,0,1-1.843-.221c-6.263.525-12.545.783-18.833.7-3.425-.046-6.854-.173-10.27-.413-.455-.033-.918-.071-1.38-.116a9.354,9.354,0,0,1,.422,1.688c.707,5.025-2.963,8.945-5.6,12.766a45.48,45.48,0,0,0-2.7,4.432,25.993,25.993,0,0,0-1.518,2.786,13.751,13.751,0,0,1,.237,1.546c1.611.64,6.814-1.933,7.906-2.368,5.544-2.208,11-4.576,16.882-5.77a85.2,85.2,0,0,1,18.713-1.386c3.251.065,6.5.238,9.745.426.677.039,1.368.139,2.044.119,1.182-.034,1.233-.058,1.889-.93a15.467,15.467,0,0,0,1.19-2.946,48.82,48.82,0,0,1,8.545-13.031c-.706.07-1.411.144-2.118.189C-1989.929-422.26-1997.54-423.517-2004.345-420.9Z" transform="translate(2325.347 1040.482)" fill="#e9af16"/>
      <path id="Pfad_1267" data-name="Pfad 1267" d="M-1988.258-615.9c-.206.35-.41.7-.617,1.049-4.224,7.165-9.816,16.544-3.955,24.425a1.382,1.382,0,0,1,.283.871l5.612,9.417c1.681,2.821,3.608,5.686,4.382,8.921a9.285,9.285,0,0,1-1.932,8.472c-2.115,2.486-5.068,4.4-7.6,6.428a1.691,1.691,0,0,1-.3.157,49.614,49.614,0,0,1,4.485,10.638,44.727,44.727,0,0,1,1.087,10.913c-.006,7.146-.955,14.6,1.5,21.478,2.048,5.733,6.167,10.434,9.157,15.664,2.886,5.049,4.406,10.411,3.187,16.21-.836,3.973-2.621,7.756-4.127,11.5l-3.965,9.874c-2.751,6.852-5.854,13.88-5.55,21.421.157,3.92,1.043,7.809.432,11.733a20.186,20.186,0,0,1-3.761,8.368c-4.081,5.889-8.311,11.731-12.925,17.215-2.609,3.1-5.607,5.858-6.624,9.916-.576,2.3-.762,4.664-1.174,6.988,5.474-1.378,11.231-1.021,16.943-1.093a52.373,52.373,0,0,0,12.445-1.593c1.832-.471,4.207-.885,5.838-1.909,2.261-1.42,1.358-4.406,1.068-6.608-.547-4.161-1.4-8.364-1.134-12.582a23.686,23.686,0,0,1,3.109-9.936,24.184,24.184,0,0,0,2.176-4.681c.663-2.322-.063-4.54.132-6.886a5.907,5.907,0,0,1,3.086-4.995c4.232-6.371,6.127-13.805,6.829-21.413.351-3.809.449-7.635.461-11.457.011-3.487-.87-8.126.847-11.319,1.267-2.358,3.68-3.41,6.057-4.316,3.457-1.317,6-2.862,8.006-6.081,2.137-3.429,3.414-7.351,4.865-11.1l4.371-11.293c1.6-4.131,3.561-8.289,4.63-12.6,1-4.041.124-7.862-.695-11.837-1.7-8.26-2.979-16.76-5.314-24.867a29.059,29.059,0,0,0-12.537-16.757c-5.647-3.68-11.88-5.476-17.961-8.188-6.779-3.023-4.167-10.017-5.767-15.8a19.945,19.945,0,0,0-14.284-13.895A1.526,1.526,0,0,1-1988.258-615.9Z" transform="translate(2333.157 999.904)" fill="#e9af16"/>
      <path id="Pfad_1268" data-name="Pfad 1268" d="M-2063.1-388.671a76.157,76.157,0,0,0,3.7-7.445c.657-1.614,2.585-5.744,1.067-6.851-.883-.644-3.127-.675-4.22-.813-.089-.011-.18-.015-.271-.025-1.971,8.363-12.111,15.878-10.247,24.879C-2068.2-379.853-2065.333-384.542-2063.1-388.671Z" transform="translate(2319.988 1044.497)" fill="#e9af16"/>
      <path id="Pfad_1269" data-name="Pfad 1269" d="M-1993.69-364.895c-2.236-.768-4.345-.347-6.531.338a54.313,54.313,0,0,1-9.942,2.572c-7.409.874-14.855-.427-22.134-1.719a1.675,1.675,0,0,1-.988-2.428c1.359-3.021,2.955-6.558,3.16-10.043a4.763,4.763,0,0,1-.466-3.86c-1.145-3.564-4.379-6.094-6.6-8.993a53.991,53.991,0,0,1-6.827-12.37q-13.815-1.8-27.584-3.95c-3.382-.53-7.657-.6-10.391-2.952-2.533-2.174-2.763-5.436-2.532-8.553.3-4,.46-7.609-2.271-10.9-2.852-3.432-6.224-3.7-10.34-4.273-8.3-1.161-8.379-10.034-7.286-16.511.355-2.1,3.539-1.2,3.188.879-.625,3.7-1.54,9.452,2.449,11.739,1.712.981,3.925.687,5.812.985a13.632,13.632,0,0,1,3.669,1.135,14.613,14.613,0,0,1,8.347,12.925c.015,2.868-1.421,7.271.71,9.686,1.255,1.422,3.446,1.664,5.2,1.962,2.156.367,4.32.69,6.48,1.025q11.568,1.79,23.173,3.308-.534-1.432-1.043-2.868c-2.5-7.084-4.651-14.366-8.316-20.966-3.565-6.42-8.807-12.767-6.471-20.577a1.679,1.679,0,0,1,2.427-.988,176.6,176.6,0,0,1,18.783,10.759c5.062,3.252,10.589,6.379,14.779,10.769,3.276,3.435,5.273,7.6,5.056,12.41-.017.38-.045.762-.079,1.144.1-.143.192-.286.278-.41a29.443,29.443,0,0,1,11.371-9.851,1.642,1.642,0,0,1,.22-.058,10.335,10.335,0,0,1-5.86-4.743c-2.027-3.5-1.537-6.989.2-10.465.6-1.195,1.467-2.525,1.457-3.908s-.877-2.008-1.879-2.784a6.473,6.473,0,0,1-2.652-3.251c-.553-1.827-.115-3.707-.179-5.567a6.255,6.255,0,0,0-3.424-5.276c-3.668-2.245-8.2-2.171-12.153-3.665a15.546,15.546,0,0,1-8.117-7.211c-2.15-3.857-2.971-8.2-4.114-12.418-.586-2.16-1.084-5.238-3.114-6.545-1.55-1-3.556-1.248-5.16-2.221-5.971-3.62-8.437-10.835-10.262-17.229-.923.856-1.89,1.667-2.846,2.456-3.294,2.723-6.731,5.267-10.168,7.8-6.362,4.7-15.512,9.917-17.62,18.132a1.551,1.551,0,0,1-2.284.972,1.614,1.614,0,0,1-1.491,1.136,7.005,7.005,0,0,1-1.106-.063c-2.874,6.413-8.341,10.62-13.838,14.8a54.313,54.313,0,0,0-8.819,7.845c-2.937,3.472-4.908,7.654-6.958,11.678-1.889,3.709-6.031,12.236-11.061,10.367q-2.757,7.258-5.514,14.517c-.063.163-.12.328-.18.493,10.9,3.513,20.669,9.453,30.616,14.99a108.358,108.358,0,0,0,14.421,7.125c5.214,1.955,10.68,2.192,16.082,3.312a75.514,75.514,0,0,1,14.435,4.743c5.393,2.319,10.349,4.728,16.275,5.318,2.66.264,5.333.4,7.979.8,1.687.258,3.916.431,5.3,1.52,3.073,2.422.046,8.641-1.162,11.407a71.257,71.257,0,0,1-4.81,9.546,1.514,1.514,0,0,1,1.6.358,47.409,47.409,0,0,1,6.229,7.28,43.246,43.246,0,0,1,2.614,4.315c1,1.892,1.243,3.869,3.815,3.5,7.03-1,14.039-2.237,21.087-3.08,6.208-.743,11.363.615,17.207,2.538,2.931.963,6,1.934,9.13,1.671,2.981-.252,5.612-1.864,8.554-2.3,5.447-.808,9.352,3.247,12.752,6.9a25.975,25.975,0,0,1,2.993,3.849,27.389,27.389,0,0,1,1.533-3.932,14.233,14.233,0,0,0,1.588-5.709c-8.738-8.258-21.442-10.207-31.754-15.938A30.156,30.156,0,0,0-1993.69-364.895Z" transform="translate(2304.804 1022)" fill="#e9af16"/>
      <path id="Pfad_1270" data-name="Pfad 1270" d="M-2102.288-414.015a55.183,55.183,0,0,1-8.082-3.029,1.328,1.328,0,0,1-.794.85,30.75,30.75,0,0,0-8.619,5.52c-2.175,2.005-5.479,5.128-5.875,8.232-.316,2.489,2.4,2.885,4.221,3.529,1.777.631,3.574,1.2,5.362,1.8a52.691,52.691,0,0,1,9.523,4.012c5.882,3.369,12.423,9.151,18.856,3.426,5.325-4.739,6.167-12.6,9.056-18.8a70.251,70.251,0,0,0-9.324-2.951C-2092.693-412.544-2097.6-412.71-2102.288-414.015Z" transform="translate(2308.975 1041.714)" fill="#e9af16"/>
      <path id="Pfad_1271" data-name="Pfad 1271" d="M-2039.037-431.749a15.624,15.624,0,0,0-4.224-6.439c-4.283-4.223-9.8-7.3-14.845-10.51-5.014-3.193-10.128-6.213-15.433-8.889-.385,3.916,1.427,7.562,3.465,10.948a90.542,90.542,0,0,1,5.709,10.486c2.9,6.648,4.881,13.635,7.489,20.393a62.867,62.867,0,0,0,4.777,10.014c2.075,3.425,4.881,6.115,7.283,9.273.281.369.53.742.762,1.117,2.033-3.728,5.082-6.931,7.068-10.649,1.6-2.99,1.1-5.29-.018-7.983a6.247,6.247,0,0,1-1.075-.645c-1.411-1.134-1.409-3.022-.8-5.023a14.41,14.41,0,0,1-.167-2.728C-2038.925-425.524-2038.1-428.654-2039.037-431.749Z" transform="translate(2319.927 1033.189)" fill="#e9af16"/>
      <path id="Pfad_1272" data-name="Pfad 1272" d="M-2210.2-469.2a15.83,15.83,0,0,1,3.9,1.969c2.667,1.888,4.749,4.515,7.546,6.224,3.334,2.038,7.57,2.745,11.294,3.787,7.16,2,14.456,3.759,21.166,7.04,4.041,1.976,7.9,4.2,12.189,5.625a62.452,62.452,0,0,0,10.721,2.482c3.343.487,6.772.649,10.038,1.573,3.081.873,4.992,2.425,7.345,4.448,2.43,2.089,3.794.677,5.344-1.636a48.645,48.645,0,0,0,2.649-4.766c1.532-2.957,2.957-5.975,4.7-8.818,3.318-5.418,7.894-9.3,12.888-13.107,4.755-3.622,9.87-7.391,12.385-12.98-2.374-1.418-4.177-3.931-6.207-5.885-3.6-3.464-8.7-4.347-13.15-6.256a19.107,19.107,0,0,1-5.384-3.275c-1.65-1.493-2.6-3.726-4.4-5.037-3.182-2.316-7.813-1.466-11.441-2.508a8.6,8.6,0,0,1-4.242-2.528c-1.5-1.725-1.515-4.626-3.516-5.848-1.859-1.136-4.554-.911-6.616-1.447a17.863,17.863,0,0,1-4.606-1.973c-6.649-3.972-10.856-11.942-18.341-14.51-3.465-1.19-7.9-.339-10.457-3.412-6.327,7.011-12.862,13.89-18.915,21.139-5.893,7.061-9.746,15.053-13.138,23.548q-1.336,3.342-2.62,6.7c-.672,1.756-1.793,3.76-2.095,5.616C-2213.6-470.378-2212.2-469.908-2210.2-469.2Z" transform="translate(2290.566 1017.958)" fill="#e9af16"/>
      <path id="Pfad_1273" data-name="Pfad 1273" d="M-2157.906-548.032c.495-1.755.239-3.626.649-5.4.761-3.276,3.427-4.788,6.665-4.471,3.926.385,7.9,1.786,11.739,2.816.36-12.7.807-25.41,1-38.115a32,32,0,0,0-.769-8.7c-.654-2.491-1.714-4.863-2.083-7.426a12.63,12.63,0,0,1-.1-2.828c-4.249,5.366-8.369,10.837-12.365,16.352-15.262,21.061-27.109,44.087-29.938,70.117,7.15-5.559,14.5-11,21.246-16.991C-2160.2-544.144-2158.522-545.851-2157.906-548.032Z" transform="translate(2296.904 1000.691)" fill="#e9af16"/>
      <path id="Pfad_1274" data-name="Pfad 1274" d="M-2118.452-599.3c1.788,4.012.928,9.206,3.5,12.853,2.117,3,5.916,4.053,8.006,7.033q5.813-10.438,11.627-20.876c3.25-5.836,5.76-12.392,13.552-11.9,3.484.219,6.72,1.65,10.145,2.194,3.533.562,7.134.332,10.684.715,5.5.594,10.134,2.652,13.124,7.445,1.331,2.131,2.438,5.128,4.881,6.218,1.653.739,3.7.367,5.463.363a54.919,54.919,0,0,1,5.918.3,24.32,24.32,0,0,1,4.7.781,40.108,40.108,0,0,0-4.882-8.329,90.855,90.855,0,0,0-9.539-11.439,22.437,22.437,0,0,0-12.272-6.515c-4.83-.756-9.268.321-13.895,1.538-3.57.939-5.76-.35-7.921-3.142-2.821-3.643-6.107-4.859-10.651-5.1-3.118-.166-7.276.74-10.066-1-.737-.46-1.214-1.256-1.92-1.719a4.409,4.409,0,0,0-3.922-.137c-2.14.667-4.23,1.559-6.326,2.348a13.81,13.81,0,0,0-3.472,1.412c-1.064.833-.752,1.757-.92,2.914a3.573,3.573,0,0,1-1.539,2.5,5.435,5.435,0,0,1-3.747.681,17.622,17.622,0,0,1-2.556-.778c3.1,3.547-1.069,6.614-2.847,9.669C-2126.139-606.445-2120.233-603.294-2118.452-599.3Z" transform="translate(2309.313 996.854)" fill="#e9af16"/>
      <path id="Pfad_1275" data-name="Pfad 1275" d="M-2202.894-460.878c7.477,4.144,16.24,6.446,24.36,9a257.356,257.356,0,0,0,25.542,6.756c4.583.938,9.2,1.717,13.849,2.264,3.115.368,9.06,1.825,11.08-1.474.019-.033.051-.047.071-.077a12.622,12.622,0,0,0-4.406-3.21,24.555,24.555,0,0,0-5.1-1.232c-3.967-.608-7.943-.944-11.868-1.842-8.739-2-15.918-7.008-24.276-9.922-7.975-2.781-16.684-3.944-24.427-7.312-3.3-1.434-5.645-3.953-8.339-6.244a16.479,16.479,0,0,0-5.445-3,9.325,9.325,0,0,1-2.867-1.478c.5,3.393.9,6.693,2.8,9.722A24.227,24.227,0,0,0-2202.894-460.878Z" transform="translate(2290.255 1028.76)" fill="#e9af16"/>
      <path id="Pfad_1276" data-name="Pfad 1276" d="M-2142.683-576.218q-.4,14.935-.8,29.869a17.576,17.576,0,0,1,6.806,3.07c2.84,2.336,3.482,6.071,7.3,7.235,2.97.9,6.147.929,8.989,2.279,2.881,1.369,4.592,3.955,6.7,6.222a8.694,8.694,0,0,0,4.873,2.836,17.957,17.957,0,0,1,5.245,1.6c3.178,1.784,5.4,4.835,8,7.307a31.618,31.618,0,0,0,10.248,6.8c3.179,1.221,6.872,1.092,9.845,2.8s4.766,5.146,8.043,6.363c2.963,1.1,6.078,1.163,7.87,4.178a9.236,9.236,0,0,1,.39,8.065,13.921,13.921,0,0,1-2.166,3.559,1.515,1.515,0,0,1,.692.914c1.123,3.981,2.359,8.017,4.631,11.514a13.906,13.906,0,0,0,4.3,4.367c1.731,1.059,3.822,1.328,5.5,2.458,2.919,1.959,3.719,6.079,4.542,9.246,1.08,4.155,1.921,8.533,4.425,12.121,4.783,6.845,14.19,4.409,20.1,9.614,2.566,2.261,3.257,5.072,3.093,8.38-.072,1.432-.236,2.551.686,3.7a12.032,12.032,0,0,0,2,1.619,5.474,5.474,0,0,1,1.994,3.443c.638,3.838-2.609,6.43-2.954,10.01a7.1,7.1,0,0,0,6.524,7.477c2.119.108,2.125,3.413,0,3.3-.3-.015-.6-.06-.9-.1a1.5,1.5,0,0,1-.247,2.551,26.182,26.182,0,0,0-13.331,15.016c.041.153.067.3.116.456a17.4,17.4,0,0,0,.724,1.807c2.077.72,4.731.52,6.718.614q4.593.216,9.194.212c5.885,0,11.761-.321,17.621-.854.885-3.492.839-7.189,2.094-10.584,1.229-3.323,3.69-5.839,5.962-8.471a141.969,141.969,0,0,0,14.884-19.991c3.914-6.641.662-14.291,1.663-21.5,1.012-7.289,4.26-14.124,6.978-20.893,1.57-3.908,3.191-7.8,4.7-11.731,1.225-3.187,2.354-6.514,2.164-9.976-.335-6.112-4.351-11.289-7.576-16.213-3.381-5.163-5.929-10.342-6.622-16.553-.786-7.047.354-14.149-.359-21.2-.765-7.541-4.994-13.567-7.932-20.346a60.605,60.605,0,0,1-4.306-15.317,1.357,1.357,0,0,1-.32-1.075c.16-1.535-1.538-2.579-2.354-3.714a10.851,10.851,0,0,1-1.7-4.121,60.129,60.129,0,0,0-2.6-10.062c-1.36-3.395-3.04-6.652-4.392-10.05a58.713,58.713,0,0,1-2.878-10.764,45.938,45.938,0,0,0-3.328-11.246,107.914,107.914,0,0,0-5.834-10.108,114.293,114.293,0,0,1-9.615-19.572c-7.229,2.175-15.267,1.686-23.024,1.225-2.666-.159-5.358-.259-8.049-.386,1.539,5.479,5.885,10.246,8.658,15.1a116.173,116.173,0,0,1,8.11,17.409c1.019,2.758,1.813,5.634,3.085,8.291a27.241,27.241,0,0,0,4.51,6.136,10.433,10.433,0,0,1,2.82,5.838c.285,2.55-.45,5.18.165,7.7s2.293,4.622,3.518,6.862a17.841,17.841,0,0,1,2.1,6.3c.364,2.665.172,5.766,1.649,8.13,1.3,2.079,3.724,2.9,5.923,3.638,3.9,1.317,7.543,2.766,9.664,6.537,2.2,3.916,2.352,8.552,3.7,12.758,3.06,9.517,14.713,16.013,11.514,27.277a1.612,1.612,0,0,1-.194.374,25.354,25.354,0,0,0,1.829,10.555c1.163,3.109.6,5.25-.893,8.133a19.282,19.282,0,0,0-2.346,10.766c.325,3.608,1.9,6.952,2.821,10.419a15.825,15.825,0,0,1,.242,8.863c-.881,2.759-2.8,4.924-4.442,7.245a12.237,12.237,0,0,0-2.078,3.954c-.448,1.768-.094,3.611-.367,5.4a6.125,6.125,0,0,1-3.849,5.136,1.662,1.662,0,0,1-2.033-1.155c-1.2-4.457-4.569-6.693-8.929-7.386-3.511-.558-5.151-2.182-6.361-5.469-.829-2.249-1.619-3.851-4.063-4.62a17.949,17.949,0,0,0-5.74-.518c-3.121.059-6.516.052-9.3-1.568-3.237-1.882-3.98-5.186-3.989-8.692-.011-4.645-.3-9.152-2.09-13.51-.846-2.06-2.133-4.294-4.327-5.123-2.215-.839-4.781-.1-7.085-.381a6.926,6.926,0,0,1-5.819-3.849,1.818,1.818,0,0,1-1.143-2.422c6.022-14.063,12.244-28.058,18.057-42.21a55.885,55.885,0,0,0,4.569-19.831,194.886,194.886,0,0,0-.051-19.542,9.207,9.207,0,0,0-.453-2.5,1.522,1.522,0,0,1-.53-1,3.2,3.2,0,0,0-.889-.813c-1.4-.857-3.666-.9-5.2-1.05-3-.287-5.962-.05-8.95-.2-4.892-.238-6.979-3.843-9.252-7.645-3.442-5.755-9.038-6.472-15.266-6.71a44.745,44.745,0,0,1-9.21-1.023c-2.872-.714-5.77-1.9-8.781-1.588-3.773.387-5.123,3.425-6.779,6.4q-2.409,4.324-4.817,8.648-5.085,9.13-10.169,18.258a1.63,1.63,0,0,1-2.913-.229,1.365,1.365,0,0,1-.885-.793c-1.728-3.742-6.449-4.773-8.7-8.2-2.5-3.811-1.841-8.559-3.448-12.669-1.336-3.418-4.885-5.473-5.954-9.041-1.177-3.932,1.288-6.425,3.269-9.435.494-.752,1.149-2.134.77-3.075-.369-.92-2.336-.743-3.139-.606a20.364,20.364,0,0,0-3.141.95c-2.378.816-4.752,1.642-7.129,2.463q-3.819,1.32-7.639,2.639c-2.493.864-4.947,1.65-5.6,4.516-1.021,4.5,2.164,9.392,2.664,13.856C-2142.1-586.215-2142.551-581.149-2142.683-576.218Z" transform="translate(2304.806 992.807)" fill="#e9af16"/>
      <path id="Pfad_1277" data-name="Pfad 1277" d="M-2142.9-562.625c-2.1-.536-4.194-1.112-6.3-1.61-2.176-.512-4.231-.961-5.1,1.69-.465,1.42-.17,3.141-.468,4.622a11.068,11.068,0,0,1-1.71,3.985c-1.861,2.753-4.607,4.741-7.176,6.78l-18.332,14.553c.083.3.157.6.208.867.4,2.074-.085,4.828,1.152,6.638,1.519,2.221,5.371,1.628,7.737,2.2,7.977,1.922,12.461,9.525,18.735,14.109a16.344,16.344,0,0,0,5.472,2.739c2.109.548,4.339.528,6.388,1.322a6.659,6.659,0,0,1,3.779,3.53c1.109,2.389,1.468,4.146,4.207,4.972,3.741,1.128,7.864.451,11.409,2.358,1.974,1.063,3.1,2.786,4.463,4.484a14.105,14.105,0,0,0,5.451,4.012c4.144,1.857,8.749,2.711,12.5,5.389,3.136,2.237,5.825,7.94,10.1,7.692a1.583,1.583,0,0,1,.666.1c2.056-7.573,8.945-12.329,14.91-16.808,4.019-3.017,8.122-5.925,12.047-9.065,3.07-2.456,7.386-5.378,8.474-9.373.583-2.145.126-4.725-2.007-5.821-1.577-.811-3.475-.873-5.111-1.559-2.454-1.028-4.1-3.028-6.005-4.788-2.9-2.673-6.316-2.509-9.878-3.645a30.618,30.618,0,0,1-8.892-4.673,61.728,61.728,0,0,1-7.417-6.875,16.276,16.276,0,0,0-4.333-3.536c-1.893-.927-4.032-.834-5.986-1.555-2.622-.968-4.362-3.089-6.119-5.145a12.641,12.641,0,0,0-7.839-4.714c-2.728-.543-5.606-.842-7.965-2.454-2.731-1.867-3.433-5.364-6.27-7.1a16.747,16.747,0,0,0-3.925-1.665c-.639,1.443-3.206,1.232-3.156-.649,0-.051,0-.1.005-.152C-2140.461-562.063-2141.726-562.324-2142.9-562.625Z" transform="translate(2297.137 1010.685)" fill="#e9af16"/>
      <path id="Pfad_1278" data-name="Pfad 1278" d="M-2113.663-298.426c2.157-4.427,1.452-9.186,1.242-13.9-.191-4.267,2.515-6.425,5.647-8.854a83.243,83.243,0,0,1,11.46-7.416c3.754-2.031,7.629-4.088,9.417-8.2,1.736-3.991,1.474-8.576,1.176-12.819-.3-4.318-.552-9.028-2.766-12.87-4.231-7.339-13.96-7.7-21.505-7.743.854,2.885,1.814,5.944.9,8.857-1.781,5.654-9.813,6.664-14.747,7.24a45.57,45.57,0,0,1-10.985-.055c-3.6-.451-7.3-1.878-10.944-1.558-6.549.576-12.075,5.556-18.458,7.055a33.024,33.024,0,0,1-10.312.779,34.777,34.777,0,0,1-4.181-.609c-1.461-.305-3.207-1.234-4.7-1.182-1.991.07-2.344,2.9-3.238,4.361a13.17,13.17,0,0,1-2.229,2.734,13.137,13.137,0,0,1-6.483,3.289c-6.459,1.224-12.6-2.24-18.081-5.173a37.652,37.652,0,0,0-7.976-3.421,1.622,1.622,0,0,1,.76,1.261c.945,10.9,5.292,21.04,10.529,30.522a231.547,231.547,0,0,0,17.436,26.8c5.03,6.713,10.39,14.059,17.477,18.8.122-.01.242,0,.365-.015a1.3,1.3,0,0,1,1.532,1.21,23.223,23.223,0,0,0,23.256-.178,26.881,26.881,0,0,0,9.121-8.417c1.976-2.958,3.545-6.178,5.848-8.913a15.025,15.025,0,0,1,9.316-5.133C-2120.032-292.829-2115.98-293.671-2113.663-298.426Z" transform="translate(2289.054 1051.556)" fill="#e9af16"/>
      <path id="Pfad_1279" data-name="Pfad 1279" d="M-2181.833-330.5c1.1-1.956,1.255-4.448,3.609-5.39,2.277-.913,4.736.289,6.949.823a30.074,30.074,0,0,0,19.832-2.139c5.369-2.521,10.343-5.678,16.53-4.852,3.728.5,7.286,1.536,11.068,1.725a42.75,42.75,0,0,0,10.024-.654c3.4-.639,8.887-1.452,9.278-5.751.3-3.252-1.589-7.039-2.274-10.19a78.265,78.265,0,0,1-1.734-20.253c.168-3.586.984-7.425.127-10.972-.756-3.135-2.894-5.648-4.769-8.181-3.673-4.962-7.066-10.175-8.963-16.1-1.611-5.023-2.208-10.352-4.343-15.15a4.8,4.8,0,0,1-2.993.875c-9.1-.127-18.284-3.309-26.915-5.893a105.892,105.892,0,0,1-12.51-4.449c-4.312-1.9-8.415-4.092-13.045-5.145-7.569-1.72-14.5-4.924-21.5-8.156a1.433,1.433,0,0,1-.054.346c-4.948,13.229-14.476,24.345-16.492,38.641-.913,6.472-2.246,12.054-6.221,17.355-3.313,4.42-7.444,8.1-11.436,11.889-3.757,3.565-7.516,7.275-10.093,11.816-3.31,5.829-3.748,12.516-3.513,19.078.229,6.379.871,13.526,4.881,18.787,3.311,4.345,9.744,7.254,14.9,4.44,2.819-1.538,4.715-4.313,7.652-5.714a13.731,13.731,0,0,1,7.164-1.163c6.136.553,11.236,3.983,16.625,6.614C-2194.1-325.36-2185.757-323.5-2181.833-330.5Z" transform="translate(2282.559 1034.711)" fill="#e9af16"/>
      <path id="Pfad_1280" data-name="Pfad 1280" d="M-2215.4-472c1.464-.721,3.623-1.71,4.172-3.331a1.628,1.628,0,0,1-.492-.329c-3.582-3.607-4.658-7.56-5.671-12.381-1.064-5.066-5.637-7.312-10.561-6.834a25.54,25.54,0,0,0-7.672,2.3c-1.965.864-4.6,1.691-5.828,3.55-.965,1.462-1.316,3.248-2.142,4.784a8.283,8.283,0,0,1-3.159,3.154c-3.973,2.561-2.891,9.942-2.5,14.081a22.235,22.235,0,0,1-.28,6.622c-.458,2.25-1.292,4.46-1.455,6.762-.106,1.5-.268,2.854,1.439,3.046a11.226,11.226,0,0,0,3.763-.56,56.163,56.163,0,0,0,6.511-2.272q3.553-1.378,7.1-2.759c2.192-.851,4.355-1.614,5.98-3.39,2.412-2.638,3.534-6.207,5.867-8.924A14.712,14.712,0,0,1-2215.4-472Z" transform="translate(2282.618 1025.337)" fill="#e9af16"/>
      <path id="Pfad_1281" data-name="Pfad 1281" d="M-2188.677-440.679a65.882,65.882,0,0,1,13.552,4.627,145.15,145.15,0,0,0,31.042,9.97,66.583,66.583,0,0,0,7.813,1.239c1.1.1,2.6.514,3.557-.243.007-.007.014-.019.023-.027-.042-.065-.073-.136-.115-.2a1.561,1.561,0,0,1,1.269-2.4c.138-.483.26-.93.373-1.224q2.1-5.539,4.207-11.077a14.5,14.5,0,0,1-3.958.332,112.55,112.55,0,0,1-14.362-1.83,237.855,237.855,0,0,1-30.141-7.5c-9.225-2.871-19.521-5.44-27.785-10.605a26.56,26.56,0,0,1-8.573-8.276,21.09,21.09,0,0,1-2.681-7.781c-.092.091-.174.189-.271.276-2.214,2.028-5.4,2.508-7.468,4.73-2.775,2.975-4.019,6.983-6.815,9.833,7.1,6.34,16.072,10.014,24.666,13.89C-2199.235-444.638-2194.167-441.945-2188.677-440.679Z" transform="translate(2287.251 1029.387)" fill="#e9af16"/>
      <path id="Pfad_1282" data-name="Pfad 1282" d="M-1825.328-859.462c-5.451-2.5-10.988-4.025-14.862-8.926-3.124-3.953-4.909-8.709-7.623-12.917a15.266,15.266,0,0,0-5.058-5.2c-2.7-1.538-5.814-1.642-8.841-1.7-4.567-.085-9.6-.024-13.159-3.358-2.027-1.9-2.976-4.644-4.989-6.538a19.781,19.781,0,0,0-5.991-3.418c-4.023-1.715-8.094-3.409-10.144-7.55-1.324-2.672-1.855-5.394-4.524-7.1a22.212,22.212,0,0,0-5.959-2.293c-4.325-1.244-8.341-2.552-11.285-6.152-2.018-2.467-3.666-4.788-6.546-6.347a19.535,19.535,0,0,0-8.452-2.211c-6.567-.277-12.64,2.135-18.732,4.224a24.518,24.518,0,0,1-9.093,1.706c-2.9-.15-5.374-1.407-8.061-2.342-5.942-2.065-10.857.479-14.513,5.137-2.758,3.512-6.411,3.4-9.27.091-1.915-2.217-3.239-4.681-6.578-4.575-2.9.092-5.594,1.722-7.708,3.6-4.578,4.063-6.407,9.442-6.78,15.4-.177,2.837-.329,5.7-1.468,8.345a26.656,26.656,0,0,1-4.212,6.175c-1.907,2.328-4.431,5.533-3.65,8.812.57,2.4,2.827,3.233,4.845,4.147,3.627,1.646,6.287,3.812,4.963,8.133-1.015,3.312-1.973,6.2-1.855,9.743a22.13,22.13,0,0,0,1.956,8.27c.031-.007.048-.027.082-.033,4.182-.755,9.428-1.328,12.341,2.523,2.41,3.187,1.663,7.715-.51,10.821-2.68,3.833-7.454,5.281-11.771,6.351a113.128,113.128,0,0,0-17.258,5.611c-9.992,4.257-19.354,9.832-28.61,15.471s-18.719,11.211-26.067,19.33c-7.367,8.141-12.686,17.954-18.041,27.469-2.857,5.076-6.139,10.172-8.393,15.548a10.228,10.228,0,0,0,.049,8.69,37.71,37.71,0,0,1,2.212,5.309,7.822,7.822,0,0,1-.294,5.352c-.99,2.129-3.024,3.492-4.118,5.553-2.192,4.125-1.6,10.725-.615,15.156a8.361,8.361,0,0,0,3,5.007l-.57,1.254-1.663,5.555,4.951,8.969-2.643,9.224-3.958,2.337,4.872,10.5-1.607,9.819,10.362,16.1,17.292,2.239c-.082.064-.147.137-.235.2-2.327,1.63-5.294,1.366-7.908.679-2.739-.721-6.75-3-9.564-1.375-2.551,1.474-.776,4.512,1,5.778a15.139,15.139,0,0,0,5.136,1.91,23.341,23.341,0,0,1,5.382,1.871c1.59.863,2.9,2.155,4.461,3.051,4.359,2.493,8.9-.286,12.642-2.669a1.478,1.478,0,0,1,2.141.522,1.646,1.646,0,0,1,3.057.245q1.439,5.64,2.88,11.283c.744,2.913,2.1,6.223,1.872,9.276-.223,2.955-2.88,4.6-3.439,7.368-.579,2.857,1.115,5.867,3.282,7.633,5.285,4.309,14.091,3.518,20.477,3.9,7.011.416,14.174,1.261,21.2.7,6.143-.49,11.92-2.611,16.36-6.983,4.339-4.273,7.464-10.406,5.5-16.515-.9-2.8-1.963-5.261-1.615-8.272a25.052,25.052,0,0,1,2.164-6.943c1.569-3.649,3.743-7.7,7.216-9.911a1.736,1.736,0,0,1,1.748-.885c3.122-1.193,6.112-.245,8.794,1.532a4.246,4.246,0,0,1,1.112.03,4.355,4.355,0,0,1,3.2,2.969,8.411,8.411,0,0,0,4.883,1.205,14.427,14.427,0,0,0,7.469-3.116c4.637-3.519,7.546-8.822,11.677-12.858,2.154-2.106,4.612-3.889,5.4-6.96.728-2.86.14-5.94.039-8.84-.384-10.92,9.011-17.724,10.956-27.936,1.026-5.4,1.6-10.484,6.025-14.275,3.757-3.219,8.607-5.02,13.153-6.81,5.451-2.146,11.062-3.659,16.606-5.51,4.969-1.659,10.124-4.3,10.627-10.127.421-4.866-1.184-9.785,1.031-14.418,1.923-4.022,6.925-7.131,6.873-11.9,0-.03.014-.05.016-.08.469-6.658-5.11-13.418-.551-19.654,2-2.736,5.5-4.488,6.434-7.921,1-3.7-.2-7.612,1.2-11.281a13.1,13.1,0,0,1,5.481-6.488c2.99-1.8,5.808-1.611,9.146-1.715,2.083-.065,2.619-.943,3.88-2.372a4.005,4.005,0,0,1,3.79-1.331c2.025.254,3.718.742,5.792.357a12.192,12.192,0,0,0,5.187-2.41,1.479,1.479,0,0,1,.685-.3c2.079-7.637,6.427-15.235,10.974-21.453,3.851-5.268,8.9-9.672,15.2-11.2C-1815.009-851.121-1819.069-856.6-1825.328-859.462Z" transform="translate(2311.264 933.194)" fill="#e9af16"/>
    </g>
  </g>
</svg>
