<svg xmlns="http://www.w3.org/2000/svg" width="693.382" height="604.816" viewBox="0 0 693.382 604.816">
  <g id="Gruppe_1" data-name="Gruppe 1" transform="translate(949.159 211.236)">
    <path id="Pfad_381" data-name="Pfad 381" d="M-823.979-66.771c-15.813,7.507-28.559,21.274-33.777,38.08-.53,1.707,2.144,2.436,2.674.736,8.189-26.375,34.045-41.539,60.423-43.933,11.615-1.053,24.111.2,34.185,6.518,10.595,6.642,16.68,18.658,13.956,31.124a28.946,28.946,0,0,1-10.894,17.09c-6.154,4.534-15.833,7.214-22.183,1.585-1.33-1.179-3.3.774-1.96,1.96,11.326,10.043,28.217-.078,34.376-11.122a31.525,31.525,0,0,0-3.711-36.1C-768.453-80.92-802.29-77.062-823.979-66.771Z" transform="translate(111.147 165.538)" fill="none"/>
    <path id="Pfad_382" data-name="Pfad 382" d="M-867.127,25.372c-9.28,9.852-13.936,23.293-24.309,32.2-.357.306-.727.59-1.093.88l4-2.807,2.924-.1c7.662-8.659,12.39-19.675,20.433-28.213C-863.946,26.035-865.9,24.07-867.127,25.372Z" transform="translate(68.915 287.416)" fill="#e9af16"/>
    <path id="Pfad_383" data-name="Pfad 383" d="M-786.719-42.682a20.835,20.835,0,0,1-1.847,1.532c1.869-.486,3.738-.967,5.629-1.348a27.721,27.721,0,0,1,7.872-.583,6.426,6.426,0,0,0-1.765-.457,26.7,26.7,0,0,0-8.555.539C-785.832-42.91-786.276-42.793-786.719-42.682Z" transform="translate(195.431 203.898)" fill="#e9af16"/>
    <path id="Pfad_384" data-name="Pfad 384" d="M-780.965-130.567c19.079-8.779,39.2-15.077,58.09-24.284a260.463,260.463,0,0,0,50.382-32.538c11.79-9.6,23.635-19.165,38.169-23.544a262.525,262.525,0,0,0-70.862,14.769,1.3,1.3,0,0,1-.823.678,239.347,239.347,0,0,0-67.942,33.325A264.028,264.028,0,0,0-859.872-59.8c-.8,1.687-1.545,3.4-2.306,5.106,12.357-15.233,24.55-30.756,38.138-44.855A141.725,141.725,0,0,1-780.965-130.567Z" transform="translate(105.85 0.368)" fill="#e9af16"/>
    <path id="Pfad_385" data-name="Pfad 385" d="M-810.675-81.932c-.293-1.809-.472-4.554-1.51-6.1a1.823,1.823,0,0,0-1.82-.913,1.347,1.347,0,0,1,.1,1.527,17.552,17.552,0,0,0-2.88,6.8,10.546,10.546,0,0,0-.235,3.414c.142.922.787,1.14,1.641,1.182,1.767.084,3.538-.055,5.31-.106A30.762,30.762,0,0,0-810.675-81.932Z" transform="translate(160.725 148.806)" fill="#e9af16"/>
    <path id="Pfad_386" data-name="Pfad 386" d="M-791.592-35.439a11.327,11.327,0,0,1-2.208,5.6q2.391-.326,4.76-.776a1.108,1.108,0,0,1,.687-1.111c4.1-1.953,8.843-5,9.615-9.881a8.852,8.852,0,0,0-6.146-9.471c-.829,2.042-2.84,3.822-3.957,5.573C-790.929-42.223-791.126-39.175-791.592-35.439Z" transform="translate(189.062 194.908)" fill="#e9af16"/>
    <path id="Pfad_387" data-name="Pfad 387" d="M-583.887-4.6a1.334,1.334,0,0,1-.071.519A67.186,67.186,0,0,1-603.489,24.55c-8.566,7.349-18.547,11.779-29.348,14.789-12.054,3.359-24.808,5.72-34.915,13.6-8.34,6.5-13.9,15.643-20.017,24.1A76.825,76.825,0,0,1-706,95.167a229.683,229.683,0,0,0,36.513-15.532C-624.665,55.84-587.2,18.381-562.006-25.621A258.043,258.043,0,0,1-583.887-4.6Z" transform="translate(295.914 225.881)" fill="#e9af16"/>
    <path id="Pfad_388" data-name="Pfad 388" d="M-784.579-32.713a11.788,11.788,0,0,0,7.659,1.357c2.922-.6,5.312-2.569,7.425-4.58a10.726,10.726,0,0,0,2.359-2.96,4.294,4.294,0,0,0,.541-1.978c-.071-1.137-.572-1.144-1.6-1.25a28.016,28.016,0,0,0-9.324.978,165.3,165.3,0,0,1-16.627,3.4C-790.778-36.517-787.843-34.349-784.579-32.713Z" transform="translate(188.638 205.687)" fill="#e9af16"/>
    <path id="Pfad_389" data-name="Pfad 389" d="M-811.676-87.823a52.184,52.184,0,0,0-4.33,5.618,84.506,84.506,0,0,0-6.021,9.786c2.25-.031,4.5-.038,6.753-.086,2.878-.064,8.651.67,10.517-2.2-1.31.033-2.625.078-3.935.089a5.859,5.859,0,0,1-3.441-.787c-2.29-1.6-1.76-4.962-1.312-7.323A19.261,19.261,0,0,1-811.676-87.823Z" transform="translate(154.712 150.186)" fill="#e9af16"/>
    <path id="Pfad_390" data-name="Pfad 390" d="M-853.331,10.5a124.928,124.928,0,0,1,29.782-37.941c23.859-20.9,53.191-33.292,82-45.707,14.63-6.3,29.248-12.721,43.17-20.493a205.012,205.012,0,0,0,39.025-28.512c11.834-10.883,23.151-22.369,35.85-32.272a174.96,174.96,0,0,1,37.3-22.211c26.606-11.677,55.709-17.033,84.714-16.609a307.309,307.309,0,0,0-39.9-11.457,291.9,291.9,0,0,0-72.567-6.307,1.154,1.154,0,0,1-.949,1.514c-20.513,3.611-35.085,17.979-50.936,30.243a251.258,251.258,0,0,1-50.963,30.576c-18.857,8.449-38.745,14.574-57.19,23.947-15.9,8.076-29.266,19.773-41.166,32.924-13.548,14.971-26.038,30.953-38.881,46.527A258.819,258.819,0,0,0-869.1,8.937a196,196,0,0,0-2.3,48.17C-865.75,41.439-860.809,25.426-853.331,10.5Z" transform="translate(93.895 0)" fill="#e9af16"/>
    <path id="Pfad_391" data-name="Pfad 391" d="M-536.329-146.812c-8.852-6.618-19.323-10.211-29.412-14.454-9.435-3.968-17.855-9.114-26.419-14.661a116.583,116.583,0,0,0-27.505-13.4,101.951,101.951,0,0,0-56.381-2.04c-17.649,4.463-33.811,13.295-48.857,23.347-15.2,10.151-30.376,20.868-44,33.143a216.014,216.014,0,0,1,76.846-28.406c56.1-9.247,117.225.8,165.847,30.873a1.263,1.263,0,0,1,.63.224c2.352,1.609,4.647,3.3,6.915,5.015A73.577,73.577,0,0,0-536.329-146.812Z" transform="translate(219.365 20.494)" fill="#e9af16"/>
    <path id="Pfad_392" data-name="Pfad 392" d="M-758.079,33.993c-.683-4.886-1.8-9.954-4.5-14.162-6.451-10.072-19.584-8.378-29.612-5.959a80.326,80.326,0,0,0-15.942,5.655,81.133,81.133,0,0,0-7.586,4.155,65.226,65.226,0,0,1-5.953,3.793c-3.21,1.536-6.835,1.106-7.526-2.891-.929-5.358-.716-10.781-4.585-15.117-7.442-8.338-20.128-6.145-29.47-3.026-10.486,3.5-20.232,8.932-30.5,13a260.393,260.393,0,0,1-55.41,15.077c9.888,1.441,19.378,5.573,27.82,11.043,11.856,7.684,21.7,17.926,32.137,27.346,9.5,8.575,19.675,16.013,32.427,18.742a40.073,40.073,0,0,0,29.481-4.713l3.68-2.581c.366-.29.736-.574,1.093-.88,10.373-8.9,15.029-22.344,24.309-32.2,1.226-1.3,3.181.663,1.96,1.96C-804.3,61.78-809.024,72.8-816.686,81.455l.286-.009a1.166,1.166,0,0,1,1.04-.441c12.971.785,26.778,1.68,38.943-3.791a34.3,34.3,0,0,0,12.951-9.708c4-5.059,5.771-11.373,6.174-17.731A78.5,78.5,0,0,0-758.079,33.993Z" transform="translate(0 261.505)" fill="#e9af16"/>
    <path id="Pfad_393" data-name="Pfad 393" d="M-870.994-79.093a1.58,1.58,0,0,1-.169-.288c.016.062.029.124.044.186a1.085,1.085,0,0,0,.142.244Z" transform="translate(94.916 160.459)" fill="#e9af16"/>
    <path id="Pfad_394" data-name="Pfad 394" d="M-789.906-52.879a4.47,4.47,0,0,1,.279.663h.02A5.728,5.728,0,0,0-789.906-52.879Z" transform="translate(193.801 192.71)" fill="#e9af16"/>
    <path id="Pfad_395" data-name="Pfad 395" d="M-474.491,106.505c.018-.047.016-.1.036-.144l-.333.02c-1.171.071-2.341.151-3.512.2a165.831,165.831,0,0,1-50.983-5.321,1.253,1.253,0,0,1-.745-.545,1.215,1.215,0,0,1-.224.047c-10.324.055-20.717.075-30.922-1.714a79.425,79.425,0,0,1-24.253-8.815c-7.455-4.044-14.592-8.71-22.355-12.164-8.9-3.959-18.219-5.152-27.889-5.239-9.914-.089-19.839.144-29.754.237-.029,0-.047-.013-.075-.013-8.01,3.487-17,4.232-25.865,3.075-13.335-1.743-26.47-8.8-32.075-21.573-.024-.051-.04-.1-.062-.155-.053-.117-.118-.228-.169-.346-4.855-11.065-1.962-24.825,8.3-31.742a1.269,1.269,0,0,1,1.969.867,1.418,1.418,0,0,1-.339,2.028c-10.123,6.819-11.193,19.538-6.358,29.592a27.945,27.945,0,0,0,4.421,6.387c10.111,10.9,27.505,14.386,41.7,11.249a37.6,37.6,0,0,0,25.7-20.748,47.656,47.656,0,0,0,4.427-21.114,56.752,56.752,0,0,0-1.368-11.73,44.272,44.272,0,0,0-1.9-6.835,14.9,14.9,0,0,0-.876-1.756C-651.719,4.1-659.669,9.5-665.1,6.136a13.543,13.543,0,0,1-5.239-6.6,49.767,49.767,0,0,1-2.294-7.95,27.634,27.634,0,0,0-1.709-5.146,18.618,18.618,0,0,0-9.69-9.646,34.037,34.037,0,0,0-18.518-2.547,37.009,37.009,0,0,0-16.991,6.764c-4.727,3.461-8.052,8.28-11.934,12.586-3.445,3.822-7.593,7.316-12.863,8.036-6.11.836-11.728-2.144-16.933-4.944-11.151-6-23.112-9.089-35.83-8.256A62.431,62.431,0,0,0-831.6,1.494a1.377,1.377,0,0,1-.847.295c8.577,7.471,10.437,18.684,11.652,29.49.2,1.771-2.574,1.751-2.771,0-.8-7.116-1.647-14.565-5.307-20.875A26.391,26.391,0,0,0-839.731.175c-8.067-4.135-17.822-4.39-26.53-2.447-10.224,2.281-19.128,8.065-26.922,14.9-8.879,7.79-16.425,16.984-23.46,26.433-5.259,7.063-10.08,14.975-16.86,20.708a272.092,272.092,0,0,0,34.287-13.1c9.95-4.6,20.795-9.839,32.019-9.666,9.693.146,18.3,5.5,20.587,15.239.607,2.587.255,6.369,1.718,8.524.851,1.25.909,1.131,2.235.674a9.656,9.656,0,0,0,1.873-.933c1.024-.63,1.984-1.368,2.993-2.026a82.941,82.941,0,0,1,15.273-7.81c9.575-3.729,21.817-7.185,32.063-4.387,10.025,2.74,14.235,12.211,15.78,21.684,1.634,10.025,2.323,21.223-1.76,30.771a1.246,1.246,0,0,1,.962.916c2.532,8.854,9.138,15.609,17.148,19.85,13.337,7.063,33.141,8.575,45.088-2.148,5.185-4.653,7.721-11.111,8.258-17.842-.106-.239-.237-.466-.344-.7a1.449,1.449,0,0,1,.435-1.731,36.568,36.568,0,0,0-.286-5.19c-1.96-14.574-16-22.69-29.918-21.362-1.778.171-1.76-2.6,0-2.771a32.571,32.571,0,0,1,21.781,5.6c6.821,4.846,10.484,12.053,11.1,20.347a38.823,38.823,0,0,1,0,5.205,85.346,85.346,0,0,0,31.9,36.256c12.619,7.945,30.851,16.607,45.52,9.145a1.416,1.416,0,0,1,.481-.133c-1.747-6.766-1.621-14.029-1.148-21.373.115-1.774,2.886-1.78,2.771,0-.454,7.068-.924,14.406.98,21.311a30.335,30.335,0,0,0,8.768,13.945c12.739,11.92,32.095,11.725,48,7.695,15.776-4,32.075-12.062,42.807-24.592a1.138,1.138,0,0,1,1.1-.421l.091-.12a18.686,18.686,0,0,1-2.093-1.428c-2.49-2-4.649-4.585-7.467-6.15-4.279-2.377-7.3.31-10.562,2.982a18.258,18.258,0,0,1-8.382,4.066c-3.747.674-6.977-.118-10.524-1.255-2.5-.8-4.684-1.195-6.877.57-1.166.94-2.137,2.106-3.275,3.082-7.888,6.775-19.728,8.644-29.088,3.855A22.048,22.048,0,0,1-609.4,135.166a69.1,69.1,0,0,1-5.219-23.7c-3.308.044-5.507,2.412-7.62,4.72-7.917,8.646-19.662,14.725-31.407,10.187-5.321-2.055-8.719-5.793-11.481-10.648-1.754-3.084-3.527-6.174-7.294-6.912-3.288-.643-6.664.423-9.983-.058C-695.22,106.9-699.878,91.9-702.687,81.334a1.386,1.386,0,0,1,2.671-.736c1.831,6.888,3.724,14.244,8.6,19.691a17.339,17.339,0,0,0,8.471,5.551c3.525.849,7.158-.359,10.719.182,5.077.774,7.546,4.9,9.892,8.994a18.939,18.939,0,0,0,13.4,9.808c6.125,1.135,12.348-.765,17.467-4.128a37.132,37.132,0,0,0,7-6.172,21.321,21.321,0,0,1,5.363-4.751c4.008-2.146,8.451-.523,12.539.539a91.958,91.958,0,0,0,11.814,2.521c3.607.446,7.473.572,10.947-.663,4.2-1.494,6.5-4.975,7.575-9.16a1.387,1.387,0,0,1,2.671.738c-1.153,4.5-3.636,8.449-7.952,10.462-4.01,1.869-8.624,1.92-12.943,1.428a89.467,89.467,0,0,1-12.317-2.514c-1.627-.421-3.345-.982-5.057-1.339.665,13.166,4.157,30.627,19.028,33.944a24.275,24.275,0,0,0,14.792-1.5,24.174,24.174,0,0,0,6.939-4.609c1.8-1.7,3.452-3.583,5.975-4.146,3.341-.745,6.349,1.157,9.515,1.838a14.644,14.644,0,0,0,10.8-1.944c4.556-2.911,8.034-7.817,14.08-5.476,5.531,2.142,8.544,8.083,14.286,9.892,6.469,2.035,13.794-.809,19.917-2.86,6.465-2.166,13.135-5.01,17.824-10.147,4.622-5.066,7.172-12.688,4.208-19.205A1.35,1.35,0,0,1-474.491,106.505Z" transform="translate(19.052 225.341)" fill="#e9af16"/>
    <path id="Pfad_396" data-name="Pfad 396" d="M-485.827,287.26a412.83,412.83,0,0,0-59.939-9.052c-18.615-1.41-37.129-.186-55.758-.089-14.729.078-29.649-.732-43.678-5.58a76.637,76.637,0,0,1-29.47-18.288c-8.783-8.85-15.071-19.731-19.531-31.31-.643-1.669,2.037-2.383,2.672-.738,5.046,13.093,12.643,25.2,23.408,34.336a76.615,76.615,0,0,0,31.41,15.607c15.7,3.862,32.146,3.405,48.19,2.946,17.742-.508,35.245-.541,52.929,1.239a418.829,418.829,0,0,1,51.5,8.482c5.294-7.5,10.807-14.88,18.42-20.207,9.721-6.8,21.535-9.174,32.773-12.251s21.62-7.566,30.345-15.45a64.463,64.463,0,0,0,16.1-22.535,224.662,224.662,0,0,1-28.053,19.56,196.551,196.551,0,0,1-72.977,25.479c-26.925,3.625-54.455,1.124-80.659-5.8a258.77,258.77,0,0,1-74.471-33.23q-8.613-5.59-16.769-11.845c-5.108-3.92-10.451-7.883-14.88-12.581-7.844-8.32-9.2-18.361-8.185-29.332a15.076,15.076,0,0,1-8.529-1.406c-4.059-1.891-7.693-5.256-12.275-5.811a1.411,1.411,0,0,1-1.108-.783c-3.268,1.377-7.014,1.745-10.535,2.009-1.782.133-1.767-2.638,0-2.771,5.305-.4,12.772-1.086,14.9-7.014.96-2.676.461-5.673,1.255-8.409a21.007,21.007,0,0,1,3.257-6.3,24.718,24.718,0,0,0,2.365-3.113c.953-1.978-.188-3.057-1.4-4.518a15.881,15.881,0,0,1-2.955-5.449c-1.317-4.2-1.1-8.724-.76-13.064a7.574,7.574,0,0,1-5.613-2c-2.966-2.807-3.031-7.3-2.873-11.085.073-1.78,2.844-1.785,2.771,0-.1,2.492-.271,5.392.958,7.664,1.589,2.942,4.811,3.037,7.668,2.137,4.13-1.3,11.153-4.742,11.716-9.593.6-5.159-5.859-9.349-9.526-11.794-3.888-2.589-8.023-4.775-11.983-7.252a73.494,73.494,0,0,1-19.154-17.155A65.676,65.676,0,0,1-736.48,35.139a22.5,22.5,0,0,1-2.767,6.653,22.827,22.827,0,0,1-2.9,3.729c-.672.7-1.4,1.339-2.117,1.989a6.687,6.687,0,0,1,1.024,1.559,26.3,26.3,0,0,1,1.864,7.824,36.733,36.733,0,0,1,.486,5.4,6.9,6.9,0,0,1,5.261,2.5,1.394,1.394,0,0,1-.5,1.9,1.431,1.431,0,0,1-1.9-.5,4.139,4.139,0,0,0-3.234-1.219c-1.128,3.942-5.338,4.764-9.01,4.908-6.7.266-13.412.293-20.114.31-3.35.009-6.706.029-10.058-.038-2.206-.047-4.465-.177-6.263-1.6-3.565-2.811-3.141-8.231-1.847-12.071,1.8-5.318,5.345-10.094,8.5-14.674,5.438-7.9,11.779-17.079,22.068-18.352,1.769-.219,1.747,2.554,0,2.771-9.349,1.155-15.328,10.608-20.172,17.7a81.93,81.93,0,0,0-6.81,11.063c-1.565,3.33-3.687,10.777,1.534,12.12,2.23.574,4.817.286,7.105.3s4.573.011,6.859,0c1.572-.007,3.146-.047,4.718-.062a1.324,1.324,0,0,1,.042-.146c1.164-2.277,6.58-12.069,11.92-17.405a1.042,1.042,0,0,1,.126-.333,20.949,20.949,0,0,0,3.729-15.241,1.42,1.42,0,0,1,.966-1.7,1.4,1.4,0,0,1,1.7.969,24.022,24.022,0,0,1-1.567,12.949,4.283,4.283,0,0,1,.814-.131c.922-.9,1.918-1.731,2.82-2.658a19.269,19.269,0,0,0,2.554-3.257,20.455,20.455,0,0,0,2.875-7.954,1.363,1.363,0,0,1,1.567-.975,61.451,61.451,0,0,1,.308-21.945l.013-.031c-1.386-12.6,1.909-25.255,6.737-36.848,5.746-13.794,13.732-26.6,22.626-38.572a227.57,227.57,0,0,1,56.567-54.324,1.256,1.256,0,0,1,.064-1.8,269.684,269.684,0,0,1,27.811-22.894c9.282-6.8,18.656-13.554,28.41-19.666,15.669-9.817,32.724-17.957,51.074-21.1a105.483,105.483,0,0,1,57.266,6.5c9.823,3.988,18.5,9.63,27.384,15.335,9.316,5.981,19.3,10.049,29.481,14.282,8.44,3.507,16.461,7.489,23.431,13.488A81.688,81.688,0,0,1-389.5-115.832a1.248,1.248,0,0,1-.3,1.674,180.155,180.155,0,0,1,39.747,44.37c-4.471-14.811-12.557-28.233-21.91-40.523a262.222,262.222,0,0,0-31.1-34.03,292.521,292.521,0,0,0-95.945-58.3,1.311,1.311,0,0,1-1.279,1.723c-33.041-.723-66.422,6.114-95.816,21.447a185.936,185.936,0,0,0-37.4,26.24c-11.515,10.225-22.256,21.309-34.034,31.241-24.209,20.411-53.789,32.458-82.545,44.891-27.938,12.08-56.009,25.231-78,46.822A121.664,121.664,0,0,0-853.355,5.663c-6.274,13.523-10.728,27.792-15.78,41.794a1.479,1.479,0,0,1-2.554.364,138.291,138.291,0,0,0,3.882,22.251,1.275,1.275,0,0,1-.137,1.026,81.472,81.472,0,0,0,2.514,13.284c.854,2.8,1.922,5.511,2.685,8.336,1.237,4.585,1.98,9.273,3.082,13.887,1.142,4.78,2.452,9.517,3.773,14.248a270.409,270.409,0,0,0,10.776,31.691c8.546,20.431,20.252,39.233,33.181,57.148a39.267,39.267,0,0,0,4.33-4.361c4.192-4.846,7.992-9.75,13.492-13.215a39.505,39.505,0,0,1,30.64-4.833,34.116,34.116,0,0,1,6.833,2.323,21.2,21.2,0,0,1,11.723,12.809c1.734,5.409,2.279,15.022,8.526,17.17a8.845,8.845,0,0,0,1.319.137c3.219.062,6.489-1.142,9.606-.062a7.47,7.47,0,0,1,2,.612,10.422,10.422,0,0,1,4.733,5.582,54.78,54.78,0,0,1,3.875,21.881c-.206,13.313-5.409,26.761-15.942,35.265-.929.749-1.891,1.43-2.869,2.073,8.806-.151,17.629-.35,26.419-.06a73.12,73.12,0,0,1,16.647,2.372,60.291,60.291,0,0,1,9.783,3.305c7.784,3.412,14.929,8.063,22.369,12.127a82.63,82.63,0,0,0,18.19,7.438c2,.5,4.024.927,6.1,1.253,9.473,1.49,19.119,1.417,28.683,1.366a1.189,1.189,0,0,1,.82.317h.395a1.184,1.184,0,0,1,.889.381,160.68,160.68,0,0,0,45.7,5.254,225.4,225.4,0,0,0,23.284-1.767c4-.5,7.994-1.111,11.972-1.8.8-.137,6.781-1.033,9.437-1.667a1.208,1.208,0,0,1,.656-1.3,70.281,70.281,0,0,0,15.629-11.568A96.96,96.96,0,0,0-485.827,287.26ZM-806.97,54.253c6.473-4.824,9.061-12.854,12.395-19.862a45.323,45.323,0,0,1,13.337-16.864,44.991,44.991,0,0,1,20.2-8.755c3.449-.548,15.6-2.374,14.361,4.274-.328,1.754-3,1.006-2.674-.736.375-2.013-8.708-1.159-9.686-1.042A41.618,41.618,0,0,0-769.052,13.8a42.4,42.4,0,0,0-16.241,11.224c-8.462,9.48-9.8,23.808-20.278,31.618C-807.005,57.712-808.384,55.306-806.97,54.253Zm76.662,76.094c-6.159,11.045-23.049,21.165-34.376,11.122-1.337-1.186.63-3.139,1.96-1.96,6.349,5.629,16.029,2.949,22.183-1.585a28.946,28.946,0,0,0,10.894-17.09c2.725-12.466-3.361-24.482-13.956-31.124-10.074-6.316-22.571-7.571-34.185-6.518-26.377,2.394-52.233,17.558-60.423,43.933-.53,1.7-3.2.971-2.674-.736,5.219-16.807,17.964-30.574,33.777-38.08,21.688-10.291,55.525-14.148,73.088,5.937A31.525,31.525,0,0,1-730.308,130.347Z" transform="translate(94.276 10.457)" fill="#e9af16"/>
  </g>
</svg>
