<svg xmlns="http://www.w3.org/2000/svg" width="638.481" height="638.113" viewBox="0 0 638.481 638.113">
  <g id="Gruppe_1" data-name="Gruppe 1" transform="translate(-1059.362 304.632) rotate(-9)">
    <g id="Gruppe_1-2" data-name="Gruppe 1" transform="translate(1128.118 -41.07)">
      <path id="Pfad_3" data-name="Pfad 3" d="M1151.607-6.146c-1.46-1.649-2.315-4.106-3.319-6.052l-2.588-5.014c-.691-1.337-1.457-3.806-2.749-4.713a1.648,1.648,0,0,0-1.576-.12,1.638,1.638,0,0,1,1.562.125c1.292.909,2.059,3.376,2.749,4.713l2.589,5.014c1,1.946,1.858,4.4,3.318,6.053a4.146,4.146,0,0,0,4.853,1.181A4.146,4.146,0,0,1,1151.607-6.146Z" transform="translate(-1098.638 60.293)" fill="#e9af16"/>
      <path id="Pfad_4" data-name="Pfad 4" d="M1131.552-20.194c3.586-2.783,7.117-6.111,11.111-8.3a15.583,15.583,0,0,1,2.4-1.068,15.7,15.7,0,0,0-2.415,1.073c-3.994,2.186-7.525,5.514-11.111,8.3-1.752,1.361-3.5,2.734-5.259,4.082a16.544,16.544,0,0,1-3.554,2.339,16.483,16.483,0,0,0,3.568-2.344C1128.055-17.46,1129.8-18.834,1131.552-20.194Z" transform="translate(-1104.039 58.158)" fill="#e9af16"/>
      <path id="Pfad_5" data-name="Pfad 5" d="M1121.747-10.691a3.275,3.275,0,0,0,3.306.642,3.281,3.281,0,0,1-3.294-.649,3.389,3.389,0,0,1-2.563-3.2,3.1,3.1,0,0,1,1.986-2.907,3.107,3.107,0,0,0-2,2.912A3.391,3.391,0,0,0,1121.747-10.691Z" transform="translate(-1105.065 61.853)" fill="#e9af16"/>
      <path id="Pfad_6" data-name="Pfad 6" d="M1135.91,9.409a6.116,6.116,0,0,1-2.823-3.776,15.254,15.254,0,0,1-.365-2.37c-.03-.181-.068-.359-.115-.535-.018-.068-.044-.133-.065-.2-.051-.1-.122-.226-.192-.346l-.072-.084-.143-.155a11.981,11.981,0,0,0-.931-.842l-.245-.181c-.179-.13-.359-.258-.538-.386-.579-.415-1.15-.837-1.709-1.278-2.169-1.714-3.607-4.236-3.057-7.063a5.387,5.387,0,0,1,3.068-3.826,5.388,5.388,0,0,0-3.082,3.833c-.551,2.825.887,5.349,3.056,7.062.559.442,1.13.864,1.709,1.278.179.128.358.255.538.386.083.059.164.12.245.181a11.528,11.528,0,0,1,.931.843l.143.153.072.084c.07.12.14.25.192.346.022.066.048.132.064.2.047.177.085.356.116.536a15.155,15.155,0,0,0,.364,2.37,6.12,6.12,0,0,0,2.823,3.776,3.471,3.471,0,0,0,3.045.11A3.466,3.466,0,0,1,1135.91,9.409Z" transform="translate(-1103.228 63.35)" fill="#e9af16"/>
      <path id="Pfad_7" data-name="Pfad 7" d="M1130.68-1.112l.129.166C1130.751-1.041,1130.7-1.117,1130.68-1.112Z" transform="translate(-1101.735 66.395)" fill="#e9af16"/>
      <path id="Pfad_8" data-name="Pfad 8" d="M1136.563.516c0,.15.005.228.008.264l0,0a2.642,2.642,0,0,0-.011-.281Z" transform="translate(-1100.032 66.863)" fill="#e9af16"/>
      <path id="Pfad_9" data-name="Pfad 9" d="M1443.054-10.887a2.544,2.544,0,0,0,.29.195c.713.334.837.731.844,1.639.01,1.366-.807,2.947-1.38,4.315a14.753,14.753,0,0,0-.669,10.821,19.168,19.168,0,0,0,6.3,8.2c3.032,2.477,6.153,4.853,9.231,7.272a3.6,3.6,0,0,0,3.483.711,3.6,3.6,0,0,1-3.469-.716c-3.078-2.421-6.2-4.795-9.231-7.273a19.169,19.169,0,0,1-6.3-8.2,14.75,14.75,0,0,1,.669-10.82c.573-1.368,1.39-2.951,1.38-4.315-.008-.908-.131-1.305-.844-1.639a2.394,2.394,0,0,1-.29-.2c-2.816-.616-2.931-4.881-.37-6.065C1440.123-15.783,1440.233-11.506,1443.054-10.887Z" transform="translate(-1011.918 61.807)" fill="#e9af16"/>
      <path id="Pfad_10" data-name="Pfad 10" d="M1459.078,151.962q.01,1.706.021,3.412c.005.882.057,1.831.087,2.793,15.871-1.633,31.762-3.054,47.659-4.417l-35.758-1.39C1467.09,152.2,1463.085,152.087,1459.078,151.962Z" transform="translate(-1006.639 110.722)" fill="#e9af16"/>
      <path id="Pfad_11" data-name="Pfad 11" d="M1304.243,102.772a87.626,87.626,0,0,0-12.243-.3q.333,17.62.664,35.24a89.874,89.874,0,0,1,5.011-15.771C1300.156,115.612,1302.382,109.247,1304.243,102.772Z" transform="translate(-1055.021 96.366)" fill="#e9af16"/>
      <path id="Pfad_12" data-name="Pfad 12" d="M1293.04,52.122c.471-.329.21-.159,0,0Z" transform="translate(-1054.72 81.756)" fill="#e9af16"/>
      <path id="Pfad_13" data-name="Pfad 13" d="M1291.308,67.016q.056,3.008.114,6.018l11.912-.437a5.433,5.433,0,0,1,.652.046q-.954-7.4-1.91-14.789a22.323,22.323,0,0,1-10.832,5.746Q1291.275,65.309,1291.308,67.016Z" transform="translate(-1055.24 83.471)" fill="#e9af16"/>
      <path id="Pfad_14" data-name="Pfad 14" d="M1295.259,49.25c.122-.282.2-.765,0,0Z" transform="translate(-1054.077 80.86)" fill="#e9af16"/>
      <path id="Pfad_15" data-name="Pfad 15" d="M1295.674,47.581c.083-.388.043-.224,0,0Z" transform="translate(-1053.957 80.428)" fill="#e9af16"/>
      <path id="Pfad_16" data-name="Pfad 16" d="M1452.2,152.656l-12.063.048a4.564,4.564,0,0,1-1.295,2.1c-3.016,2.708-6.16,5.222-9.393,7.6q10.523-1.362,21.064-2.58c.726-.084,1.453-.153,2.179-.235-.057-.333-.116-.663-.155-1.006A57.237,57.237,0,0,1,1452.2,152.656Z" transform="translate(-1015.218 110.923)" fill="#e9af16"/>
      <path id="Pfad_17" data-name="Pfad 17" d="M1392.587,30.9a21.723,21.723,0,0,0,3.721,1.135c-.056-.241-.113-.484-.169-.725a6.366,6.366,0,0,1-.093-2.432A38.087,38.087,0,0,0,1392.587,30.9Z" transform="translate(-1025.893 75.08)" fill="#e9af16"/>
      <path id="Pfad_18" data-name="Pfad 18" d="M1293.8,148.156a1.569,1.569,0,0,1,1.5-.76q2.637-2.743,5.274-5.487c-1.025-1.47-2.717-3.283-4.456-2.11a1.345,1.345,0,0,1-1.656-.015,3.457,3.457,0,0,1-1.738,1.854q.068,3.586.134,7.174l.745,0A1.543,1.543,0,0,1,1293.8,148.156Z" transform="translate(-1054.81 107.091)" fill="#e9af16"/>
      <path id="Pfad_19" data-name="Pfad 19" d="M1451.748,163.8c-.255-.1-.521-.193-.754-.313a1.428,1.428,0,0,0,.624.3C1451.662,163.794,1451.7,163.791,1451.748,163.8Z" transform="translate(-1008.98 114.058)" fill="#e9af16"/>
      <path id="Pfad_20" data-name="Pfad 20" d="M1432.955,152.743l-35.707.139q.418,7.529,1.14,15.04,7.062-1,14.126-1.99A194.093,194.093,0,0,0,1432.955,152.743Z" transform="translate(-1024.543 110.948)" fill="#e9af16"/>
      <path id="Pfad_21" data-name="Pfad 21" d="M1269.578,162.54a1.421,1.421,0,0,1-1.368.785c-.489-.01-.978,0-1.468-.005a178.761,178.761,0,0,0-22.385,23.045A53.733,53.733,0,0,0,1254.4,198.2l35.452-36.893C1283.337,163.333,1276.362,162.359,1269.578,162.54Z" transform="translate(-1068.817 113.428)" fill="#e9af16"/>
      <path id="Pfad_22" data-name="Pfad 22" d="M1262.377,203.83c-1.9-1.085-3.75-2.274-5.557-3.53l-24.762,25.77q5.492-4.229,11.037-8.387Q1252.6,210.579,1262.377,203.83Z" transform="translate(-1072.378 124.72)" fill="#e9af16"/>
      <path id="Pfad_23" data-name="Pfad 23" d="M1218.142,231.247c-7.514,10.556-14.717,21.376-22.5,31.739,6.635-6.02,12.372-13.049,18.736-19.329,7.143-7.049,14.767-13.566,22.383-20.092l1.323-1.376,22.617-23.537a65.062,65.062,0,0,1-9.664-10.82Q1233.962,209.046,1218.142,231.247Z" transform="translate(-1082.925 121.109)" fill="#e9af16"/>
      <path id="Pfad_24" data-name="Pfad 24" d="M1286.968,148.084q-.056-3.016-.114-6.031a13.776,13.776,0,0,0-2.963,2.958l2.792,3.073Z" transform="translate(-1057.369 107.853)" fill="#e9af16"/>
      <path id="Pfad_25" data-name="Pfad 25" d="M1275.856,79.089a5.241,5.241,0,0,1-1.331-.135c-1.317,5.652-2.707,11.29-3.607,17.029a1.468,1.468,0,0,1,.61.654q1.347,2.7,2.609,5.433a101.589,101.589,0,0,1,15.315-3.238q-.192-10.113-.382-20.226Z" transform="translate(-1061.126 89.48)" fill="#e9af16"/>
      <path id="Pfad_26" data-name="Pfad 26" d="M1282.395,62.37a26.755,26.755,0,0,1-4.292-1.631c-.32,1.655-.63,3.312-.962,4.964-.486,2.417-.993,4.829-1.506,7.241l11.858-.435q-.087-4.61-.174-9.22A27.422,27.422,0,0,1,1282.395,62.37Z" transform="translate(-1059.76 84.306)" fill="#e9af16"/>
      <path id="Pfad_27" data-name="Pfad 27" d="M1222.607,89.879c7.657,8.795,14.3,18.287,21.39,27.526,3.683,4.8,7.505,9.484,11.423,14.087,1.391-1.707,2.854-3.35,4.4-4.907l-43.991-48.448c-5.5-4.982-11.431-9.615-17.11-14.469.467.52.93,1.042,1.4,1.559C1207.585,73.471,1215.3,81.489,1222.607,89.879Z" transform="translate(-1082.032 85.154)" fill="#e9af16"/>
      <path id="Pfad_28" data-name="Pfad 28" d="M1283.258,27.992q-.389,2.567-.783,5.131a20.081,20.081,0,0,1,2.11-.378q-.043-2.275-.086-4.55C1284.082,28.142,1283.67,28.062,1283.258,27.992Z" transform="translate(-1057.779 74.823)" fill="#e9af16"/>
      <path id="Pfad_29" data-name="Pfad 29" d="M1244.069,182.83a187.8,187.8,0,0,1,19.026-19.849,76.735,76.735,0,0,0-23.767,5.292A48.6,48.6,0,0,0,1244.069,182.83Z" transform="translate(-1070.273 113.913)" fill="#e9af16"/>
      <path id="Pfad_30" data-name="Pfad 30" d="M1283.428,41.682c-.119.04-.781.328-.967.392l-.264.146c-.317.177-.622.374-.926.573q-.964,5.83-1.995,11.65c.163.17.321.343.492.507.135.13.588.475.678.558.159.1.315.206.477.3a14.194,14.194,0,0,0,1.757.859c.138.048.307.106.364.123.455.129.9.286,1.358.411.544.148,1.1.249,1.648.359q-.155-8.217-.31-16.434A15.481,15.481,0,0,0,1283.428,41.682Z" transform="translate(-1058.705 78.626)" fill="#e9af16"/>
      <path id="Pfad_31" data-name="Pfad 31" d="M1257.34,115.511c2.124,2.168,4.24,4.342,6.369,6.5l27.583,27.879c.268-.242.536-.482.82-.708a1.528,1.528,0,0,1-.236-.618,210.164,210.164,0,0,0-5.655-24.7,1.415,1.415,0,0,1-1.577-.395c-3.925-4.129-8.667-7.245-13.371-10.4-1.617-1.086-3.211-2.205-4.823-3.3A71.117,71.117,0,0,0,1257.34,115.511Z" transform="translate(-1065.057 98.503)" fill="#e9af16"/>
      <path id="Pfad_32" data-name="Pfad 32" d="M1282.01,120.359q-2.391-7.515-5.344-14.838a80.9,80.9,0,0,0-9.73,3.833l5.792,3.909A79.333,79.333,0,0,1,1282.01,120.359Z" transform="translate(-1062.279 97.274)" fill="#e9af16"/>
      <path id="Pfad_33" data-name="Pfad 33" d="M1282.481,155.421a15.419,15.419,0,0,0,.891,3.567l2.715-2.825-2.6-2.867-1.34.005C1282.246,154.014,1282.363,154.724,1282.481,155.421Z" transform="translate(-1057.875 111.108)" fill="#e9af16"/>
      <path id="Pfad_34" data-name="Pfad 34" d="M1187.614,48.433a88.141,88.141,0,0,0,14.363,15.315L1190.4,51Q1189.029,49.691,1187.614,48.433Z" transform="translate(-1085.249 80.743)" fill="#e9af16"/>
      <path id="Pfad_35" data-name="Pfad 35" d="M1240.1,147.908l12.649-.049a97.586,97.586,0,0,1-11.611-4.395Q1240.575,145.665,1240.1,147.908Z" transform="translate(-1070.049 108.261)" fill="#e9af16"/>
      <path id="Pfad_36" data-name="Pfad 36" d="M1241.073,145.351a94.649,94.649,0,0,0,25.452,7.823l8.629-.034c-8.776-9.11-17.538-18.237-25.985-27.655-.168-.187-.331-.378-.5-.565a46.3,46.3,0,0,0-7.651,20.2C1241.042,145.2,1241.054,145.276,1241.073,145.351Z" transform="translate(-1069.783 102.891)" fill="#e9af16"/>
      <path id="Pfad_37" data-name="Pfad 37" d="M1239.073,167.8a79.307,79.307,0,0,1,8.013-2.637,80.654,80.654,0,0,1,20.114-2.756,1.611,1.611,0,0,1,1.167-.622c8.052-.708,16.543,1.237,24.23-1.973a1.2,1.2,0,0,1,.165-.043l.017-.034a20.419,20.419,0,0,1-.838-3.461c-.165-.985-.321-1.973-.449-2.965l-30.353.119-21.981.085A67.934,67.934,0,0,0,1239.073,167.8Z" transform="translate(-1070.444 111.112)" fill="#e9af16"/>
      <path id="Pfad_38" data-name="Pfad 38" d="M1248.45,124c9.211,10.315,18.815,20.291,28.4,30.242a1.615,1.615,0,0,1,.384.629l8.355-.032q-7.672-8.447-15.341-16.9-8.659-9.533-17.314-19.068A54.3,54.3,0,0,0,1248.45,124Z" transform="translate(-1067.632 101.141)" fill="#e9af16"/>
      <path id="Pfad_39" data-name="Pfad 39" d="M1404.53,166.327l-6.142.861c.085.812.165,1.624.257,2.436Q1401.581,167.971,1404.53,166.327Z" transform="translate(-1024.213 114.882)" fill="#e9af16"/>
      <path id="Pfad_40" data-name="Pfad 40" d="M1287.938,103.037c-.142.018-.286.028-.427.048a81.077,81.077,0,0,0-10.629,2.227,211.342,211.342,0,0,1,11.872,41.069q-.213-11.248-.424-22.5Q1288.134,113.46,1287.938,103.037Z" transform="translate(-1059.399 96.555)" fill="#e9af16"/>
      <path id="Pfad_41" data-name="Pfad 41" d="M1282.492,194.628a1.4,1.4,0,0,1-.493,1.224c-1.355,3.29-2.783,6.551-4.207,9.834-.559,1.29-1.082,2.609-1.544,3.949a61.335,61.335,0,0,0,14.25.128q-.367-19.547-.736-39.092a146.449,146.449,0,0,1-3.715,14.254C1285,188.225,1283.781,191.441,1282.492,194.628Z" transform="translate(-1059.582 116.139)" fill="#e9af16"/>
      <path id="Pfad_42" data-name="Pfad 42" d="M1307.165,98.749c.24-1.148.455-2.306.667-3.465a1.689,1.689,0,0,1-.38-.878q-1.077-8.347-2.156-16.695a5.647,5.647,0,0,1-1.833.406l-11.917.437q.187,9.885.372,19.769c.145-.008.289-.019.432-.026A95.816,95.816,0,0,1,1307.165,98.749Z" transform="translate(-1055.152 89.221)" fill="#e9af16"/>
      <path id="Pfad_43" data-name="Pfad 43" d="M1292.645,334.486q-.207-4.656-.4-9.315a3.857,3.857,0,0,1-1.482-3.105q-.354-18.707-.705-37.417a19.339,19.339,0,0,1-5.308-3.038q2.689,28.658,6.353,57.213a1.662,1.662,0,0,1,.066.468c0,.021,0,.04,0,.061.066.507.127,1.014.193,1.519a1.384,1.384,0,0,1-.151.885,108.769,108.769,0,0,0,1.911,14.557c.092-1.875.179-3.751.276-5.626q-.356-7.314-.678-14.629A1.823,1.823,0,0,1,1292.645,334.486Z" transform="translate(-1057.121 148.265)" fill="#e9af16"/>
      <path id="Pfad_44" data-name="Pfad 44" d="M1275.389,209.519a39.641,39.641,0,0,0,1,4.207,180.848,180.848,0,0,1,4.815,20.163c1.626,9.672,2.359,19.476,3.032,29.273a14.474,14.474,0,0,1,7.756,1.2q-.108-5.737-.217-11.475-.406-21.6-.812-43.2A72.589,72.589,0,0,1,1275.389,209.519Z" transform="translate(-1059.831 127.389)" fill="#e9af16"/>
      <path id="Pfad_45" data-name="Pfad 45" d="M1195.086,146.156a16.787,16.787,0,0,0-1.306-4.618c-3.051-6.862-11.29-7.879-18.044-6.87-7.432,1.11-14.041,5.479-15.684,12.781a5.867,5.867,0,0,1-.164,1.791q-.221.851-.39,1.715l7.927-.03c.724-.121,1.448-.24,2.173-.361Q1182.356,148.439,1195.086,146.156Z" transform="translate(-1093.39 105.618)" fill="#e9af16"/>
      <path id="Pfad_46" data-name="Pfad 46" d="M1243.14,139.361c-.878-.544-1.742-1.109-2.6-1.683a1.539,1.539,0,0,1-.65.288q-22,4.447-44.075,8.475a32.2,32.2,0,0,1-.071,3.366l7.883-.031,37.831-.147q.57-3.1,1.33-6.164a3.9,3.9,0,0,1-.035-1.014Q1242.919,140.9,1243.14,139.361Z" transform="translate(-1082.895 106.586)" fill="#e9af16"/>
      <path id="Pfad_47" data-name="Pfad 47" d="M1160.88,157.207a14.555,14.555,0,0,0,3.228,3.624c1.713.258,3.425.509,5.136.775q5.4.838,10.791,1.713a23.6,23.6,0,0,0,11.912-9.637l-32.455.126A11.976,11.976,0,0,0,1160.88,157.207Z" transform="translate(-1093.391 111.22)" fill="#e9af16"/>
      <path id="Pfad_48" data-name="Pfad 48" d="M1196.086,153.684a33.36,33.36,0,0,1-7.858,12.366c16.96,2.746,33.94,5.367,51.052,7.006a1.611,1.611,0,0,1,1.238.743c.043-.019.08-.043.125-.059.819-.288,1.62-.625,2.413-.985a76.413,76.413,0,0,1-.6-19.251Z" transform="translate(-1085.071 111.168)" fill="#e9af16"/>
      <path id="Pfad_49" data-name="Pfad 49" d="M1189.032,146.011c-2.736.486-5.472.981-8.211,1.457l8.085-.031C1188.968,146.964,1189.006,146.488,1189.032,146.011Z" transform="translate(-1087.216 108.999)" fill="#e9af16"/>
      <path id="Pfad_50" data-name="Pfad 50" d="M1191.46,252.122a1.541,1.541,0,0,1-.228-.162c-.233.29-.472.578-.708.868Z" transform="translate(-1084.406 139.679)" fill="#e9af16"/>
      <path id="Pfad_51" data-name="Pfad 51" d="M1290.342,277.609q-.133-7.084-.267-14.167a24.672,24.672,0,0,1-3.843-2.6c-1.318-1.06-2.349-1.168-3.35-.766.031.409.059.819.092,1.226q.553,6.958,1.163,13.911a13.853,13.853,0,0,1,5.766,2.075C1290.053,277.384,1290.2,277.5,1290.342,277.609Z" transform="translate(-1057.661 141.966)" fill="#e9af16"/>
      <path id="Pfad_52" data-name="Pfad 52" d="M1140.329,153.869l-.184.025c-.37.3-.757.592-1.175.873-.665.447-1.351.861-2.014,1.31-.129.12-.234.263-.357.388.114.01.228.017.343.028,6.327.606,12.639,1.35,18.94,2.182a25.829,25.829,0,0,1-1.194-4.862Z" transform="translate(-1100.021 111.258)" fill="#e9af16"/>
      <path id="Pfad_53" data-name="Pfad 53" d="M1288.743-35.78c-.316,6.661-.419,13.334-.388,20.03,0,.2,0,.4,0,.6.1.01.206.039.31.053Q1288.7-25.437,1288.743-35.78Z" transform="translate(-1056.078 56.356)" fill="#e9af16"/>
      <path id="Pfad_54" data-name="Pfad 54" d="M1234.48,89.928l20.607,22.7c.7.659,1.393,1.332,2.087,2a76.629,76.629,0,0,1,6.85-4.783q-17.162-11.968-33.84-24.645Q1232.332,87.564,1234.48,89.928Z" transform="translate(-1072.921 91.389)" fill="#e9af16"/>
      <path id="Pfad_55" data-name="Pfad 55" d="M1317.137,159.952c.117.071.249.125.364.2,2.53,1.624,4.078,4.292,5.766,6.7q2.766,3.942,5.58,7.851c1.127,1.563,2.27,3.114,3.41,4.667a78.232,78.232,0,0,0,7.394-14.059C1332.238,163.175,1324.691,161.52,1317.137,159.952Z" transform="translate(-1047.742 113.036)" fill="#e9af16"/>
      <path id="Pfad_56" data-name="Pfad 56" d="M1324.839,189.444c.848-.821,1.692-1.649,2.5-2.506q-10.289-9.295-21.107-17.983l13.692,15.079Z" transform="translate(-1050.898 115.643)" fill="#e9af16"/>
      <path id="Pfad_57" data-name="Pfad 57" d="M1333.427,184.409c-.887,1.126-1.8,2.234-2.738,3.313q2.316,2.194,4.606,4.412c6.956,6.76,13.557,13.877,20.563,20.588,2.61,2.5,5.278,4.94,7.963,7.361q-11.775-12.324-22.525-25.645Q1337.294,189.476,1333.427,184.409Z" transform="translate(-1043.817 120.118)" fill="#e9af16"/>
      <path id="Pfad_58" data-name="Pfad 58" d="M1361.389,227.459q15.171,9.832,30.344,19.666c.71.462,1.43.921,2.151,1.379q-9.509-8.349-19.016-16.7c-7.555-6.634-15.164-13.222-22.342-20.268-6.891-6.765-13.5-13.8-20.472-20.491-.774-.743-1.558-1.473-2.337-2.21-1.03,1.1-2.079,2.178-3.165,3.219l28.315,31.183Q1358.126,225.349,1361.389,227.459Z" transform="translate(-1045.015 121.4)" fill="#e9af16"/>
      <path id="Pfad_59" data-name="Pfad 59" d="M1322.17,195.616c-.821.645-1.656,1.27-2.5,1.887q4.907,3.064,9.8,6.154Z" transform="translate(-1047.007 123.363)" fill="#e9af16"/>
      <path id="Pfad_60" data-name="Pfad 60" d="M1347.525,153.083l-42.7.166a2.78,2.78,0,0,0-.4,1.342c.174.959,1.888,1.074,2.671,1.237,1.447.3,2.9.6,4.344.895,10.265,2.111,20.578,4.092,30.688,6.875.784.215,1.57.442,2.354.668A75.671,75.671,0,0,0,1347.525,153.083Z" transform="translate(-1051.425 111.047)" fill="#e9af16"/>
      <path id="Pfad_61" data-name="Pfad 61" d="M1337.611,120.135a217.083,217.083,0,0,0-20.66,31.428,26.908,26.908,0,0,0,11.5-3.287c2.356-1.361,4.544-3,6.995-4.2a42.166,42.166,0,0,1,6.782-2.507c.773-.223,1.55-.437,2.327-.65a60.476,60.476,0,0,0-3.621-14.176A41.67,41.67,0,0,0,1337.611,120.135Z" transform="translate(-1047.796 101.506)" fill="#e9af16"/>
      <path id="Pfad_62" data-name="Pfad 62" d="M1308.421,152.2c2.644.181,5.3.338,7.946.342.184,0,.369-.008.553-.009a1.6,1.6,0,0,1,.183-.953,209.586,209.586,0,0,1,18.928-29.446c1.011-1.336,2.05-2.651,3.081-3.972-.21-.29-.409-.594-.624-.878l-33.181,34.53A20.633,20.633,0,0,0,1308.421,152.2Z" transform="translate(-1051.167 100.679)" fill="#e9af16"/>
      <path id="Pfad_63" data-name="Pfad 63" d="M1369.765,76q-13.144,8.732-25.593,18.4-9.987,7.747-19.91,15.583c.486.262.976.515,1.456.789a52.252,52.252,0,0,1,9.418,6.9l49.534-51.547C1379.723,69.447,1374.729,72.7,1369.765,76Z" transform="translate(-1045.678 85.865)" fill="#e9af16"/>
      <path id="Pfad_64" data-name="Pfad 64" d="M1337.16,110.967l.015.019c.077-.094.157-.187.236-.281Z" transform="translate(-1041.943 98.775)" fill="#e9af16"/>
      <path id="Pfad_65" data-name="Pfad 65" d="M1305.526,146.664a11.724,11.724,0,0,1-2.008-.578l-.719.747,2.5-.01A1.657,1.657,0,0,1,1305.526,146.664Z" transform="translate(-1051.893 109.02)" fill="#e9af16"/>
      <path id="Pfad_66" data-name="Pfad 66" d="M1343.767,167.854c.462.179.929.344,1.387.531,3.8,1.55,7.406,3.584,9.6,7.174a1.629,1.629,0,0,1,.224.6l42.846-6.013q2.468-.346,4.937-.7-.834-8.271-1.305-16.567l-10.861.043-8.067.031c.465,4.187.891,8.377,1.105,12.584a5.636,5.636,0,0,1-11.27.217c-.217-4.265-.651-8.511-1.125-12.756l-23.677.093A86.537,86.537,0,0,1,1343.767,167.854Z" transform="translate(-1040.03 110.989)" fill="#e9af16"/>
      <path id="Pfad_67" data-name="Pfad 67" d="M1369.314,149.376c-.387-3.594-.709-7.191-.9-10.8-7.055-.961-14.134-1.764-21.241-2.343a79.091,79.091,0,0,1,.329,13.226Z" transform="translate(-1039.044 106.168)" fill="#e9af16"/>
      <path id="Pfad_68" data-name="Pfad 68" d="M1428.2,149.81c-3.789-1.858-7.516-3.7-11.154-5.895q-10.1-6.1-20.183-12.206c-.079,4.057-.058,8.113.005,12.168q8.861,1.683,17.723,3.379C1419.117,148.113,1423.652,148.988,1428.2,149.81Z" transform="translate(-1024.67 104.858)" fill="#e9af16"/>
      <path id="Pfad_69" data-name="Pfad 69" d="M1343.958,138.77c-.947.263-1.892.529-2.829.815a31.848,31.848,0,0,0-7.008,2.974c-2.351,1.39-4.557,3.03-7.044,4.183a28.524,28.524,0,0,1-6.863,2.121l7.234-.028,16.578-.064A67.743,67.743,0,0,0,1343.958,138.77Z" transform="translate(-1046.85 106.902)" fill="#e9af16"/>
      <path id="Pfad_70" data-name="Pfad 70" d="M1414.141,146.984l-4.139-.792q-6.548-1.248-13.1-2.5c.027,1.119.032,2.239.068,3.358Z" transform="translate(-1024.643 108.328)" fill="#e9af16"/>
      <path id="Pfad_71" data-name="Pfad 71" d="M1299.952,162.036q11.761,8.95,22.981,18.58,4.238,3.65,8.382,7.41c1.4-1.609,2.717-3.286,3.976-5.011q-2.66-3.61-5.274-7.25-2.381-3.321-4.726-6.667c-1.634-2.332-3.025-4.682-5.664-5.978-2.593-1.274-5.41-2.188-8.1-3.245l-7.359-2.889a1.182,1.182,0,0,1-.052.148A21.061,21.061,0,0,1,1299.952,162.036Z" transform="translate(-1052.718 112.177)" fill="#e9af16"/>
      <path id="Pfad_72" data-name="Pfad 72" d="M1300.951,187.462q1.286,6,2.571,12a75.662,75.662,0,0,0,8.185-4.226,55.786,55.786,0,0,1-10.123-7.1C1301.357,187.921,1301.162,187.686,1300.951,187.462Z" transform="translate(-1052.429 121.002)" fill="#e9af16"/>
      <path id="Pfad_73" data-name="Pfad 73" d="M1321.13,195.088q-12.049-13.27-24.1-26.541c.847,4.1,1.7,8.2,2.666,12.277a18.736,18.736,0,0,0,9.823,13.947q3.161,2.05,6.349,4.06C1317.666,197.649,1319.431,196.412,1321.13,195.088Z" transform="translate(-1053.564 115.525)" fill="#e9af16"/>
      <path id="Pfad_74" data-name="Pfad 74" d="M1392.651,142.827c-6.72-1.233-13.449-2.41-20.195-3.477.2,3.032.5,6.056.824,9.08l19.5-.076C1392.719,146.512,1392.683,144.67,1392.651,142.827Z" transform="translate(-1031.722 107.07)" fill="#e9af16"/>
      <path id="Pfad_75" data-name="Pfad 75" d="M1293.182,165.238q.288,15.262.575,30.524.133,7.068.267,14.135a69.176,69.176,0,0,0,8.721-2.758q-1.42-6.625-2.84-13.249-1.638-7.648-3.277-15.3l-1.671-7.8C1294.782,169.976,1294.362,165.478,1293.182,165.238Z" transform="translate(-1054.678 114.566)" fill="#e9af16"/>
      <path id="Pfad_76" data-name="Pfad 76" d="M1291.153,56.754c.17-.086.529-.26.7-.357.285-.16.566-.329.841-.5s.542-.364.811-.549l.073-.052a18.977,18.977,0,0,0,1.511-1.5l.248-.3c.143-.222.482-.707.476-.7.253-.417.462-.852.69-1.283.009-.017.017-.039.026-.059.16-.61.343-1.21.477-1.829l.015-.068c.017-.37.034-.738.027-1.109-.006-.324-.059-.654-.053-.976,0-.039.005-.043.006-.07-.014-.046-.022-.066-.037-.123-.133-.466-.276-.936-.4-1.4a1.721,1.721,0,0,0-.071-.191c-.265-.486-.558-.948-.844-1.422-.019-.021-.037-.044-.055-.061-.32-.3-.633-.61-.957-.908-.058-.054-.085-.081-.115-.112-.358-.246-.726-.477-1.1-.7-.755-.442-1.544-.814-2.331-1.2-.048-.023-.143-.063-.236-.1,0,.237,0,.475,0,.711q.139,7.426.28,14.852Z" transform="translate(-1055.352 78.647)" fill="#e9af16"/>
      <path id="Pfad_77" data-name="Pfad 77" d="M1294.581,43.586c.376.623.2.232,0,0Z" transform="translate(-1054.273 79.339)" fill="#e9af16"/>
      <path id="Pfad_78" data-name="Pfad 78" d="M1298.331,25.008a16.762,16.762,0,0,1-5.8,3.3c-.522.172-1.072.3-1.621.42l-.021,5.4a28.088,28.088,0,0,1,8.322,3.354Q1298.773,31.242,1298.331,25.008Z" transform="translate(-1055.341 73.959)" fill="#e9af16"/>
      <path id="Pfad_79" data-name="Pfad 79" d="M1293.363,164.9l-18.7,19.462q-8.647,9-17.293,18a58.533,58.533,0,0,0,8.435,4.543q9.4-6.084,19.154-11.615A149.305,149.305,0,0,0,1293.363,164.9Z" transform="translate(-1065.05 114.468)" fill="#e9af16"/>
      <path id="Pfad_80" data-name="Pfad 80" d="M1292.052,24.817l.168-.206c.052-.077.121-.179.231-.34q.288-.453.547-.921c.217-.395.409-.8.6-1.211-.048.041.44-1.248.487-1.417.147-.515.272-1.036.381-1.559a18.525,18.525,0,0,0,.425-3.857c.129-3.161-.031-6.327.005-9.49a5.763,5.763,0,0,1,1.153-3.42q-.348-4.909-.7-9.82c-.242.359-.5.7-.769,1.038a4.327,4.327,0,0,1-.613.636,10.811,10.811,0,0,1-2.907,1.858q-.056,14.9-.113,29.809c.158-.126.325-.259.393-.328Q1291.712,25.217,1292.052,24.817Z" transform="translate(-1055.326 64.567)" fill="#e9af16"/>
      <path id="Pfad_81" data-name="Pfad 81" d="M1295.908,267.916c1.314-1.468,2.157-2.872,3.856-3.938q2.931-25.472,6.595-50.852a2.03,2.03,0,0,1-.068-.215q-.712-3.321-1.422-6.64A81.888,81.888,0,0,1,1294,209.352q.559,29.665,1.118,59.331A6.318,6.318,0,0,0,1295.908,267.916Z" transform="translate(-1054.442 126.448)" fill="#e9af16"/>
      <path id="Pfad_82" data-name="Pfad 82" d="M1275.776,202.885a83.948,83.948,0,0,1,3.4-8.238c.36-.792.692-1.594,1.038-2.391q-6.809,3.954-13.445,8.2c.411.147.815.316,1.229.454A57.338,57.338,0,0,0,1275.776,202.885Z" transform="translate(-1062.328 122.39)" fill="#e9af16"/>
      <path id="Pfad_83" data-name="Pfad 83" d="M1298.93,155.617a3.611,3.611,0,0,1-2.186,1.8,6.148,6.148,0,0,1-1.737.151l3.292,3.626a1.139,1.139,0,0,1,.376.027q.074-.058.143-.116c.169-.139.337-.282.5-.428a19.538,19.538,0,0,0,1.99-2.036c.142-.166.277-.338.415-.509l.016-.018.044-.061c.071-.1.145-.2.215-.3.269-.377.524-.763.768-1.157a1.592,1.592,0,0,1,.616-.558,1.724,1.724,0,0,1,.6-1.373,4.952,4.952,0,0,1,.209-1.443l-4.389.017A7.836,7.836,0,0,1,1298.93,155.617Z" transform="translate(-1054.15 111.087)" fill="#e9af16"/>
      <path id="Pfad_84" data-name="Pfad 84" d="M1298.692,125.09c-.885,2.44-1.717,4.9-2.436,7.394a48.91,48.91,0,0,0-1.6,7.425,58.745,58.745,0,0,0-.212,6.457,5.657,5.657,0,0,1,5.87.705,8.481,8.481,0,0,1,2.017,2.09q8.955-9.318,17.91-18.637l15.631-16.267a47.669,47.669,0,0,0-13.048-7.966q-11.68,9.231-23.364,18.455A1.713,1.713,0,0,1,1298.692,125.09Z" transform="translate(-1054.313 97.497)" fill="#e9af16"/>
      <path id="Pfad_85" data-name="Pfad 85" d="M1295.276,276.586a17.206,17.206,0,0,1,1.214-1.363q.592-5.991,1.225-11.976a15.393,15.393,0,0,1-2.677.664Q1295.158,270.248,1295.276,276.586Z" transform="translate(-1054.141 142.947)" fill="#e9af16"/>
      <path id="Pfad_86" data-name="Pfad 86" d="M1294.432-6.908q-1.59-22.413-3.18-44.828-.074,19.193-.147,38.388-.008,1.917-.016,3.835A10.518,10.518,0,0,1,1294.432-6.908Z" transform="translate(-1055.284 51.736)" fill="#e9af16"/>
      <path id="Pfad_87" data-name="Pfad 87" d="M1304.95,104.849c-1.563,5.371-3.625,10.565-5.632,15.777l18.644-14.683a67.236,67.236,0,0,0-12.5-2.948C1305.289,103.613,1305.129,104.234,1304.95,104.849Z" transform="translate(-1052.901 96.542)" fill="#e9af16"/>
      <path id="Pfad_88" data-name="Pfad 88" d="M1301.3-42.078a11.1,11.1,0,0,0,.881-1.765c.707-1.863.394-3.754-1.751-4.293-1.972-.5-4.025.5-5.775,1.3a1.732,1.732,0,0,1-.614.153q.372,5.19.742,10.379C1296.945-38.186,1299.091-40.173,1301.3-42.078Z" transform="translate(-1054.431 52.74)" fill="#e9af16"/>
      <path id="Pfad_89" data-name="Pfad 89" d="M1451.661,298.474v-.015l-.005-.005Z" transform="translate(-1008.788 153.142)" fill="#e9af16"/>
      <path id="Pfad_90" data-name="Pfad 90" d="M1459.909,319.629a3.836,3.836,0,0,1-3.189-2.949,7.379,7.379,0,0,1-.116-.869c-.084-.117-.237-.392-.184-.37-.159-.173-.322-.338-.49-.5-.027-.026-.1-.084-.157-.13-.264-.19-.535-.37-.8-.548a23.134,23.134,0,0,1-2.444-1.782,11.242,11.242,0,0,1-3.2-5.093c-1.284-4.005-.228-8.311,1.715-11.9a2.861,2.861,0,0,1,1.264-1.215,2.862,2.862,0,0,0-1.278,1.22c-1.943,3.593-3,7.9-1.715,11.9a11.253,11.253,0,0,0,3.2,5.093,23.169,23.169,0,0,0,2.444,1.783c.269.178.541.357.8.547.058.046.13.106.157.132.168.164.333.328.49.5-.053-.021.1.253.184.37a7.19,7.19,0,0,0,.117.869,3.831,3.831,0,0,0,3.188,2.949,3.69,3.69,0,0,0,2.049-.266A3.692,3.692,0,0,1,1459.909,319.629Z" transform="translate(-1009.63 151.93)" fill="#e9af16"/>
      <path id="Pfad_91" data-name="Pfad 91" d="M1467.989,311.149a7.561,7.561,0,0,1,1.72-.905,7.553,7.553,0,0,0-1.734.91c-2.21,1.551-4.3,3.317-6.436,4.966-1.6,1.235-4.221,3.818-6.787,4.841,2.572-1.019,5.2-3.609,6.8-4.846C1463.69,314.466,1465.779,312.7,1467.989,311.149Z" transform="translate(-1007.892 156.557)" fill="#e9af16"/>
      <path id="Pfad_92" data-name="Pfad 92" d="M1467.83,315.127a1.856,1.856,0,0,1-.134.133C1468.561,315.682,1468.375,314.432,1467.83,315.127Z" transform="translate(-1004.143 157.908)" fill="#e9af16"/>
      <path id="Pfad_93" data-name="Pfad 93" d="M1454.758,333.959c-2.452-.469-4.5-2.1-6.275-3.759s-3.464-3.434-5.074-5.259a89.547,89.547,0,0,1-8.871-11.931,2.841,2.841,0,0,1-.276-2.694,3.359,3.359,0,0,1,.1-1.064,4.816,4.816,0,0,1,2.51-3.07,4.817,4.817,0,0,0-2.524,3.076,3.364,3.364,0,0,0-.1,1.065,2.842,2.842,0,0,0,.276,2.694,89.555,89.555,0,0,0,8.871,11.93c1.611,1.825,3.3,3.6,5.074,5.26s3.825,3.288,6.275,3.758a7.718,7.718,0,0,0,4.592-.536A7.723,7.723,0,0,1,1454.758,333.959Z" transform="translate(-1013.893 155.38)" fill="#e9af16"/>
      <path id="Pfad_94" data-name="Pfad 94" d="M1117.734,347.736c-1.412-1.377-1.737-3.459-2.482-5.209a30.3,30.3,0,0,0-6.091-9.117,3.021,3.021,0,0,1-.406-3.842,6.992,6.992,0,0,1,1.535-6.7,3.473,3.473,0,0,1,.644-.543c1.181-1.5,2.62-2.868,3.907-4.231,1.56-1.652,3.153-3.277,4.815-4.827,2.81-2.618,5.984-5.506,9.447-7.227a7.047,7.047,0,0,1,.707-.3,7.444,7.444,0,0,0-.721.309c-3.464,1.72-6.637,4.609-9.448,7.227-1.662,1.55-3.255,3.175-4.815,4.827-1.287,1.363-2.725,2.735-3.907,4.232a3.367,3.367,0,0,0-.642.542,6.991,6.991,0,0,0-1.536,6.7,3.022,3.022,0,0,0,.406,3.842,30.3,30.3,0,0,1,6.091,9.117c.745,1.751,1.07,3.831,2.482,5.209a4.841,4.841,0,0,0,4.908,1.1A4.842,4.842,0,0,1,1117.734,347.736Z" transform="translate(-1108.235 155.25)" fill="#e9af16"/>
      <path id="Pfad_95" data-name="Pfad 95" d="M1124.179-8.766a2.542,2.542,0,0,1-.444.245,2.477,2.477,0,0,0,.458-.251,179.732,179.732,0,0,1,20.755-12.548,12.562,12.562,0,0,1,1.535-.757,12.249,12.249,0,0,0-1.548.763A179.259,179.259,0,0,0,1124.179-8.766Z" transform="translate(-1103.746 60.325)" fill="#e9af16"/>
      <path id="Pfad_96" data-name="Pfad 96" d="M1123.3-17.314a4.868,4.868,0,0,1-1.331.346,4.213,4.213,0,0,0-1.238.317,4.207,4.207,0,0,1,1.224-.312A4.829,4.829,0,0,0,1123.3-17.314Z" transform="translate(-1104.615 61.704)" fill="#e9af16"/>
      <path id="Pfad_97" data-name="Pfad 97" d="M1147.758-29.4c3.953,1.586,5.1,5.336,6.494,9,1.509,3.959,3.35,7.928,4.569,11.985.567,1.889.368,4.052-1.3,5.331a3.9,3.9,0,0,1-.688.422,3.822,3.822,0,0,0,.7-.428c1.671-1.278,1.871-3.441,1.3-5.331-1.219-4.057-3.059-8.025-4.568-11.985-1.4-3.666-2.542-7.415-6.494-9a10.945,10.945,0,0,0-7.725.01A10.941,10.941,0,0,1,1147.758-29.4Z" transform="translate(-1099.022 57.998)" fill="#e9af16"/>
      <path id="Pfad_98" data-name="Pfad 98" d="M1119.193-10.04a3.389,3.389,0,0,0,2.564,3.2,3.281,3.281,0,0,0,3.293.649,2.534,2.534,0,0,0,.444-.245,179.261,179.261,0,0,1,20.756-12.548,12.232,12.232,0,0,1,1.548-.763,1.648,1.648,0,0,1,1.576.12c1.292.908,2.058,3.376,2.749,4.713L1154.71-9.9c1,1.946,1.86,4.4,3.319,6.052a4.146,4.146,0,0,0,4.839,1.188,3.905,3.905,0,0,0,.689-.422c1.671-1.279,1.871-3.442,1.3-5.331-1.219-4.057-3.06-8.026-4.569-11.985-1.4-3.666-2.542-7.416-6.494-9a10.941,10.941,0,0,0-7.71.005,15.579,15.579,0,0,0-2.4,1.068c-3.994,2.186-7.525,5.514-11.111,8.3-1.752,1.361-3.5,2.734-5.259,4.082a16.486,16.486,0,0,1-3.568,2.344,4.831,4.831,0,0,1-1.345.351,4.206,4.206,0,0,0-1.224.312A3.1,3.1,0,0,0,1119.193-10.04Z" transform="translate(-1105.062 57.999)" fill="#e9af16"/>
      <path id="Pfad_99" data-name="Pfad 99" d="M1131.005-12.037a5.844,5.844,0,0,0-3,.531,5.846,5.846,0,0,1,2.985-.526,8.205,8.205,0,0,1,6.186,4.28,39.178,39.178,0,0,1,3.17,6.472c.958,2.473,1.437,5.652.137,8.1a4.542,4.542,0,0,1-.633.89,3.408,3.408,0,0,1-.263.673,2.848,2.848,0,0,1-1.366,1.266,2.853,2.853,0,0,0,1.38-1.272,3.465,3.465,0,0,0,.263-.674,4.523,4.523,0,0,0,.633-.889c1.3-2.448.821-5.626-.137-8.1a39.313,39.313,0,0,0-3.17-6.471C1135.773-10.043,1133.761-11.787,1131.005-12.037Z" transform="translate(-1102.509 63.225)" fill="#e9af16"/>
      <path id="Pfad_100" data-name="Pfad 100" d="M1140.3,8.382a3.416,3.416,0,0,0,.263-.673,4.541,4.541,0,0,0,.633-.89c1.3-2.448.822-5.626-.137-8.1a39.188,39.188,0,0,0-3.17-6.472,8.205,8.205,0,0,0-6.186-4.28,5.846,5.846,0,0,0-2.985.526,5.386,5.386,0,0,0-3.068,3.826c-.551,2.827.887,5.349,3.056,7.063.559.441,1.13.863,1.709,1.278.179.128.358.255.538.386l.245.181a12.024,12.024,0,0,1,.931.842l.143.155.072.084c.07.12.141.25.192.346.021.066.046.13.064.2.046.177.085.355.115.535a15.254,15.254,0,0,0,.365,2.37,6.115,6.115,0,0,0,2.823,3.776,3.465,3.465,0,0,0,3.03.116A2.847,2.847,0,0,0,1140.3,8.382Zm-8.133-6.325c.019-.005.071.071.129.166Zm7.594,2.36c0-.036-.005-.115-.008-.264V4.14a2.614,2.614,0,0,1,.012.281Z" transform="translate(-1103.225 63.226)" fill="#e9af16"/>
      <path id="Pfad_101" data-name="Pfad 101" d="M1455.3-14.146a15.168,15.168,0,0,1,4.583,8.984c.692,4.428-.129,8.769-.307,13.2-.125,3.085.089,6.616,2.245,9.039a3.282,3.282,0,0,1,0,4.559,3.093,3.093,0,0,1-1.075.711,3.077,3.077,0,0,0,1.09-.716,3.284,3.284,0,0,0,0-4.56c-2.157-2.422-2.37-5.953-2.246-9.039.179-4.427,1-8.768.308-13.2a15.166,15.166,0,0,0-4.583-8.984c-3.333-2.92-7.518-3.236-11.762-3.028a3.373,3.373,0,0,0-1.265.3,3.386,3.386,0,0,1,1.252-.3C1447.779-17.382,1451.962-17.065,1455.3-14.146Z" transform="translate(-1011.502 61.728)" fill="#e9af16"/>
      <path id="Pfad_102" data-name="Pfad 102" d="M1443.065-10.815a2.374,2.374,0,0,0,.29.2c.713.334.837.731.844,1.639.01,1.364-.807,2.947-1.38,4.315a14.749,14.749,0,0,0-.669,10.82,19.167,19.167,0,0,0,6.3,8.2c3.032,2.479,6.153,4.853,9.231,7.273a3.6,3.6,0,0,0,3.469.716,3.1,3.1,0,0,0,1.076-.711,3.282,3.282,0,0,0,0-4.559c-2.156-2.423-2.37-5.954-2.245-9.039.178-4.428,1-8.769.307-13.2a15.166,15.166,0,0,0-4.583-8.984c-3.334-2.918-7.517-3.236-11.761-3.028a3.385,3.385,0,0,0-1.252.3C1440.134-15.7,1440.249-11.432,1443.065-10.815Z" transform="translate(-1011.915 61.729)" fill="#e9af16"/>
      <path id="Pfad_103" data-name="Pfad 103" d="M1456.195,295.125a4.082,4.082,0,0,0-1.845-.851,3.5,3.5,0,0,0-2.842.068,3.5,3.5,0,0,1,2.828-.063,4.084,4.084,0,0,1,1.845.851c2.076,1.7,1.9,4.279,1.883,6.666,0,.075.045.455.05.592.013.048.025.089.031.111.039.129.067.21.085.259.044.086.085.175.133.26a9.911,9.911,0,0,0,.6.919c.068.08.353.45.445.558a26.347,26.347,0,0,1,3.152,4.063,10.644,10.644,0,0,1,1.351,5.955c-.165,1.969-1.023,4.142-2.766,4.929,1.753-.781,2.614-2.96,2.78-4.934a10.643,10.643,0,0,0-1.351-5.955,26.5,26.5,0,0,0-3.152-4.065c-.092-.108-.377-.477-.445-.557a10.346,10.346,0,0,1-.6-.919c-.047-.085-.089-.174-.133-.262-.017-.048-.045-.129-.084-.258-.006-.022-.018-.065-.031-.111-.005-.137-.05-.517-.05-.592C1458.094,299.4,1458.27,296.82,1456.195,295.125Z" transform="translate(-1008.831 151.854)" fill="#e9af16"/>
      <path id="Pfad_104" data-name="Pfad 104" d="M1464.707,314.514a10.644,10.644,0,0,0-1.351-5.955,26.357,26.357,0,0,0-3.152-4.063c-.092-.108-.377-.478-.445-.558a9.858,9.858,0,0,1-.6-.919c-.048-.085-.089-.174-.133-.26-.018-.049-.046-.13-.085-.259-.006-.022-.018-.063-.031-.111-.005-.137-.05-.517-.05-.592.017-2.387.193-4.97-1.883-6.666a4.083,4.083,0,0,0-1.845-.851,3.5,3.5,0,0,0-2.828.063,2.86,2.86,0,0,0-1.264,1.215c-1.943,3.593-3,7.9-1.715,11.9a11.243,11.243,0,0,0,3.2,5.093,23.151,23.151,0,0,0,2.444,1.782c.27.178.54.359.8.548.058.046.13.1.157.13.168.164.331.329.49.5-.053-.022.1.253.184.37a7.38,7.38,0,0,0,.116.869,3.836,3.836,0,0,0,3.189,2.949,3.693,3.693,0,0,0,2.035-.26C1463.684,318.656,1464.542,316.483,1464.707,314.514ZM1452.5,299.76l-.005-.021.005.005Z" transform="translate(-1009.627 151.856)" fill="#e9af16"/>
      <path id="Pfad_105" data-name="Pfad 105" d="M1440.2,306.022c2.306.762,4.074,2.953,5.755,4.6,1.931,1.892,3.824,3.827,5.568,5.895,1.425,1.688,2.6,3.773,4.244,5.26a3.906,3.906,0,0,0,4.343.484,3.9,3.9,0,0,1-4.329-.489c-1.648-1.487-2.819-3.572-4.244-5.261-1.745-2.067-3.638-4-5.568-5.895-1.681-1.649-3.449-3.839-5.755-4.6a5.215,5.215,0,0,0-3.985.291A5.209,5.209,0,0,1,1440.2,306.022Z" transform="translate(-1013.254 155.256)" fill="#e9af16"/>
      <path id="Pfad_106" data-name="Pfad 106" d="M1470.028,310.331a4.737,4.737,0,0,1,5.318,1.021c1.093,1.179,1.379,3.421,0,4.559q-6.3,5.2-12.785,10.159c-2.133,1.634-4.275,3.261-6.449,4.84a12.784,12.784,0,0,1-2.46,1.429,12.672,12.672,0,0,0,2.474-1.434c2.174-1.578,4.315-3.206,6.449-4.84q6.484-4.966,12.785-10.159c1.379-1.139,1.094-3.38,0-4.56A4.742,4.742,0,0,0,1470.028,310.331Z" transform="translate(-1008.21 156.469)" fill="#e9af16"/>
      <path id="Pfad_107" data-name="Pfad 107" d="M1468.241,327.283q6.484-4.966,12.785-10.159c1.378-1.137,1.094-3.38,0-4.559a4.737,4.737,0,0,0-5.318-1.021,7.559,7.559,0,0,0-1.72.905c-2.21,1.551-4.3,3.317-6.436,4.966-1.6,1.237-4.23,3.827-6.8,4.846a3.906,3.906,0,0,1-4.343-.484c-1.648-1.487-2.819-3.572-4.244-5.26-1.745-2.067-3.638-4-5.568-5.895-1.682-1.649-3.45-3.84-5.756-4.6a5.209,5.209,0,0,0-3.97.285,4.814,4.814,0,0,0-2.51,3.07,3.356,3.356,0,0,0-.1,1.064,2.842,2.842,0,0,0,.276,2.694,89.565,89.565,0,0,0,8.871,11.931c1.611,1.825,3.3,3.6,5.074,5.259s3.824,3.29,6.275,3.759a7.723,7.723,0,0,0,4.578-.531,12.783,12.783,0,0,0,2.459-1.429C1463.966,330.544,1466.108,328.917,1468.241,327.283Zm9.335-9.5c.544-.7.731.554-.134.133A1.88,1.88,0,0,0,1477.577,317.779Z" transform="translate(-1013.89 155.257)" fill="#e9af16"/>
      <path id="Pfad_108" data-name="Pfad 108" d="M1126.771,305.821a4.706,4.706,0,0,1,5.076.784c1.746,1.746,1.238,4.261.026,6.124-1.8,2.771-4.5,4.636-7.194,6.452-2.393,1.612-5,3.3-5.763,6.265-.939,3.679,1.9,6.356,3.052,9.593a16.8,16.8,0,0,1,.761,6.552c-.12,2.068-.08,4.831-1.651,6.4a4.029,4.029,0,0,1-1.488.941,4.016,4.016,0,0,0,1.5-.947c1.572-1.572,1.532-4.334,1.652-6.4a16.785,16.785,0,0,0-.761-6.552c-1.156-3.237-3.991-5.914-3.052-9.593.758-2.966,3.37-4.654,5.763-6.265,2.7-1.816,5.393-3.68,7.194-6.453,1.212-1.863,1.72-4.377-.026-6.123A4.712,4.712,0,0,0,1126.771,305.821Z" transform="translate(-1105.196 155.161)" fill="#e9af16"/>
      <path id="Pfad_109" data-name="Pfad 109" d="M1125.764,341.59a16.792,16.792,0,0,0-.761-6.552c-1.155-3.237-3.991-5.914-3.052-9.593.758-2.966,3.37-4.653,5.763-6.265,2.7-1.816,5.393-3.68,7.195-6.452,1.212-1.863,1.72-4.378-.026-6.124a4.707,4.707,0,0,0-5.076-.784,7.054,7.054,0,0,0-.707.3c-3.464,1.72-6.637,4.609-9.447,7.227-1.662,1.55-3.255,3.175-4.815,4.827-1.287,1.363-2.726,2.734-3.907,4.231a3.474,3.474,0,0,0-.644.543,6.993,6.993,0,0,0-1.535,6.7,3.02,3.02,0,0,0,.406,3.842,30.3,30.3,0,0,1,6.091,9.117c.745,1.75,1.07,3.831,2.482,5.209a4.842,4.842,0,0,0,4.894,1.109,4.025,4.025,0,0,0,1.488-.941C1125.684,346.421,1125.644,343.659,1125.764,341.59Z" transform="translate(-1108.232 155.162)" fill="#e9af16"/>
    </g>
    <path id="Pfad_110" data-name="Pfad 110" d="M1414.518,302.3a24.015,24.015,0,0,1,2.8-1.342c-.011-.012-.026-.021-.037-.034a8.3,8.3,0,0,1-1.811-2.966,8.975,8.975,0,0,1-.326-4.668,8.171,8.171,0,0,1,1.006-2.96l-51.86-57.115q-9.683-10.664-19.365-21.327-6.3-4.047-12.611-8.074c-2.744-1.747-5.5-3.474-8.252-5.211a88.131,88.131,0,0,1-16.389,8.732l1.389,6.487a1.67,1.67,0,0,1,.321,1.279q-3.611,24.872-6.5,49.841a12.965,12.965,0,0,1,8.5,1.745,31.347,31.347,0,0,1,4.57,3.545c.743.64,1.648,1.56,2.675,1.528,2.286-.071,4.517-3.812,5.7-5.358,1.857-2.433,5.969-2.077,7.969-.153,2.369,2.28,2,5.552.152,7.968-2.716,3.559-5.852,6.916-10.292,8.23-4.666,1.382-8.982-.1-12.68-2.993a35.571,35.571,0,0,0-3.593-2.926,2.27,2.27,0,0,0-.748-.389c-.449.574-1,1.345-1,1.371.012-.015.026-.028.037-.044-.011.015-.026.028-.037.044a13.382,13.382,0,0,1-2.943,2.744q-.621,5.819-1.2,11.642a12.4,12.4,0,0,1,9.851,1.406,31.337,31.337,0,0,1,4.572,3.544c.742.64,1.647,1.562,2.673,1.529,2.286-.072,4.518-3.813,5.7-5.359,1.857-2.432,5.968-2.078,7.968-.154,2.369,2.28,2,5.552.153,7.97-2.717,3.558-5.852,6.915-10.292,8.23-4.667,1.381-8.982-.1-12.682-2.993a35.235,35.235,0,0,0-3.593-2.927,2.284,2.284,0,0,0-.747-.388c-.438.56-.97,1.3-1,1.362.01-.013.023-.023.032-.035-.009.012-.022.022-.032.035a13.427,13.427,0,0,1-4.092,3.412q-1.311,14.436-2.383,28.894.089,4.76.179,9.52a3.912,3.912,0,0,1-1.048,2.851q-.2,2.965-.388,5.932a23.592,23.592,0,0,1,7.241,1.014,9.937,9.937,0,0,1,.092-3.027,1.673,1.673,0,0,1,1.62-1.233,44.744,44.744,0,0,1,6.672,1.384,1.859,1.859,0,0,1,1.21-1.888,26.759,26.759,0,0,1,15.822-1.354,1.824,1.824,0,0,1,1.241-1.74,31.812,31.812,0,0,1,11.445-.976c-.052-.1-.119-.2-.166-.307a1.707,1.707,0,0,1,1-2.467,26.308,26.308,0,0,1,11.071-.539,3.734,3.734,0,0,1,2.354-4.835,20.94,20.94,0,0,1,5.109-.557q2.824-.151,5.652-.081c.083,0,.165.008.248.01a45.764,45.764,0,0,1-4.694-3.216,1.689,1.689,0,0,1,.34-2.638c4.268-2.266,8.788-2.2,13.189-1.057-.093-.116-.192-.226-.284-.342-.691-.887-.643-2.557.741-2.807a41.645,41.645,0,0,1,10.074-.569c-1.359-.854-2.7-1.736-4.012-2.668-.9-.64-1.273-2.356,0-2.9a29.763,29.763,0,0,1,11.218-2.41c-.426-.312-.849-.628-1.263-.957-1.051-.836-.343-2.462.74-2.807a46.347,46.347,0,0,1,15.165-2.169c-.713-.427-1.42-.864-2.115-1.322a1.7,1.7,0,0,1,0-2.9,22.726,22.726,0,0,1,12.128-2.626c-.854-.573-1.694-1.163-2.512-1.8A1.691,1.691,0,0,1,1414.518,302.3Z" transform="translate(73.922 83.159)" fill="#e9af16"/>
    <path id="Pfad_111" data-name="Pfad 111" d="M1309.009,118.352a1.642,1.642,0,0,1,.689,1.664q-.377,2.2-.815,4.383a73.322,73.322,0,0,1,20.24,5.9c16.113-12.7,32.153-25.407,49.293-36.728,8.754-5.781,17.622-11.512,26.012-17.832L1426,53.284a13.436,13.436,0,0,0-.072-1.794c-.307-1.664-.681-3.319-1.068-4.971a24.506,24.506,0,0,1-8.5-2.862,1.635,1.635,0,0,1,0-2.784c.662-.508,1.342-.988,2.032-1.452a22.073,22.073,0,0,1-11.63-2.511,1.63,1.63,0,0,1,0-2.784c.686-.447,1.4-.846,2.1-1.261a45.049,45.049,0,0,1-14.679-2.062c-1.038-.328-1.723-1.9-.712-2.694.4-.311.8-.609,1.2-.9a28.9,28.9,0,0,1-10.8-2.3c-1.221-.518-.864-2.174,0-2.784,1.257-.887,2.544-1.727,3.847-2.538a40.532,40.532,0,0,1-9.693-.543c-1.326-.237-1.379-1.847-.71-2.694.085-.107.176-.209.263-.315-4.238,1.092-8.589,1.15-12.7-1.012a1.62,1.62,0,0,1-.326-2.531,44.147,44.147,0,0,1,4.514-3.067c-.188.005-.376.018-.565.022q-2.659.052-5.317-.094a19.718,19.718,0,0,1-4.721-.524A3.572,3.572,0,0,1,1356.2,4.2a25.558,25.558,0,0,1-10.674-.513,1.638,1.638,0,0,1-.964-2.368c.047-.1.109-.187.158-.285A30.883,30.883,0,0,1,1333.686.1a1.754,1.754,0,0,1-1.192-1.665,26,26,0,0,1-15.254-1.292,1.787,1.787,0,0,1-1.162-1.807,43.488,43.488,0,0,1-6.436,1.324,1.609,1.609,0,0,1-1.555-1.183A9.468,9.468,0,0,1,1308-7.409a22.928,22.928,0,0,1-8.069.962,1.648,1.648,0,0,1-1.612-1.612c0-.46.019-.918.058-1.372-.04.028-.076.062-.116.09a1.29,1.29,0,0,1-1.535.085q.359,5.07.719,10.141a6.347,6.347,0,0,1,1.3-.232,5.685,5.685,0,0,1,5.744,5.527c-.074,6.552.609,13.435-1.76,19.7a24.8,24.8,0,0,1-3.1,5.816q.65,9.155,1.3,18.312c.137.125.284.242.415.371,6.48,6.345,6.63,16.281,1.926,23.549l2.568,19.884a6.148,6.148,0,0,1,1.649,3.8,4.953,4.953,0,0,1-.778,2.943Z" transform="translate(74.466 22.917)" fill="#e9af16"/>
    <path id="Pfad_112" data-name="Pfad 112" d="M1426,49.156c-1.2.268-2.388.549-3.576.851a5.705,5.705,0,0,1-6.126-2.157,6.085,6.085,0,0,1-.795-.527L1389.26,74.635c-14.37,16.14-28.875,32.175-43.025,48.506q-3.8,4.389-7.522,8.861a61.721,61.721,0,0,1,9.509,21.648c.329,1.429.6,2.864.84,4.3.215-.129.436-.245.649-.383a1.551,1.551,0,0,1,2.366,1.4q9.349.826,18.65,2.094c-.033-1.355-.052-2.711-.028-4.07a5.635,5.635,0,1,1,11.269-.217c-.034,1.986.018,3.967.1,5.945q5.073.795,10.132,1.666,5.1.878,10.187,1.813c-.053-6.1.031-12.21.291-18.315a5.768,5.768,0,0,1,6.357-5.508,4.973,4.973,0,0,1,4.5.511c8.889,5.375,17.764,10.776,26.668,16.126,4.179,2.513,8.559,4.44,12.885,6.659a83.077,83.077,0,0,1,12.8,8.776,4.1,4.1,0,0,1,.3.3l12.76-.05c.077-.668.134-1.339.223-2.005a24.576,24.576,0,0,1,1.335-6.073,9.726,9.726,0,0,1-1.458-4.468c-.121-1.866.445-3.96-.454-5.686a2.554,2.554,0,0,1-.894-1.021c-.614-1.256-.472-2.987-.471-4.35a35.878,35.878,0,0,1,.331-4.734,9.745,9.745,0,0,1,.689-2.627c-3.109-1.853-2.606-6.65-2.631-9.753q-.026-3.271.253-6.534c.121-1.408.068-3.212.954-4.412q-.493-.422-.953-.881a14.594,14.594,0,0,1-4.039-9.362c-.146-1.563-.512-3.686.068-5.191.018-.048.046-.085.067-.132a13.882,13.882,0,0,1-3.7-1.845c-2.714-2.19-2.811-5.766-2.432-9a38.091,38.091,0,0,1-7.687-10.345,1.641,1.641,0,0,1,.88-2.339,35.825,35.825,0,0,1-5.184-2.128,1.629,1.629,0,0,1,.385-2.947l2.255-.517a42.926,42.926,0,0,1-4.661-1.745c-3.066-1.37-7.276-3.22-9-6.283a3.8,3.8,0,0,1-.092-4.056c1.088-1.572,3.073-1.495,4.778-1.563l.877-.036-9-1.849a1.622,1.622,0,0,1-.712-2.7,23.834,23.834,0,0,1,5.383-3.372,100.235,100.235,0,0,1-17.484-4.788A1.648,1.648,0,0,1,1426,49.156Z" transform="translate(86.624 39.351)" fill="#e9af16"/>
    <path id="Pfad_113" data-name="Pfad 113" d="M1507.152,160.1a7.725,7.725,0,0,1-.931,2.956,6.173,6.173,0,0,1-2.947,2.578q-1.142,1.281-2.28,2.562a45.4,45.4,0,0,0-3.974,4.663,8.227,8.227,0,0,0-1.22,5.338c.013.436.018.864.006,1.286a15.265,15.265,0,0,0,2.111-1.827,1.619,1.619,0,0,1,2.531,1.954,10.746,10.746,0,0,1-4.169,3.864c-.744.374-1.936.517-2.231,1.253a10.07,10.07,0,0,0-.072,3.323,30.978,30.978,0,0,0,.32,3.782,3.424,3.424,0,0,0,.229,1.185c.028.044.018.055.03.086a4.2,4.2,0,0,0,.535-.362c1.986-1.426,3.873-3.023,5.8-4.529a1.613,1.613,0,0,1,2.28,2.279,22.275,22.275,0,0,1-7.41,5.733c-.619.291-1.3.5-1.9.816a2.135,2.135,0,0,0-1.255,1.952,44.262,44.262,0,0,0-.25,5.263q-.023,2.8.179,5.6c.059.828.13,1.656.224,2.481.092.8-.148.763.094.727a1.938,1.938,0,0,0,.8-.548c1.851-1.676,3.9-3.717,6.338-1.679a1.621,1.621,0,0,1-.326,2.533c-3.787,1.818-8.2,3.867-10.078,7.888a17.725,17.725,0,0,0-1.166,7.209c-.009.226-.006.45-.006.676a13.109,13.109,0,0,0,3.426-3.851c.752-1.273,3.207-.849,3,.814a7.008,7.008,0,0,1-5.3,6.144,16.711,16.711,0,0,1-2.989,1.567c-1.836.731-3.451,1.287-3.965,3.389a8,8,0,0,0-.2,1.688,39.461,39.461,0,0,1,5.726-3.683c1.916-1,3.612,1.9,1.7,2.9a36.719,36.719,0,0,0-7.214,4.949,1.817,1.817,0,0,1-1.2,1.135,36.885,36.885,0,0,0-6.334,8.06q4.607.739,9.264,1.094c2.134.16,2.178,3.439,0,3.359a32.649,32.649,0,0,0-11.482,1.625l4.379,1.014c1.526.352,1.675,3,0,3.238a39.734,39.734,0,0,0-17.556,6.763,5.158,5.158,0,0,0-1.538,1.524c-.413.7-.46.793.268.938a36.533,36.533,0,0,0,5.362.223l10.861.442c1.827.075,2.365,2.9.446,3.3l-18.9,3.919a20.656,20.656,0,0,0,8.98,2.669c1.907-.182,3.819-.33,5.737-.409,1.887-.076,2.3,2.918.446,3.3a24.236,24.236,0,0,1-6.064.466,101.038,101.038,0,0,0-22.177,4.7,62.181,62.181,0,0,0,12.947,4.011c1.852.358,1.422,3.53-.446,3.3a47.345,47.345,0,0,0-20.052,1.805,11.175,11.175,0,0,1,1.341,1.545,8.312,8.312,0,0,1,1.206,2.593,62.045,62.045,0,0,1,9.936.043,1.681,1.681,0,0,1,0,3.359,40.642,40.642,0,0,1-9.473.289,10.513,10.513,0,0,1-.891,4.289c.484.166.974.308,1.464.451,2.044.357,4.066.774,6.044,1.2,1.839.395,1.434,3.506-.446,3.3-.15-.017-.3-.046-.446-.064v.005l-.075-.017a38.048,38.048,0,0,1-5.567-1.121c-1.186-.214-2.383-.4-3.583-.561a10.089,10.089,0,0,1-2.973,1.607,8.307,8.307,0,0,1-1.551.324,10.357,10.357,0,0,1-1.554.178,15.1,15.1,0,0,1-5.639-1.244,7.983,7.983,0,0,1-1.839-.313,21.8,21.8,0,0,0-2.343.824,38.416,38.416,0,0,0,10.1,4.786c.834.224,1.664.454,2.481.687a1.681,1.681,0,0,1-.894,3.238c-.914-.218-1.813-.477-2.7-.757-6.049-1.645-12.656-2.98-18.588-.958a54.057,54.057,0,0,0,11.921,5.134c2.018.711,1.2,3.853-.892,3.239a43.329,43.329,0,0,0-24.283-1.346,35.16,35.16,0,0,0,4.511,2.493,29.541,29.541,0,0,1,5.326,2.025c1.729.861.5,3.6-1.295,3.07a39.07,39.07,0,0,1-5.256-1.982,25.837,25.837,0,0,0-13.721.152,82.854,82.854,0,0,0,12.056,6.525c1.743.761.459,3.763-1.293,3.069a37.654,37.654,0,0,0-17.583-2.507,26.775,26.775,0,0,0,7.447,5.338c1.916,1.054.228,3.831-1.7,2.9-.7-.338-1.374-.713-2.04-1.1-5.112-2.708-11.21-5.361-16.818-3.887a39.844,39.844,0,0,0,10.567,5.007c2.112.644,1.2,3.584-.892,3.239a71.912,71.912,0,0,0-16.144-.814c-.539.034-3.4-.106-3.723.517-.278.534.618,1.484.985,1.772,1.6,1.252,3.628,1.544,5.095,3.069a1.687,1.687,0,0,1-2.036,2.637,22.888,22.888,0,0,0-15.054-2.711,7.284,7.284,0,0,0,.9.861,33.309,33.309,0,0,1,5.227,1.8c1.584.7.711,3.141-.847,3.13a10.589,10.589,0,0,1-5.911-1.879,28.621,28.621,0,0,0-10.549-.365l4.808,3.853c1.491,1.194-.5,3.745-2.035,2.638a23.911,23.911,0,0,0-20.482-3.648,45.031,45.031,0,0,0,4.6,3.567c1.068.611,2.12,1.255,3.139,1.965,1.753,1.223.214,3.98-1.7,2.9-1.122-.633-2.206-1.324-3.271-2.044a39.07,39.07,0,0,0-12.733-4.575,6.585,6.585,0,0,0,.546,2.142,24.211,24.211,0,0,1,6.164,4.409c.959.945.31,3.04-1.187,2.867a9.977,9.977,0,0,1-7.312-4.64,20.724,20.724,0,0,0-8.051-1.791,11.305,11.305,0,0,0,1.271,3.965,32.467,32.467,0,0,1,2.994,3.718c1.148,1.68-1.284,3.193-2.638,2.036a14.405,14.405,0,0,1-2.875-3.38q-.3,5.194-.569,10.39c.049,1,.092,2.009.141,3.014a1.423,1.423,0,0,1-.352,1.064q-.573,11.577-.968,23.162c1.586.115,3.089.2,4.213.208a1.625,1.625,0,0,1,1.389.009c1.74.8,3.813,1.811,5.776,1.3,2.137-.553,2.462-2.419,1.75-4.293a11.248,11.248,0,0,0-.895-1.79c-2.372-2.047-4.673-4.189-7.014-6.2-1.466-1.259.411-3.31,1.952-2.531a21.115,21.115,0,0,1,7.578,6.5c1.056.9,2.1,1.814,3.182,2.69,2.52,2.047,6.732,5.056,10,2.847,2.445-1.653,2.557-5.447,1.37-7.877-1.639-3.354-5.121-5.344-8.32-6.964-1.624-.821-.464-3.588,1.242-2.947.132.05.254.112.384.165v0l.03.015c3.848,1.564,6.824,4.368,9.86,7.139,3.073,2.806,6.576,5.745,10.994,5.553,4.346-.188,8.309-3.23,10.233-7.027.307-.6,1.3-2.453,1-3.1-.257-.569-2.747-1.2-3.358-1.449l-2.972-1.2c-2.14-.774-4.256-1.618-6.333-2.565-1.66-.757-.437-3.625,1.242-2.947l6.8,2.747a77.11,77.11,0,0,0,19.643,4.178c2.169.169,4.349.259,6.525.236,1.922-.019,3.672-.235,5.062-1.674a11.9,11.9,0,0,0,2.707-6.016q-2.074-.689-4.15-1.37l-17.269-5.7a1.614,1.614,0,0,1,.858-3.109q11.531,2.871,23.063,5.74a1.614,1.614,0,0,1,1.184,1.555c-.031.233-.066.472-.1.709,1.18.388,2.362.766,3.554,1.1a11.628,11.628,0,0,0,8.832-.747c4.039-1.955,9.311-4.413,11.192-8.8.135-.316.672-1.464.487-1.8-.24-.435-1.452-.611-1.858-.749l-4.181-1.421-4.953-1.683c-1.547-.476-3.085-.987-4.6-1.564-1.909-.727-1.131-3.784.856-3.109l4.752,1.616a67.427,67.427,0,0,0,11.864,2.54c5.26.619,10.9.934,16-.754a15.225,15.225,0,0,0,5.825-3.452,11.822,11.822,0,0,0,2.1-2.694,4.7,4.7,0,0,0,.791-1.842c-.009-.72-.037-.712-.794-.82a80.981,80.981,0,0,0-8.493-.319l-3.187-.116c-1.835-.04-3.669-.1-5.5-.2-2.062-.115-2.083-3.3,0-3.224l5.735.21a158.351,158.351,0,0,0,24.266-1.315c4.341-.579,9.627-.874,12.9-4.152,2.274-2.28,3.455-5.388,4.417-8.445a109.155,109.155,0,0,0-15.367-.49c-2.078.084-2.067-3.14,0-3.224a109.019,109.019,0,0,1,13.24.276,1.649,1.649,0,0,1,.488-.442c5.343-3.225,15.068-7.543,14.831-15.031-.335-.041-.671-.08-1.007-.11-3.844.435-7.722.694-11.533,1.081-1.86.188-2.119-2.7-.428-3.167a34.377,34.377,0,0,1,11.868-1.119,65.355,65.355,0,0,0,7.779-1.309,21.546,21.546,0,0,0,12-7.209,20.263,20.263,0,0,0,3.359-5.895,21.066,21.066,0,0,0,.886-3.219c.094-.489.359-1.255.037-1.639-.3-.357-1.095-.263-1.541-.282-10.131-.459-19.315,5.557-29.239,6.756-1.761.213-1.949-2.19-.814-3,7.895-5.665,17.7-6.8,27-8.514,2.378-.44,4.751-.919,7.09-1.536a11.939,11.939,0,0,0,3.313-1.115c1.22-.775,1.491-2.214,1.932-3.5L1509,279.585l-.566.133c-5.418,2.346-11.049,4.248-17.039,3.935-1.758-.092-2.262-2.738-.428-3.166l11.39-2.659c1.517-.353,3.08-.658,4.641-.981,1.332-.575,2.651-1.179,3.959-1.783a1.885,1.885,0,0,1,1.918.259c.05-.018.1-.03.155-.046,3.3-1.167,3.588-5.871,4.2-8.821.6-2.873,1.057-5.767,1.394-8.679a58.383,58.383,0,0,1-16.71,4.64c-2.057.255-2.031-2.971,0-3.224a53.533,53.533,0,0,0,15.684-4.467,1.726,1.726,0,0,1,.249-.281c5.646-5.157,11.735-10.645,14.166-18.142a19.374,19.374,0,0,0,1-5.719c.006-.453,0-.907-.031-1.358,0-.037-.01-.08-.017-.12a2.592,2.592,0,0,0-.405.072q-.723.209-1.447.428c-3.949,1.193-7.828,2.6-11.639,4.176-1.759.73-2.709-2.026-1.242-2.947,6.122-3.842,12.619-7.91,16.895-13.886,4.466-6.243,4.78-13.422,4.342-20.721q-5.617,4.169-11.1,8.512c-1.346,1.074-3.554-.281-2.531-1.954,3.193-5.221,8.759-8.933,10.951-14.763A30.47,30.47,0,0,0,1538.328,178c.014-.583.031-1.17.037-1.756a8.26,8.26,0,0,1-6.442,1.52c-1.406-.263-1.506-2.29-.385-2.947,1.589-.928,4.694-3.325,7.066-3.406a12.766,12.766,0,0,0,1.439-2.951c1.237-3.728,1.618-7.65,3.483-11.165a1.434,1.434,0,0,1,.859-.738q-9.832.863-19.66,1.773Q1515.932,159.16,1507.152,160.1Z" transform="translate(73.398 70.984)" fill="#e9af16"/>
    <path id="Pfad_114" data-name="Pfad 114" d="M1482.566,169.655c.5-.689,1.04-1.351,1.58-2.013-.018-.006-.035-.009-.053-.015-2.906-1.06-3.446-4.307-3.27-7.09q-14.794,1.687-29.562,3.611c-11.6,7.775-24.1,14.2-36.139,21.339-4.929,2.922-9.586-2.433-8.3-6.648-.375-2.8-.7-5.606-1.012-8.413l-48.423,6.795a1.8,1.8,0,0,1-2.013-1.625,1.57,1.57,0,0,1-.685-.624c-2-3.278-5.634-5.054-9.293-6.387a89.755,89.755,0,0,1-11.035,20.1,436.813,436.813,0,0,0,32.787,38.4c7.734,7.994,15.948,15.432,24.22,22.859,8.1,7.275,16.014,14.8,22.419,23.651.006.008.009.017.016.025q.6.7,1.18,1.428c1.268,1.615-1,3.91-2.28,2.28-3.739-4.76-8.5-8.456-13.493-11.816-5.521-3.717-11.158-7.269-16.743-10.889q-10.72-6.948-21.435-13.905l50.376,55.48c.253-.08.5-.177.758-.24a13.851,13.851,0,0,1,6.793-.163c.342.089.674.2,1,.317a50.567,50.567,0,0,1,11.927-2.894q-3.06-1.207-6-2.715c-1.394-.717-.841-2.6.4-3.07a103.1,103.1,0,0,1,18.155-5.014,24.606,24.606,0,0,1-5.6-3.539,1.689,1.689,0,0,1,.74-2.807l9.4-1.947-1.019-.043c-1.761-.071-3.79-.006-4.909-1.63a3.989,3.989,0,0,1,.094-4.238c1.806-3.208,6.177-5.152,9.388-6.594a44.755,44.755,0,0,1,4.813-1.812l-2.367-.547a1.7,1.7,0,0,1-.4-3.069,36.825,36.825,0,0,1,5.4-2.234,1.708,1.708,0,0,1-.935-2.445,39.766,39.766,0,0,1,8.331-11.16c-.364-3.207-.241-6.732,2.444-8.9a13.913,13.913,0,0,1,3.693-1.849c-.021-.045-.047-.081-.066-.129-.581-1.506-.213-3.624-.068-5.189a14.592,14.592,0,0,1,4.205-9.529c.254-.246.519-.478.784-.707-.934-1.273-.858-3.257-.977-4.73q-.253-3.1-.227-6.225c.029-3.157-.446-7.82,2.63-9.726a9.894,9.894,0,0,1-.686-2.653,35.8,35.8,0,0,1-.333-5.037c.01-1.318-.124-3.049.571-4.225a2.6,2.6,0,0,1,.789-.833c.945-1.8.311-4.008.481-5.957A9.921,9.921,0,0,1,1482.566,169.655Z" transform="translate(85.364 72.135)" fill="#e9af16"/>
    <path id="Pfad_115" data-name="Pfad 115" d="M1296-33.8a1.593,1.593,0,0,1-1.224.09q.935,13.07,1.866,26.141.222,3.153.447,6.306c.035-.03.065-.063.1-.092a26.366,26.366,0,0,0,3.487-3.015,13.818,13.818,0,0,1,3.105-3.8c1.31-1.113,3.634.357,2.531,1.954a31.355,31.355,0,0,1-2.882,3.549,10.692,10.692,0,0,0-1.228,3.784,20.206,20.206,0,0,0,7.775-1.714,9.632,9.632,0,0,1,7.037-4.432c1.435-.165,2.059,1.853,1.14,2.752a23.465,23.465,0,0,1-5.945,4.217,6.216,6.216,0,0,0-.525,2.031,37.905,37.905,0,0,0,12.3-4.382c1.021-.683,2.061-1.34,3.137-1.943a1.613,1.613,0,0,1,1.626,2.784c-.98.678-1.994,1.291-3.02,1.875a43.314,43.314,0,0,0-4.431,3.4,23.207,23.207,0,0,0,19.738-3.487c1.489-1.066,3.373,1.4,1.954,2.531l-4.621,3.671a27.825,27.825,0,0,0,10.168-.351,10.272,10.272,0,0,1,5.688-1.794c1.494-.013,2.333,2.342.812,3a32.419,32.419,0,0,1-5.033,1.72,7,7,0,0,0-.861.812,22.216,22.216,0,0,0,14.506-2.591,1.619,1.619,0,0,1,1.954,2.531c-1.456,1.487-3.531,1.754-5.05,3.054-.417.357-1.079,1.208-.633,1.656.512.513,2.829.364,3.506.4a70.053,70.053,0,0,0,15.471-.783c2.012-.328,2.882,2.5.858,3.109a38.554,38.554,0,0,0-10.153,4.782c5.4,1.391,11.272-1.145,16.2-3.735.636-.37,1.282-.725,1.948-1.045,1.849-.889,3.469,1.78,1.627,2.784a25.781,25.781,0,0,0-7.165,5.087,36.614,36.614,0,0,0,16.94-2.4c1.7-.667,2.9,2.228,1.242,2.947a80.136,80.136,0,0,0-11.6,6.221,25.115,25.115,0,0,0,13.29.113,37.912,37.912,0,0,1,4.987-1.861c1.735-.512,2.89,2.133,1.242,2.945a28.611,28.611,0,0,1-4.91,1.874,34.137,34.137,0,0,0-4.553,2.436,42.11,42.11,0,0,0,23.391-1.292c2.016-.584,2.793,2.433.856,3.109a52.415,52.415,0,0,0-11.476,4.9c5.708,1.923,12.055.656,17.875-.913.87-.27,1.747-.52,2.638-.731a1.646,1.646,0,0,1,1.7,2.561c.049.041.106.071.155.113q3.389,3.064,6.78,6.127a36.755,36.755,0,0,1,4.249-.771l.066-.014v0c.143-.017.284-.045.428-.062,1.822-.2,2.174,2.795.428,3.167q-1.048.222-2.112.44l9.719,8.782a5.413,5.413,0,0,1,1.385,5.74c.352-.035.7-.05,1.056-.094,1.813-.222,2.187,2.828.428,3.167a60.316,60.316,0,0,0-12.45,3.827A98.118,98.118,0,0,0,1465.34,81.9a23.645,23.645,0,0,1,5.829.445c1.8.366,1.363,3.238-.429,3.166-1.847-.074-3.688-.217-5.525-.391a20.048,20.048,0,0,0-8.648,2.542l18.206,3.741c1.858.382,1.307,3.1-.428,3.167l-10.9.44-2.566.1a8.2,8.2,0,0,0-2.406.1c-.379.165-.275-.1-.3.33-.012.191.286.575.391.725a5.47,5.47,0,0,0,1.385,1.279,38.527,38.527,0,0,0,16.91,6.453c1.608.223,1.465,2.773,0,3.109l-4.2.962a31.788,31.788,0,0,0,11.044,1.545c2.094-.076,2.045,3.072,0,3.224-2.989.223-5.957.6-8.914,1.069a35.283,35.283,0,0,0,5.7,7.305,1.819,1.819,0,0,1,1.349,1.264,35.442,35.442,0,0,0,7.144,4.909c1.844.957.213,3.738-1.627,2.784a37.914,37.914,0,0,1-5.757-3.713,7.819,7.819,0,0,0,.251,1.986c.555,1.969,2.177,2.491,3.906,3.18a16.6,16.6,0,0,1,2.958,1.546,7.011,7.011,0,0,1,5.334,6.164c.2,1.664-2.252,2.085-3,.812a13.1,13.1,0,0,0-3.425-3.847c0,.224,0,.449.005.673a17.823,17.823,0,0,0,1.167,7.209c1.866,4.021,6.3,6.074,10.078,7.888a1.62,1.62,0,0,1,.326,2.531,3.213,3.213,0,0,1-3.377.638c-1.386-.5-2.034-1.621-3.131-2.477a2.894,2.894,0,0,0-.722-.455c.142.132,0,.738,0,.794-.106.928-.182,1.861-.245,2.793q-.18,2.642-.157,5.292a32.8,32.8,0,0,0,.279,5.548c.315,1.709,1.987,1.93,3.366,2.6a22.355,22.355,0,0,1,7.172,5.616,1.613,1.613,0,0,1-2.28,2.28,59.168,59.168,0,0,0-6.072-4.738,1.1,1.1,0,0,1-.234-.173l-.061-.028a.9.9,0,0,1-.053.33,8.8,8.8,0,0,0-.226,1.373,31.513,31.513,0,0,0-.268,3.4q-.025.907,0,1.813a6.732,6.732,0,0,0,.094,1.811c.315.475,1.919.8,2.427,1.068a10.73,10.73,0,0,1,3.951,3.749,1.619,1.619,0,0,1-2.531,1.954,15.266,15.266,0,0,0-2.11-1.827c.01.422.006.85-.008,1.286a10.588,10.588,0,0,0,.333,3.481,5.734,5.734,0,0,1,7.47.289c4,3.909,3.793,9.4,3.825,14.571q0,.337,0,.673c5.719.193,11.44.355,17.146.576l18.673.726c-1.617-3.365-2.039-7.059-3.208-10.585a12.724,12.724,0,0,0-1.426-2.935c-2.37-.039-5.45-2.47-7.077-3.423a1.629,1.629,0,0,1,.386-2.947,8.262,8.262,0,0,1,6.431,1.514c-.006-.677-.015-1.354-.035-2.031a29.909,29.909,0,0,0-1.528-9.74c-2.192-5.83-7.758-9.542-10.951-14.763-1.031-1.684,1.2-3.018,2.531-1.952q5.47,4.36,11.1,8.512c.437-7.3.122-14.479-4.343-20.721-4.275-5.976-10.772-10.046-16.895-13.887-1.483-.93-.5-3.668,1.243-2.945a124.5,124.5,0,0,0,11.927,4.263q.722.217,1.448.423l.039.012c.046-.707.124-1.618.12-1.772a19.267,19.267,0,0,0-1-5.447c-2.445-7.5-8.512-12.98-14.165-18.142a1.784,1.784,0,0,1-.25-.282,53.565,53.565,0,0,0-15.683-4.467c-2.035-.251-2.054-3.478,0-3.224a58.4,58.4,0,0,1,16.709,4.64c-.349-3.015-.829-6.012-1.458-8.984-.611-2.894-.908-7.372-4.137-8.514-.052-.018-.106-.03-.159-.048a1.882,1.882,0,0,1-1.914.259c-1.319-.61-2.651-1.219-4-1.8-1.652-.344-3.306-.663-4.911-1.037l-11.081-2.587c-1.851-.432-1.313-3.076.428-3.167,5.989-.312,11.622,1.589,17.038,3.936l.568.132q-2.227-6.519-4.45-13.036c-.44-1.287-.717-2.73-1.93-3.5a11.8,11.8,0,0,0-3.313-1.115c-2.339-.618-4.713-1.1-7.091-1.536-9.3-1.715-19.1-2.849-26.995-8.515-1.135-.814-.947-3.216.814-3,5.722.691,11.048,2.738,16.5,4.493A55.417,55.417,0,0,0,1488.8,61.5a26.179,26.179,0,0,0,4.074.419c.788.018,2.89.32,3.314-.477.32-.6-.459-2.659-.649-3.318a19.344,19.344,0,0,0-1.211-3.174,21.172,21.172,0,0,0-3.7-5.332c-3.549-3.706-8.163-5.531-13.139-6.431-1.91-.344-3.842-.594-5.777-.815a34.341,34.341,0,0,1-11.614-1.143c-1.708-.472-1.413-3.353.429-3.166,3.856.391,7.838.62,11.778,1.061.254-.025.508-.059.761-.092.223-7.029-8.327-11.264-13.8-14.424a2.157,2.157,0,0,1-.686.205,108.929,108.929,0,0,1-17.483.7c-2.071-.083-2.075-3.306,0-3.224a108.971,108.971,0,0,0,15.367-.489c-.962-3.058-2.143-6.167-4.418-8.445-3.27-3.277-8.556-3.575-12.9-4.152a158.486,158.486,0,0,0-23.753-1.327q-3.126.11-6.249.221c-2.084.077-2.058-3.109,0-3.224,1.828-.1,3.657-.16,5.486-.2l3.2-.117a80.986,80.986,0,0,0,8.493-.319c.817-.117.929-.2.719-1.06a6.638,6.638,0,0,0-.714-1.6,11.7,11.7,0,0,0-2.1-2.694,15.246,15.246,0,0,0-5.825-3.452c-5.1-1.688-10.741-1.373-16-.754a67.433,67.433,0,0,0-11.864,2.54l-4.752,1.616c-1.991.676-2.762-2.383-.858-3.109,1.554-.593,3.127-1.119,4.712-1.6l4.842-1.645q2.089-.71,4.179-1.421c.407-.138,1.62-.315,1.86-.749.183-.333-.352-1.48-.488-1.8-1.882-4.388-7.156-6.849-11.192-8.8a11.627,11.627,0,0,0-8.832-.747c-1.193.335-2.375.714-3.555,1.1.033.237.068.475.1.709a1.619,1.619,0,0,1-1.183,1.555q-11.533,2.869-23.063,5.74a1.614,1.614,0,0,1-.858-3.109l19.692-6.5c.566-.187,1.141-.389,1.722-.6a11.559,11.559,0,0,0-2.838-6.132c-1.371-1.33-3.093-1.515-4.925-1.532-2.177-.021-4.356.066-6.525.236a77.326,77.326,0,0,0-19.651,4.182l-6.792,2.743c-1.7.686-2.884-2.2-1.242-2.947,2.069-.943,4.177-1.785,6.307-2.555l3-1.211c.548-.221,3.095-.867,3.358-1.449.306-.677-.68-2.459-1-3.1-1.919-3.8-5.892-6.839-10.233-7.027-4.419-.192-7.919,2.747-10.994,5.553-3.037,2.77-6.012,5.575-9.86,7.139l-.03.015v0c-.129.053-.251.115-.383.165-1.724.647-2.847-2.134-1.243-2.947,3.188-1.613,6.7-3.61,8.322-6.964,1.186-2.458,1.069-6.191-1.369-7.877-3.236-2.236-7.508.818-10,2.847-1.077.878-2.128,1.791-3.185,2.7A21.123,21.123,0,0,1,1296-33.8Z" transform="translate(73.902 12.146)" fill="#e9af16"/>
    <path id="Pfad_116" data-name="Pfad 116" d="M1090.479,206.329a16.266,16.266,0,0,0,2.965,2.062c.981.685,1.924,1.419,2.835,2.185l13.364-.07c7.843-.04,15.635-.2,23.415-.687q-.163-8.413-.324-16.825a5.734,5.734,0,0,1,5.526-5.742,5.4,5.4,0,0,1,4.63,2.343,9.549,9.549,0,0,1,1.184.8c.556.442,1.124.869,1.688,1.3-1.276-6.654-4.982-12.931-9.227-18.1-.9-1.094-.094-3.344,1.568-2.694a40.78,40.78,0,0,1,6.087,2.965,19.456,19.456,0,0,0-2.451-16.454c-.854-1.278.558-2.587,1.821-2.369a23.951,23.951,0,0,1,5.407,1.62,26.247,26.247,0,0,0-.561-12.526,3.612,3.612,0,0,1-1.123-3.977c.427-1.131,2.343-1.8,2.947-.386.31.73.585,1.469.838,2.212a1.3,1.3,0,0,0,.7-.064,3.157,3.157,0,0,0,1.386-1.756,10.031,10.031,0,0,0,.242-5.567c-.784-3.913-2.655-7.507-3.679-11.352a1.614,1.614,0,0,1,3.109-.858c.359,1.349.85,2.72,1.367,4.109a1.559,1.559,0,0,1,1.077.164c1.744.922,2.816-1.631,3.011-2.882a39.484,39.484,0,0,0,.16-5.648q.05-6.3.1-12.6a1.629,1.629,0,0,1,2.752-1.14,22.289,22.289,0,0,1,3.936,5.641,53.141,53.141,0,0,0,4.485-22.458c-.033-1.808,2.774-2.21,3.167-.429q.515,2.335,1.03,4.667a58.2,58.2,0,0,0,2.868-14.639c-.006-1.1.03-2.195.131-3.3.187-2.031,3.245-2.107,3.224,0-.011,1.1-.055,2.2-.125,3.3a31.614,31.614,0,0,0,.349,4.5,28.014,28.014,0,0,0,5.562-13.566,3.034,3.034,0,0,1,.671-3.643,1.63,1.63,0,0,1,2.752,1.14c-.018.557-.084,1.108-.132,1.662a1.49,1.49,0,0,0,.151.1c.552.294.873.107,1.326-.335.978-.954,1.206-2.642,1.429-3.92.284-1.634.5-3.278.695-4.926l.632-7.739c.153-1.871,2.8-2.061,3.176-.48.306-.415.62-.824.945-1.213a32.175,32.175,0,0,1,5.343-4.753,4.167,4.167,0,0,1,2.08-.772,16.21,16.21,0,0,1,4.151-.966,8.952,8.952,0,0,1,4.177.227,8.735,8.735,0,0,1,1.917.957A50.037,50.037,0,0,0,1217,37.716c.117-.533.24-1.056.367-1.554.517-2.023,3.537-1.159,3.108.858a25.412,25.412,0,0,0-.8,8.218c.039.5-.058,1.277.429,1.2.259-.039.907-.954,1.056-1.14a26.614,26.614,0,0,0,2.17-3.2,28.776,28.776,0,0,0,3.9-14.506c.1-2.065,3.228-2.084,3.224,0a22.856,22.856,0,0,0,.945,7.777,52.878,52.878,0,0,0,10.776-17.338,1.62,1.62,0,0,1,3.166.428c.3,3.083.574,6.171.9,9.253.044.427.011,1.457.315,1.818.527.632,1.092-.1,1.535-.618a22.841,22.841,0,0,0,2.205-3.309,33.384,33.384,0,0,0,3.8-9.872q.367-3.083.736-6.164c.24-2,3.284-2.124,3.224,0a39,39,0,0,1-.8,6.7q-.433,3.613-.865,7.228c2.5-.9,4.087-3.749,4.854-6.211,1.146-3.682,1.589-7.566,3.746-10.858.827-1.261,3.086-.872,3,.812q-.153,3.176-.307,6.352l-.152,3.176c-.022.444-.384,2.375-.086,2.721.668.774,3.459-.457,4.159-.833a12.943,12.943,0,0,0,3.527-2.932c4.439-5.041,5.619-12.136,10.7-16.745a1.62,1.62,0,0,1,2.531,1.954,26.815,26.815,0,0,0-2.592,12.79A19.675,19.675,0,0,0,1298.464-2.14q.071-.942.142-1.887c.152-2.047,3.259-2.1,3.224,0a21.356,21.356,0,0,1-.166,2.212q-.292,3.917-.585,7.834c9.113.62,15.49-8.244,20.07-14.95a1.62,1.62,0,0,1,2.947,1.242c-.68,2.608-2.565,4.453-3.667,6.84-.549,1.186-.388,5.191,1.724,3.72a20.245,20.245,0,0,0,3.274-3.523q1.542-1.791,3-3.656c1.976-2.533,3.806-5.178,5.526-7.888.774-1.217,3.229-.883,3,.814-.017.129-.043.255-.061.383a12.974,12.974,0,0,1,3.808-1.655,18.145,18.145,0,0,1,2.027-.371c-.009-2.23-.024-4.458-.027-6.685q-.016-11.626.974-23.2a53.384,53.384,0,0,0-22.609,14.031,84.19,84.19,0,0,1-6.653,8.479c-1.232,1.373-3.5-.423-2.533-1.952a56.153,56.153,0,0,1,6.724-8.6c.829-1.217,1.635-2.451,2.393-3.718q1.024-1.708,1.959-3.464c.589-1.108.992-1.58-.141-2.344a9.106,9.106,0,0,0-5.851-1.324c-4.542.357-8.2,3.355-11.152,6.6-3.324,3.653-6.271,7.677-9.343,11.542-1.154,1.451-3.491-.44-2.532-1.954a29.025,29.025,0,0,0,3.453-7.592,28.539,28.539,0,0,0,.814-3.755c.026-.184.267-1.4.107-1.616-.173-.24-.825-.218-1.078-.237-4.546-.329-9.183,1.317-13.034,3.612-6.97,4.156-12.215,10.722-16.064,17.862l-2.7,5.579c-.918,1.9-3.586.235-2.784-1.627.7-1.625,1.483-3.208,2.307-4.773q1.042-2.155,2.084-4.31c.441-.912,4.212-7.535,2.964-8.175-.072-.036-1.41.384-1.608.429-.511.115-1.02.233-1.527.36-1.353.337-2.7.718-4.008,1.184a19.71,19.71,0,0,0-6.8,3.883c-3.474,3.19-5.255,7.648-6.737,12.021-1.568,4.623-2.907,9.351-5.321,13.627-1.029,1.822-3.707.214-2.784-1.626a51.072,51.072,0,0,0,4.612-13.82,43.462,43.462,0,0,0,.734-7.042c0-.271.089-1.114-.111-1.344-.348-.4-1.011-.08-1.394.057a21.717,21.717,0,0,0-2.741,1.3,38.571,38.571,0,0,0-15.44,14.946,9.444,9.444,0,0,1,.31,1.529,41.117,41.117,0,0,1-1.259,16.308,1.614,1.614,0,0,1-3.109-.858,38.29,38.29,0,0,0,1.451-9.111,38.763,38.763,0,0,0-.089-4.234c-.012-.156-.036-.322-.061-.489a1.739,1.739,0,0,1-1.415-2.09c-4.991.6-10.244,1.573-14.05,5.1-3.849,3.563-6.538,8.662-8.877,13.294a37.07,37.07,0,0,0-3.327,9.152c-.12,2.521-.3,5.042-.381,7.522-.071,2.132-2.979,2.009-3.224,0a24.415,24.415,0,0,1,.237-7.142q.025-.791.053-1.582a40.881,40.881,0,0,0,.01-7.566,5.216,5.216,0,0,0-1.2-2.978c-.943-.791-1.99.227-2.771.912a13.564,13.564,0,0,0-3.319,4.717c-1.787,3.973-2.294,8.44-2.886,12.711l-1.2,8.665a69.978,69.978,0,0,1-1.279,9.218c-.431,2.078-3.385,1.135-3.108-.858q.578-4.172,1.157-8.344a65.827,65.827,0,0,0,.114-7.863q-.1-2.168-.338-4.327c-.075-.678-.16-1.357-.258-2.031a11.727,11.727,0,0,0-.181-1.424c0,.308-.692.364-1.078.521-.624.253-1.246.508-1.861.78-.988.436-1.961.9-2.9,1.433-4.358,2.454-6.623,6.461-8.786,10.8q-3.062,6.147-6.048,12.332a5.645,5.645,0,0,1,.7,2.539c.165,1.652.262,3.315.393,4.97q.393,4.971.785,9.941c.164,2.072-3.061,2.054-3.224,0l-.638-8.077q-.161-2.019-.32-4.039a22.886,22.886,0,0,0-.107-2.435,1.839,1.839,0,0,1-1.456-1.1,7.278,7.278,0,0,0-1.831.895,10.634,10.634,0,0,0-2.368,2.234,32.086,32.086,0,0,0-3.527,5.708,48.852,48.852,0,0,0-4.99,27.467c.221,2.063-3.006,2.041-3.224,0-.01-.094-.016-.19-.025-.284a1.291,1.291,0,0,1-.709-1.032,43.567,43.567,0,0,0-2.1-8.271c-.88-2.409-1.977-5.487-3.684-7.436s-4.3,2.264-4.995,3.608a18.026,18.026,0,0,0-1.751,6.69,63.529,63.529,0,0,0,1.029,15.252c.009.021.022.041.031.062a57.507,57.507,0,0,1,2.334,7.232q1.339,4.455,2.68,8.91a1.619,1.619,0,0,1-2.947,1.242,52.561,52.561,0,0,1-5.2-16.552,2.781,2.781,0,0,0-1.929-1.634c-1.812-.289-3.354,1.652-4.076,3.043-1.9,3.664-1.4,8.133-.88,12.07.618,4.708,1.3,9.409,1.955,14.113.24,1.732-1.916,2.9-2.947,1.242-1.274-2.045-1.238-4.258-1.617-6.552-.284-1.715-1.193-4.267-3.412-3.288s-2.311,3.884-2.192,5.949c.152,2.631.587,5.133,0,7.748a1.482,1.482,0,0,1-.451.8c.088.2.183.391.27.588a148.169,148.169,0,0,1,5.9,15.811c.616,1.99-2.5,2.832-3.109.856a140.851,140.851,0,0,0-6.431-16.954c-.347-.757-1.07-3.236-1.973-3.158-.719.062-1.635,1.324-2.008,1.869a11.959,11.959,0,0,0-1.763,5.966,37.5,37.5,0,0,0,1.959,13.592,27.177,27.177,0,0,0,5.33,9.73q1.311,1.188,2.531,2.477a1.613,1.613,0,0,1-2.28,2.28,23.791,23.791,0,0,1-2.543-2.477c-.624-.566-1.256-1.126-1.916-1.652-.758-.6-1.546-1.168-2.348-1.71a19.56,19.56,0,0,1-2.21-1.357c-.028.28-.11.609-.123.809q-.083,1.344-.041,2.69a27.572,27.572,0,0,0,.589,4.908,29.641,29.641,0,0,0,5.255,11.6,69.9,69.9,0,0,1,5.294,5.448,1.613,1.613,0,0,1-2.28,2.279,31,31,0,0,1-5.394-5.514c-.245-.226-.475-.468-.724-.69-.553-.491-2.284-2.364-2.878-2.192-.3.088-.877,1.756-1.021,2.062-.348.742-.681,1.491-.993,2.249a55.237,55.237,0,0,0-4.025,24.906C1089.664,204.058,1089.639,205.389,1090.479,206.329Z" transform="translate(14.442 13.223)" fill="#e9af16"/>
    <path id="Pfad_117" data-name="Pfad 117" d="M1344.59,370.249a1.578,1.578,0,0,1-.766-.044,18.978,18.978,0,0,0-8.449-.62A70.847,70.847,0,0,1,1338,381.494c.226,1.7-2.231,2.03-3,.812-1.774-2.795-3.666-5.514-5.709-8.12q-1.458-1.861-3.007-3.647a19.153,19.153,0,0,0-3.081-3.3c-1.023-.711-1.589-.075-1.927.949a3.808,3.808,0,0,0,.307,2.985c1.143,2.277,2.9,4.1,3.562,6.626a1.62,1.62,0,0,1-2.947,1.242c-4.578-6.7-10.956-15.57-20.07-14.95q.294,3.917.587,7.835a21.4,21.4,0,0,1,.165,2.21c.035,2.1-3.07,2.043-3.224,0l-.141-1.887a19.679,19.679,0,0,0-12.684-15.867,26.809,26.809,0,0,0,2.592,12.79,1.619,1.619,0,0,1-2.531,1.954c-5.082-4.609-6.262-11.7-10.7-16.745a12.83,12.83,0,0,0-3.733-3.04c-.616-.315-3.406-1.462-3.952-.726-.346.466.057,2.132.085,2.721l.153,3.176.306,6.352c.081,1.687-2.178,2.074-3,.814-2.159-3.295-2.6-7.177-3.748-10.859-.77-2.462-2.356-5.307-4.852-6.211q.433,3.623.866,7.245a38.828,38.828,0,0,1,.8,6.686c.06,2.129-2.985,2-3.224,0q-.37-3.081-.738-6.163a33.37,33.37,0,0,0-3.8-9.873,22.642,22.642,0,0,0-2.2-3.309c-.444-.518-1.007-1.25-1.536-.618-.3.362-.269,1.391-.315,1.818-.322,3.082-.6,6.169-.895,9.253a1.62,1.62,0,0,1-3.166.428,52.909,52.909,0,0,0-10.777-17.338,22.883,22.883,0,0,0-.944,7.777c0,2.088-3.127,2.062-3.224,0a28.764,28.764,0,0,0-3.9-14.506,26.741,26.741,0,0,0-2.17-3.2c-.157-.2-.744-1.109-1.055-1.14-.485-.046-.388.677-.43,1.2a25.121,25.121,0,0,0,.8,8.219c.429,2.02-2.592,2.877-3.109.856-.13-.512-.258-1.054-.38-1.608a48.811,48.811,0,0,0-6.627-15.242,34.9,34.9,0,0,0-2.842-3.851c-.368-.417-.926-1.119-1.5-1.235-.693-.141-.738.266-.91.892a13.171,13.171,0,0,0-.374,4.618,30.333,30.333,0,0,1,1.051,4.71c.011.034.022.07.034.1h-.016c.019.143.056.282.073.427.24,1.932-2.595,2-3.166.428a21.947,21.947,0,0,1-1.2-5.383,26.14,26.14,0,0,0-5.767-9.454q.182,2.224.364,4.452c.245,2.283.449,4.569.561,6.864.1,2.093-3.057,2.041-3.224,0q-.315-3.861-.632-7.723c-.191-1.653-.411-3.3-.7-4.942-.229-1.323-.472-3.152-1.573-4.07a.916.916,0,0,0-1.327-.1l-.005.005c.048.557.113,1.11.133,1.673a1.632,1.632,0,0,1-2.752,1.14,3.03,3.03,0,0,1-.672-3.652,28.029,28.029,0,0,0-5.561-13.559,31.473,31.473,0,0,0-.349,4.5c.07,1.094.113,2.192.124,3.295.021,2.111-3.036,2.029-3.224,0-.1-1.1-.137-2.2-.132-3.3a58.092,58.092,0,0,0-2.868-14.639q-.515,2.335-1.03,4.667c-.4,1.8-3.2,1.36-3.166-.428a53.152,53.152,0,0,0-4.485-22.459,22.36,22.36,0,0,1-3.936,5.642,1.63,1.63,0,0,1-2.752-1.14l-.1-12.6a32.111,32.111,0,0,0-.209-5.968c-.241-1.2-1.368-3.4-2.961-2.562a1.568,1.568,0,0,1-1.077.165c-.517,1.388-1.009,2.76-1.368,4.107a1.613,1.613,0,0,1-3.108-.858c1.024-3.846,2.9-7.44,3.679-11.351a9.942,9.942,0,0,0-.244-5.568c-.28-.685-.8-1.63-1.582-1.827a1.191,1.191,0,0,0-.491-.015c-.255.751-.534,1.5-.847,2.234-.6,1.412-2.523.736-2.946-.386a3.633,3.633,0,0,1,1.122-3.973,26.229,26.229,0,0,0,.561-12.528,23.958,23.958,0,0,1-5.407,1.618c-1.266.219-2.677-1.086-1.82-2.368a19.463,19.463,0,0,0,2.451-16.454,41.1,41.1,0,0,1-6.087,2.965c-1.665.65-2.467-1.6-1.57-2.7,5.939-7.236,10.838-16.628,9.475-26.2-2.782,1.046-5.523,2.185-8.2,3.481-1.578.765-3.352-1.215-1.952-2.531a23.848,23.848,0,0,0,3.91-4.412c-.1.013-.192.039-.29.045a6.3,6.3,0,0,1-.783.122,5,5,0,0,1-2.979-.8c-.48-.034-.959-.072-1.44-.071-.138,0-.275,0-.412.012-.045,0-.227.034-.259.035a4.438,4.438,0,0,0-.761.228,1.629,1.629,0,0,1-1.983-1.127,1.656,1.656,0,0,1,1.126-1.982,4.874,4.874,0,0,1,1.248-.307A5.278,5.278,0,0,1,1134,161.5l-.076-3.932c-10.864-.558-21.747-.713-32.635-.694a41.718,41.718,0,0,1,3.844,5.08c.98,1.527-1.4,3.392-2.531,1.954a26.085,26.085,0,0,0-8.981-6.893c-.074-.037-.15-.07-.223-.107q-2.975.023-5.949.052c-.124.549-.234,1.1-.317,1.658-1.065,7.157.961,14.385,3.277,21.2.674-2.829,1.511-5.616,2.347-8.3.631-2.029,3.821-1.158,3.188.879-2.347,7.551-5.022,15.962-2.917,23.88a18.953,18.953,0,0,0,1.042,2.975,2.066,2.066,0,0,0,.413.665,7.113,7.113,0,0,0,1.437-.68c1.68-.8,3.352-1.622,4.982-2.521a27.155,27.155,0,0,0,8.679-6.848c1.255-1.634,4.008-.195,2.855,1.669a41.86,41.86,0,0,1-10.7,11.555c-1.086.807-2.628,1.491-3.495,2.538s-.671,2.6-.652,3.888a44.265,44.265,0,0,0,.9,8.288,47.521,47.521,0,0,0,6.221,15.516c.217.349,1.5,2.819,1.935,2.865.4.044,1.439-1.131,1.732-1.385q.872-.756,1.721-1.541c.136-.125.261-.262.395-.388a32.35,32.35,0,0,1,5.526-5.8,1.655,1.655,0,0,1,2.339,2.338,72.553,72.553,0,0,1-5.291,5.548,26.478,26.478,0,0,0-4.913,11.629,23.54,23.54,0,0,0-.218,4.931,20.446,20.446,0,0,0,.264,2.346q.06.339.131.676c.239-.121.486-.326.676-.444a41.581,41.581,0,0,0,6.421-4.943,24.688,24.688,0,0,1,2.57-2.559,1.654,1.654,0,0,1,2.338,2.338c-.791.858-1.62,1.673-2.468,2.466a25.238,25.238,0,0,0-5.168,9.855,30.346,30.346,0,0,0-1.034,13.061,10.049,10.049,0,0,0,2.491,5.419c.557.556,1.629,1.522,2.446,1.531.99.013,1.423-1.976,1.8-2.851a124.315,124.315,0,0,0,5.906-17.187,1.655,1.655,0,0,1,3.189.879,129.168,129.168,0,0,1-5.438,16.018,1.663,1.663,0,0,1,.588.81c.852,2.433.534,4.893.576,7.411.037,2.145.558,4.477,2.864,5.189,2.2.68,3.43-1.082,3.7-3.049.33-2.417.032-4.641,1.335-6.837.794-1.339,3.21-.856,3.081.834-.353,4.663-.745,9.324-1.056,13.989-.245,3.665-.415,7.8,1.736,10.985,1.042,1.54,2.916,3.065,4.9,2.725a3.085,3.085,0,0,0,2.229-1.849c.05-.445.1-.891.157-1.333a45.114,45.114,0,0,1,4.274-14.852c.869-1.723,3.473-.484,3.021,1.274q-1.17,4.561-2.339,9.121a45.64,45.64,0,0,1-1.878,6.606c-.031.326-.068.651-.1.977-.372,4.526-.722,9.319.195,13.8a15.844,15.844,0,0,0,2.3,5.793c.954,1.4,3.527,4.41,5.511,3.613,1.055-.423,1.7-2.352,2.174-3.3a34.9,34.9,0,0,0,1.733-4.145,35.4,35.4,0,0,0,1.785-8.18c.2-2.1,3.508-2.116,3.307,0a43.67,43.67,0,0,1-1.5,7.917q3.31,6.577,6.686,13.12c2.042,3.937,4.216,7.454,8.217,9.638a32.362,32.362,0,0,0,3.3,1.541c.5.2,1,.4,1.506.6.17.064.794.179.905.374a21.087,21.087,0,0,0,.395-3.4q.2-1.832.29-3.677a57.612,57.612,0,0,0-.1-7.051q-.553-3.911-1.11-7.821c-.27-1.867,2.49-2.738,2.906-.8a61.859,61.859,0,0,1,1.2,8.355q.573,3.962,1.143,7.924c.564,3.913,1.039,8.01,2.709,11.64a12.619,12.619,0,0,0,3.1,4.345c.774.672,1.89,1.684,2.824.927a4.332,4.332,0,0,0,1.1-2.489,31.3,31.3,0,0,0,.039-6.889l-.058-1.685a21.713,21.713,0,0,1-.227-6.57,1.509,1.509,0,0,1,3.015,0l.213,6.2a32.446,32.446,0,0,0,3.386,9.2c2.217,4.2,4.757,8.783,8.322,12,3.647,3.287,8.648,4.174,13.379,4.724a1.727,1.727,0,0,1,1.531-2.21,32.968,32.968,0,0,0-1.283-12.345,1.508,1.508,0,0,1,2.906-.8,37.529,37.529,0,0,1,1.471,8.638,23.971,23.971,0,0,1-.474,7.7,38.64,38.64,0,0,0,15.421,14.913,20.875,20.875,0,0,0,2.743,1.3c1.355.475,1.518-.006,1.5-1.288a42.635,42.635,0,0,0-.787-7.326,51,51,0,0,0-4.559-13.535c-.925-1.843,1.756-3.448,2.784-1.627,2.414,4.276,3.754,9.005,5.321,13.628,1.483,4.372,3.264,8.83,6.737,12.02a19.723,19.723,0,0,0,6.8,3.883c1.314.467,2.657.847,4.008,1.184a15.808,15.808,0,0,0,3.135.789c1.248-.64-2.552-7.326-2.962-8.175l-1.965-4.063c-.872-1.647-1.694-3.318-2.427-5.019-.8-1.863,1.867-3.522,2.784-1.628q1.348,2.789,2.7,5.579c3.849,7.14,9.094,13.707,16.064,17.862,3.833,2.285,8.5,3.969,13.032,3.612,1.377-.108,1.148-.62.971-1.853a28.524,28.524,0,0,0-.891-4.018,29.005,29.005,0,0,0-3.376-7.329c-.969-1.529,1.39-3.389,2.533-1.952,3.07,3.864,6.016,7.891,9.342,11.54,2.961,3.25,6.6,6.22,11.154,6.6a9.077,9.077,0,0,0,5.849-1.326c1.27-.859.655-1.385.006-2.595q-.874-1.627-1.824-3.212c-.761-1.268-1.568-2.5-2.4-3.722a56.143,56.143,0,0,1-6.72-8.594,1.619,1.619,0,0,1,2.531-1.954,84.047,84.047,0,0,1,6.653,8.479,53.346,53.346,0,0,0,24.595,14.615c.685.067,1.47.142,2.313.218,1.295-12.958-3.85-25.433-3.771-38.349C1345.026,373.729,1344.809,371.99,1344.59,370.249Z" transform="translate(13.686 71.074)" fill="#e9af16"/>
    <path id="Pfad_118" data-name="Pfad 118" d="M1320.107,366.406a22.264,22.264,0,0,1,11.3.166q-2.371-19.1-4.288-38.253c-.411-4.121-.777-8.247-1.161-12.371a6.863,6.863,0,0,0-3.114,1.956c-3.28,2.942-6.834,4.8-11.347,4.241a13.009,13.009,0,0,1-9.719-6.351c-3.664-6.278,5.964-12.14,9.622-5.874.66,1.132,1.655,1.5,2.715.714,2.854-2.125,4.837-4.612,8.431-5.623a13.419,13.419,0,0,1,2.372-.42c-.373-4.283-.715-8.568-1.057-12.853-3.134,2.671-6.542,4.32-10.815,3.794a13.014,13.014,0,0,1-9.721-6.351c-3.664-6.278,5.964-12.14,9.622-5.875.661,1.132,1.656,1.506,2.716.716,2.507-1.869,4.345-4.013,7.192-5.192-.864-12.149-1.687-24.32-4.28-36.247q-1.122-5.163-2.6-10.239a60.464,60.464,0,0,1-2.076-8.453,68.414,68.414,0,0,1-19.026-6.184c-16.521,11.272-32.322,23.549-48.024,35.922l-1.113.878-37.357,38.876a11.547,11.547,0,0,1,1.16,5.314,10.5,10.5,0,0,1-1.006,4.624,9.227,9.227,0,0,1-1.181,1.715,4.262,4.262,0,0,1-.613.637,10.564,10.564,0,0,1-3.677,2.169,8.211,8.211,0,0,1-1.551.324,10.38,10.38,0,0,1-1.554.178,15.1,15.1,0,0,1-5.639-1.243,7.505,7.505,0,0,1-3.834-1.233,8.37,8.37,0,0,1-1.7-1.379,8.261,8.261,0,0,1-1.81-2.966,8.979,8.979,0,0,1-.326-4.668c.563-4.254,4.524-7.374,8.471-8.359a17.267,17.267,0,0,1,2.134-.377,1.6,1.6,0,0,1,.16-.319,1.542,1.542,0,0,1,.431-1.154,277.732,277.732,0,0,0,21.549-27.419c6.02-8.52,11.876-17.153,17.992-25.606,6.314-8.725,12.816-17.313,19.413-25.825,3.668-4.734,7.331-9.518,11.072-14.25a56.521,56.521,0,0,1-3.515-6.493,61.027,61.027,0,0,1-4.1-12.453c-.711.317-1.426.623-2.161.882a1.345,1.345,0,0,1-1.707-.6,1.6,1.6,0,0,1-.513.036c-14.705-1.408-29.332-3.523-43.919-5.834q-5.143-.814-10.286-1.656c-9.169,7.022-21.38,9.271-31.94,3.781a25.783,25.783,0,0,1-10.692-10.359c-7.7-1.037-15.411-1.941-23.151-2.633-1.171,1.711-2.32,3.439-3.473,5.158a10.341,10.341,0,0,1-1.5,4.409c1.385-.56,2.779-1.1,4.187-1.6a1.622,1.622,0,0,1,1.983,1.126c2.047,9.108-1.033,18-5.962,25.608.466-.285.929-.574,1.384-.879a1.635,1.635,0,0,1,2.368.963,22.472,22.472,0,0,1-.258,17.635,21,21,0,0,0,2.943-1.274,1.632,1.632,0,0,1,2.368.963,29.423,29.423,0,0,1,.315,14.189c2.16.368,3.691,2.377,4.373,4.405,1.22,3.622.37,7.262-.863,10.825a5.035,5.035,0,0,1,3.566,1.106c1.853,1.442,2.41,3.719,2.558,5.964.276,4.168.218,8.393.183,12.6a18.985,18.985,0,0,0,1.778-4.115,1.63,1.63,0,0,1,2.947-.386,56.812,56.812,0,0,1,5.619,16.581,1.632,1.632,0,0,1,2.762.046,63.07,63.07,0,0,1,3.772,11.535,1.605,1.605,0,0,1,1.916.259,31.4,31.4,0,0,1,8.188,15.823,4.318,4.318,0,0,1,4.355,1.411,7.078,7.078,0,0,1,1.256,2.009,1.776,1.776,0,0,1,.579.281,28.268,28.268,0,0,1,7.209,8.335c.061-.169.1-.347.173-.511,1.574-3.731,5.549-2.36,7.626.072a46.763,46.763,0,0,1,6.982,11.161,3.189,3.189,0,0,1,2.753-2.035c1.588-.067,2.837,1.119,3.762,2.262a31.282,31.282,0,0,1,5.372,9.913q.271-.743.583-1.475a1.624,1.624,0,0,1,2.531-.326,56.43,56.43,0,0,1,10.8,14.766c.018-.182.035-.362.053-.544a21.4,21.4,0,0,1,.744-5.331,3.628,3.628,0,0,1,3.162-2.544c1.662-.089,3.047,1.119,4.011,2.335a31.23,31.23,0,0,1,2.777,4.2,1.841,1.841,0,0,1,1.078-.432c4.016-.134,7.127,2.864,8.787,6.284a17.144,17.144,0,0,1,.8,2.012,5.139,5.139,0,0,1,.494-2.4c1.845-3.4,7.475-1.224,9.792.414,3.217,2.277,5.364,5.594,7.106,9.064.4.788.781,1.584,1.173,2.375a29.346,29.346,0,0,1,.005-6.6,1.642,1.642,0,0,1,2.042-1.555,22.5,22.5,0,0,1,13.152,9.3,1.526,1.526,0,0,1,1.02-.886c7.411-1.215,13.224,2.372,17.968,7.326.307-2.232,1.675-4.519,4.054-4.752a5.214,5.214,0,0,1,4.223,1.974c1.421,1.477,2.752,3.052,4.049,4.636,1.067,1.3,2.092,2.635,3.094,3.985-.469-1.853-1-3.691-1.625-5.5A1.624,1.624,0,0,1,1320.107,366.406Z" transform="translate(26.45 71.463)" fill="#e9af16"/>
    <path id="Pfad_119" data-name="Pfad 119" d="M1132.232,153.446c-.455-.3-.919-.594-1.385-.879,3.452,5.329,5.989,11.285,6.5,17.506,1.637,1.153,3.288,2.284,4.977,3.361a6.192,6.192,0,0,1,2.654,3.317,4.489,4.489,0,0,1,.219,1.382l11.188-.044a38.107,38.107,0,0,1,.718-3.839,8.372,8.372,0,0,1,.053-.949c1.764-14.466,16.374-22.524,29.731-23.081,12.275-.511,24.06,5.74,26.99,18.347.208.895.359,1.8.48,2.7q21.771-3.981,43.467-8.356a1.787,1.787,0,0,1,.4-.034,1.381,1.381,0,0,1,2.014-.4c.755.513,1.528,1,2.3,1.487a48.178,48.178,0,0,1,1.295-5.123,62.591,62.591,0,0,1,9.26-18.153c-5.041-5.911-9.94-11.944-14.59-18.169-3.679-4.925-7.207-9.963-11.032-14.777-3.428-4.312-7.021-8.491-10.689-12.6-7.473-8.365-15.267-16.438-22.7-24.837-3.708-4.189-7.327-8.458-10.762-12.875a96.719,96.719,0,0,1-9.5-13.791,1.6,1.6,0,0,1-.192-.856,1.458,1.458,0,0,1-.126-.919,11.325,11.325,0,0,1-5.935.094,9.085,9.085,0,0,1-2.474-1.17c-.676.641-1.383,1.255-2.127,1.831a1.8,1.8,0,0,1-.584.284,7.012,7.012,0,0,1-1.252,2.007,4.33,4.33,0,0,1-4.354,1.407,31.394,31.394,0,0,1-8.189,15.827,1.6,1.6,0,0,1-1.916.26,63.008,63.008,0,0,1-3.771,11.534c-.49,1.122-2.165.957-2.762.046a56.775,56.775,0,0,1-5.62,16.581,1.63,1.63,0,0,1-2.945-.386,18.97,18.97,0,0,0-1.78-4.114c.035,4.2.093,8.429-.182,12.6-.148,2.243-.708,4.524-2.56,5.963a5.03,5.03,0,0,1-3.564,1.106c1.233,3.563,2.083,7.2.863,10.825-.678,2.013-2.236,4.035-4.377,4.392a29.434,29.434,0,0,1-.311,14.2,1.633,1.633,0,0,1-2.368.963,21.093,21.093,0,0,0-2.944-1.274,22.47,22.47,0,0,1,.259,17.635A1.635,1.635,0,0,1,1132.232,153.446Z" transform="translate(26.431 37.461)" fill="#e9af16"/>
    <path id="Pfad_120" data-name="Pfad 120" d="M1187.15,52.437l43.351,47.744c8.205,6.5,16.589,12.793,24.989,19q11.9,8.788,24.058,17.211a89.463,89.463,0,0,1,15.73-6.9c-.748-1.6-1.489-3.2-2.277-4.78a1.639,1.639,0,0,1-.176-.832,1.694,1.694,0,0,1-.855-1.751c.94-6.235,2.479-12.353,3.906-18.49a6.159,6.159,0,0,1-1.506-3.628,5.523,5.523,0,0,1,3.474-5.261c.949-4.418,1.867-8.844,2.727-13.28.075-.388.144-.778.218-1.166a18.311,18.311,0,0,1-4.539-4.462,18.824,18.824,0,0,1-3.306-11.834,20.178,20.178,0,0,1,11.4-16.544,15.431,15.431,0,0,1,2.335-1.357q.543-3.5,1.07-6.993a26.178,26.178,0,0,1-3.96-1.438c-10.7-4.944-14.679-18.85-15.2-29.629a5.722,5.722,0,0,1,5.527-5.742c3.1-.2,5.6,2.584,5.742,5.526a32.455,32.455,0,0,0,1.346,8.278A23.054,23.054,0,0,0,1304.086,23c.3.482.615.941.932,1.408.107.141.184.245.241.32.206.239.415.475.634.7.384.4.8.765,1.208,1.136l.219.177c.211.143.427.28.647.408a9.6,9.6,0,0,0,1.458.685q1.1-7.519,2.164-15.042-.143-7.612-.286-15.223c0-.133.022-.246.03-.373a7.464,7.464,0,0,1-3.564-1.213,11.855,11.855,0,0,1-1.149-.87,23.073,23.073,0,0,1-3.092-.53A1.628,1.628,0,0,1,1302.4-7.4c.548-1.6,1.023-3.224,1.454-4.858.015-.16.031-.32.05-.48-.965,1.293-1.949,2.573-2.973,3.821-1.346,1.642-2.715,3.313-4.218,4.815a5.085,5.085,0,0,1-4.054,1.8c-2.381-.231-3.749-2.522-4.056-4.753-4.743,4.955-10.556,8.541-17.968,7.327a1.523,1.523,0,0,1-1.019-.889,22.5,22.5,0,0,1-13.153,9.3,1.64,1.64,0,0,1-2.04-1.554,29.275,29.275,0,0,1,.041-6.937c-2.219,4.319-4.15,8.836-8.327,11.774-2.321,1.633-7.942,3.825-9.79.414a5.136,5.136,0,0,1-.509-2.364,17.565,17.565,0,0,1-.787,1.981c-1.648,3.423-4.782,6.417-8.789,6.283a1.837,1.837,0,0,1-1.07-.429,30.887,30.887,0,0,1-2.783,4.2c-1.034,1.3-2.463,2.488-4.224,2.307a3.689,3.689,0,0,1-3.024-2.7,25.443,25.443,0,0,1-.7-5.452l-.022-.236a56.4,56.4,0,0,1-10.8,14.766,1.626,1.626,0,0,1-2.533-.326c-.209-.487-.4-.979-.581-1.473a31.2,31.2,0,0,1-5.374,9.912c-.984,1.212-2.293,2.408-3.976,2.232a2.872,2.872,0,0,1-.742-.19c.089.762.131,1.533.151,2.288.085,3.3-.761,6.728-3.22,9.084C1187.3,52.324,1187.218,52.373,1187.15,52.437Z" transform="translate(42.735 21.959)" fill="#e9af16"/>
    <path id="Pfad_121" data-name="Pfad 121" d="M1271.5-81.034c2.13,4.418,7.277,4.729,11.537,4.443a12.245,12.245,0,0,1,3.177.009c.721.144.7.156.813.847a27.344,27.344,0,0,1,.144,6.492c-.347,4.722-.206,9.963,4.278,12.794,3.976,2.511,8.8.6,10.83-3.435a20.36,20.36,0,0,0,1.588-6.934q.478-4.052.953-8.1a9.835,9.835,0,0,1,.254-2.262c-.026.182.442-.041.731-.061,2.371-.159,4.824.288,7.2.361,2.427.076,4.907-.38,6.592-2.276a5.5,5.5,0,0,0,.672-6.646c-1.291-1.97-3.584-2.547-5.8-2.638-2.7-.112-5.427,0-8.13,0l-17.347.01c-5.269,0-11.619-.907-16.341,1.94a3.407,3.407,0,0,0-1.519,3.47A3.811,3.811,0,0,0,1271.5-81.034Zm22.444,7.62-.019.072C1293.77-73.333,1293.551-73.318,1293.948-73.413Zm20.9-8.523.428.039C1315.069-81.7,1314.936-81.766,1314.844-81.936Z" transform="translate(67.039)" fill="#e9af16"/>
    <path id="Pfad_122" data-name="Pfad 122" d="M1540.819,172.271a7.609,7.609,0,0,0,4.181-1.746c1.414-1.379,1.616-3.143,1.616-5.018,0-3.742.191-7.559-.063-11.293-.237-3.493-1.737-6.356-4.975-7.924-3.383-1.638-7.083-2.756-10.6-4.075l-11.126-4.177c-3.805-1.428-8.419-4.048-12.459-2-3.844,1.949-4.43,7.4-.6,9.712a3.065,3.065,0,0,0,1.72.468,3.489,3.489,0,0,0,.77.276q4.733,1.06,9.387,2.428c1.669.7,3.344,1.372,5.038,2,.307.113.618.215.926.328a35.724,35.724,0,0,0-.458,5.911c.009,1.455.069,2.909.059,4.364-.005.722-.024,1.446-.077,2.166a9.5,9.5,0,0,1-.242,1.769c-.355.107-.709.215-1.064.321a77.532,77.532,0,0,1-18.1,3.513,3.367,3.367,0,0,0-2.9,4.587,3.318,3.318,0,0,0,3.719,4.573l23.292-4.087C1532.844,173.671,1536.834,172.983,1540.819,172.271Zm-5.8-17.3a2.905,2.905,0,0,1,1.158,4.155c-.9,1.892-2.892,3-4.774,3.78.034-1.181.1-2.363.194-3.542.15-1.818.357-3.541.575-5.227.067-.117.133-.235.188-.357.331.1.663.19.994.285A16.145,16.145,0,0,1,1535.016,154.976Z" transform="translate(133.781 64.823)" fill="#e9af16"/>
    <path id="Pfad_123" data-name="Pfad 123" d="M1308.418,370.508l-6.947.025a3.365,3.365,0,0,0-.419.043,2.57,2.57,0,0,0-.649-.061,3.312,3.312,0,0,0-3.224,3.224,141.848,141.848,0,0,0-.609,14.176c-2.33-2.689-4.5-5.528-6.823-8.227-1.917-2.226-4.094-4.948-6.725-6.347a10.98,10.98,0,0,0-5.411-.855l-5.713.016a3.019,3.019,0,0,0-3.092,2.962,3.191,3.191,0,0,0,.551,3.766l6.643,6.015c2.18,1.973,4.464,3.882,6.463,6.043a30.1,30.1,0,0,1,2.183,2.7,18.573,18.573,0,0,0-8.805,6.814c-2.871,4.293-2,9.485,2.346,12.339,3.878,2.546,9.031,2.9,13.533,2.947,4.587.045,9.183-.1,13.77-.242a3.2,3.2,0,0,0,4.452-2.339,3.71,3.71,0,0,0,.054-1.852c-.019-8.7.179-17.443.939-26.109a29.434,29.434,0,0,1,.981-5.66c.584-2.01,2.258-4.047,1.764-6.208C1313.087,371.079,1310.746,370.5,1308.418,370.508ZM1298.7,405.1c-.009.166-.021.333-.033.5-.008.1-.012.153-.014.208s-.036.134-.065.258c-.085.373-.169.742-.283,1.106-.013.044-.067.205-.1.31a.846.846,0,0,1-.042.1c-.048.088-.1.179-.153.271a.487.487,0,0,1-.089.153c-.011.021-.025.041-.035.061.011-.024.014-.026.024-.046-.011.014-.019.03-.032.044l-.043.046-.086.048h0c-1.663.28-3.319.708-4.981,1.01a13.243,13.243,0,0,1-2.1.276,12.955,12.955,0,0,1-1.4.013c-.151-.008-.3-.028-.455-.03.694.01-.1-.019-.261-.054a8.393,8.393,0,0,1-.953-.262c-.047-.015-.21-.088-.308-.13l-.078-.044c-.159-.1-.32-.188-.478-.286l-.027-.017c-.129-.122-.254-.25-.384-.373l-.014-.014,0-.01a3.086,3.086,0,0,0-.244-.423l-.012-.013a4.014,4.014,0,0,1-.151-.423c0-.043,0-.093,0-.166,0-.132,0-.264-.006-.4.011-.071.027-.357.048-.444.032-.125.073-.245.111-.368.061-.1.133-.21.191-.316.1-.093.193-.186.281-.282l.024-.03.039-.018c.4-.21.78-.471,1.185-.678.334-.172.671-.337,1.01-.5.2-.094.4-.187.6-.276h0c.4-.159.81-.306,1.224-.429.209-.062.42-.12.632-.17.046-.012.407-.081.554-.115.094-.009.21-.023.214-.023.335-.017.668-.026,1-.017a2.785,2.785,0,0,0,1.657.157c.233.04.467.08.7.121.437.079.876.157,1.31.246a17.113,17.113,0,0,1,2.014.54C1298.7,404.506,1298.712,404.8,1298.7,405.1Zm-12.006,3.519c-.4-.25-.121-.094,0,0Zm2.755-4.747Zm-3.574,3.206c0,.005,0,.125.008.232A.409.409,0,0,1,1285.872,407.078Z" transform="translate(66.273 132.938)" fill="#e9af16"/>
    <path id="Pfad_124" data-name="Pfad 124" d="M1072.215,144.648c-4.291-2.66-9.56-3.105-14.49-2.972-4.743.128-9.228,1.115-12.359,4.958a24.622,24.622,0,0,0-4.827,11.92c-.08.518-.145,1.039-.2,1.559a19.037,19.037,0,0,0-.727,6.347,16.492,16.492,0,0,0,6.87,12.441c3.978,3.007,8.568,5.187,13.646,5.113a20.659,20.659,0,0,0,13.1-5.037,23.1,23.1,0,0,0,6.661-24.269A18.715,18.715,0,0,0,1072.215,144.648Zm-6.648,29.579a4.1,4.1,0,0,0-1.4.005c-5.223.945-13.974-1.958-13.864-8.351a15.164,15.164,0,0,1,3.351-9.205,8.394,8.394,0,0,1,7.384-2.3,10.709,10.709,0,0,1,9.276,11.65,11.6,11.6,0,0,1-3.419,7.174A8.432,8.432,0,0,1,1065.567,174.227Z" transform="translate(0 66.668)" fill="#e9af16"/>
  </g>
</svg>
