<svg xmlns="http://www.w3.org/2000/svg" width="777.655" height="783.409" viewBox="0 0 777.655 783.409">
  <g id="Gruppe_3" data-name="Gruppe 3" transform="translate(47.918 90)">
    <g id="Gruppe_1" data-name="Gruppe 1" transform="translate(194.198 168.106)">
      <path id="Pfad_1430" data-name="Pfad 1430" d="M-752.4,125.836a10.7,10.7,0,0,1-2.222,1.5c5.931-.942,11.281-4.065,17.057-5.728a35.33,35.33,0,0,0-13.126-7.6,7.739,7.739,0,0,1,.929,1.535C-748.206,119.091-749.565,123.334-752.4,125.836Z" transform="translate(943.531 -12.447)" fill="#e9af16"/>
      <path id="Pfad_1431" data-name="Pfad 1431" d="M-757.643,117.964c.009,0,0,0,.009,0l.009,0h0l-.007,0a.541.541,0,0,1,.2-.051.156.156,0,0,0,.034-.006.856.856,0,0,0,.093-.049,2.221,2.221,0,0,1,.207-.126c.009-.006,0,0,.01,0a4.577,4.577,0,0,0,.387-.368c.447-.48.677-.99.311-1.522,0,.009-.124-.071-.108-.073a.883.883,0,0,0-.455.187,1.684,1.684,0,0,0-.557,1.194,1.2,1.2,0,0,1-.425.707c.149.053.289.092-.027.021h0c.055.013.111.032.171.048A.561.561,0,0,0-757.643,117.964Z" transform="translate(942.785 -12.055)" fill="#e9af16"/>
      <path id="Pfad_1432" data-name="Pfad 1432" d="M-836.109,115.014c-.964.436-1.687,1.57-.542,2.259.99.6,2.14-.351,2.458-1.286a1.1,1.1,0,0,0-.361-1.315A4.756,4.756,0,0,0-836.109,115.014Z" transform="translate(925.081 -12.298)" fill="#e9af16"/>
      <path id="Pfad_1433" data-name="Pfad 1433" d="M-786.424,190.686c-2.809,1.081-5.688,2.965-8.837,2.352-3.323-.647-4.572-4.425-8.052-4.505-3.526-.083-6.574,2.233-9.61,3.678a13.632,13.632,0,0,1-8.237,1.559c-.016.186-.037.372-.056.558a21.383,21.383,0,0,0,16.233,2.223c1.9-.464,3.494-.595,5.043.782,1.9,1.693,3.467,3.116,6.151,3.3,4.928.339,7.747-4.382,12.227-5.456,2.64-.634,4.886.736,7.5.735a13.605,13.605,0,0,0,4.524-.844c-3.151-.642-5.465-2.762-8.229-4.24C-780.725,189.249-783.385,189.516-786.424,190.686Z" transform="translate(928.659 4.195)" fill="#e9af16"/>
      <path id="Pfad_1434" data-name="Pfad 1434" d="M-842.355,126.658c-1.847-2.454-2.356-6.01-2.064-8.986a11.261,11.261,0,0,1,2.115-5.547c-4.745,2.208-8.454,6.5-11.778,10.415,3.672,3.73,8.459,5.346,13.476,5.757A7.518,7.518,0,0,1-842.355,126.658Z" transform="translate(921.319 -12.867)" fill="#e9af16"/>
      <path id="Pfad_1435" data-name="Pfad 1435" d="M-841.3,125.817l.014.012c.139.1.279.2.426.284s.272.148.409.223a.841.841,0,0,1,.12.072.9.9,0,0,1,.133.037c.338.109.67.2,1.016.275a1.064,1.064,0,0,1,.138.037,1.014,1.014,0,0,1,.139,0c.16.011.322.024.483.031a11.335,11.335,0,0,0,1.24-.043c.055,0,.109-.012.164-.018l.038-.006c.214-.037.427-.073.639-.119a14.776,14.776,0,0,0,2.3-.714c.045-.018.038-.013.06-.022l.057-.027c.084-.038.169-.075.252-.114q.314-.145.623-.3c.351-.179.695-.371,1.034-.573q.565-.338,1.1-.714.253-.178.5-.365l.013-.009.037-.029.21-.171a15.521,15.521,0,0,0,1.755-1.682c.131-.148.256-.3.38-.454.039-.053.131-.171.175-.232a9.764,9.764,0,0,0,.565-.889c.092-.163.171-.332.257-.5a.89.89,0,0,1,.055-.094.222.222,0,0,1,.015-.065c.1-.3.19-.585.261-.888a.768.768,0,0,1,.038-.125.314.314,0,0,1-.006-.076c0-.127.012-.254.01-.383,0-.04-.013-.17-.021-.261s-.042-.2-.051-.239c-.031-.113-.093-.264-.1-.292-.04-.082-.079-.165-.126-.243s-.149-.212-.175-.253c-.068-.078-.135-.158-.208-.232-.044-.044-.231-.21-.3-.279-.078-.053-.281-.2-.334-.236a4.506,4.506,0,0,0-1.559-.619,5.384,5.384,0,0,1-3.577,5.729,4.609,4.609,0,0,1-5.828-2.918c-.71-2.334.8-4.421,2.816-5.407a1.885,1.885,0,0,1,.927-.728,4.1,4.1,0,0,1,2.684-.009l.132-.006a20.278,20.278,0,0,0-4.586-1.118,1.486,1.486,0,0,1-1.5,1.223c-3.929.026-5.274,4.455-5.113,7.676a11.8,11.8,0,0,0,.781,3.816c.008.021.008.022.007.021.01.018.028.054.065.13.053.105.1.212.16.316q.159.3.349.582c.059.089.12.175.184.262l.027.029c.137.154.274.307.423.45C-841.48,125.658-841.389,125.735-841.3,125.817Z" transform="translate(923.665 -13.103)" fill="#e9af16"/>
      <path id="Pfad_1436" data-name="Pfad 1436" d="M-765.415,116.835a13.8,13.8,0,0,0,2.2,5.422c.231.366.477.723.739,1.068.048.058.18.223.212.261.109.127.22.252.336.374s.243.237.365.356c.032.032.044.043.065.062a8.72,8.72,0,0,0,1.222.639,8.162,8.162,0,0,0,7.374-.767,6.523,6.523,0,0,0,2.962-5.91,4.732,4.732,0,0,0-1.744-3.025,4.491,4.491,0,0,1,.274,2.691c-.579,2.7-3.869,4.707-6.408,3.332a5.446,5.446,0,0,1-2.636-4.925,5.149,5.149,0,0,1,1.541-3.438,21.7,21.7,0,0,0-5.007,1.058,1.4,1.4,0,0,1-.177.086c-.151.038-.3.078-.444.13l-.012,0c-.128.067-.59.42-.325.177a2.65,2.65,0,0,0-.22.217c-.07.109-.131.221-.19.336,0,.039-.109.357-.13.443,0,.023-.02.117-.029.185,0,.048-.007.1-.007.119,0,.214-.011.426,0,.64.007.148.02.3.034.444C-765.425,116.744-765.468,116.507-765.415,116.835Z" transform="translate(941.111 -12.678)" fill="#e9af16"/>
      <path id="Pfad_1437" data-name="Pfad 1437" d="M-832.647,126.587c6.245-1.209,12.385-2.976,18.68-3.675-.292-.153-.58-.323-.871-.483a1.345,1.345,0,0,1-1.731-.352c-.339-.394-.635-.818-.954-1.226-2.933-1.824-5.791-3.818-8.719-5.45a5.852,5.852,0,0,1,.139,3.7C-827.033,122.285-829.732,124.858-832.647,126.587Z" transform="translate(926.106 -12.136)" fill="#e9af16"/>
      <path id="Pfad_1438" data-name="Pfad 1438" d="M-761.487,126.227a11.658,11.658,0,0,1-2.806-3.243,17.038,17.038,0,0,1-2.459-7.153,29.719,29.719,0,0,0-3.236,2.814,13.6,13.6,0,0,1-3.931,2.974,45.776,45.776,0,0,0,8.256,3.44C-764.292,125.517-762.893,125.9-761.487,126.227Z" transform="translate(939.221 -12.04)" fill="#e9af16"/>
      <path id="Pfad_1439" data-name="Pfad 1439" d="M-660.471,248.038c18.741-22.464,26.732-51.415,27.63-80.263a166.994,166.994,0,0,0-1.466-28.736,1.828,1.828,0,0,1-.251-1.66,126.028,126.028,0,0,0-2.552-12.488,1.78,1.78,0,0,1-.486-1.708c-3.685-13.279-9.716-25.79-19.007-36.6-9.064-10.547-20.077-19.216-31.537-27.007-12.294-8.356-25.236-16.032-39.184-21.294a117.69,117.69,0,0,0-55.307-6.446,1.78,1.78,0,0,1-1.73.231,137.476,137.476,0,0,0-23.474,5.161,161.008,161.008,0,0,0-41.108,19.766c.125.161.26.314.384.476,1.273,1.658-1.548,3.272-2.8,1.638-.076-.1-.159-.191-.235-.29q-3.775,2.626-7.4,5.456c.015,1.122-1.127,2.135-2.135,1.671a166.83,166.83,0,0,0-14.884,13.569c-18.4,18.946-34.806,44.507-32.188,72.02a1.3,1.3,0,0,1-.848,1.434c.421,6.722.977,13.434,1.8,20.119,3.506,28.542,11.965,56.624,29.13,80.036,15.882,21.662,38.5,38.7,64.57,45.829,28.432,7.777,58.912,3.9,86.268-6.136C-702.019,283.543-677.839,268.856-660.471,248.038Zm-56.072-84.375c-8.4.848-18.289.141-23.818-7.112a1.631,1.631,0,0,1,.582-2.22,1.677,1.677,0,0,1,2.219.582c4.715,6.184,14.033,6.21,21.017,5.5a1.634,1.634,0,0,1,1.623,1.623A1.671,1.671,0,0,1-716.543,163.663Zm-23.438-50.59c7.506-3.183,16.438-5,24.557-3.5,12.25,2.255,23.97,8.545,33.24,16.755,1.567,1.388-.736,3.675-2.295,2.295a69.9,69.9,0,0,0-16.548-10.859c-5.319-2.51-11.367-4.805-17.271-5.336a43.471,43.471,0,0,0-23.017,4.836c-3.267,1.691-6.5,3.9-8.58,7a9.907,9.907,0,0,0-1.779,7.323,9.753,9.753,0,0,0,.555,1.855c4.19-6.791,11.387-10.591,18.975-12.428a43.663,43.663,0,0,1,13.338-1.42c4.772.374,8.648,2.688,12.622,5.171a66.443,66.443,0,0,1,10.616,7.95,38.286,38.286,0,0,1,4.36,4.888c1,1.341,2.505,3.039,2.173,4.85-.286,1.556-1.408,2.081-2.776,2.574-2.409.867-3.373,2.619-4.883,4.559-2.092,2.684-5.26,4.546-8.558,2.9-1.87-.933-.225-3.732,1.638-2.8,3.121,1.559,5.794-4.519,7.679-6.148a7.7,7.7,0,0,1,1.53-1.039c.369-.187,1.584-.354,1.732-.6.564-.943-1.835-3.3-2.461-4.032-4.551-5.293-10.577-9.248-16.613-12.655-6.645-3.751-14.765-2.557-21.81-.453-5.981,1.785-11.529,5-14.838,10.436a1.478,1.478,0,0,1-1.293.744c1.113,1.392,2.62,2.318,4.4,1.779,2.411-.732,4.223-3.643,6.186-5.153a21.065,21.065,0,0,1,4.843-2.784c.1-.04.205-.06.3-.1a6.091,6.091,0,0,1,1.061-.372c.033-.009.059,0,.092,0a26.412,26.412,0,0,1,11.492-1.056,37,37,0,0,1,22.461,11.531,1.54,1.54,0,0,1,.409.991,1.394,1.394,0,0,1-1.1,1.863c-8.737,1.661-16.1,7.107-25.28,6.751a43.242,43.242,0,0,1-13.471-2.932c-3.747-1.41-7.675-2.975-10.7-5.657a1.552,1.552,0,0,1-.332-.442c-3.249-1.645-5.336-5.714-5.669-9.2C-755.846,122.212-747.2,116.136-739.98,113.073ZM-769.648,201.3c2.947-1.661,5.419-4.035,8.44-5.582a1.636,1.636,0,0,1,2.267.829,1.515,1.515,0,0,1,1.826,1.095,8.023,8.023,0,0,0,6.085,5.586,7.363,7.363,0,0,0,6.842-2.326,9,9,0,0,0,2.2-6.789c-.289-3.359-2.673-6-4.828-8.39-1.4-1.548.893-3.849,2.295-2.295,2.512,2.784,5.073,5.795,5.652,9.628A11.834,11.834,0,0,1-746,205.942c-5.754,2.206-12.294-1.38-14.132-7.093-2.629,1.464-4.888,3.478-7.474,5.016a14.549,14.549,0,0,1-4.773,1.808c.034.064.081.119.109.185a16.359,16.359,0,0,1,1.352,5.515,10.3,10.3,0,0,1-1.434,5.666,1.654,1.654,0,0,1-2.22.582,1.644,1.644,0,0,1-.582-2.22,6.451,6.451,0,0,0,.848-2.1c.013-.058.125-.669.088-.409.023-.166.035-.336.047-.505a9.538,9.538,0,0,0,0-1.183c-.012-.2-.031-.4-.055-.592q-.02-.174,0,.007c-.017-.114-.037-.226-.057-.339-.075-.4-.169-.8-.278-1.188a20.877,20.877,0,0,0-.837-2.371,1.178,1.178,0,0,1,.011-.855c-.362-.017-.717,0-1.084-.045a16.846,16.846,0,0,1-8.233-3.752c-.882-.7-5.084-5.5-6.235-3.272-.96,1.858-3.76.215-2.8-1.638,1.354-2.62,4.636-2.448,6.9-1.179a22.8,22.8,0,0,1,3.5,3.022,17.272,17.272,0,0,0,4.033,2.672A10.439,10.439,0,0,0-769.648,201.3Zm-74.884-58.771a1.559,1.559,0,0,1-.088-2.059,1.618,1.618,0,0,1,.24-1.782c3.592-4.225,7.473-8.608,12.511-11.132a18.58,18.58,0,0,1,15.462-.439,75.877,75.877,0,0,1,11.01,5.5c-.648-.938-1.319-1.862-2.038-2.75a18.064,18.064,0,0,0-11.366-6.684c-10.136-1.649-19.364,4.165-26.711,10.488-1.576,1.357-3.88-.93-2.295-2.295,7.942-6.833,17.641-12.839,28.56-11.51a20.939,20.939,0,0,1,12.622,6.027c3.118,3.2,5.206,7.185,7.845,10.755,4.525,2.721,12.9,7.263,13.29,3.256.2-2.1-.973-5.076-1.5-7.106a54.063,54.063,0,0,0-1.937-6.086c-1.9-4.853-4.715-9.051-9.417-11.525-18.345-9.648-49.53-8.131-58.662,13.732-.794,1.9-3.933,1.062-3.129-.862,5.061-12.116,17.111-19.174,29.712-21.173,11.537-1.829,24.728.108,34.862,6.142,8.613,5.131,12.181,17.029,13.271,26.438.5,4.344-3.222,5.3-6.781,4.956a1.415,1.415,0,0,1-1,.333C-807.3,143.963-830.162,158.147-844.532,142.53Zm29.05,20.366c-5.522,1.607-12.667.833-16.964-3.26-1.516-1.444.783-3.735,2.3-2.294,4.078,3.885,12.084,4.1,16.692,1.1,2.742-1.786,4.825-4.457,7.761-5.975,2.674-1.385,6.354-1.911,8.459.74,1.287,1.62-1,3.931-2.294,2.295-2.269-2.856-6.563,1.015-8.4,2.623C-810.224,160.131-812.5,162.029-815.482,162.9Zm11.465,20.839a12.5,12.5,0,0,1,3.63-3.628c1.719-1.106,3.917-1.391,5.527-2.658s3.934,1,2.295,2.295c-2.458,1.937-5.725,2.256-7.879,4.639a11.432,11.432,0,0,0-2.728,7.421,10.884,10.884,0,0,0,2.726,7.569c1.338,1.423,5,3.493,6.541,1.19,1.158-1.729,3.968-.1,2.8,1.638-2.169,3.236-6.637,3.066-9.641,1.123a13.041,13.041,0,0,1-5.494-9.046A15.253,15.253,0,0,1-804.017,183.735Zm44.482,66.929a8.483,8.483,0,0,1-4.781,1.417c-2.433-.039-4.727-1.25-7.176-.947-3.955.489-7.6,3.354-11.651,1.563-2.9-1.28-4.37-4.361-6.595-6.447-1.529-1.431.771-3.721,2.295-2.295,1.806,1.692,3.107,4.454,5.321,5.641,2.962,1.585,6.749-1.1,9.7-1.593a14.872,14.872,0,0,1,5.831.46,6.709,6.709,0,0,0,4.7-.18c2.719-1.359,4.039-4.547,4.463-7.389.308-2.063,3.435-1.181,3.13.862A12.981,12.981,0,0,1-759.535,250.664Zm22.779-16.1a12.137,12.137,0,0,1-5.927-7.1c-.08.113-.15.231-.236.34a7.183,7.183,0,0,1-.8.849,1.5,1.5,0,0,1-.308,2.449,25.341,25.341,0,0,1-8.569,3.11,13.085,13.085,0,0,1-3.7-.018c-1.747-.269-3.346-1.086-5.134-.625-2.421.626-4.37,2.759-6.5,3.962a11.469,11.469,0,0,1-6.234,1.528,11.677,11.677,0,0,1-6.367-2.283c-1.506-1.125-1.669-2.173-3.964-1.916-1.211.136-2.411.563-3.638.708a24.106,24.106,0,0,1-14.013-2.668c-.128.559-.263,1.116-.428,1.665-.6,2-3.729,1.143-3.129-.862a24.435,24.435,0,0,0-.241-14.769c-.663-1.99,2.472-2.836,3.129-.862a27.273,27.273,0,0,1,1.354,7.616c.018,0,.034,0,.053,0,6.378,1.5,11.584-5.511,18.1-5.221,2.63.117,4.308,1.414,6.124,3.162,2.973,2.863,6.348.321,9.525-.9,5.545-2.122,9.431-.626,14.228,2.445,3.011,1.927,6.573,3.233,8.689-.489,1.215-2.138,1.879-4.427,3.893-6l.022.028c.107-.092.193-.193.307-.281,1.464-1.123,3.4,1.429,1.966,2.548a6.356,6.356,0,0,0-1.16,1.215c-1.769,3.033,2,8.348,4.609,9.558C-733.222,232.645-734.873,235.441-736.755,234.569Z" transform="translate(909.045 -30.987)" fill="#e9af16"/>
    </g>
    <g id="Gruppe_2" data-name="Gruppe 2" transform="translate(-47.918 -90)">
      <path id="Pfad_1440" data-name="Pfad 1440" d="M-1025,119.215c-7.123-.85-14.517-1.77-21.7-1,6.5-.409,13.142.429,19.55,1.2,17.46,2.086,34.847,5.653,52.516,5.043q3.463-.119,6.889-.491c-1.573.132-3.151.239-4.737.294C-990.15,124.868-1007.537,121.3-1025,119.215Z" transform="translate(1119.679 246.44)" fill="#e9af16"/>
      <path id="Pfad_1441" data-name="Pfad 1441" d="M-963.137,129.41c.212.146.412.3.626.445a77.377,77.377,0,0,0,7.68-2.213c1.059-.368,2.113-.754,3.168-1.133a1.4,1.4,0,0,1-.74-.289q-25.756-19.61-52.457-37.926a1.6,1.6,0,0,1-.693-1.64c-5.946-.986-11.882-2.023-17.813-3.069,10.355,6.485,20.747,12.917,31.01,19.544a130.4,130.4,0,0,1,14.882,11.093c4.85,4.214,9.543,8.607,14.92,12.161A1.685,1.685,0,0,1-963.137,129.41Z" transform="translate(1124.889 238.771)" fill="#e9af16"/>
      <path id="Pfad_1442" data-name="Pfad 1442" d="M-948.29,90.528c-25.452-1.423-50.632-5.821-75.72-10.258a2.113,2.113,0,0,0-1.561.307c25.785,4.558,51.674,9.023,77.853,10.262C-947.907,90.735-948.1,90.633-948.29,90.528Z" transform="translate(1124.397 238.022)" fill="#e9af16"/>
      <path id="Pfad_1443" data-name="Pfad 1443" d="M-1024.836,183.151c24.9-2.455,49.276,6.163,74.094,5.231l2.2-1.147c-26.208,2.236-51.866-7.472-78.1-4.994A1.706,1.706,0,0,0-1024.836,183.151Z" transform="translate(1124.158 260.711)" fill="#e9af16"/>
      <path id="Pfad_1444" data-name="Pfad 1444" d="M-1082.927,132.661a68.65,68.65,0,0,1-21.363-1.513,2.035,2.035,0,0,0-1.677.3A69.363,69.363,0,0,0-1082.927,132.661Z" transform="translate(1106.443 249.378)" fill="#e9af16"/>
      <path id="Pfad_1445" data-name="Pfad 1445" d="M-933.773,158.373c-10.877.6-21.693,4.979-32.54,5.743-12.444.876-23.78-4.123-34.989-8.831-5.926-2.491-11.946-4.9-18.268-6.188-6.842-1.388-13.836-1.026-20.728-.228-13.4,1.552-26.726,4.244-39.943.053-1.2-.379-2.36-.836-3.517-1.3a49.752,49.752,0,0,0,5.525,2.169c13.269,4.208,26.635,1.524,40.086-.034,6.839-.793,13.794-1.169,20.585.209,6.322,1.283,12.342,3.7,18.268,6.186,11.255,4.729,22.64,9.731,35.134,8.851,8.609-.606,17.228-3.491,25.867-4.953C-936.789,159.489-935.277,158.941-933.773,158.373Z" transform="translate(1111.403 253.071)" fill="#e9af16"/>
      <path id="Pfad_1446" data-name="Pfad 1446" d="M-1087.261,260.954l-.662.443a1.514,1.514,0,0,1-.37.152,1.889,1.889,0,0,0,2.4.87A1.881,1.881,0,0,1-1087.261,260.954Z" transform="translate(1110.39 278.38)" fill="#e9af16"/>
      <path id="Pfad_1447" data-name="Pfad 1447" d="M-915.172-156.614q.415,1.49.827,2.98c6.815,16.755,16.791,31.985,26.076,47.434,23.38,38.9,45.148,78.725,66.4,118.823.061-1.519.1-3.041.157-4.562-20.472-38.531-41.457-76.786-63.937-114.191-9.258-15.406-19.223-30.6-26.021-47.3q-.415-1.49-.827-2.98a2.142,2.142,0,0,0-3.362-1.11A1.48,1.48,0,0,1-915.172-156.614Z" transform="translate(1148.897 184.834)" fill="#e9af16"/>
      <path id="Pfad_1448" data-name="Pfad 1448" d="M-835.415-92.627a1.518,1.518,0,0,1,1.007,1.021c2.219,6.944,4.41,13.9,6.66,20.829a172.526,172.526,0,0,0,8.164,19.9c2.837,6.07,4.18,12.411,6.032,18.806a86.845,86.845,0,0,0,7.5,17.849c.34-1.077.617-2.169.892-3.263a84.332,84.332,0,0,1-5.719-14.387c-1.867-6.443-3.228-12.818-6.087-18.935a171.306,171.306,0,0,1-8.109-19.774c-2.25-6.934-4.441-13.886-6.66-20.829a2.065,2.065,0,0,0-1.075-1.272,2.213,2.213,0,0,0-3.4-1.2A1.473,1.473,0,0,1-835.415-92.627Z" transform="translate(1166.684 199.055)" fill="#e9af16"/>
      <path id="Pfad_1449" data-name="Pfad 1449" d="M-986.726,40.664Q-962.761,46.42-939,53c6.156,1.7,12.291,3.484,18.422,5.271-.44-.406-.887-.81-1.328-1.215-4.927-1.429-9.854-2.865-14.8-4.234q-23.754-6.578-47.723-12.335c-15.388-3.7-30.479-7.874-45.538-12.746-16.555-5.354-33.321-10.459-50.813-11.321a1.827,1.827,0,0,0-1.068.283c17.049,1.012,33.422,5.987,49.586,11.215C-1017.2,32.79-1002.114,36.967-986.726,40.664Z" transform="translate(1111.829 223.771)" fill="#e9af16"/>
      <path id="Pfad_1450" data-name="Pfad 1450" d="M-864.085,9.628c-.842-2.81-1.716-5.61-2.593-8.41q-21.642-35.5-46.083-69.169a2.3,2.3,0,0,0-3.15-.537,1.693,1.693,0,0,1,.532.466Q-887.956-30.4-864.085,9.628Z" transform="translate(1148.885 204.722)" fill="#e9af16"/>
      <path id="Pfad_1451" data-name="Pfad 1451" d="M-987.555-75.753c9.64,3.225,18.4,7.867,25.571,15.184a57.242,57.242,0,0,1,13.513,22.3c1.507,4.619,2.6,9.668,6.3,13.105,3.414,3.168,8.133,4.48,12.592,5.375,16.66,3.351,36.346,4.064,46.755,19.7A63,63,0,0,1-876.48,13.5c-.621-2.406-1.305-4.8-2-7.191q-.96-3.3-1.922-6.594c-10.56-15.525-30.14-16.318-46.88-19.684-4.361-.876-9.011-2.135-12.353-5.237-3.631-3.368-4.687-8.338-6.163-12.866A57.845,57.845,0,0,0-959.45-60.607c-7.242-7.385-16.082-12.069-25.81-15.323-9.773-3.267-20.387-5.695-27.909-13.224a1.994,1.994,0,0,0-2.781-.131,1.56,1.56,0,0,1,.246.17C-1008.107-81.515-997.421-79.051-987.555-75.753Z" transform="translate(1126.545 200.054)" fill="#e9af16"/>
      <path id="Pfad_1452" data-name="Pfad 1452" d="M-898.655,74.481c-5.038-5.365-9.924-11.022-12.891-17.808a46.032,46.032,0,0,1-2.972-12.055q-17.94-11.07-36.369-21.32-9.368-5.193-18.856-10.162C-975.821,9.953-982.052,7-987.59,2.905a1.7,1.7,0,0,0-2.365.163c5.523,4.069,11.732,7.019,17.787,10.19q9.489,4.969,18.856,10.163,18.963,10.514,37.4,21.94c1.775,1.1.143,3.9-1.638,2.8q-18.438-11.412-37.4-21.94c-1.442-.8-2.908-1.555-4.354-2.346a398.7,398.7,0,0,1,57.186,47.958,1.468,1.468,0,0,1,.345,1.637Q-900.212,73.975-898.655,74.481Z" transform="translate(1132.35 220.664)" fill="#e9af16"/>
      <path id="Pfad_1453" data-name="Pfad 1453" d="M-997.686,257.333a2.038,2.038,0,0,0,1.643.884c.148.006.295,0,.443,0a1.341,1.341,0,0,1-1.371-.883C-997.209,257.338-997.448,257.334-997.686,257.333Z" transform="translate(1130.624 277.572)" fill="#e9af16"/>
      <path id="Pfad_1454" data-name="Pfad 1454" d="M-745.91,340.8c-.466,10.709.307,22.68-5.162,32.325a1.483,1.483,0,0,1-1,.733,2.162,2.162,0,0,0,3.621-.115c5.522-9.738,4.766-21.785,5.237-32.6q.817-18.737,1.632-37.471c-.854-1.162-1.7-2.332-2.556-3.491Q-745.026,320.487-745.91,340.8Z" transform="translate(1185.473 287.14)" fill="#e9af16"/>
      <path id="Pfad_1455" data-name="Pfad 1455" d="M-662.44,447.963q-4.608-15.109-9.214-30.218c-3.332-10.927-6.814-21.834-8.939-33.076-2.063-10.911-3.706-21.875-6.035-32.74-2.362-11.021-5.058-21.968-7.862-32.885q-2.765-10.764-5.6-21.511a50.092,50.092,0,0,1-3.609-3.776q3.294,12.537,6.539,25.087c2.8,10.917,5.5,21.864,7.862,32.886,2.329,10.864,3.972,21.828,6.035,32.74,2.125,11.242,5.608,22.148,8.939,33.076l9.237,30.3c1.689,2.794,3.356,5.6,5.057,8.391a1.549,1.549,0,0,1-1.046,2.333c1.491,2.212,5.1.089,3.664-2.262C-659.1,453.532-660.761,450.742-662.44,447.963Z" transform="translate(1196.276 285.706)" fill="#e9af16"/>
      <path id="Pfad_1456" data-name="Pfad 1456" d="M-761.038,314.278a128.537,128.537,0,0,1-6.1,41.225,129,129,0,0,1-6.759,16.822c-2.849,5.865-6.759,11.328-9.032,17.454-2.564,6.912-1.313,13.863-.135,20.917,1.093,6.546,2.094,13.116,2.671,19.73,1.96,22.451-2.374,48.02-22.37,61.549a1.357,1.357,0,0,1-.368.159,2,2,0,0,0,2.793.652c20.16-13.64,24.616-39.353,22.638-62.016-.581-6.661-1.59-13.279-2.69-19.873-1.162-6.958-2.4-13.815.135-20.63,2.261-6.079,6.148-11.5,8.977-17.325a129.845,129.845,0,0,0,6.813-16.951,128.606,128.606,0,0,0,6.068-36.975q-1.239-2.283-2.536-4.557Z" transform="translate(1174.072 290.288)" fill="#e9af16"/>
      <path id="Pfad_1457" data-name="Pfad 1457" d="M-944.73,228.569c7.979-1.946,15.994-3.735,24.03-5.424.927-.665,1.862-1.32,2.814-1.95q-14.63,2.98-29.138,6.509c-23.576,5.752-46.718,12.937-69.9,20.075-23.032,7.092-46.352,13.717-68.457,23.424a1.914,1.914,0,0,1-.308.092,2.267,2.267,0,0,0,2.733.719c22.061-9.687,45.342-16.292,68.327-23.369C-991.449,241.507-968.306,234.322-944.73,228.569Z" transform="translate(1110.971 269.501)" fill="#e9af16"/>
      <path id="Pfad_1458" data-name="Pfad 1458" d="M-666.954,343.217c1.2,2.18,4.242.433,3.88-1.768a475.889,475.889,0,0,0-13.817-59.68c-1.02-.492-2.034-1-3.057-1.486a476.212,476.212,0,0,1,14.2,60.965A1.847,1.847,0,0,1-666.954,343.217Z" transform="translate(1201.58 282.697)" fill="#e9af16"/>
      <path id="Pfad_1459" data-name="Pfad 1459" d="M-847.652,385.613a1.616,1.616,0,0,1-1.33,1.054,2.335,2.335,0,0,0,4-.566c9.477-25.128,18.964-50.125,30.808-74.242-.509-.97-1.023-1.938-1.507-2.92C-828.078,333.8-837.857,359.644-847.652,385.613Z" transform="translate(1163.832 289.096)" fill="#e9af16"/>
      <path id="Pfad_1460" data-name="Pfad 1460" d="M-563.911,359.379c-9.29-6.18-20.913-7.87-28.424-16.707-7.208-8.479-10.235-19.977-13.553-30.355-3.743-11.711-7.44-23.56-13.272-34.439a77.384,77.384,0,0,0-12.688-17.6c5.788,1.939,11.755,3.352,17.709,4.706q2.719.618,5.445,1.25l.078.069a2.142,2.142,0,0,0,2,.418,116.875,116.875,0,0,1,17.108,5.243,110.333,110.333,0,0,0-19.2-6.128,1.622,1.622,0,0,1-1.673-.261c-.072-.059-.139-.122-.211-.181q-2.776-.65-5.553-1.277a164.4,164.4,0,0,1-19.976-5.48,75.182,75.182,0,0,1,14.345,19.168c5.81,10.837,9.487,22.642,13.217,34.31,3.349,10.478,6.416,22.034,13.693,30.593,7.55,8.882,19.2,10.582,28.534,16.791a35.254,35.254,0,0,1,15.26,24.416,1.976,1.976,0,0,1-1.217,2.026c.088.1.187.18.274.28,1.59,1.831,3.875-.219,3.616-2.105A35.766,35.766,0,0,0-563.911,359.379Z" transform="translate(1211.367 277.863)" fill="#e9af16"/>
      <path id="Pfad_1461" data-name="Pfad 1461" d="M-794.775-177.729a21.447,21.447,0,0,0,3.267,14.627c2.733,4.18,7.043,6.66,10.7,9.913,7.395,6.58,11.319,17.232,12.889,26.78a63.277,63.277,0,0,1-1.5,26.27c-2.277,8.83-5.695,17.386-7.193,26.408-1.612,9.7.367,18.306,5.221,26.771,3.062,5.337,6.316,10.446,8.952,15.913.295-1.04.664-2.049,1-3.071-2.295-4.31-4.869-8.469-7.335-12.77-4.779-8.333-6.753-16.8-5.168-26.355,1.5-9.022,4.918-17.579,7.194-26.408a63.944,63.944,0,0,0,1.5-26.557c-1.583-9.635-5.57-20.382-13.028-27.018-3.614-3.216-7.914-5.671-10.615-9.8a20.877,20.877,0,0,1-3.212-14.21c.309-2.212-2.356-3.363-3.584-2.258A1.719,1.719,0,0,1-794.775-177.729Z" transform="translate(1175.734 179.925)" fill="#e9af16"/>
      <path id="Pfad_1462" data-name="Pfad 1462" d="M-993.781,264.148c15.145-1.036,30.151-6.475,44.318-11.648a164.71,164.71,0,0,0,30.451-14.385c.511-1.118,1.019-2.237,1.554-3.345-10.585,7.172-22.295,12.48-34.3,16.863-14.1,5.149-29.049,10.583-44.124,11.624.117,0,.234,0,.351,0A1.769,1.769,0,0,0-993.781,264.148Z" transform="translate(1131.027 272.533)" fill="#e9af16"/>
      <path id="Pfad_1463" data-name="Pfad 1463" d="M-850.825,333.492q-16.557,31.319-35.787,61.052c-12.944,19.965-26.6,39.45-40.263,58.927a1.607,1.607,0,0,1-1.081.692,2.324,2.324,0,0,0,3.7-.075c13.657-19.479,27.318-38.964,40.262-58.927q19.273-29.727,35.787-61.053c4.153-7.855,8.2-15.765,12.228-23.685-.036-1.842-.088-3.685-.117-5.528C-840.945,314.459-845.814,324.013-850.825,333.492Z" transform="translate(1146.196 288.193)" fill="#e9af16"/>
      <path id="Pfad_1464" data-name="Pfad 1464" d="M-924.292,330.389a2.575,2.575,0,0,0,.87.466,1.718,1.718,0,0,0,2.3.062,354.124,354.124,0,0,0,35.2-29.744q.631-2.171,1.265-4.342A353.144,353.144,0,0,1-923.547,330.1,1.428,1.428,0,0,1-924.292,330.389Z" transform="translate(1147.014 286.392)" fill="#e9af16"/>
      <path id="Pfad_1465" data-name="Pfad 1465" d="M-1019.6,353.05a72.557,72.557,0,0,1-8.891-.135,1.8,1.8,0,0,0-1.054.261A58.087,58.087,0,0,0-1019.6,353.05Z" transform="translate(1123.508 298.916)" fill="#e9af16"/>
      <path id="Pfad_1466" data-name="Pfad 1466" d="M-898.873,301.348c6.329-6.811,11.919-14.257,17.633-21.581a77.949,77.949,0,0,1,9.815-10.949c.183-1.079.368-2.158.543-3.238-5.107,3.507-9.1,8.6-12.891,13.461-5.714,7.323-11.3,14.768-17.633,21.579-9.938,10.693-21.787,19.509-36.139,23.056-7.974,1.971-15.658,3.473-22.221,8.768-5.983,4.827-10.459,11.168-14.52,17.621-7.544,11.986-14.75,25.723-28.129,32.129a27.86,27.86,0,0,1-21.315,1.3c7.225,3.507,16.317,3.069,23.74-.486,13.464-6.447,20.729-20.261,28.322-32.324,4.037-6.414,8.484-12.716,14.435-17.511,6.487-5.225,14.11-6.683,21.983-8.628C-920.813,320.976-908.871,312.106-898.873,301.348Z" transform="translate(1124.808 279.414)" fill="#e9af16"/>
      <path id="Pfad_1467" data-name="Pfad 1467" d="M-681.087-37.718a1.973,1.973,0,0,0-.221.033,1.684,1.684,0,0,1,1,1.833q-4.782,30.22-12.385,59.891c.18-.077.369-.128.547-.217a16.5,16.5,0,0,0,2.719-1.738q7.173-28.449,11.792-57.449A2.324,2.324,0,0,0-681.087-37.718Z" transform="translate(1198.735 211.607)" fill="#e9af16"/>
      <path id="Pfad_1468" data-name="Pfad 1468" d="M-569.2,89.224a225.816,225.816,0,0,0-26.715,15.287c-6.058,4.048-12.025,8.451-18.193,12.48q2.22-.272,4.448-.528c5.455-3.653,10.775-7.537,16.17-11.141a225.723,225.723,0,0,1,26.715-15.287c2.5-1.218.312-4.951-2.185-3.737-.119.059-.236.12-.354.179A1.522,1.522,0,0,1-569.2,89.224Z" transform="translate(1216.283 239.323)" fill="#e9af16"/>
      <path id="Pfad_1469" data-name="Pfad 1469" d="M-604.346,110.439c9.393-.82,18.82-1,28.14.754a59.974,59.974,0,0,1,15.413,5.039c5.1,2.509,9.2,6.054,13.559,9.612a24.463,24.463,0,0,0,8.681,4.915,56.258,56.258,0,0,0,8.823,1.486,61.1,61.1,0,0,0,14.557.481,69.914,69.914,0,0,1-12.407-.678,55.334,55.334,0,0,1-8.678-1.467A23.823,23.823,0,0,1-544.7,125.8c-4.4-3.586-8.534-7.169-13.668-9.7a60.494,60.494,0,0,0-15.542-5.1C-584,109.118-594.2,109.458-604.346,110.439Z" transform="translate(1218.464 244.591)" fill="#e9af16"/>
      <path id="Pfad_1470" data-name="Pfad 1470" d="M-564.921-92.841c-6.809,8.884-8.092,20.113-8.513,30.958-.412,10.62-.5,21.2-3.913,31.384A69.16,69.16,0,0,1-606.611,6.266c-3.681,2.241-7.642,3.8-11.465,5.754A19.529,19.529,0,0,0-627.361,22c-3.5,7.725-6.2,15.541-10.562,22.882-1.711,2.878-3.568,5.647-5.5,8.356,1.407-.579,2.823-1.132,4.231-1.705,1.347-1.973,2.662-3.971,3.888-6.035,4.361-7.34,7.07-15.156,10.562-22.882a19.061,19.061,0,0,1,9.091-9.789c3.823-1.956,7.785-3.513,11.466-5.754A69.745,69.745,0,0,0-574.675-30.01c3.433-10.226,3.518-20.864,3.933-31.529.417-10.759,1.685-21.873,8.438-30.686,1.31-1.709-.64-3.378-2.365-3.04a2.168,2.168,0,0,0-1.24-.158c-.406.072-.793.182-1.192.268a2.06,2.06,0,0,1,.256.094C-565.517-95.452-563.9-94.174-564.921-92.841Z" transform="translate(1209.737 198.788)" fill="#e9af16"/>
      <path id="Pfad_1471" data-name="Pfad 1471" d="M-602.744,9.616a1.91,1.91,0,0,1,.505.481l1.768-.667A2.018,2.018,0,0,0-602.744,9.616Z" transform="translate(1218.821 222.152)" fill="#e9af16"/>
      <path id="Pfad_1472" data-name="Pfad 1472" d="M-493,22.31c-.308.125-.619.245-.927.369q-17.089,9.373-34.046,18.985c-28.357,16.138-56.422,32.784-84.34,49.667q-10.916,6.6-21.807,13.263l65.5-.17a1.549,1.549,0,0,1,.247.05l.481-.242q-31.079.081-62.158.161,10.059-6.166,20.16-12.25c27.919-16.884,55.984-33.529,84.34-49.668q16.93-9.635,34.024-18.974c.273-.11.547-.215.82-.327a2.261,2.261,0,0,0,.821-.57c4.371-2.393,8.73-4.809,13.116-7.172a2.026,2.026,0,0,0,.762-.708c.6-.217,1.206-.42,1.8-.659,2.552-1.026,1.437-5.214-1.15-4.173-.245.1-.493.179-.738.274A1.782,1.782,0,0,1-476.5,13.2c-.681.274-1.371.51-2.06.755a1.453,1.453,0,0,1-.632.668c-4.4,2.368-8.765,4.789-13.146,7.187A1.671,1.671,0,0,1-493,22.31Z" transform="translate(1211.815 222.277)" fill="#e9af16"/>
      <path id="Pfad_1473" data-name="Pfad 1473" d="M-435.354,139.275q-1.729-.081-3.466-.148l-3.675-2.548a2.041,2.041,0,0,0-2.023-1.824c-.207-.006-.415,0-.621-.01l-10.167-7.048c-4.855-3.367-9.342-6.846-15.417-7.385a47.778,47.778,0,0,0-9.8.035,52.115,52.115,0,0,1,7.652.161c5.96.531,10.383,4.01,15.146,7.312l10.268,7.118c.264,0,.529,0,.792.012a1.574,1.574,0,0,1,1.559,1.617l3.965,2.749q1.824.07,3.642.154c2.083.1,2.088,3.342,0,3.245-1.238-.057-2.482-.115-3.731-.164a1.277,1.277,0,0,1-.783-.026c-8.388-.308-16.961-.2-24.91,2.625-9.7,3.451-15.609,12.37-24.786,16.755-16.323,7.8-34.91,4.952-51.735.552-4.838-1.265-9.643-2.655-14.474-3.95-4.814-1.292-9.733-2.778-14.769-2.52-8.405.432-15.862,5.21-22.7,9.687-6.322,4.141-12.571,8.174-19.547,11.055q31.681,14.542,63.577,28.61a1.252,1.252,0,0,1,.817,1.2l2.911-.053c2.092-.038,2.086,3.208,0,3.245l-35.088.637c-8.925.161-17.925.632-26.868.562,10.036,5.167,20.01,10.454,29.859,15.97q31.951,17.9,62.344,38.4,15.155,10.27,29.821,21.24c8.093,6.059,16.838,12.275,20.372,22.179.612,1.716-1.678,2.573-2.744,1.483q-27.3-9.5-54.725-18.653-48.878-16.3-98.128-31.46-7.65-2.354-15.321-4.646c9.012,6.775,17.941,13.66,26.706,20.751q8.312,6.725,16.469,13.638c4.353,3.688,10.316,7.422,12.156,13.114a1.6,1.6,0,0,1-1.812,2c.436.216.875.421,1.307.648,1.582.834,3.787-.56,3.178-2.443-1.879-5.812-7.849-9.585-12.3-13.354q-8.156-6.912-16.469-13.636c-8.005-6.477-16.154-12.774-24.365-18.987q6.232,1.877,12.453,3.785,49.245,15.157,98.128,31.46,27.42,9.146,54.717,18.652c1.492,1.135,4.193.028,3.417-2.146-3.588-10.057-12.4-16.348-20.619-22.5q-14.656-10.973-29.821-21.239-30.317-20.546-62.345-38.4c-9.2-5.153-18.512-10.1-27.877-14.944,8.2-.018,16.439-.432,24.614-.581l35.087-.637c2.782-.05,2.79-4.378,0-4.327l-2.417.044a1.751,1.751,0,0,0-1.039-1.116q-31.358-13.819-62.5-28.12c6.545-2.853,12.472-6.681,18.472-10.611,6.747-4.419,14.124-9.187,22.423-9.613,4.99-.257,9.856,1.22,14.626,2.5,4.831,1.3,9.636,2.685,14.474,3.951,16.982,4.441,35.685,7.262,52.151-.607,9.13-4.361,15.016-13.272,24.657-16.7,7.838-2.787,16.276-2.911,24.547-2.613a1.708,1.708,0,0,0,1.138.037q1.806.073,3.6.159C-432.569,143.731-432.575,139.4-435.354,139.275Z" transform="translate(1210.923 246.92)" fill="#e9af16"/>
      <path id="Pfad_1474" data-name="Pfad 1474" d="M-1105.228,134.826a17.862,17.862,0,0,1,3.16.916,19.733,19.733,0,0,0-4.288-1.561A1.786,1.786,0,0,0-1105.228,134.826Z" transform="translate(1106.356 250.07)" fill="#e9af16"/>
      <path id="Pfad_1475" data-name="Pfad 1475" d="M-610.287,347.408c12.259,5.151,27.448,5.012,39.883,10.157-12.556-5.9-28.308-5.6-41.121-10.731C-611.112,347.024-610.71,347.23-610.287,347.408Z" transform="translate(1216.86 297.559)" fill="#e9af16"/>
      <path id="Pfad_1476" data-name="Pfad 1476" d="M-996.164,254.519a2.069,2.069,0,0,0-.979.193,22.619,22.619,0,0,0,2.773-.2C-994.967,254.54-995.565,254.545-996.164,254.519Z" transform="translate(1130.745 276.942)" fill="#e9af16"/>
      <path id="Pfad_1477" data-name="Pfad 1477" d="M-587.383,9.708a1.6,1.6,0,0,1-1.042,1.253l-.168.064A519.6,519.6,0,0,0-626.67,56.381c1.417-.508,2.831-1.024,4.246-1.534a518.881,518.881,0,0,1,36.3-43.022,2.125,2.125,0,0,0,1.338-1.456c.064-.069.125-.138.19-.207,1.856-1.952-.936-4.842-2.862-3.2a1.6,1.6,0,0,1,.328,2.471C-587.219,9.525-587.3,9.618-587.383,9.708Z" transform="translate(1213.478 221.551)" fill="#e9af16"/>
      <path id="Pfad_1478" data-name="Pfad 1478" d="M-748.277-91.361A402.571,402.571,0,0,0-750.392-20.8c.838-1.273,1.667-2.553,2.5-3.828a402.813,402.813,0,0,1,2.284-66.218c.181-.338.366-.674.543-1.012a2.237,2.237,0,0,0-2.6-3.15,2.709,2.709,0,0,0-.812.278,1.62,1.62,0,0,1,.8,2.255C-747.876-92.1-748.079-91.732-748.277-91.361Z" transform="translate(1185.698 198.869)" fill="#e9af16"/>
      <path id="Pfad_1479" data-name="Pfad 1479" d="M-675.023-157.144c-.018.273-.047.544-.066.817a1.348,1.348,0,0,1-.047.914l-.035.083a317.383,317.383,0,0,1-8.6,51.872c-7.774,31.641-19.007,62.273-28.567,93.388-3.979,12.95-7.657,26-11.2,39.087q1.749-1.288,3.508-2.569c3.29-12.062,6.7-24.09,10.366-36.032,9.56-31.114,20.793-61.746,28.567-93.387a318.474,318.474,0,0,0,8.615-51.9l.026-.06a1.8,1.8,0,0,0,.075-1.176c.017-.234.042-.466.057-.7.136-2-2.045-2.529-3.363-1.658A1.328,1.328,0,0,1-675.023-157.144Z" transform="translate(1191.844 184.628)" fill="#e9af16"/>
      <path id="Pfad_1480" data-name="Pfad 1480" d="M-606.306,31.479a265.456,265.456,0,0,1-78.981,46.689q16.093-4.879,32.145-9.882c11.41-3.582,22.782-7.292,34.071-11.24a525.488,525.488,0,0,1,36.837-44.78q-2.288.861-4.576,1.724C-593.2,19.938-599.645,25.832-606.306,31.479Z" transform="translate(1200.388 222.844)" fill="#e9af16"/>
      <path id="Pfad_1481" data-name="Pfad 1481" d="M-783.625-117.05a69.81,69.81,0,0,1-4.052,24.835c-2.7,7.514-6.891,14.392-9.559,21.916a34.736,34.736,0,0,0-.049,23.666c2.472,7.28,6.261,14.027,8.848,21.264,5.556,15.537,1.762,31.14-2.307,46.526-2.108,7.966-4.247,16.017-4.8,24.272-.6,9.057,1,18,2.669,26.866,1.51-.006,3.02.007,4.53.056.006-.053-.01-.1,0-.148q2.4-11.223,4.806-22.444c1.418-6.578,3.013-13.17,6.509-19,1.075-1.791,3.88-.157,2.8,1.638-3.477,5.792-4.928,12.38-6.329,18.912q-1.974,9.2-3.94,18.4.312-.536.621-1.072c.435-.757.871-1.514,1.294-2.279.741-1.335,1.457-2.685,2.107-4.068a69.864,69.864,0,0,0,3.216-9.2,51.63,51.63,0,0,1,3.43-8.3c1.382-2.7,2.757-5.408,2.668-8.522-.061-2.092,3.184-2.083,3.245,0a13.857,13.857,0,0,1-.575,4.214,107.915,107.915,0,0,0,7.933-22.63c3.923-17.279,3.256-36.1-4.891-52.107-3.951-7.767-9.549-14.691-12.386-23.011-2.857-8.375-1.954-17.252.15-25.684,2.256-9.034,5.781-17.753,7.357-26.957a55.7,55.7,0,0,0-2.557-28.251c-1.7-4.7-4.027-9.552-7.439-13.268-3-3.264-6.9-5.48-10.028-8.6a23.593,23.593,0,0,1-5.534-8.876c.829,8.567,3.861,16.695,6.659,24.8C-786.178-135.292-783.8-126.425-783.625-117.05Zm-1.907,151.285c-4.093,3.741-3.4,10.158-3.362,15.187l.146,20.562a1.624,1.624,0,0,1-3.245,0q-.081-11.382-.161-22.765c-.034-5.347.08-11.4,4.328-15.279C-786.287,30.533-783.987,32.823-785.532,34.236Z" transform="translate(1174.919 182.385)" fill="#e9af16"/>
      <path id="Pfad_1482" data-name="Pfad 1482" d="M-764.537-42.011q4.325-17.6,9.372-35.015c-4.864,8.693-9.267,17.594-11.5,27.4a1.475,1.475,0,0,1-.153.335c.333.859.657,1.722.947,2.608C-765.365-45.143-764.933-43.581-764.537-42.011Z" transform="translate(1182.181 202.904)" fill="#e9af16"/>
      <path id="Pfad_1483" data-name="Pfad 1483" d="M-797.487-173.786c-.215.505-.416,1.014-.59,1.527a1.819,1.819,0,0,1,.823.2C-797.349-172.631-797.432-173.206-797.487-173.786Z" transform="translate(1175.2 181.295)" fill="#e9af16"/>
      <path id="Pfad_1484" data-name="Pfad 1484" d="M-811.349-13.982c.615-1.287,1.167-2.6,1.689-3.913a1.632,1.632,0,0,1-.483-.53,91.356,91.356,0,0,1-8.339-18.932c-2.125-6.893-3.433-13.8-6.561-20.36-.414-.867-.8-1.744-1.19-2.617q1.431,6.27,2.444,12.7c2.058,12.957,6.167,25.325,10.491,37.667C-812.648-11.3-811.995-12.632-811.349-13.982Z" transform="translate(1168.912 206.631)" fill="#e9af16"/>
      <path id="Pfad_1485" data-name="Pfad 1485" d="M-807.764-33.62A61.452,61.452,0,0,1-804.45-9.448a62.977,62.977,0,0,1-6.9,23.155c-3.95,7.959-7.429,15.34-6.761,24.463.152,2.078.407,4.158.713,6.238l2.525,12.261c-.007-1.612.006-3.222.021-4.816.067-7.33.8-14.773,4.487-21.256,1.034-1.818,3.836-.18,2.8,1.638-3.4,5.983-3.981,12.864-4.043,19.618-.065,6.979-.418,14.579,2.5,21.085a1.646,1.646,0,0,1,.135.815c1.107-.177,2.217-.333,3.326-.483-.072-7.766-.166-15.532-.2-23.3-.034-7.421.247-14.953,3-21.941.756-1.926,3.894-1.081,3.129.862-2.755,7.007-2.925,14.476-2.874,21.907q.075,11.037.193,22.074c1.513-.169,3.029-.316,4.546-.432-2.455-14.422-4.647-29.559.487-43.65.711-1.95,3.846-1.1,3.129.862-5.012,13.756-2.781,28.507-.377,42.568.892-.046,1.785-.065,2.677-.093-1.753-9.345-3.357-18.786-2.532-28.325.793-9.171,3.318-18.06,5.646-26.93,2.1-8,4.131-16.127,4.31-24.438.181-8.452-2.144-16.132-5.52-23.792-3.048-6.92-6.6-13.817-7.932-21.33-1.364-7.674.171-14.98,3.122-22.1,3.155-7.61,7.307-14.753,9.593-22.711a67.215,67.215,0,0,0,2.178-26.119c-1.74-15.277-9.892-29-11.7-44.206-.585,6.44,1,13.147,2.625,19.382,2.439,9.363,4.219,18.426,2.726,28.115-2.365,15.339-12.554,26.967-19.622,40.254-3.592,6.751-6.041,14.035-5.532,21.771C-814.016-49.723-810.406-41.686-807.764-33.62Z" transform="translate(1170.708 182.628)" fill="#e9af16"/>
      <path id="Pfad_1486" data-name="Pfad 1486" d="M-823.969,21.23q5.69,10.869,11.366,21.743a1.535,1.535,0,0,1-.1-.241l-2.866-14.66q-4.978-24.172-9.954-48.344-3.292-15.984-6.585-31.97c-.407-1.973-.785-3.975-1.161-5.984a210.987,210.987,0,0,0,9.876,77.769A1.393,1.393,0,0,1-823.969,21.23Z" transform="translate(1167.255 207.102)" fill="#e9af16"/>
      <path id="Pfad_1487" data-name="Pfad 1487" d="M-821.99-15.012q2.589,12.571,5.177,25.142a55.676,55.676,0,0,1,4.17-11.487,1.585,1.585,0,0,1-1.37-1.084C-818.351-14.79-822.6-27.177-824.7-40.134c-2.059-12.686-4.81-24.9-9.926-36.755a1.787,1.787,0,0,1,1.194-2.406q-1.03-3.167-2.039-6.348c.039,3.15.081,6.3.1,9.451,3.445,9.3,4.8,19.549,6.794,29.209Q-825.274-31-821.99-15.012Z" transform="translate(1166.849 200.979)" fill="#e9af16"/>
      <path id="Pfad_1488" data-name="Pfad 1488" d="M-615.882,21.894c1.466-3.792,3.086-7.607,5.885-10.628,2.864-3.095,6.742-4.753,10.507-6.464A65.928,65.928,0,0,0-589-1.128a65.534,65.534,0,0,0,26.491-40.346c2.807-14,.456-29.515,4.564-43.183a110.553,110.553,0,0,0-12.468,22.948c-3.45,8.734-5.127,18-8.412,26.781-2.585,6.907-6.386,13.159-12.488,17.482-6.276,4.447-13.864,6.486-20.941,9.261-7.554,2.96-13.9,7.174-18.568,13.908-4.238,6.11-7.1,13.032-10.31,19.7s-6.851,13.22-12.194,18.43c-5.945,5.795-13.362,9.731-20.651,13.552-8.216,4.306-16.169,8.873-23.348,14.8-6.8,5.611-13.984,12.15-16.653,20.825a1.516,1.516,0,0,1-.691.881c.532.436,1.092.84,1.62,1.28.2.164.384.336.579.5a1.584,1.584,0,0,1,.25-.372c4.952-4.888,9.716-10.347,15.493-14.281,5.462-3.718,11.789-5.925,17.98-8.091,1.978-.692,2.821,2.444.862,3.129-5.943,2.08-11.962,4.2-17.2,7.764-5.528,3.764-10.1,9.1-14.836,13.773a1.454,1.454,0,0,1-.18.117c3.184,2.8,6.254,5.729,9.152,8.82q7.459-2.264,14.921-4.523a1.7,1.7,0,0,1-.319-2.808q-6.134,3.127-12.4,5.858c-1.9.826-3.549-1.971-1.638-2.8,17.487-7.608,34.183-17.36,48.64-29.861,12.566-10.868,23.4-23.816,30.834-38.73C-619,29.845-617.427,25.889-615.882,21.894ZM-672.4,80.408c-3.236,5.775-8.988,9.3-14.589,12.472q-5.186,2.938-10.539,5.564c-2.911,1.429-6.095,3.1-9.388,1.965-1.967-.676-1.117-3.811.862-3.129,3.025,1.04,6.529-1.439,9.133-2.757q4.477-2.266,8.837-4.754c4.937-2.817,10.024-5.9,12.88-11C-674.178,76.946-671.375,78.584-672.4,80.408Z" transform="translate(1193.827 201.199)" fill="#e9af16"/>
      <path id="Pfad_1489" data-name="Pfad 1489" d="M-636.141,32.764c-14.463,18.478-33.912,32.826-54.82,43.575a253.406,253.406,0,0,0,25.518-10.315A254,254,0,0,0-624.019,41.5a355.778,355.778,0,0,0,30.364-25.295q-20.84,8.017-41.485,16.529A1.313,1.313,0,0,1-636.141,32.764Z" transform="translate(1199.121 223.725)" fill="#e9af16"/>
      <path id="Pfad_1490" data-name="Pfad 1490" d="M-684.63,40.037c-4.322.75-8.725.053-13.063.882-18.371,3.516-30.143,19.453-37.946,35.224a1.383,1.383,0,0,1-.834.739c1.129.679,2.246,1.376,3.365,2.076a41.649,41.649,0,0,1,11.024-16.123c4.981-4.5,10.775-7.958,16.529-11.36a1.624,1.624,0,0,1,1.638,2.8c-5.381,3.182-10.834,6.381-15.529,10.545a38.386,38.386,0,0,0-10.65,15.287,1.693,1.693,0,0,1-.349.56c.815.524,1.634,1.036,2.442,1.57,1.165-4.959,5.2-8.593,8.9-11.818a143.315,143.315,0,0,1,13.986-10.742c1.737-1.173,3.359,1.639,1.638,2.8A136.239,136.239,0,0,0-716.5,72.443c-3.526,3.056-7.646,6.408-8.531,11.247a1.461,1.461,0,0,1-.16.4c1.155.788,2.274,1.623,3.414,2.431,3.033-4.832,7.6-8.343,12.03-11.844l16.87-13.333c1.622-1.282,3.933,1,2.295,2.295q-8.206,6.487-16.414,12.972c-4.415,3.489-9.143,6.937-12.13,11.8,2.357,1.72,4.662,3.5,6.942,5.3,2.88-9.182,10.2-16.149,17.435-22.115,7.872-6.495,16.572-11.388,25.564-16.126,7.51-3.956,15.107-8.184,20.752-14.671,4.975-5.718,8.174-12.743,11.363-19.545,3.072-6.553,6.181-13.17,10.817-18.79,4.885-5.922,11.322-9.5,18.386-12.241,7.389-2.864,15.512-4.969,21.648-10.244,6.315-5.43,9.2-13.422,11.438-21.2,2.383-8.27,4.574-16.473,8.081-24.366a113.66,113.66,0,0,1,13.9-23.222,1.75,1.75,0,0,1,2.191-.475c.487-.984,1.009-1.955,1.6-2.909-17.224,4.679-27.352,23.051-36.751,36.824-5.277,7.733-10.193,15.974-16.215,23.157a30.31,30.31,0,0,1-8.891,7.525c-3.842,2.028-8.1,2.937-12.275,4.006a42.957,42.957,0,0,0-21.388,12.9c-5.9,6.349-10.37,13.794-14.91,21.132-4.45,7.189-9.065,14.429-15.1,20.411C-677.416,36.6-680.531,39.325-684.63,40.037Z" transform="translate(1188.957 199.516)" fill="#e9af16"/>
      <path id="Pfad_1491" data-name="Pfad 1491" d="M-779.517,57.91a1.361,1.361,0,0,1-1.572.784,23.165,23.165,0,0,0,.018,3.819,1.484,1.484,0,0,1-.032.284c1.346.172,2.693.35,4.033.569,1.429.234,2.843.524,4.257.815a1.519,1.519,0,0,1-.049-.662c1.54-11.631,8.726-21.08,12.753-31.845.727-1.941,3.863-1.1,3.13.862-3.886,10.388-11.155,19.781-12.638,30.983a1.674,1.674,0,0,1-.739,1.194c2.032.469,4.047,1,6.047,1.576a1.508,1.508,0,0,1,1.113-1.616c.4-.12.778-1.387.931-1.709q.5-1.064,1-2.131c.629-1.359,1.243-2.726,1.824-4.107a76.567,76.567,0,0,0,2.971-8.282c1.481-5.082,2.567-10.377,5.669-14.783,1.2-1.7,4.008-.073,2.8,1.638-3.491,4.957-4.294,11.092-6.194,16.722-1.047,3.1-2.312,6.13-3.659,9.112-.831,1.84-1.628,4.737-3.379,6.074q2.811.894,5.581,1.914a273.15,273.15,0,0,1,14.184-46.639C-730.6-5.11-717.384-31.723-706.016-59.109c8.668-20.882,17.756-41.707,25.653-62.935-1.256,2.7-2.5,5.406-3.787,8.093a883.753,883.753,0,0,1-46.923,85.726c-8.7,13.991-18.53,27.357-26.735,41.637C-766.042,27.74-772.12,43.159-779.517,57.91Z" transform="translate(1178.978 192.85)" fill="#e9af16"/>
      <path id="Pfad_1492" data-name="Pfad 1492" d="M-751.624-29.1q-.784-13.215-.689-26.448-.842,4.793-1.678,9.588-2.991,17.08-5.983,34.16,5.026-7.934,10.217-15.762A1.648,1.648,0,0,1-751.624-29.1Z" transform="translate(1183.709 207.7)" fill="#e9af16"/>
      <path id="Pfad_1493" data-name="Pfad 1493" d="M-674.278-139.115c-5.184,16.5-11.535,32.584-18.1,48.572C-703.886-62.529-715.493-34.59-727.987-7-740.134,19.82-752.08,47-757.8,76.037c1.068.424,2.137.844,3.2,1.3a1.391,1.391,0,0,1,1.273-1.152,15.931,15.931,0,0,0,.817-2.279q.418-1.064.836-2.13.906-2.308,1.811-4.616,1.811-4.615,3.621-9.23,3.69-9.408,7.381-18.815c.756-1.925,3.893-1.083,3.129.862q-4.386,11.182-8.774,22.365-2.158,5.5-4.317,11c-.47,1.2-1.119,4.1-2.423,5.479q2.266,1.033,4.5,2.14a96.349,96.349,0,0,0,17.694-36.706c.492-2.032,3.62-1.166,3.13.862a99.984,99.984,0,0,1-17.909,37.309c1.347.7,2.691,1.4,4.019,2.133,2.034,1.121,4.035,2.324,6.043,3.506a1.564,1.564,0,0,1,.021-.866,1.515,1.515,0,0,1-1-1.872q7.439-27.921,14.876-55.843c4.26-15.986,8.615-31.936,13.554-47.728,4.817-15.4,9.975-30.7,14.858-46.08,8.646-27.23,16.458-54.927,19.747-83.345q-1.47,3.508-2.979,7A1.388,1.388,0,0,1-674.278-139.115Z" transform="translate(1184.193 187.128)" fill="#e9af16"/>
      <path id="Pfad_1494" data-name="Pfad 1494" d="M-674.633-33.754c-6.618,6.59-13.283,13.145-20.421,19.173C-703.03-7.845-711.6-1.824-720,4.369a1.281,1.281,0,0,1-1.813-.158c-4.518,16.786-8.842,33.629-13.277,50.424C-726.581,40-714.206,26.75-696.672,24.387c3.391-.458,7.165.082,10.611-.481a1.478,1.478,0,0,1-.354-1.429Q-679.269-5.365-674.633-33.754Z" transform="translate(1189.267 212.567)" fill="#e9af16"/>
      <path id="Pfad_1495" data-name="Pfad 1495" d="M-751.262-76.294q-5.793,19.785-10.653,39.824a1.415,1.415,0,0,1-1.425,1.145c2.443,13.343,1.233,27.307-2.381,40.332-.56,2.016-1.185,4.012-1.861,5.991,2.111-4.068,4.342-8.074,6.761-11.982.039-.062.08-.122.117-.185a1.692,1.692,0,0,1-1.187-1.918l6.283-35.864q1.567-8.947,3.134-17.893c1.035-5.973,1.869-11.933,1.171-17.995-.138-1.194.877-1.67,1.81-1.488q.367-4.879.845-9.749c-1.495,2.609-3.012,5.211-4.508,7.823A1.58,1.58,0,0,1-751.262-76.294Z" transform="translate(1182.01 200.882)" fill="#e9af16"/>
      <path id="Pfad_1496" data-name="Pfad 1496" d="M-965.241,23.839c5.03,5.57,9.867,11.071,15.656,15.885,10.108,8.405,21.358,15.541,30.07,25.477,2.63.822,5.25,1.676,7.876,2.513A395.2,395.2,0,0,0-967.8,21.171C-966.942,22.052-966.07,22.922-965.241,23.839Z" transform="translate(1137.297 224.833)" fill="#e9af16"/>
      <path id="Pfad_1497" data-name="Pfad 1497" d="M-975.4,14.318c-.061-.033-.122-.067-.183-.1.054.042.1.087.158.128Z" transform="translate(1135.561 223.28)" fill="#e9af16"/>
      <path id="Pfad_1498" data-name="Pfad 1498" d="M-894.667,5.235c-6.641-6.375-15.854-8.942-24.657-10.666-8.47-1.658-17.929-1.9-25.729-5.9a18.632,18.632,0,0,1-8.522-8.805c-1.911-4.094-2.8-8.564-4.521-12.736a53.956,53.956,0,0,0-17.089-22.148c-5.491-4.185-11.635-6.8-18.006-9.018A123.271,123.271,0,0,1-977.63-51.46a61.406,61.406,0,0,1,15.14,24.2c2.773,7.93,5.413,15.558,10.385,22.417a85.434,85.434,0,0,0,14.281,14.858c10.809,9.128,22.918,16.566,33.825,25.571a94.163,94.163,0,0,1,14.432,14.442c4.422,5.66,7.407,11.833,10.095,18.457,1.656,4.082,3.429,8.325,6.427,11.628a24.868,24.868,0,0,0,10.091,6.255c3.656,1.354,7.45,2.42,11.049,3.862l-4.849-5.736-7.045-8.332-3.315-3.922c-.807-.955-1.988-2.92-3.395-3.03-2.072-.161-2.082-3.407,0-3.245,3.391.264,5.342,3.57,7.347,5.942l7.459,8.823,12.024,14.221c.321.267.656.5.966.793a1.448,1.448,0,0,1,.458.891l.271.323c2.335-1.811,4.729-3.553,7.158-5.247-7.8-9.435-17.2-17.432-26.511-25.334-1.6-1.354.711-3.638,2.3-2.295,9.486,8.053,18.936,16.207,26.875,25.807,4-2.68,8.1-5.21,12.32-7.547a1.684,1.684,0,0,1-.218-.366q-8.081-23.047-15.707-46.25c-.654-1.993,2.481-2.838,3.129-.862q7.58,23.062,15.613,45.973,5.024-2.663,10.22-4.976a1.717,1.717,0,0,1-.319-.5q-9.072-23.572-18.143-47.144c-10.6-27.533-21.113-55.1-31.82-82.59-9.6-24.663-19.571-49.2-30.861-73.142q2.67,9.63,5.339,19.259c8.741,31.533,17.161,63.133,27.407,94.22,9.758,29.6,19.784,59.311,23.535,90.4a1.526,1.526,0,0,1-.062.686,39.756,39.756,0,0,1,4.606,7.816c.834,1.9-1.962,3.545-2.8,1.638-7.351-16.7-25.49-24.271-38.284-36.022a51.918,51.918,0,0,1-9.53-11.674,1.527,1.527,0,0,1-1.4-1.525c-.007-.36-.039-.717-.055-1.075a58.992,58.992,0,0,1-2.6-5.665C-885.293,21.77-887.63,11.99-894.667,5.235Zm66.8,29.491c6.27,13.359,12.543,26.816,16.214,41.166.519,2.027-2.613,2.885-3.13.862-3.6-14.084-9.732-27.278-15.885-40.39C-831.549,34.482-828.75,32.837-827.865,34.725Z" transform="translate(1131.628 191.628)" fill="#e9af16"/>
      <path id="Pfad_1499" data-name="Pfad 1499" d="M-936.587,60.522a1.424,1.424,0,0,1,.487,1.216c4.846,1.435,9.672,2.934,14.5,4.42-7.8-7.642-16.975-13.775-25.417-20.711a141.644,141.644,0,0,1-15.649-15.678,92.359,92.359,0,0,0-17.074-15.057,1.709,1.709,0,0,1-.127-2.7c-2.258-1.172-4.49-2.39-6.679-3.677,6.88,8.358,13.7,16.816,21.059,24.727C-956.463,42.763-946.266,51.483-936.587,60.522Z" transform="translate(1133.112 221.966)" fill="#e9af16"/>
      <path id="Pfad_1500" data-name="Pfad 1500" d="M-930.344,108.207q-5.233-3.569-10.6-6.946A96.4,96.4,0,0,0-930.344,108.207Z" transform="translate(1143.297 242.718)" fill="#e9af16"/>
      <path id="Pfad_1501" data-name="Pfad 1501" d="M-874.44,140c.245-2.158.554-4.31,1-6.443.394-1.879.871-3.737,1.4-5.581a1.333,1.333,0,0,1-.913-.05q-11.524-4.731-22.755-10.127c-7.391-3.567-14.485-7.826-21.948-11.221-1.9-.864-.248-3.66,1.638-2.8,7.207,3.278,14.057,7.394,21.188,10.852q11.208,5.439,22.739,10.168a1.637,1.637,0,0,1,.809.725c.674-2.125,1.406-4.231,2.239-6.3a161.864,161.864,0,0,1-39.461-18.6c-1.746-1.135-.117-3.944,1.639-2.8a158.736,158.736,0,0,0,39.112,18.416c.5-1.135,1.02-2.262,1.566-3.379a1.413,1.413,0,0,1-.168-.044l-47.838-23.231c-13.861-6.732-27.69-13.553-41.806-19.746-13.92-6.107-28.094-11.619-42.31-16.994-25.371-9.594-50.922-18.816-75.632-30.034,11.684,7.177,23.384,14.33,35.175,21.33,27.631,16.4,56.039,31.25,84.382,46.356,8.216,4.379,16.417,8.836,24.53,13.442.569.013,1.135.053,1.7.062a1.525,1.525,0,0,1,.886.306,1.373,1.373,0,0,1,1.085.524c.745.864,1.529,1.688,2.3,2.524a345.487,345.487,0,0,1,43.819,29.7C-878.16,137.988-876.288,138.982-874.44,140Z" transform="translate(1113.595 225.196)" fill="#e9af16"/>
      <path id="Pfad_1502" data-name="Pfad 1502" d="M-898.312-2.648c1.859,6.446,3.5,12.954,3.874,19.659,3.686,6.865,9.2,12.3,15.289,17.106,5.517,4.355,11.606,8.364,17.223,12.828-3.627-8.1-9-15.536-13.39-23.189q-7.371-12.837-13.97-26.1-6.443-12.94-12.117-26.241c1.9,5.243,3.823,10.478,5.822,15.684C-889.4,3.191-882.942,19.44-873.8,34.115c1.11,1.779-1.7,3.407-2.8,1.638-9.285-14.9-15.831-31.448-22.109-47.789-3.283-8.55-6.4-17.162-9.449-25.8-.812-2.3-1.612-4.608-2.417-6.913q2.763,9.483,5.528,18.969C-902.8-18.068-900.537-10.365-898.312-2.648Z" transform="translate(1150.077 210.112)" fill="#e9af16"/>
      <path id="Pfad_1503" data-name="Pfad 1503" d="M-907.364-50.055a1.541,1.541,0,0,1,.938-.84c-1.846-2.65-3.745-5.261-5.615-7.894a14.378,14.378,0,0,0,.426,3.557,1.728,1.728,0,0,1,2.606.8C-908.482-52.961-907.9-51.515-907.364-50.055Z" transform="translate(1149.75 206.976)" fill="#e9af16"/>
      <path id="Pfad_1504" data-name="Pfad 1504" d="M-897.36-117.189c-3.258-5.363-6.525-10.726-9.654-16.162,6.756,14.007,13.047,28.232,19.034,42.585,11.346,27.2,21.722,54.8,32.308,82.307Q-839.459,33.67-823.246,75.8a1.23,1.23,0,0,1,.025.144c.913-.384,1.825-.772,2.745-1.139q-7.087-21.73-14.172-43.46c-.65-1.994,2.484-2.841,3.129-.864q7.039,21.583,14.076,43.164c2.336-.877,4.687-1.714,7.061-2.475a1.506,1.506,0,0,1-.15-.286c-4.107-14.079-8.292-28.262-15.684-41.031a1.624,1.624,0,0,1,2.8-1.638c7.531,13.008,11.828,27.465,16.011,41.807a1.326,1.326,0,0,1,.02.239q5.677-1.692,11.474-2.931c-.007-.013-.02-.018-.027-.033q-13.331-25.55-26.744-51.056c-15.819-29.959-31.9-59.786-48.679-89.218Q-884.065-95.254-897.36-117.189Z" transform="translate(1150.873 190.325)" fill="#e9af16"/>
      <path id="Pfad_1505" data-name="Pfad 1505" d="M-907.46-134.112q-1.576-2.787-3.088-5.608.772,2.782,1.542,5.562A1.43,1.43,0,0,1-907.46-134.112Z" transform="translate(1150.083 188.903)" fill="#e9af16"/>
      <path id="Pfad_1506" data-name="Pfad 1506" d="M-835.476-34.656q-.3,11.032-.752,22.06a1.547,1.547,0,0,1-1.161,1.478q4.461,8.434,8.9,16.877A213.806,213.806,0,0,1-835.476-34.656Z" transform="translate(1166.421 212.366)" fill="#e9af16"/>
      <path id="Pfad_1507" data-name="Pfad 1507" d="M-833.66-60.1c-.521-2.762-1.073-5.524-1.7-8.264q-.005,4.3-.037,8.591A1.852,1.852,0,0,1-833.66-60.1Z" transform="translate(1166.866 204.837)" fill="#e9af16"/>
      <path id="Pfad_1508" data-name="Pfad 1508" d="M-933.131,115.932a49.564,49.564,0,0,1,12.151.146,98.408,98.408,0,0,1-29.07-21.423c-1.623-.944-3.24-1.9-4.87-2.827q-5.378-.145-10.742-.469c11.425,6.659,23.886,13.14,32.184,23.6A1.637,1.637,0,0,1-933.131,115.932Z" transform="translate(1137.776 240.507)" fill="#e9af16"/>
      <path id="Pfad_1509" data-name="Pfad 1509" d="M-857.86,47.61q-1.171-8.536-2.915-16.971a1.759,1.759,0,0,1-3.036-.391A63.283,63.283,0,0,0-869.626,17.8c-2.336-3.565-5.194-6.775-7.789-10.151a210.367,210.367,0,0,1-14.056-20.734c-.417-.7-.809-1.414-1.217-2.12,1.037,2.141,2.038,4.3,3.107,6.422q6.65,13.225,14.075,26.04c4.849,8.365,10.664,16.413,14.076,25.512a1.334,1.334,0,0,1-.111,1.271C-860.268,45.189-859.031,46.372-857.86,47.61Z" transform="translate(1154.072 216.71)" fill="#e9af16"/>
      <path id="Pfad_1510" data-name="Pfad 1510" d="M-868.9,7.486q-16.937-28.453-35.739-55.725A209.668,209.668,0,0,0-885.027-5.723,206.152,206.152,0,0,0-870.451,15.3a87.368,87.368,0,0,1,7.318,9.894,64.657,64.657,0,0,1,4.3,9.426c-2.015-9.24-4.444-18.393-7.121-27.463A1.651,1.651,0,0,1-868.9,7.486Z" transform="translate(1151.403 209.332)" fill="#e9af16"/>
      <path id="Pfad_1511" data-name="Pfad 1511" d="M-914.254-58.441a1.7,1.7,0,0,1,1.407-1.481c-1.221-1.705-2.416-3.429-3.647-5.127q1.1,3.769,2.2,7.536C-914.288-57.822-914.291-58.131-914.254-58.441Z" transform="translate(1148.755 205.578)" fill="#e9af16"/>
      <path id="Pfad_1512" data-name="Pfad 1512" d="M-776.038,284.146c-.439,8.618.3,16.58,3.534,24.623q-1.835-24.3-1.286-48.686C-774.767,268.082-775.628,276.1-776.038,284.146Z" transform="translate(1180.096 278.186)" fill="#e9af16"/>
      <path id="Pfad_1513" data-name="Pfad 1513" d="M-528.521,36.968c-14.137,5.657-28.108,11.7-41.671,18.632-12.987,6.636-25.9,13.23-39.35,18.884C-636,85.6-663.355,94.681-688.728,108.217c.7,1.572,1.366,3.159,1.987,4.767q13.724-7.358,28.043-13.508c1.9-.816,3.551,1.982,1.638,2.8q-14.583,6.252-28.564,13.782.949,2.7,1.762,5.456,14.019-9.013,28.778-16.786c1.85-.97,3.488,1.831,1.638,2.8q-15.142,7.947-29.509,17.251,1.384,5.259,2.312,10.656c13.861-10.123,28.169-19.615,42.694-28.757Q-572.677,65.6-505.193,27.856C-512.98,30.865-520.769,33.867-528.521,36.968Z" transform="translate(1199.62 226.326)" fill="#e9af16"/>
      <path id="Pfad_1514" data-name="Pfad 1514" d="M-773.935,258.207a1.6,1.6,0,0,1,1.072-.624q-.389-.9-.763-1.808Q-773.781,256.992-773.935,258.207Z" transform="translate(1180.591 277.224)" fill="#e9af16"/>
      <path id="Pfad_1515" data-name="Pfad 1515" d="M-634.021,89.408q-9.769,6.039-19.427,12.249c2.253-.769,4.55-1.437,6.849-2.032,10.556-2.724,20.778-5.909,30.985-9.616l-17.151.045A1.448,1.448,0,0,1-634.021,89.408Z" transform="translate(1207.498 240.071)" fill="#e9af16"/>
      <path id="Pfad_1516" data-name="Pfad 1516" d="M-608.243,91.733a282.211,282.211,0,0,1-31.646,10.183c-9.58,2.37-20.007,5.239-26.36,13.327C-636.168,104.725-606.087,94.1-574.32,90c2.069-.267,2.043,2.981,0,3.245-.818.106-1.63.239-2.445.352a1.321,1.321,0,0,1-.6,1.861c3.271-1.973,6.6-3.847,9.964-5.65l-39.776.1A1.658,1.658,0,0,1-608.243,91.733Z" transform="translate(1204.639 240.159)" fill="#e9af16"/>
      <path id="Pfad_1517" data-name="Pfad 1517" d="M-460.445,125.95c-3.223-.884-6.818-.673-10.13-.542a20.919,20.919,0,0,0-8.964,2.111c-2.4,1.225-4.578,2.826-6.907,4.167a31.112,31.112,0,0,1-15.271,3.917,93.183,93.183,0,0,1-16.767-1.538,28.458,28.458,0,0,1-13.783-6.545c-4.508-3.686-8.779-7.233-14.123-9.683a59.794,59.794,0,0,0-16.558-4.653c-12.742-1.792-25.695-.125-38.366,1.446a1.259,1.259,0,0,1-1.494-1.122c-7.358,4.521-15.08,8.321-23.648,10.2a50.594,50.594,0,0,1-24.7-1.012c-8.529-2.322-17.956-5.669-26.531-1.691a1.722,1.722,0,0,1-2.361-2.044c-.531.387-1.067.765-1.6,1.154.05.345.094.691.142,1.037a179.108,179.108,0,0,0,39.623,7.943c2.07.174,2.081,3.42,0,3.245a183.051,183.051,0,0,1-39.191-7.662c.033.294.077.586.108.881a1.531,1.531,0,0,1,1.49,1.122c1.026,3.327,2.787,6.053,6.183,7.252a71.357,71.357,0,0,0,9.817,2.412,120.282,120.282,0,0,0,21.856,2.248c2.089.027,2.088,3.272,0,3.245a124.663,124.663,0,0,1-24.915-2.822c-3.537-.772-7.76-1.37-10.8-3.469a11.653,11.653,0,0,1-3.067-3.231c.274,4.472.344,8.956.257,13.422a1.338,1.338,0,0,1,1.366-.767c9.657.614,19.313,1.287,28.974,1.831,9.332.525,18.827.758,28-1.3,15.1-3.382,28.5-12.134,44.284-12.631,16.308-.514,31.719,5.894,46.885,11.01,15.34,5.175,32.309,9.52,48.106,3.666,7.367-2.729,14.066-6.677,21.744-8.606a81.169,81.169,0,0,1,17.383-2.277l-8.032-5.567C-454.242,129.149-457.086,126.87-460.445,125.95Z" transform="translate(1201.202 245.208)" fill="#e9af16"/>
      <path id="Pfad_1518" data-name="Pfad 1518" d="M-679.114,117.457a23.2,23.2,0,0,1,4.579-1.4,1.835,1.835,0,0,1-.235-1.743C-676.227,115.352-677.667,116.41-679.114,117.457Z" transform="translate(1201.766 245.634)" fill="#e9af16"/>
      <path id="Pfad_1519" data-name="Pfad 1519" d="M-630.122,124.139c8.721-2.246,16.682-6.546,24.2-11.417,7.484-4.853,14.6-10.248,22.1-15.071,1.692-1.088,3.4-2.142,5.125-3.182l-23.545,10.8a183.545,183.545,0,0,1-21.718,8.86A212.189,212.189,0,0,1-660.71,122c1.289.336,2.575.69,3.85,1.048C-647.839,125.578-639.31,126.506-630.122,124.139Z" transform="translate(1205.876 241.201)" fill="#e9af16"/>
      <path id="Pfad_1520" data-name="Pfad 1520" d="M-669.857,120.1a213.044,213.044,0,0,0,47.527-8.931c7.58-2.37,14.721-5.679,21.927-8.983l18.476-8.474c-30.913,5.2-60.4,16.221-89.954,26.492q.831-.024,1.665,0A1.636,1.636,0,0,1-669.857,120.1Z" transform="translate(1203.382 241.032)" fill="#e9af16"/>
      <path id="Pfad_1521" data-name="Pfad 1521" d="M-667.607,109.627c-2.22,1.522-4.439,3.047-6.641,4.6q3.38-1.169,6.758-2.35a1.323,1.323,0,0,1-.349-1.97C-667.766,109.806-667.679,109.725-667.607,109.627Z" transform="translate(1202.853 244.586)" fill="#e9af16"/>
      <path id="Pfad_1522" data-name="Pfad 1522" d="M-757.481,117.516c.078-.024.184-.077,0,0Z" transform="translate(1184.266 246.339)" fill="#e9af16"/>
      <path id="Pfad_1523" data-name="Pfad 1523" d="M-798.956,256.615c.013.105.028.21.042.316a2.808,2.808,0,0,1-.018-.491Z" transform="translate(1175.004 277.372)" fill="#e9af16"/>
      <path id="Pfad_1524" data-name="Pfad 1524" d="M-871.5,230.219c-.592-.549-1.171-1.114-1.754-1.673a6.806,6.806,0,0,1,.8,2.626A1.464,1.464,0,0,1-871.5,230.219Z" transform="translate(1158.411 271.143)" fill="#e9af16"/>
      <path id="Pfad_1525" data-name="Pfad 1525" d="M-785.883,29.189c.873.067,1.746.166,2.618.253a25.047,25.047,0,0,1-.047-3.719A9.588,9.588,0,0,1-785.883,29.189Z" transform="translate(1177.923 225.849)" fill="#e9af16"/>
      <path id="Pfad_1526" data-name="Pfad 1526" d="M-812.677,30.842a28.874,28.874,0,0,1-1.4-4.079,1.731,1.731,0,0,1-1.131.135q.784,1.5,1.568,3a1.555,1.555,0,0,1,.136,1.091C-813.228,30.941-812.953,30.892-812.677,30.842Z" transform="translate(1171.375 226.081)" fill="#e9af16"/>
      <path id="Pfad_1527" data-name="Pfad 1527" d="M-764.708,114.023c-.223.078-.07.031,0,0Z" transform="translate(1182.626 245.568)" fill="#e9af16"/>
      <path id="Pfad_1528" data-name="Pfad 1528" d="M-757.666,117.568l-.015,0h0Z" transform="translate(1184.221 246.359)" fill="#e9af16"/>
      <path id="Pfad_1529" data-name="Pfad 1529" d="M-607.294,56.854c-2.049.74-4.109,1.448-6.164,2.171-.6.821-1.228,1.616-1.823,2.439a1.712,1.712,0,0,1-3.066-.716C-645.8,70.231-673.7,78.405-701.486,86.828c1.338,1.519,2.644,3.067,3.891,4.66,1.373-1.368,3.625-1.788,5.461-2.379q5.09-1.64,10.226-3.141,10.439-3.052,21.036-5.518c2.036-.476,2.9,2.655.864,3.129q-9.2,2.151-18.3,4.728-4.631,1.318-9.227,2.748-2.044.635-4.079,1.293c-.652.21-3.546.714-3.831,1.538a1.583,1.583,0,0,1-.164.278q1.749,2.393,3.347,4.892a151.577,151.577,0,0,1,15.9-6.359q4.336-1.446,8.759-2.619c2.53-.672,6.134-.9,8.03-2.865,1.452-1.507,3.745.791,2.295,2.295-1.96,2.033-4.7,2.494-7.324,3.15q-4.589,1.143-9.1,2.582a145.21,145.21,0,0,0-16.866,6.594c.625,1.066,1.258,2.127,1.836,3.223.514.971.976,1.968,1.457,2.956,13.868-7.38,28.353-13.488,42.946-19.277,13.814-5.479,27.74-10.694,41.378-16.607,13.782-5.976,26.892-13.2,40.371-19.8,26.566-13,54.557-22.685,81.95-33.734q2.769-1.514,5.542-3.018c-4.025.69-8.1,1.143-12.173,1.546a223.966,223.966,0,0,0-27.1,4.035c-16.229,3.642-31.4,9.9-46.493,16.751Q-583.712,48.287-607.294,56.854Z" transform="translate(1196.77 223.583)" fill="#e9af16"/>
      <path id="Pfad_1530" data-name="Pfad 1530" d="M-775.771,381.741a122.919,122.919,0,0,0,6.455-17.573,125.556,125.556,0,0,0,4.734-36.485,1.578,1.578,0,0,1,2.3-1.412c-3.428-6.014-6.781-12.11-8.961-18.7-2.774-8.394-2.679-16.823-2.094-25.548.633-9.437,1.808-18.824,3.011-28.2a17.174,17.174,0,0,0-2.45,5.127q-1.235,3.4-2.239,6.887a110.412,110.412,0,0,0-3.077,14.146c-.312,2.063-3.439,1.18-3.13-.862a110.454,110.454,0,0,1,3.369-15.14q1.112-3.718,2.486-7.35a23.843,23.843,0,0,1,1.588-3.49c-2.967.64-5.949,1.2-8.947,1.674a1.565,1.565,0,0,1,.072.68,215.172,215.172,0,0,0-.826,30.255c.091,2.092-3.155,2.081-3.245,0a215.2,215.2,0,0,1,.826-30.255,1.49,1.49,0,0,1,.07-.229q-2.466.336-4.939.585a125.017,125.017,0,0,0-2.085,29.9c.1,2.091-3.141,2.078-3.245,0a128.514,128.514,0,0,1,2.009-29.591c-.448.035-.9.064-1.344.1a1.231,1.231,0,0,1,.286.565,2.341,2.341,0,0,1-.209,1.589,2.288,2.288,0,0,1-.867.85,3.5,3.5,0,0,1-1.809.411c-.232-.011-.466-.043-.7-.072-1.052,3.293-2.285,6.654-2.51,10.127-.111,1.72.056,3.44.059,5.161a22.717,22.717,0,0,1-.6,5.1c1.59,16.625,8.14,32.154,12.425,48.179,3.6,13.467,5.737,28.057,1.929,41.726-1.818,6.525-5.249,12.3-8.345,18.263a46.4,46.4,0,0,0-5.665,21.928c.055,27.5,21.534,56.4,5.9,83.086a1.5,1.5,0,0,1-2.045.591,44.351,44.351,0,0,1-1.452,4.356c7.01-6.906,11.51-16.116,13.744-25.718,2.958-12.719,1.97-26.048.116-38.853-.922-6.376-2.428-12.754-2.811-19.193a31.738,31.738,0,0,1,3.727-16.505C-781.531,392.411-778.309,387.277-775.771,381.741Z" transform="translate(1174.37 276.634)" fill="#e9af16"/>
      <path id="Pfad_1531" data-name="Pfad 1531" d="M-771.186,261.317c-.119-.25-.248-.493-.366-.744a494.09,494.09,0,0,0,1.569,52.053,1.32,1.32,0,0,1-1.057,1.486c2.7,5.44,5.915,10.637,8.847,15.947.756,1.369,1.429,2.755,2.11,4.14-1.371-24.162-7.621-47.7-11.469-71.537A1.642,1.642,0,0,1-771.186,261.317Z" transform="translate(1181.096 278.295)" fill="#e9af16"/>
      <path id="Pfad_1532" data-name="Pfad 1532" d="M-748.616,368.889a368.542,368.542,0,0,0-3.671-51.615c-1.13-7.875-2.058-16.038-5.052-23.462s-6.515-14.641-9.853-21.91c4.053,21.576,9.017,43.042,9.58,65.069a1.43,1.43,0,0,1-.548,1.216,95.037,95.037,0,0,1,4.349,13.644c1.749,7.4,3.044,14.907,5.062,22.239a33.771,33.771,0,0,0,1.17-3.71A1.484,1.484,0,0,1-748.616,368.889Z" transform="translate(1182.097 280.825)" fill="#e9af16"/>
      <path id="Pfad_1533" data-name="Pfad 1533" d="M-768,267.472c.125.7.246,1.392.373,2.088a1.89,1.89,0,0,1,.494-.506C-767.434,268.531-767.712,268-768,267.472Z" transform="translate(1181.916 279.836)" fill="#e9af16"/>
      <path id="Pfad_1534" data-name="Pfad 1534" d="M-750.482,314.945c1.681,11.707,2.75,23.486,3.313,35.293.033-2.288.064-4.541.158-6.716q.879-20.177,1.758-40.356a1.518,1.518,0,0,1,.807-1.311c-5.745-7.712-11.507-15.419-16.817-23.391,1.85,4.021,3.669,8.056,5.365,12.135C-752.688,298.32-751.662,306.72-750.482,314.945Z" transform="translate(1183.421 282.29)" fill="#e9af16"/>
      <path id="Pfad_1535" data-name="Pfad 1535" d="M-712.779,321.077q-7.753-19.809-15.507-39.617c-4.972-12.7-10.781-25.383-14.286-38.587,0-.01,0-.017,0-.027-.834.383-1.676.749-2.515,1.119a1.54,1.54,0,0,1,.142.188c2.346,4.956,3.767,10.382,5.466,15.583q2.688,8.226,5.378,16.452c.651,1.993-2.483,2.839-3.129.862l-5.182-15.853c-1.673-5.118-3.026-10.533-5.335-15.406a1.709,1.709,0,0,1-.152-.607q-7.294,3.072-14.8,5.5c4.3,9.076,6.657,18.99,11.7,27.719a1.624,1.624,0,0,1-2.8,1.638c-5.129-8.883-7.47-18.974-11.9-28.172a1.465,1.465,0,0,1-.059-.229c-2.231.68-4.469,1.329-6.715,1.922,5.819,15.853,15.207,29.988,25.12,43.545,8.709,11.913,17.89,23.5,25.8,35.98,9.075,14.309,16.556,29.65,24.711,44.491q11.733,21.354,23.939,42.442-4.8-10.254-9.137-20.723C-692.757,373.427-702.571,347.153-712.779,321.077Zm-33.1-43.206Q-750.646,264-755.334,250.1c-.669-1.987,2.466-2.832,3.13-.862q4.687,13.9,9.454,27.775C-742.069,278.99-745.2,279.834-745.879,277.871Z" transform="translate(1180.915 274.336)" fill="#e9af16"/>
      <path id="Pfad_1536" data-name="Pfad 1536" d="M-711.247,265.032a1.548,1.548,0,0,1,.975-1.385q-.976-1.057-1.872-2.19C-711.847,262.648-711.545,263.84-711.247,265.032Z" transform="translate(1194.39 278.493)" fill="#e9af16"/>
      <path id="Pfad_1537" data-name="Pfad 1537" d="M-677.74,395.78c-1.9-11-3.795-21.96-6.213-32.858-4.89-22.023-10.875-43.8-16.592-65.619-.015-.056,0-.1-.009-.154-.848-2.434-1.533-4.93-2.167-7.423-2.533-9.975-5.016-19.963-7.52-29.944-1.118-2.206-2.135-4.45-3.063-6.667a88.458,88.458,0,0,1-6.213-24.1q-3.9,2.835-7.986,5.435a1.525,1.525,0,0,1,1,.721,160.248,160.248,0,0,1,13.338,27.039c.747,1.956-2.392,2.794-3.129.862a155.891,155.891,0,0,0-13.011-26.263,1.448,1.448,0,0,1-.2-1.079q-4.733,2.932-9.664,5.551a1.378,1.378,0,0,1,.521.849,122.9,122.9,0,0,0,9.39,28.54c.888,1.88-1.911,3.526-2.8,1.638a126.213,126.213,0,0,1-9.717-29.316,1.656,1.656,0,0,1,0-.357q-1.941.995-3.907,1.937a1.624,1.624,0,0,1,.262.527,196.213,196.213,0,0,0,7.415,21.035q4.318,11.034,8.637,22.066l30.622,78.234c10.04,25.648,20.022,51.16,32.856,75.578a1.613,1.613,0,0,1-.657,2.193q1.984,3.352,3.973,6.7-3.461-11.346-6.92-22.694C-672.763,417.508-675.834,406.821-677.74,395.78Zm-45.883-129.31q-6.053-12.6-11.47-25.5a1.631,1.631,0,0,1,1.133-2,1.68,1.68,0,0,1,2,1.134q5.261,12.5,11.142,24.721C-719.92,266.708-722.72,268.352-723.623,266.471Z" transform="translate(1186.9 271.248)" fill="#e9af16"/>
      <path id="Pfad_1538" data-name="Pfad 1538" d="M-836.4,297.567a105.82,105.82,0,0,0,13.179-21.732,1.3,1.3,0,0,1,.928-.817,162.623,162.623,0,0,1,2.124-16.434q-14.88,24.167-29.246,48.646a1.49,1.49,0,0,1-.05.181c-.279.553-.561,1.1-.84,1.656.027,2.169.082,4.337.116,6.506,1.377-3.042,3.593-5.548,5.76-8.112C-841.682,304.219-838.973,300.944-836.4,297.567Z" transform="translate(1163.537 277.851)" fill="#e9af16"/>
      <path id="Pfad_1539" data-name="Pfad 1539" d="M-828.563,287.486a1.815,1.815,0,0,1,1.326.369c-.075-1.075-.142-2.151-.187-3.228Q-827.975,286.064-828.563,287.486Z" transform="translate(1168.392 283.667)" fill="#e9af16"/>
      <path id="Pfad_1540" data-name="Pfad 1540" d="M-939.145,118.294c2.356-.6,4.744-1.1,7.148-1.481a63.859,63.859,0,0,0-14.4-12.278c-6.153-4.005-12.554-7.645-18.857-11.406a1.49,1.49,0,0,1-.728-1.683q-10.052-.756-20.055-2.015c12.259,13.02,30.467,18.144,43.944,29.711C-941.109,118.859-940.136,118.547-939.145,118.294Z" transform="translate(1133.226 240.076)" fill="#e9af16"/>
      <path id="Pfad_1541" data-name="Pfad 1541" d="M-822.685,282.542q-.027-2.384.031-4.77a112.472,112.472,0,0,1-10.532,16.566c-2.433,3.222-4.974,6.362-7.566,9.457s-5.747,6.125-7,10.056a1.636,1.636,0,0,1-2.4.9c.088,4.9.181,9.8.308,14.7,9.147-14.79,18.868-29.6,24.842-45.967A1.692,1.692,0,0,1-822.685,282.542Z" transform="translate(1163.57 282.136)" fill="#e9af16"/>
      <path id="Pfad_1542" data-name="Pfad 1542" d="M-790.009,487.361c5.693-13.513,2.37-28.917-1.508-42.636-3.836-13.572-8.38-27.544-6.4-41.831,1.941-13.981,12.2-24.683,14.7-38.517,5.2-28.9-12.6-55.733-15.486-83.954a1.589,1.589,0,0,1-.037-.4c-.058-.586-.119-1.173-.161-1.762a1.322,1.322,0,0,1,.592-1.272c.215-2.684-.1-5.358.181-8.08a48.908,48.908,0,0,1,2.428-9.783,1.765,1.765,0,0,1-.947-.429,1.633,1.633,0,0,1-.476-1.147,1.584,1.584,0,0,1,.354-.964,132.864,132.864,0,0,1-18.411-.946,1.265,1.265,0,0,1,.234,1.4,51.123,51.123,0,0,0-2.8,12.807,103.971,103.971,0,0,0-.665,13.644c.032,2.093-3.214,2.086-3.245,0a103.879,103.879,0,0,1,.727-14.156,53.442,53.442,0,0,1,2.853-13.157,1.617,1.617,0,0,1,.73-.829q-5.8-.809-11.5-2.168a1.292,1.292,0,0,1,.7,1.341,28.464,28.464,0,0,1-1.837,7.7c.987-1.609,1.954-3.23,2.945-4.837a1.638,1.638,0,0,1,2.774.02c.038-.2.071-.4.11-.606.4-2.05,3.529-1.177,3.129.862-2.837,14.477-4.265,30.127-1.809,44.77,2.1,12.537,8.925,22.8,14.637,33.881,5.094,9.884,9.083,21.391,5.964,32.524-1.654,5.9-5.086,11.093-7.073,16.867-2.087,6.06-2.682,12.494-2.828,18.865a46.234,46.234,0,0,0,3.024,18.653c2.193,5.58,4.536,11.1,6.825,16.647C-794.142,454.142-787.91,471.14-790.009,487.361ZM-808.2,260.535a.6.6,0,0,1-.056.084c-.128.229-.253.461-.373.695-.234.456-.454.921-.65,1.395a22.818,22.818,0,0,0-.876,2.582,30.13,30.13,0,0,0-.966,5.365,82.046,82.046,0,0,0,.01,11.581c.105,2.092-3.141,2.08-3.245,0a69.373,69.373,0,0,1,.367-14.56,27.746,27.746,0,0,1,2.05-6.939c.844-1.89,2.313-4.459,4.751-3.188C-805.547,258.406-806.645,260.684-808.2,260.535Zm6.575,10.343a55.8,55.8,0,0,0-1.233,12.614c.028,2.093-3.217,2.087-3.245,0a60.014,60.014,0,0,1,1.163-12.59,57.337,57.337,0,0,1,1.589-6.136q.483-1.51,1.05-2.992a8.288,8.288,0,0,0,.866-2.874,1.624,1.624,0,0,1,3.247,0c0,2.037-1.11,3.971-1.749,5.867A56.556,56.556,0,0,0-801.624,270.878Z" transform="translate(1168.074 276.646)" fill="#e9af16"/>
      <path id="Pfad_1543" data-name="Pfad 1543" d="M-819.706,311.071a1.35,1.35,0,0,1,1.075-.8c-.684-1.523-1.332-3.062-1.9-4.634a65.206,65.206,0,0,1-3.447-16.279c-7.176,24.164-12.753,48.709-18.2,73.3C-835.353,345.19-828.135,327.9-819.706,311.071Z" transform="translate(1165.35 284.725)" fill="#e9af16"/>
      <path id="Pfad_1544" data-name="Pfad 1544" d="M-847.083,379.152a1.566,1.566,0,0,1-.242-1.287c6.378-28.675,12.493-57.389,20.641-85.619-6.473,13.706-14.938,26.514-22.794,39.408a1.6,1.6,0,0,1-.285.307q.712,24.4,2.082,48.774C-847.481,380.207-847.283,379.679-847.083,379.152Z" transform="translate(1163.658 285.368)" fill="#e9af16"/>
      <path id="Pfad_1545" data-name="Pfad 1545" d="M-616.5,193.057c2.258.177,4.565,0,6.829-.038l51.188-.931c-5.117-2.259-10.221-4.55-15.331-6.829A1.472,1.472,0,0,1-575.3,186.4l-53.312.06c1.813,1.233,3.609,2.491,5.4,3.756A13.216,13.216,0,0,0-616.5,193.057Z" transform="translate(1213.044 261.477)" fill="#e9af16"/>
      <path id="Pfad_1546" data-name="Pfad 1546" d="M-580.722,277.305c-.937-.946-1.972-1.813-2.974-2.677q-3.752-3.235-7.543-6.425-7.578-6.386-15.289-12.61-15.869-12.808-32.289-24.91c-.048-.035-.067-.083-.11-.121-8.2-2.46-16.4-4.929-24.564-7.489q-5.2-1.631-10.368-3.4,5.037,3.07,10.014,6.24c7.55,4.836,14.988,9.845,22.363,14.943s14.693,10.291,22,15.488c3.447,2.452,6.922,4.871,10.251,7.482,2.99,2.344,5.774,4.924,8.67,7.379A122.606,122.606,0,0,1-580.722,277.305Z" transform="translate(1202.94 269.162)" fill="#e9af16"/>
      <path id="Pfad_1547" data-name="Pfad 1547" d="M-503.022,264.77c-13.831-6.509-28.175-11.9-42.323-17.67q-23.669-9.656-47.189-19.671-47.141-20.069-93.647-41.581a1.512,1.512,0,0,1-.456-.338c-.557,1.37-1.149,2.724-1.756,4.072a358.8,358.8,0,0,0,36.746,18.349c1.916.823.261,3.619-1.638,2.8a358.923,358.923,0,0,1-36.476-18.2c-.654,1.353-1.318,2.7-2.026,4.031-.653,1.226-1.349,2.427-2.049,3.626a1.364,1.364,0,0,1,1.883-.243,134.235,134.235,0,0,0,26.909,13.942c1.935.736,1.09,3.873-.864,3.129a137.969,137.969,0,0,1-27.684-14.269,1.587,1.587,0,0,1-.64-1.859q-2.752,4.63-5.935,8.978c16.027,8.98,33.5,14.739,51.012,20.037,61.355,18.558,122.422,37.915,183.024,58.8C-476.869,278.58-489.685,271.047-503.022,264.77Z" transform="translate(1197.065 261.533)" fill="#e9af16"/>
      <path id="Pfad_1548" data-name="Pfad 1548" d="M-588.9,179.806l-53.278-1.737q5.5,2.929,10.806,6.211c.283.175.554.367.834.544l55.033-.061c-4.068-1.819-8.14-3.626-12.2-5.458A1.432,1.432,0,0,1-588.9,179.806Z" transform="translate(1210.015 259.871)" fill="#e9af16"/>
      <path id="Pfad_1549" data-name="Pfad 1549" d="M-821.122,281.143c-1.331,1.612-3.615-.7-2.295-2.295,5.444-6.592,11.425-13.91,12.217-22.767a1.685,1.685,0,0,1,1.669-1.54,111.185,111.185,0,0,1-20.97-7.473c-.551-.262-1.086-.552-1.632-.822q-7.252,24.414-15.83,48.405-15.1,42.149-34.27,82.693a201.084,201.084,0,0,1-10.36,19.943c-3.8,6.158-8.27,11.875-12.209,17.945-6.789,10.465-11.2,22.363-15.622,34.073q6.083-8.723,12.1-17.5c13.235-19.348,26.086-38.977,37.824-59.276,11.61-20.081,22.13-40.761,32.6-61.451a1.487,1.487,0,0,1,.259-.853c.021-.042.017-.081.042-.122q9.648-16.462,19.556-32.768C-819.056,278.626-820.091,279.892-821.122,281.143Zm-12.231-5.778c-.531,2.021-3.66,1.158-3.129-.864q1.617-6.158,3.234-12.316c1.062-4.043,2.45-8.153,2.463-12.371a1.624,1.624,0,0,1,3.245,0c-.012,4.36-1.357,8.582-2.454,12.76Q-831.673,268.969-833.353,275.365Zm3.857.281a30.671,30.671,0,0,0,6.813-22.841c-.221-2.078,3.026-2.055,3.245,0a33.857,33.857,0,0,1-7.763,25.136C-828.543,279.546-830.827,277.239-829.5,275.646Z" transform="translate(1147.878 275.096)" fill="#e9af16"/>
      <path id="Pfad_1550" data-name="Pfad 1550" d="M-575.576,154.191c7.155-3.543,14.489-4.908,22.365-3.252,9.723,2.045,19.156,5.334,28.853,7.511,17.512,3.932,37.113,4.36,51.429-8.095,3.247-2.825,6.334-5.849,10.067-8.043a38.64,38.64,0,0,1,11.285-4.3,71.8,71.8,0,0,1,15.756-1.429q-.725-.5-1.448-1a78.032,78.032,0,0,0-25.858,3.561c-8.348,2.8-15.786,7.691-24.546,9.309-33.1,6.113-62.012-21.495-94.92-16-15.333,2.558-28.723,11.329-44.307,13.11-8.128.929-16.336.51-24.476.006q-12.957-.8-25.911-1.648a1.57,1.57,0,0,1-1.4-1c-.015.563-.021,1.125-.042,1.686a1.67,1.67,0,0,1,.354-.021,8.889,8.889,0,0,1,3.732,1.716,19.207,19.207,0,0,0,4.564,2.236c3.4,1.138,6.925,1.957,10.392,2.848a113.579,113.579,0,0,0,22.536,3.874c2.082.1,2.088,3.349,0,3.245a115.669,115.669,0,0,1-22.617-3.79c-3.509-.891-7.047-1.758-10.5-2.834a24.043,24.043,0,0,1-4.59-1.884c-1.357-.757-2.509-1.84-4.033-2.185-.066,1.185-.138,2.368-.226,3.549,1.075-1.19,3.479-.346,2.792,1.382-1.4,3.534,2.356,6.01,5.249,6.911,3.28,1.02,6.5,1.638,9.614,3.163,6.837,3.351,13.821,4.509,21.337,5.3,2.059.218,2.075,3.464,0,3.245A100.439,100.439,0,0,1-653.1,169.42c-4.274-1.028-7.894-3.074-11.925-4.689-3.719-1.49-8.033-1.562-11.3-4.083a9.347,9.347,0,0,1-3.2-4.452c-.346,3.439-.773,6.846-1.289,10.2a145.806,145.806,0,0,1-3.882,17.777,1.626,1.626,0,0,1,1.885-.308l18.165,8.722c2.989,1.436,6,2.833,8.966,4.315a22.555,22.555,0,0,1,6.723,4.722c1.413,1.535-.878,3.835-2.295,2.295a22.517,22.517,0,0,0-7.081-4.71c-2.844-1.379-5.7-2.737-8.547-4.105l-17.569-8.436a1.363,1.363,0,0,1-.741-.818q-1.38,4.617-3.091,9.121a1.605,1.605,0,0,1,1.095.093q26.368,12.19,52.943,23.929,47.641,21.036,95.928,40.571c26.7,10.8,55.066,21.053,75.416,42.374a1.51,1.51,0,0,1,.421.949c.587.2,1.177.4,1.765.608a38.29,38.29,0,0,0-9.038-10.348c-4.941-4.184-10.268-7.95-15.495-11.767-38.367-28.019-79.292-52.4-121.673-73.824a1.529,1.529,0,0,1-.45-.357,27.95,27.95,0,0,1-5.641-3.3c-2.7-1.924-5.468-3.752-8.267-5.529a1.416,1.416,0,0,1-1.01-.641c-.693-.433-1.371-.886-2.069-1.31-4.921-2.992-10-5.726-15.181-8.246l-1.078-.035a1.531,1.531,0,0,1-1.49-1.206c-2.442-1.141-4.9-2.242-7.394-3.274-8.156-3.373-16.844-5.677-24.449-10.259a1.505,1.505,0,0,1-.639-1.914c-1.636-.687-3.265-1.391-4.866-2.152-1.886-.9-.239-3.694,1.638-2.8,17.546,8.341,37.732,12.232,57.036,9.034a72.792,72.792,0,0,0,24.12-8.4C-589.492,163.08-582.991,157.864-575.576,154.191ZM-679.589,171.2c3,.012,5.493,2.774,7.722,4.485l7.684,5.9q7.925,6.083,15.849,12.165c1.636,1.256.017,4.074-1.638,2.8l-14.889-11.428q-3.6-2.763-7.2-5.529l-3.843-2.949c-1.019-.782-2.316-2.192-3.682-2.2A1.624,1.624,0,0,1-679.589,171.2Z" transform="translate(1199.717 249.519)" fill="#e9af16"/>
      <path id="Pfad_1551" data-name="Pfad 1551" d="M-635.642,171.757a98.028,98.028,0,0,1-28.842-3.13c4.848,1.829,9.778,3.488,14.484,5.545q3.013,1.317,5.977,2.744l54.891,1.791q-12.111-5.483-24.2-11.011A82.268,82.268,0,0,1-635.642,171.757Z" transform="translate(1205.034 257.554)" fill="#e9af16"/>
      <path id="Pfad_1552" data-name="Pfad 1552" d="M-683.963,215.966c-.979-.391-1.949-.8-2.92-1.2.829.678,1.647,1.37,2.466,2.061A1.517,1.517,0,0,1-683.963,215.966Z" transform="translate(1200.031 268.065)" fill="#e9af16"/>
      <path id="Pfad_1553" data-name="Pfad 1553" d="M-565.194,371.766a152.566,152.566,0,0,1-22.557-14.372,65.9,65.9,0,0,1-15.815-17.726c-4.195-7.083-6.922-14.9-9.9-22.538-3.041-7.8-6.444-15.7-12.034-22.053-5.253-5.971-11.97-10.308-18.95-13.994-13.887-7.333-28.741-12.665-40.393-23.588a76.609,76.609,0,0,1-22.574-40.587q-2.4,2.409-4.92,4.694a1.56,1.56,0,0,1,.247.624c1.173,6.671,4.016,12.78,7.456,18.566,1.715,2.886,3.561,5.691,5.422,8.484,1.787,2.684,3.544,5.358,6.106,7.373,1.641,1.289-.672,3.571-2.295,2.294-2.686-2.11-4.57-4.963-6.444-7.775-1.918-2.877-3.824-5.764-5.59-8.737a59.019,59.019,0,0,1-7.6-18.462c-.867.744-1.733,1.489-2.619,2.214a1.6,1.6,0,0,1,1.067,1.424c.306,4.184,1.764,8.32,3,12.3q1.716,5.52,3.753,10.932c2.141,5.686,4.534,14.168,10.956,16.38,1.967.678,1.117,3.811-.862,3.129-7.121-2.453-9.889-10.059-12.4-16.488q-2.519-6.463-4.581-13.091c-1.307-4.2-2.715-8.48-3.081-12.883-.7.552-1.393,1.106-2.1,1.645a1.607,1.607,0,0,1,.1.339,84.629,84.629,0,0,0,8.423,29.645,1.448,1.448,0,0,1,.646.9c.057.228.114.454.171.681a44.046,44.046,0,0,0,7.925,11.477c3.5,3.412,7.884,5.684,12.234,7.806,8.813,4.3,17.671,8.507,26.5,12.765,7.56,3.647,15.151,7.363,22,12.251,14.028,10.007,21.472,24.854,30.045,39.3,4.223,7.115,8.907,14.078,15.006,19.735,6.468,6,14.21,9.371,22.732,11.347,10.08,2.339,21.245,3.4,30.829,7.548a44.133,44.133,0,0,0-7.5-4.92C-556.9,376.16-561.07,374.009-565.194,371.766Z" transform="translate(1192.213 268.544)" fill="#e9af16"/>
      <path id="Pfad_1554" data-name="Pfad 1554" d="M-619.953,258.888c-6.748-4.8-13.5-9.586-20.31-14.3-6.945-4.811-13.945-9.546-21.04-14.133q-5.211-3.371-10.5-6.625c-3.256-2-7.1-5.116-11.044-5.66,2.811,2.425,5.587,4.876,8.364,7.254,8.169,6.995,15.981,14.308,23.735,21.754,7.248,6.961,14.889,13.08,24.332,16.773a149,149,0,0,0,21.081,6.025c-1.373-1.2-2.748-2.393-4.185-3.515C-612.9,263.819-616.452,261.378-619.953,258.888Z" transform="translate(1200.934 268.826)" fill="#e9af16"/>
      <path id="Pfad_1555" data-name="Pfad 1555" d="M-672.137,323.615c-.169-.915-.347-1.828-.522-2.74-.011.582-.038,1.166-.106,1.751Q-672.449,323.119-672.137,323.615Z" transform="translate(1203.184 291.762)" fill="#e9af16"/>
      <path id="Pfad_1556" data-name="Pfad 1556" d="M-680.484,280q-2.953-1.4-5.9-2.809c-2.8-1.348-5.712-2.631-8.62-3.964a30.335,30.335,0,0,1,5.6,6.169c3.475,5.321,5.659,11.774,8.112,17.613,1.37,3.26,2.694,6.541,3.92,9.859,1.19,3.222,1.99,6.727,3.515,9.809,1.374,2.778,3.516,5.082,4.787,7.917q-4.631-22.433-11.391-44.356A1.461,1.461,0,0,1-680.484,280Z" transform="translate(1198.219 281.121)" fill="#e9af16"/>
      <path id="Pfad_1557" data-name="Pfad 1557" d="M-707.338,266.265a534.886,534.886,0,0,1,27.068,48.053,1.6,1.6,0,0,1-.226,1.818c1.977,1.9,3.916,3.844,5.756,5.911,2.186,2.455,4.22,5.033,6.169,7.671a14.5,14.5,0,0,0-1.768-4.277c-1.491-2.433-3.236-4.594-4.306-7.27-2.351-5.882-4.185-11.952-6.629-17.812s-4.649-12.439-8.174-17.77c-3.457-5.224-9.53-8.922-14.354-12.775a1.255,1.255,0,0,1-.48-1.4C-705.331,267.737-706.352,267.023-707.338,266.265Z" transform="translate(1195.464 279.566)" fill="#e9af16"/>
      <path id="Pfad_1558" data-name="Pfad 1558" d="M-559.31,369.737c-4.861-2.195-9.942-4.019-14.44-6.934a35.809,35.809,0,0,1-10.069-10.014c-6.064-8.893-8.985-19.705-12.222-29.84-6.763-21.179-14.553-44.493-34.392-56.992a1.519,1.519,0,0,1-.735-1.157c-6.6-3.986-12.333-9.194-17.886-14.586q-11.461-11.127-23.61-21.457c-8.1-6.9-16.085-14.416-25.45-19.588a1.447,1.447,0,0,1-.666-.758c-.45-.246-.908-.475-1.355-.727a1.464,1.464,0,0,1-.19-.164q-1.976,2.549-4.08,4.995c.012.015.027.017.04.032q11.481,13.6,21.976,27.992c1.233,1.691-1.584,3.309-2.8,1.638q-10.206-13.994-21.386-27.236c-.56.615-1.114,1.237-1.687,1.84a1.327,1.327,0,0,1,.864,1.057,73.3,73.3,0,0,0,28.886,45.28c12.829,9.166,28.3,13.608,41.353,22.39a53.678,53.678,0,0,1,15.717,15.819c4.37,6.928,7.161,14.7,10.095,22.3,3.04,7.879,6.332,15.76,11.6,22.445a77.165,77.165,0,0,0,18.077,16.066c6.763,4.5,13.937,8.341,21.1,12.154,6.934,3.688,14.6,7.1,19.007,13.929a1.416,1.416,0,0,1,.215,1.072c.7.493,1.395,1.009,2.066,1.562a31.718,31.718,0,0,0-5.879-11.061C-548.978,375.19-553.911,372.176-559.31,369.737Zm-115.755-125.8c-2.788-6.285-5.619-12.776-10.171-18.021-4.749-5.471-10.743-9.97-16.2-14.7-1.582-1.371.723-3.658,2.295-2.295,5.6,4.853,11.8,9.462,16.583,15.152,4.54,5.4,7.459,11.832,10.3,18.229C-671.422,244.189-674.22,245.838-675.065,243.933Z" transform="translate(1195.257 266.448)" fill="#e9af16"/>
      <path id="Pfad_1559" data-name="Pfad 1559" d="M-711.285,264.878q2,7.989,4.011,15.975c1.2,4.715,2.474,9.476,5.064,13.647a44.239,44.239,0,0,0,8.9,9.74c3,2.608,6.008,5.177,8.955,7.807A534.846,534.846,0,0,0-711.2,265.091,1.371,1.371,0,0,1-711.285,264.878Z" transform="translate(1194.582 279.257)" fill="#e9af16"/>
      <path id="Pfad_1560" data-name="Pfad 1560" d="M-1012.1,395.512c7.886-.5,14.872-5.243,20.22-10.762,10.172-10.495,15.433-24.636,25.165-35.5a41.792,41.792,0,0,1,16.27-11.6c7.252-2.722,15.079-3.348,22.218-6.463,13.617-5.94,24.124-16.9,33.334-28.249,4.825-5.943,9.279-12.205,14.258-18.021,4.286-5.007,9.183-9.374,15.425-11.728a1.473,1.473,0,0,1,.746-.086c3.814-2.9,6.824-6.751,9.763-10.527q6.387-8.206,12.774-16.412a1.236,1.236,0,0,1,1.415-.48l1.108-3.806a16.115,16.115,0,0,1-1.069,1.422,62.584,62.584,0,0,1-5.763,5.827,34.174,34.174,0,0,1-6.679,4.925c-1.836,1-3.473-1.8-1.638-2.8,3.977-2.164,7.163-5.411,10.3-8.623,1.3-1.336,2.805-2.856,3.168-4.765.23-1.21-.172-2.957-1.477-3.389-1.977-.653-1.124-3.787.862-3.129a5.293,5.293,0,0,1,.752.318,138.432,138.432,0,0,1-20.938-27.21,1.473,1.473,0,0,1-1.1,1.848c-7.539,1.9-14.779,4.25-21.234,8.155a1.371,1.371,0,0,1-.63.542c-.327.144-.652.29-.979.433a42.981,42.981,0,0,0-6.674,5.416c-6.984,6.961-11.888,15.706-16.03,24.573-7.351,15.734-12.477,32.868-23.829,46.38a59.574,59.574,0,0,1-20.044,15.121c-7.582,3.683-15.6,6.509-22.875,10.8a38.91,38.91,0,0,0-16.855,19.14c-3.28,8.092-4.508,16.846-6.069,25.383-1.43,7.819-2.634,17.254-9.1,22.646,10.887-5.825,18.812-18.079,24.891-28.328,4.2-7.084,8.414-14.247,13.969-20.378a68.33,68.33,0,0,1,19.626-14.615c7.631-3.913,16.448-5.866,23.551-10.72,7.081-4.837,11.5-12.708,14.636-20.491,3.422-8.486,5.693-17.4,9.609-25.691a85.138,85.138,0,0,1,12.015-18.559,87.011,87.011,0,0,1,36.669-25.5,1.417,1.417,0,0,1,1.932,1.316,1.57,1.57,0,0,1,1.311,1.5c.242,4.691-2.886,8.832-6.213,11.81a58.93,58.93,0,0,1-11.237,7.37c-1.835,1.006-3.47-1.8-1.638-2.8a58.086,58.086,0,0,0,10.144-6.479c2.712-2.33,5.534-5.493,5.67-9.237A83.724,83.724,0,0,0-892.6,256.294c-4.766,7.257-7.97,15.128-10.757,23.316-2.773,8.151-5.478,16.478-10.306,23.691A38.365,38.365,0,0,1-931.4,317.68c-8.156,3.406-16.279,6.362-23.683,11.313a65.749,65.749,0,0,0-18.4,19.179c-4.622,7.068-8.525,14.586-13.33,21.536-8.259,11.947-21.336,23.416-36.873,21.644a1.712,1.712,0,0,1-1.514-1.6c-1.033-.012-2.059-.046-3.073-.1C-1024.21,394-1018.048,395.893-1012.1,395.512ZM-882.283,226.1c-1.464,1.495-3.758-.8-2.295-2.295,6.716-6.855,14.577-14.324,24.9-13.916,2.084.082,2.088,3.327,0,3.245C-869.093,212.768-876.185,219.879-882.283,226.1Zm25.88-6.92a25.009,25.009,0,0,0-20.217,9.473,1.633,1.633,0,0,1-2.295,0,1.675,1.675,0,0,1,0-2.295A28.061,28.061,0,0,1-856.4,215.938C-854.314,216-854.313,219.243-856.4,219.184Zm-3.988,29.391c3.261-3.309,6.6-6.561,9.782-9.943a9.963,9.963,0,0,0,2.958-4.929,6.2,6.2,0,0,0-1.384-4.963c-1.348-1.582.938-3.887,2.295-2.295a9.643,9.643,0,0,1,2.4,6.459,10.657,10.657,0,0,1-2.524,6.344,69.208,69.208,0,0,1-5.35,5.649l-5.885,5.972C-859.565,252.361-861.857,250.065-860.391,248.576Z" transform="translate(1123.793 265.762)" fill="#e9af16"/>
      <path id="Pfad_1561" data-name="Pfad 1561" d="M-879.666,218.511l1-.444c7.207-4.9,15.535-7.487,23.964-9.608a1.492,1.492,0,0,1,1.377.3q-1.272-2.2-2.464-4.441a152.425,152.425,0,0,1-9.973-23.548,1.635,1.635,0,0,1-.224.152q-23.319,9.707-46.535,19.661c-52.4,22.437-104.545,45.49-156.744,68.4q8.212-2.94,16.521-5.6c46.158-14.808,92.55-29.139,140.22-38.242.707-.325,1.411-.658,2.134-.955,9.258-3.816,19.429-3.6,28.788-6.983A1.418,1.418,0,0,1-879.666,218.511Zm-21.08-18.144a219.687,219.687,0,0,1,33.738-13.8c2-.63,2.848,2.5.862,3.129a214.572,214.572,0,0,0-32.962,13.476C-900.968,204.117-902.609,201.316-900.747,200.366Zm6.032,8.805a175.6,175.6,0,0,0,32.176-12.759c1.855-.958,3.495,1.844,1.638,2.8a179.9,179.9,0,0,1-32.95,13.088C-895.867,212.88-896.718,209.747-894.714,209.172Z" transform="translate(1114.64 260.475)" fill="#e9af16"/>
      <path id="Pfad_1562" data-name="Pfad 1562" d="M-1072.121,255.175a1.651,1.651,0,0,1-1.083-2.425q-5.356,3.554-10.7,7.132Q-1078.057,257.41-1072.121,255.175Z" transform="translate(1111.37 276.548)" fill="#e9af16"/>
      <path id="Pfad_1563" data-name="Pfad 1563" d="M-920.164,232.585c.466-.844.9-1.705,1.391-2.537a74.5,74.5,0,0,1,9.1-12.516,81.938,81.938,0,0,0-11.962,7.274c-6.813,5.085-13.293,10.525-20.332,15.316a225.089,225.089,0,0,1-27.808,16.1c3.793-1.231,7.574-2.5,11.319-3.871,13.339-4.87,26.266-10.945,37.676-19.481A1.55,1.55,0,0,1-920.164,232.585Z" transform="translate(1136.858 268.683)" fill="#e9af16"/>
      <path id="Pfad_1564" data-name="Pfad 1564" d="M-920.056,222.023a85.012,85.012,0,0,1,12.4-7.3c-7.369,1.59-14.94,2.244-21.99,5.192a1.357,1.357,0,0,1-.926.6c-.274.053-.548.109-.822.161-8.638,4.074-16.1,10.224-23.127,16.61s-13.766,13.077-21.389,18.752c-1.452,1.081-2.976,2.169-4.556,3.219a225.515,225.515,0,0,0,40.042-21.845C-933.391,232.583-926.949,227.026-920.056,222.023Z" transform="translate(1134.469 268.055)" fill="#e9af16"/>
      <path id="Pfad_1565" data-name="Pfad 1565" d="M-865.682,183.089c.039-.016.071-.007.11-.021q-.919-2.952-1.732-5.938a1.232,1.232,0,0,1-.492.316,1.22,1.22,0,0,1-.625.139h-1.489a1.608,1.608,0,0,1-.691-.187,1.618,1.618,0,0,1-.823.722,159,159,0,0,0-29.946,15.569c-1.748,1.157-3.371-1.654-1.638-2.8a162.863,162.863,0,0,1,30.72-15.9,1.333,1.333,0,0,1,1.1.022,1.29,1.29,0,0,1,.127-.2,1.224,1.224,0,0,1,.522-.335,1.222,1.222,0,0,1,.625-.139h1.489a1.638,1.638,0,0,1,.4.108q-2.207-8.527-3.693-17.243c-.024.016-.034.038-.061.054-3.177,1.787-6.47,3.62-10.057,4.437a16.062,16.062,0,0,1-1.983.312,1.766,1.766,0,0,1-1.928,2.291c-3.575-.583-6.88-2.022-10.3-3.15a82.077,82.077,0,0,0-10.349-2.68,80.8,80.8,0,0,0-16.789-1.375,1.487,1.487,0,0,1-1.3.215c-.188-.05-.377-.077-.565-.125-1.133.048-2.267.076-3.4.166a1.4,1.4,0,0,1-.845-.193,1.639,1.639,0,0,1-.34.215q-16.249,6.241-32.726,11.849a645.145,645.145,0,0,1,75.081-3.869,1.493,1.493,0,0,1,1.1.459l12.113-6.316c1.852-.966,3.491,1.836,1.638,2.8l-49.85,25.994c-29.287,15.271-58.749,30.254-87.844,45.888-22.182,11.92-43.385,25.469-64.353,39.377l45.937-20.149C-974.384,229.656-920.271,205.813-865.682,183.089Zm-41.381,1.145a384.676,384.676,0,0,0,34.457-18.426c1.8-1.081,3.425,1.726,1.638,2.8a384.335,384.335,0,0,1-34.457,18.424C-907.305,187.922-908.952,185.123-907.063,184.234Z" transform="translate(1113.477 255.182)" fill="#e9af16"/>
      <path id="Pfad_1566" data-name="Pfad 1566" d="M-941.7,120.839c-13.849-11.17-32.024-16.284-43.89-30.023a1.586,1.586,0,0,1-.39-1.3c-6.2-.82-12.392-1.747-18.574-2.738q25.205,17.39,49.587,35.931a1.8,1.8,0,0,1,.1,2.737C-950.495,123.864-946.126,122.259-941.7,120.839Z" transform="translate(1129.09 239.483)" fill="#e9af16"/>
      <path id="Pfad_1567" data-name="Pfad 1567" d="M-948.244,187.356q13.735-7.164,27.472-14.325a896.614,896.614,0,0,0-91.367,7.857c20.8,1.452,41.4,7.194,62.364,4.906A1.35,1.35,0,0,1-948.244,187.356Z" transform="translate(1127.396 258.746)" fill="#e9af16"/>
      <path id="Pfad_1568" data-name="Pfad 1568" d="M-1030.906,152.562a58.454,58.454,0,0,1,19.768,2.229,165.077,165.077,0,0,1,17.266,6.634,103.06,103.06,0,0,0,17.316,6.024,48.878,48.878,0,0,0,19.638.059c12.149-2.208,24.369-6.787,36.761-3.921a85.481,85.481,0,0,1,15.653.86c-2.385-.886-4.771-1.775-7.159-2.646-1.95-.711-1.1-3.846.862-3.129q10.751,3.92,21.5,7.841c3.4,1.238,6.767,2.518,10.445,1.864,3.6-.64,6.858-2.489,10.008-4.261a1.512,1.512,0,0,1,1.229-.146c-1.639-10.24-2.656-20.6-3.27-30.925a1.358,1.358,0,0,1,.874-1.426,64.044,64.044,0,0,1-.083-8.434q-1.536-.85-3.082-1.677a1.615,1.615,0,0,1-1.686-.261c-.653-.546-1.322-1.072-1.981-1.61-6.531-3.2-13.322-5.653-20.782-5.812-9.492-.2-18.75,2.549-27.63,5.632-7.954,2.762-15.734,6.047-24.046,7.605a108.161,108.161,0,0,1-24.406,1.5c-17.646-.734-34.95-4.662-52.542-5.969-6.682-.5-13.373-.557-19.705,1.914-6.781,2.647-12.57,7.281-19.3,10.1a72.541,72.541,0,0,1-27.084,5.577,111.438,111.438,0,0,0,21.57,2.418,51.639,51.639,0,0,0,14.175-1.946c4.121-1.206,8.031-3.014,12.108-4.351,7.522-2.466,15.173-2.237,22.908-1.013a45.28,45.28,0,0,1,10.551,2.838,114.106,114.106,0,0,1,10.174,5.421,60.452,60.452,0,0,0,43.43,5.41c7.514-1.9,13.967-5.844,21.04-8.832,6.939-2.931,14.341-3.489,21.782-3.924,8.574-.5,17.354-.566,25.789.971-3.82-2.443-7.856-4.578-11.717-6.6-1.853-.971-.21-3.771,1.638-2.8,6.317,3.309,12.883,6.9,18.4,11.524q1.651.558,3.27,1.232c-1.077-3.458-2.529-6.881-5.25-9.308-1.96-1.748-4.508-2.557-6.94-3.407l-8.454-2.954c-1.962-.685-1.113-3.819.862-3.129q4.721,1.65,9.444,3.3a21.2,21.2,0,0,1,7.383,3.9c3.332,2.984,5.049,7.271,6.316,11.509a24.618,24.618,0,0,0-3.784-12.583c-3.209-4.836-9.163-8.374-15.089-7.516-2.045.3-2.921-2.832-.862-3.129,7.04-1.019,13.8,2.381,18.014,7.969,4.646,6.153,5.621,14.369,4.723,21.829a1.7,1.7,0,0,1-1.413,1.481,31.7,31.7,0,0,1,3.167,6.5c.691,1.978-2.445,2.821-3.13.862a31.956,31.956,0,0,0-9.685-13.607,64.371,64.371,0,0,0-16.983-2.993,142.425,142.425,0,0,0-25.352.995c-7.968,1.037-14.5,4.771-21.671,8.065a62.933,62.933,0,0,1-19.941,5.4,64.209,64.209,0,0,1-21.058-1.386c-7.114-1.669-13.426-4.767-19.745-8.352a50.613,50.613,0,0,0-22.368-6.294,37.818,37.818,0,0,0-13.641,1.455c-3.472,1.067-6.8,2.536-10.227,3.735-13.7,4.8-28.084,2.81-42.012.11.727.577,1.451,1.156,2.176,1.729a49.787,49.787,0,0,0,20.313,9.82C-1058.605,157.541-1044.73,153.3-1030.906,152.562Zm131.816-6.957a47.684,47.684,0,0,1,18.591,5.622,47.388,47.388,0,0,1,8.106,5.624c1.513,1.3,5.922,4.622,3.258,6.814-1.421,1.171-3.385-.5-2.679-1.817l-.013-.013c-.108-.111-.215-.221-.324-.33q-.327-.327-.658-.648-.749-.721-1.529-1.407-1.494-1.312-3.107-2.472a45.63,45.63,0,0,0-6.536-3.9,43.431,43.431,0,0,0-15.107-4.222C-901.156,148.664-901.169,145.417-899.09,145.605Zm-3.451,7.978a70.786,70.786,0,0,0,28.765,7.089c2.087.066,2.089,3.312,0,3.245a74.691,74.691,0,0,1-30.4-7.532C-906.058,155.471-904.411,152.674-902.541,153.584Z" transform="translate(1108.91 245.522)" fill="#e9af16"/>
      <path id="Pfad_1569" data-name="Pfad 1569" d="M-913.974,171.318l9.246-4.821a645.087,645.087,0,0,0-75.641,4.394c-1.132.133-1.616-.771-1.511-1.661q-16.627,5.527-33.459,10.408a903.32,903.32,0,0,1,100.482-8.582A1.458,1.458,0,0,1-913.974,171.318Z" transform="translate(1126.682 257.286)" fill="#e9af16"/>
      <path id="Pfad_1570" data-name="Pfad 1570" d="M-1022.373,179.461c1.463-.054,2.926-.082,4.387-.073a1.611,1.611,0,0,1-.016-1.146C-1019.457,178.654-1020.916,179.053-1022.373,179.461Z" transform="translate(1125.111 259.909)" fill="#e9af16"/>
      <path id="Pfad_1571" data-name="Pfad 1571" d="M-914.663,139.669l-.044-.023c.149.187.306.368.45.559.013-.133.026-.268.038-.4A1.628,1.628,0,0,1-914.663,139.669Z" transform="translate(1149.155 251.29)" fill="#e9af16"/>
      <path id="Pfad_1572" data-name="Pfad 1572" d="M-875.4,256.61l3.89-13.348q-5.2,6.679-10.4,13.357c-3.68,4.723-7.522,9.429-12.8,12.44a1.523,1.523,0,0,1-.854.2c-.619,3.856-1.261,7.713-2.037,11.541a143.193,143.193,0,0,0,21.848-23.861A1.648,1.648,0,0,1-875.4,256.61Z" transform="translate(1152.974 274.429)" fill="#e9af16"/>
      <path id="Pfad_1573" data-name="Pfad 1573" d="M-897.733,281.925c-.384,1.557-.787,3.111-1.253,4.649-.891,2.938-1.946,5.825-3.123,8.664.075-.07.143-.146.219-.214a64.957,64.957,0,0,1,6.88-5.293c4.576-3.182,9.42-6.349,12.146-11.377a1.393,1.393,0,0,1,1.2-.777l4.83-16.572a156.179,156.179,0,0,1-20.287,20.582A1.745,1.745,0,0,1-897.733,281.925Z" transform="translate(1151.968 278.391)" fill="#e9af16"/>
      <path id="Pfad_1574" data-name="Pfad 1574" d="M-893.632,396.316c3.758-6.486,6.918-13.311,10.1-20.093q9.692-20.68,18.339-41.831,17.241-42.206,30.207-85.986a1.579,1.579,0,0,1,.166-.313q-2.426-1.286-4.787-2.685c0,.037.018.061.018.1a21.354,21.354,0,0,1-1.585,6.99q-1.285,3.576-2.682,7.112-2.822,7.144-6.079,14.1c-.884,1.892-3.681.243-2.8-1.638q3.073-6.578,5.752-13.329,1.3-3.292,2.5-6.619a20.3,20.3,0,0,0,1.648-6.621,1.494,1.494,0,0,1,1.026-1.462,123.288,123.288,0,0,1-10.341-7.166,164.08,164.08,0,0,1-6.589,28.519c-.648,1.979-3.781,1.127-3.13-.862a164,164,0,0,0,6.618-28.7,1.281,1.281,0,0,1,.6-.975q-2.028-1.653-3.988-3.387-7.512,25.78-15.027,51.559-23.8,81.673-47.608,163.347c4.335-11.218,8.957-22.34,15.735-32.3C-901.53,408.186-897.214,402.5-893.632,396.316Zm34.238-126.111q2.7-6.766,5.395-13.531c1.688-4.24,3.416-8.572,3.961-13.137.246-2.052,3.494-2.069,3.245,0a54.118,54.118,0,0,1-3.893,13.537q-2.782,7-5.578,13.993C-857.029,272.988-860.167,272.145-859.394,270.205Z" transform="translate(1147.687 271.797)" fill="#e9af16"/>
      <path id="Pfad_1575" data-name="Pfad 1575" d="M-903.375,301.274A207.6,207.6,0,0,1-918.8,325.082a348.564,348.564,0,0,0,31.882-28.142,1.5,1.5,0,0,1,2.082-.088q2.362-8.107,4.726-16.214a56.993,56.993,0,0,1-8.572,6.84,68.529,68.529,0,0,0-7.011,5.295,62.488,62.488,0,0,0-7.177,8.071A1.5,1.5,0,0,1-903.375,301.274Z" transform="translate(1148.241 282.776)" fill="#e9af16"/>
      <path id="Pfad_1576" data-name="Pfad 1576" d="M-1039.337,51.417c-11.111-3.549-22.363-6.855-33.883-8.613,13.515,6.163,27.281,11.755,41.15,17.076,27.854,10.688,56.05,20.551,83.252,32.856,28.27,12.79,55.994,26.863,83.9,40.417.728-1.381,1.5-2.745,2.285-4.1q-14.639-8.14-29.785-15.316c-1.889-.894-.24-3.692,1.638-2.8q15.164,7.182,29.835,15.343c.711-1.141,1.434-2.275,2.185-3.4a1.615,1.615,0,0,1-.96-.119,212.329,212.329,0,0,1-25.155-13.836c-1.754-1.125-.126-3.933,1.638-2.8a212.524,212.524,0,0,0,25.155,13.837,1.34,1.34,0,0,1,.757.829q2.279-3.253,4.754-6.372a1.363,1.363,0,0,1-1.582-.4c-2.57-2.865-6.37-3.959-9.887-5.187l-12.818-4.472c-1.962-.685-1.113-3.819.863-3.13l13.686,4.777c3.769,1.315,7.708,2.661,10.451,5.718a1.555,1.555,0,0,1,.4,1.32,167.1,167.1,0,0,1,23.32-23.269c.492-.4,1-.794,1.495-1.194q-.787-.928-1.573-1.859c-6.487-5.246-15.43-5.984-22.723-9.778-8.193-4.26-11.44-12.243-14.751-20.354-11.052-27.065-39.2-38.87-59.724-57.435a79.178,79.178,0,0,1-13.182-15.006c-4.644-7.052-6.937-14.954-9.82-22.806-6.34-17.276-20.8-27.811-35.492-37.766a1.6,1.6,0,0,1-.711-1.086,88.014,88.014,0,0,1-8.9-3.451c3.258,2.35,6.739,4.453,9.965,6.794a58.516,58.516,0,0,1,15.7,17.42c7.99,13.271,11.659,28.443,17.01,42.838,5.6,15.059,13.991,28.544,26.884,38.4,10.994,8.405,25.534,12.895,29.32,27.739,1.924,7.544,1.66,15.48,5.036,22.646,3.323,7.05,8.809,12.785,14.124,18.366a1.488,1.488,0,0,1,.377,1.479q13.645,4.494,27.21,9.227c1.961.689,1.112,3.823-.863,3.129q-22.711-7.978-45.681-15.19a1.382,1.382,0,0,1-2.294.16c-.346-.423-.724-.81-1.079-1.222-.909-.284-1.817-.577-2.727-.859q-46.113-14.271-93.1-25.413C-1009.117,60.865-1024.184,56.256-1039.337,51.417Zm171.068,14.471a51,51,0,0,1,8.092,6q4.026,3.4,7.96,6.907,8.1,7.21,15.794,14.847a1.624,1.624,0,0,1-2.295,2.295q-7.487-7.417-15.344-14.447-3.931-3.51-7.95-6.918a49.308,49.308,0,0,0-7.9-5.882C-871.738,67.679-870.1,64.878-868.269,65.887Zm20.839,36.784c-4.733-4.835-10.9-7.872-16-12.275-4.913-4.244-9.09-9.389-14.869-12.529-1.837-1-.2-3.8,1.638-2.8,5.874,3.192,10.185,8.342,15.14,12.7,5.189,4.564,11.522,7.647,16.383,12.611C-843.672,101.87-845.967,104.166-847.43,102.671Z" transform="translate(1113.756 202.025)" fill="#e9af16"/>
    </g>
  </g>
</svg>
