<?xml version="1.0" encoding="utf-8"?>
<!-- Generator: Adobe Illustrator 25.4.1, SVG Export Plug-In . SVG Version: 6.00 Build 0)  -->
<svg version="1.1" id="Ebene_1" xmlns="http://www.w3.org/2000/svg" xmlns:xlink="http://www.w3.org/1999/xlink" x="0px" y="0px"
	 viewBox="0 0 693.4 604.4" style="enable-background:new 0 0 693.4 604.4;" xml:space="preserve">
<style type="text/css">
	.st0{fill:#E9AF16;}
</style>
<g id="Gruppe_1" transform="translate(854.361 412.529)">
	<path id="Pfad_712" class="st0" d="M-511.2-214L-511.2-214L-511.2-214L-511.2-214z"/>
	<path id="Pfad_713" class="st0" d="M-511-213.9L-511-213.9L-511-213.9z"/>
	<path id="Pfad_714" class="st0" d="M-512.9-213.4c0,0.4,0.1,0.8,0.1,1.2l0.1,1c0.3-0.1,0.8-0.2,1.1,0l0,0l0,0l0,0c0,0,0,0,0.1,0
		c0.1-0.1,0.1-0.1,0.2-0.1c0,0,0-0.1,0.1-0.1c0,0,0-0.1,0.1-0.1c0.1-0.2,0.1-0.3,0.1-0.5c0.1-0.6,0.1-1.1,0.1-1.7
		c0-0.1,0-0.2-0.1-0.2v-0.1c-0.3-0.2-0.5-0.4-0.7-0.7h-0.1c-0.1,0.1-0.2,0.1-0.3,0.2l-0.2,0.1c-0.1,0.1-0.1,0.1-0.2,0.2
		c0,0.1-0.1,0.1-0.1,0.1c0,0-0.1,0.1-0.1,0.1l0,0C-512.9-213.9-512.9-213.6-512.9-213.4z"/>
	<path id="Pfad_715" class="st0" d="M-512.9-214.1L-512.9-214.1L-512.9-214.1L-512.9-214.1z"/>
	<path id="Pfad_716" class="st0" d="M-517.4-182.9c2.4-1.1,4.8-0.6,7.2,0.2c2.1,0.7,1,3.9-1.1,3.3c-1.5-0.4-4.6-1.5-5.5,0.5
		c-0.5,1-0.7,1.9-1.5,2.6c0.8,1.6,1.5,3.5,1.2,5.3c0.5,0.1,0.8,0.4,1,0.8c2.4,4.9,4.9,10.1,4.6,15.7c-0.3,5.1-3.5,10.2-2.7,15.4
		c0.3,2.6,2.1,4.5,3.6,6.6c1.5,1.9,2.4,4.2,2.6,6.6c0.1,2.2-0.4,4.4-1.4,6.3c0.5,1,0.9,2,1.4,3c1.4-1.5,2.2-3.3,2.4-5.3
		c0.3-3.5-1.9-6-3.2-9.1c-1.2-2.9-1.2-5.8,0.4-8.4c0.1-0.9,0.5-1.7,0.9-2.4c1-1.9,2.1-3.5,2.6-5.6c0.2-1,0.3-2.1,0.3-3.1
		c-0.1-1.4-0.6-1.9-1.5-2.9c-1.2-1.2-2.2-2.6-3-4.2c-1.5-3.1-2-7.3-0.6-10.5c0.8-1.7,2.5-2.6,3.6-4.1c0.9-1.2,1.4-4.1-0.9-4.3
		c-2.2-0.2-2-3.7,0.2-3.5c3.9,0.3,5.8,4.6,4.4,8.1c-0.4,1-1,1.9-1.7,2.6c-0.7,0.8-1.7,1.4-2.4,2.3c-1.1,1.5-0.8,4.1-0.4,5.8
		c0.5,2,1.5,3.9,3,5.3c1.6,1.6,2.5,2.9,2.6,5.3c0.1,2.1-0.3,4.3-1.1,6.4c0.8-0.4,1.6-0.8,2.4-1.3c0,0,0,0,0-0.1
		c0.6-1.7,0.6-3.5,0-5.3c-0.5-1.6-1.5-3-2.4-4.5c-1.5-2.6-2.1-5.9,0.1-8.2c1.7-1.7,5.3-2.1,5-5.1c-0.2-2.5-4.2-3.5-2.8-6.4
		c0.9-2,4.2-0.9,3.3,1.1c0.1-0.2,0.3,0.2,0.6,0.4c0.2,0.2,0.5,0.4,0.7,0.7c0.4,0.5,0.8,1,1.1,1.5c0.6,1.2,0.8,2.4,0.6,3.7
		c-0.3,2.9-2.4,4.3-4.8,5.6c-3.5,1.9-0.2,5.5,1,7.9c0.9,1.7,1.4,3.5,1.4,5.4c0.8-1.2,1.5-2.7,1.8-4.2c0.7-2.8,1-5.8,2.8-8.2
		c0.3-0.6,0.8-1,1.3-1.4c0.5-1,0.8-2,1.1-3c0.4-1.1,0.3-2.4-0.3-3.5c-0.6-0.8-1.2-1.5-2-2c-1.7-1.7-2.8-3.7-2.3-6.3
		c0.6-2.6,2.6-4.4,4.6-5.9c1.7-1.4,4.1,1.2,2.3,2.6c-1.5,1.2-4.4,3.2-3.5,5.5c0.6,1.6,2.5,2.6,3.5,4c1.5,1.9,1.5,4.2,1,6.4
		c0.3-0.1,0.6-0.2,0.9-0.2c0-0.1,0-0.1-0.1-0.1c-0.2-0.9,0.4-1.8,1.3-2c1.6-0.7,2.8-2.1,3.1-3.8c0.4-2-0.6-3.3-1.7-5
		c-2.5-3.7-2.8-9.1,0.8-12.2c1.7-1.5,4,1.1,2.3,2.6c-1.6,1.3-1.9,3.5-1.4,5.5c0.6,2.3,2.5,3.7,3.2,5.9c0.7,2.4,0.2,4.8-1.1,6.8
		c0.5-0.3,1-0.8,1.3-1.3c2-2.6,4.4-3.8,7.7-3c3.2,0.7,5.7,3.2,9,3.7c3.7,0.6,3.9-3.6,5.7-5.9c2-2.6,5.1-3.3,7.7-5
		c5.7-3.7,8.8-10.9,10.8-17c2.1-7.1,2.8-14.5,2.7-21.8c-0.1-7.4-0.9-14.8-2.2-22c-1.1-5.9-3.3-12.6-8.7-15.9c0,0.5,0.1,1,0.1,1.4
		c0,10.9-7,21.4-17.7,24.3c-2.1,0.6-2.9-2.8-0.7-3.3c5.7-1.5,10.2-5.7,12.7-11c2.4-5,2.9-10.8,1.5-16.1c-1.3-5.9-4.5-11-8.4-15.7
		c-3.7-4.5-7.1-9-7.7-14.9c-0.3-3.9,0.1-7.8,1.1-11.7c-2.9,3.2-4.8,7.1-5.7,11.3c-1.1,5.9,1.1,11.3,3.8,16.5c2.4,4.8,4.6,9.5,4.6,15
		c0.1,9.7-5.7,19.4-14.6,23.6c-2,1-3.6-2.1-1.5-3c5-2.4,8.9-6.5,10.9-11.6c1.3-3.1,1.9-6.5,1.7-10c-0.2,1-1.1,1.6-2.1,1.5
		c-0.1,0-0.1,0-0.1,0c-9.5-2.4-19.4-2.1-29-0.8c-7.5,1.1-15.8,2.3-22.1,7c-5.9,4.4-10,11.1-13.6,17.4c-2,3.7-4,7.9-3,12.2
		c0.8,3.5,3.2,6.4,3.9,10c0.8,3.6,0.1,7.3-0.8,10.9c-0.6,2.1-1.1,4.1-1.5,6.3c-0.2,0.9-0.3,1.9-0.3,2.8c0,0.4,0,0.8,0.1,1.2
		c0.1,0.3,0.3,0.4,0.1,0.5c0.1,0,0.1,0,0.2-0.1c0.6-0.3,1.2-0.2,1.7,0.1c2.5,1.5,5.8,0.8,7.3-1.7c0-0.1,0.1-0.1,0.1-0.1
		c0.3-0.6,0.6-1.1,0.7-1.7c0.2-1,0.2-2,0.8-2.8c0.6-0.7,1.1-1.2,1.9-1.5c0.3-0.1,0.6-0.3,0.8-0.4c0,0,0.2-0.1,0.2-0.2
		c0.1-0.1,0.2-0.3,0.1-0.1c0.6-0.8,1.6-1,2.4-0.5c0.8,0.6,1,1.6,0.5,2.4c-0.6,0.7-1.3,1.2-2.1,1.7c-0.2,0.1-0.4,0.2-0.6,0.3
		c-0.1,0-0.2,0.1-0.2,0.2c-0.1,0.1-0.2,0.2-0.1,0.1c-0.1,0.1-0.1,0.2-0.1,0.3c-0.1,1-0.3,1.9-0.6,2.8c-0.3,0.9-0.8,1.8-1.5,2.5
		c-0.8,1-1.9,1.8-3.1,2.4c0.2,2.1,0.7,4.2,1.2,6.3c0.2,1,0.6,2,1.1,2.9c0.2,0.3,0.4,0.5,0.7,0.7c0.2,0.1,0.3,0.1,0.6,0.1
		c0.1,0,0.2-0.1,0.2-0.1c-0.1,0.1,0.1-0.2,0.1-0.2c0.2-0.5,0.3-0.9,0.5-1.3C-519.3-181.4-518.5-182.3-517.4-182.9z M-477.3-191.6
		c0.6-2.1,3.8-1,3.3,1.1c-0.6,1.9,3.7,2.1,4.6,2.1c0.9,0.1,1.8,0.1,2.6,0.1c0.6,0,2.5,0.2,2.9-0.3c0.6-0.7-1.6-2.8-2.1-3.4
		c-0.7-1.1-1-2.4-0.8-3.7c0.3-1.5,1.1-2.7,2.4-3.5c-0.8,0.3-1.6,0.5-2.5,0.5c-1.2,0-2.4,0.7-2.9,1.7c-0.3,0.9-1.2,1.4-2.2,1.1
		c-0.9-0.3-1.4-1.2-1.1-2.2c0.9-2,2.7-3.5,4.8-3.9c0.9-0.2,2,0.1,2.8-0.4c0.6-0.3,1-0.9,1.2-1.5c0.8-2.1,0.4-4.4,0.7-6.6
		c0.2-1.1,0.6-2.3,1.1-3.3c0.2-0.5,0.6-0.9,0.8-1.3c0-0.1,0.1-0.1,0.1-0.1c-0.6,0.2-1.1,0.5-1.5,0.9c-1,1.1-1.9,2.4-2.5,3.7
		c-0.3,0.6-0.6,1.2-0.7,2c-0.1,0.8,0.1,1.5-0.1,2.4c-0.2,1.5-1.2,2.9-2.8,3.2c-2.2,0.4-2.9-3-0.7-3.3h0.1c0.1-0.1,0.1-0.2,0.1-0.3
		c0.1-0.5,0.1-1,0-1.4c0-1,0.1-1.9,0.5-2.8c0.7-1.7,1.7-3.3,2.9-4.8c1-1.3,2.3-2.3,3.8-2.8c1.5-0.4,3.3,0,4.4,1.1
		c0.7,0.7,0.8,1.6,0.6,2.5c-0.3,0.7-0.8,1.2-1.3,1.8c-0.9,1.2-1.4,2.8-1.4,4.3c-0.2,3-0.1,6.4-2.4,8.6c0.5-0.2,1-0.5,1.5-0.7
		c2.6-1.1,4.4-2.1,5.2-4.9c0.7-2.4,0.6-5,0.7-7.5c0.1-2.9,0.7-5.9,1.8-8.6c0.6-1.5,1.2-2.9,2-4.2c0.5-0.8,2.3-2.9,1.1-3.7
		c-2.2-1.4-5.5,3.6-6.5,5c-3.3,4.1-7.1,8.4-12.9,8.2c-2.2-0.1-2-3.5,0.2-3.5c4.2,0.1,7.2-3.4,9.5-6.4c2.1-2.7,4.7-6.6,8.5-6.8
		c2.9-0.2,5.5,2.2,4.8,5.3c-0.4,1.9-1.9,3.5-2.8,5.2c-0.8,1.7-1.5,3.5-1.9,5.3c-1.5,5.9,0.8,14-4.8,18c-1.7,1.2-8.8,2.9-6.8,5.9
		c0.8,1.3,2.1,2.2,2.5,3.8c0.4,1.3,0.1,2.7-0.8,3.7c-1.2,1.3-3.3,1.2-5.1,1.3c-2,0.1-3.9-0.1-5.9-0.4
		C-475.3-185.8-478.2-187.9-477.3-191.6L-477.3-191.6z M-488.3-216.8c1-2,2.8-3.5,4-5.3c2.4-3.5,1.5-7.7,0.8-11.5
		c-0.7-3.7-1.7-8-0.3-11.7c1.5-4.2,5.5-6.4,9.6-7.7c2.1-0.6,2.9,2.8,0.7,3.3c-2.7,0.8-5.5,2.1-6.8,4.8c-1,2-0.8,4.4-0.6,6.5
		c0.7,4.7,2.4,9.5,1.2,14.3c-1.2,4.8-7.3,7.7-5.9,13.1c1.1,4.6,4.4,8.5,2.9,13.5c-0.7,2.1-3.9,1-3.3-1.1c1.2-4.2-2.6-8.6-3.2-12.7
		C-489.4-213.1-489.2-215.1-488.3-216.8L-488.3-216.8z M-490.7-206.7c-2.6,0.4-5.3,0.9-7.9,1.5c-0.6,0.1-2,0.1-2.4,0.7
		c-0.5,0.8-0.3,2.4-0.3,3.2c0.1,2.4,1.2,4.5,1.2,6.8c-0.1,2.2-0.8,4.4-2.2,6.1c-0.6,0.8-1.6,1-2.4,0.5c-0.8-0.6-1-1.6-0.5-2.4
		c1.5-1.7,2-4.1,1.5-6.3c-0.6-2.5-1.2-4.8-0.8-7.5c0.2-1.2,0.4-2.5,1.5-3.3c0.9-0.8,2.2-1,3.4-1.2c2.8-0.6,5.5-1,8.2-1.5
		C-489.2-210.3-488.5-207-490.7-206.7L-490.7-206.7z M-524.1-219c-2.8-2.5-3-6.5-2.7-10c0.2-2.2,3.7-2,3.5,0.2
		c-0.3,2.9-0.2,7.1,3,8.2c1.2,0.6,2.6,0,3.2-1.1c0.8-1.5,1.5-2.9,2.6-4.1c2.4-2.6,5.8-4,9.1-4.8c3.4-0.8,7.5-2,10.7-0.3
		c2,1.1,0.1,3.9-1.9,2.9c-1.7-1-4.4,0-6.2,0.3c-2,0.3-3.9,1-5.8,1.8c-1.6,0.7-3,1.9-4.1,3.3c-1,1.5-1.5,3.2-2.8,4.3
		C-518-216.2-521.9-217-524.1-219z M-515.7-205.5c-0.2-2.6-0.4-5.1-0.6-7.7c-0.1-1.1,0.2-2.2,0.8-3.1c0.7-0.8,1.7-1.5,2.7-1.7
		c1-0.3,1.9-0.6,2.9-0.7l3.7-0.7c1.3-0.2,2.6-0.7,3.8,0.2c0.9,0.7,1.4,1.7,1.5,2.9c0.2,0.9-0.4,1.9-1.3,2c-0.8,0.2-2-0.4-2-1.3
		c0-0.2-0.1-0.3-0.1-0.6c-0.3,0.1-0.8,0.1-1.1,0.2l-1.5,0.3l-1.1,0.2c0.2,0.3,0.3,0.7,0.3,1c0.1,1,0.2,1.9,0,2.8
		c-0.1,1.2-0.7,2.3-1.5,3c-0.9,0.7-2.1,1-3.2,0.7c0.1,0.6,0.1,1.1,0.1,1.7c0.2,0.9-0.4,1.9-1.3,2
		C-514.5-204-515.7-204.6-515.7-205.5z"/>
	<path id="Pfad_717" class="st0" d="M-518.9-256.2c2.2-1.5,4.6-2.8,7.2-3.7c-0.8-4.6,1.2-8.9,2.4-13.3c1.4-4.7,1.8-9.7,1.2-14.7
		c-0.7-5.8-2.9-12.7-8-16c3.3,8.2,4.1,17.1,2.1,25.7c-1.2,5.3-3.7,10-6.4,14.7c-2.3,3.8-3.7,8.1-4.5,12.5
		C-523-252.9-521-254.6-518.9-256.2z"/>
	<path id="Pfad_718" class="st0" d="M-518.3-144.8c-1.1,1.6-0.2,3.5,0.7,5.2c0-0.1,0-0.1,0-0.2c0-2.4,0.3-4.6,1-6.8
		C-517.2-146-517.8-145.4-518.3-144.8z"/>
	<path id="Pfad_719" class="st0" d="M-513.8-120.4c0.2,0.1-0.3,0.6-0.5,0.7c-0.3,0.7-0.6,1.3-0.7,2c-0.1,0.3-0.1,0.6-0.1,0.9
		c0.7-0.9,1.4-1.9,2-2.8C-513.4-120-513.6-120.3-513.8-120.4z"/>
	<path id="Pfad_720" class="st0" d="M-521.2-146.6c0.4-0.6,0.9-1,1.4-1.5c1.1-1,1.5-2.6,1-4.1c-0.7-2.8-2.9-5-3.7-7.7
		c-0.6-1.9-0.6-3.9-0.2-5.8c-1.5,1.1-2.6,2.8-3,4.6c-0.6,2.4,0.3,4.6,1.5,6.6C-522.9-152-521.5-149.3-521.2-146.6z"/>
	<path id="Pfad_721" class="st0" d="M-522.1-141.8c-0.1,0.2-0.2,0.3-0.3,0.5c-1.4,2.1-3.1,4.1-4.4,6.4c-1.2,2.3-2.4,4.6-3.5,7
		s-2.2,4.8-2.2,7.5c0,0.3,0.1,0.7,0.1,1.1c1.2-2.4,3-4.5,5.2-5.9c2.3-1.5,4.9-2.8,6.7-5c2.1-2.7,1.3-4.9-0.1-7.7
		C-521.3-139.1-521.8-140.4-522.1-141.8z"/>
	<path id="Pfad_722" class="st0" d="M-518.5-167.3c-1.4,2.8-1.2,6.2,0.4,8.8c1.2,2.1,2.5,4.2,2.8,6.6c0.1-0.7,0.2-1.3,0.3-2
		C-514.3-158.6-516.3-163.1-518.5-167.3C-518.4-167.4-518.4-167.3-518.5-167.3z"/>
	<path id="Pfad_723" class="st0" d="M-707.4-225.3c4.6,4.5,7,10.5,11.1,15.4c3.9,4.6,9.4,6.5,14.9,8.6c5.7,2,10.9,4.6,14.7,9.3
		c1.9,2.4,3.7,5,5.2,7.7c1.7,2.7,3.1,5.5,4.2,8.6c0.6,1.6,0.8,3.3,0.9,5c3.5,0.4,6.9,0.6,10.4,0.3c3.6-0.2,7.1-1.1,10.6-1.5
		c3.2-0.3,6.4,0.1,9.3,1.1c0.1-0.7,0.6-1.2,1.2-1.4c3.3-0.9,0.7-5.5-0.4-7.1c-1.9-2.6-3.4-5.3-4.6-8.2c-1.1-2.8-2-5.9-0.7-8.8
		c0.9-1.8,2.4-3.2,4.3-4c3.2-1.5,8.6-2.1,8.6-6.7c0.1-4.6-3-10.6,1.8-14c2-1.4,4.5-1.2,6.5-2.4c1.2-0.8,1.7-2.3,2.4-3.5
		c0.3-0.6,0.6-1.1,1-1.6c-4.6,1.7-9.7,1.9-14.4,0.2c-2.4-0.8-4.8-1.9-7.1-3.2c-1.1-0.7-2.2-1.4-3.2-2.1c-1.1-0.8-2.2-1.8-3.6-2
		c-4.8-0.7-8.4,5.3-12,7.4c-4.1,2.6-9.2,2.4-13.9,2.3c-2.9-0.1-5.8-0.2-8.7-0.5c-2.2-0.1-4.4-0.3-6.6-0.8c-4.4-1.2-6.7-6.3-8.5-10.1
		c-2.1-4.5-2-9.5-3.8-14c-1.6-3.9-4.2-7.5-7.7-10.1c-6.4-5-14.4-6.7-22.3-5.9c5.6,3.9,10.8,9.1,12.9,15.6c1.4,4.1,1,8.4,0.1,12.6
		C-705.5-234.7-706.5-230-707.4-225.3z M-690.4-225.3c5,2.1,10.4,2.5,15.6,4.2c4.4,1.5,8.5,3.4,12.4,5.9c7.9,5,14.5,11.8,19.2,20
		c1.1,1.9-2,3.5-3,1.5c-4.5-7.7-10.9-14.2-18.5-18.9c-3.7-2.4-7.8-4.2-12.2-5.5c-4.8-1.5-9.9-1.9-14.5-3.9
		C-693.5-222.8-692.4-226.2-690.4-225.3z"/>
	<path id="Pfad_724" class="st0" d="M-601.3-237.9c-1,0.1-2,0.2-2.9,0.2c-1.1,0-2.3,0-3.4-0.1c0.3,0.2,0.6,0.3,0.9,0.6
		c1.1,0.7,2.3,1.5,3.3,2.3c1,0.8,1.9,1.5,2.8,2.4c0.6-0.2,1.1-0.3,1.6-0.5c1.2-0.3,2.6-0.3,3.9-0.2c1,0.1,2.6,1,3.3-0.1
		c1.1-1.8-0.7-4.6-1.8-5.9c-1.7-1.9-3.6-3.5-5.7-4.9c-0.1-0.1-0.1-0.1-0.2-0.1c0.2,0.3,0.6,0.7,0.7,1.1c0.9,1.4,2.1,3.3,0.6,4.6
		C-599-238-600.3-238-601.3-237.9z"/>
	<path id="Pfad_725" class="st0" d="M-684.5-338c4.8,3.1,9.7,6,14.4,9.1c9.1,6,17.8,13,23.6,22.3c1.5-0.6,2.8-1.2,4.2-1.8
		c0.2-0.1,0.3-0.1,0.5-0.2c-5.7-4.5-11.3-9.1-16.7-13.9c-5.7-5-11.2-10.2-17-15.1c-4.9-4.2-10.2-8-15.7-11.3
		c-5.7-3.3-11.7-6.2-17.7-9.1c-8.8-4.4-17.5-8.8-26.3-13.4c11.7,6.6,23.1,13.9,33.9,21.8C-695.5-345.6-690.1-341.6-684.5-338z"/>
	<path id="Pfad_726" class="st0" d="M-604.8-230c0.3-0.3,0.6-0.6,0.9-0.8c-0.2-0.2-0.4-0.3-0.6-0.6c-0.1,0.3-0.2,0.7-0.3,1.1
		C-604.8-230.2-604.8-230.2-604.8-230z"/>
	<path id="Pfad_727" class="st0" d="M-773.3-392c4.8,2.6,9.7,5.2,14.6,7.7c-7.6-4.2-15.1-8.6-22.6-12.9c-6.2-3.6-12.8-7.3-19.7-9.6
		c2.1,1.1,4.4,2.4,6.5,3.5C-787.5-399.5-780.4-395.8-773.3-392z"/>
	<path id="Pfad_728" class="st0" d="M-707-282h0.1c-0.3-1,0.2-2,1.2-2.4c5.7-1.9,11.8-2.1,17.6-0.8c5.3,1.1,10.2,3.1,14.8,5.9
		c3.7,2.4,8.7,7.7,13.6,5.7c2.6-1.1,3-4.4,3.4-6.8c0.5-2.7,0.8-5.5,1.9-8.1c1.9-4.1,6.4-7.6,11.1-5.9c0.6,0.2,1,0.7,1.1,1.3
		c0.4,0.4,0.6,1,0.4,1.6c-0.6,2.7-1.3,5.6-0.4,8.3c0.7,2,2.5,3.7,4.7,3.2c2.2-0.6,2.4-3.8,2.7-5.7c0.5-2.3,0.7-5,1.7-7.1
		c1.1-2.4,3.7-3.2,6.3-3.5c0.3-0.1,0.7-0.2,1.1-0.1c1.8-0.1,3.6,0,5.1,0c2.1-0.1,4.6-0.2,6.3-1.7c1.5-1.2,2.4-3.5,0.8-5
		c-1.7-1.7-4.4-1.5-6.4-1.1c-2.6,0.4-5.3,0.9-7.9,1.4c-1.2,0.7-2.6,1.1-3.9,1.4c-1.7,0.4-3.8,0.7-5,2.3c-1.3,1.8-4.2-0.1-2.9-1.9
		c1.2-1.5,2.9-2.7,4.8-3.2c2-0.6,4.4-0.7,6.1-2.1c2.4-2.1-0.1-3.5-2.4-3c-2.6,0.6-5,2-7.4,3l-7,3c-1.9,0.8-4.2,1.5-5.7,2.9
		c-2.6,2.6-2.4,7.2-3.2,10.5c-0.9,3.9-3.1,7.5-7.6,6.8c-4.3-0.7-8.4-2.3-12-4.6c-1.9-1.1-3.6-2.4-5.2-3.9c-1.5-1.4-3-2.8-5-3.7
		c-2.2-1-4.8-0.9-7.3-1c-1.9-0.1-3.8-0.1-5.7,0c-7.8,0.2-16.1,1.8-21.8,7.5c-0.1,0.1-0.2,0.2-0.3,0.2c-0.8,2-2,3.9-3.3,5.5L-707-282
		z"/>
	<path id="Pfad_729" class="st0" d="M-714.9-295.6c0.1,0,0.1,0.1,0.1,0.1c6-3,13.2-3.8,20-3.8c4.6,0,9.6-0.3,13.6,2.1
		c2,1.2,3.7,3,5.5,4.5c1.8,1.5,3.7,2.8,5.9,3.8c2.4,1.1,4.8,2,7.3,2.6c1.3,0.3,2.5,0.5,3.4-0.7c0.6-0.8,1-1.7,1.2-2.8
		c1.1-3.8,0.8-8.2,3.2-11.5c1.2-1.8,3.1-2.9,5.1-3.7c-6.5-10.3-16.7-17.4-26.9-23.7c-4.9-3.1-9.9-6.1-14.7-9.4
		c-5.5-3.7-10.9-7.7-16.3-11.6c-11-7.7-22.5-14.9-34.3-21.3c-12.2-6.6-24.5-13.1-36.9-19.6c-6.2-3.3-12.3-6.6-18.5-9.9
		c-5.3-2.8-11.1-7-17.3-7.3c5.8,6.8,12.6,12.6,19.8,17.9c13.3,10,27.7,18.9,38.6,31.7c5.3,5.9,9.5,13,12.2,20.5
		c2.7,8.2,3.3,16.8,1.6,25.2c0.1,0,0.1,0,0.2,0c5.5,0.7,11.3,1.5,16,4.6c2.4,1.6,4.3,3.6,5.9,5.9c0.8,1.1,1.5,2.1,2.4,3.3
		C-716.8-297.8-716.1-296.5-714.9-295.6z"/>
	<path id="Pfad_730" class="st0" d="M-577.5-218.3c-2,0.6-4,1.3-5.9,2.3c0.2,0.1,0.3,0.3,0.4,0.5c2.4,3.4,4.7,6.8,6.8,10.3
		C-575.7-209.7-575.7-214.2-577.5-218.3L-577.5-218.3z"/>
	<path id="Pfad_731" class="st0" d="M-617.6,3.1c0.4-0.3,0.8-0.7,1.2-1c7.7-6.2,18.3-12.6,18.3-23.6c0-0.4,0.2-0.8,0.5-1.1
		c-0.1-0.1-0.1-0.2-0.1-0.2c-7.2,7.7-13.6,16-19.2,24.9C-617.1,2.3-617.3,2.7-617.6,3.1z"/>
	<path id="Pfad_732" class="st0" d="M-747.1-263.1c0.2,0,0.6,0,0.8-0.1c0.8-0.1,1.7,0,2.4,0.3c0.3,0.1,0.6,0.3,0.8,0.7
		c0.1-0.1,0.2-0.1,0.2-0.1c0.8-0.3,1.7-0.7,2.5-1.1c-0.3-0.2-0.5-0.6-0.6-1c-0.8-4.2-0.9-8.5-0.2-12.7c0.6-2.9,1.9-6.2,5-7.3
		c1.5-0.4,3.2-0.3,4.7,0.2c1.3,0.4,3,1.3,4.5,0.8c1.5-0.5,2.4-2.6,3.2-3.9c0.8-1.2,1.5-2.6,1.9-4c-5-1-10-1.6-14.9-1.9
		c-2.1-0.1-4.5-0.6-5.9,1.3c-1.2,1.4-1.6,3.3-2.1,5.1c-1.2,5-2,10.1-2.3,15.3c-0.1,2.5-0.1,5-0.1,7.5
		C-747.2-263.8-747.2-263.4-747.1-263.1z"/>
	<path id="Pfad_733" class="st0" d="M-725.8-279.3c-0.5,0-0.9-0.2-1.2-0.6c-1.7,0.1-3.3-0.1-4.8-0.7c-1.2-0.4-2.8-1-4-0.1
		c-1.1,0.8-1.5,2.3-1.9,3.5c-0.8,3.9-0.8,8.1,0.1,12c0,0.1,0.1,0.2,0.1,0.3c3.9-1.9,7.8-3.8,12.2-4.8c0.2-0.1,0.5-0.1,0.7,0
		c0.1-0.1,0.3-0.1,0.4-0.2c10.4-2.8,22.1-1.6,30.8,5.2c3.2,2.4,5.8,5.5,7.7,9.1c2.3,4.2,2.5,8.8,3.8,13.3c0.8,2.5,2,4.9,3.3,7.1
		c1.1,1.9,2.1,3.6,4.2,4.2c2.6,0.7,5.6,0.7,8.4,0.8c2.6,0.2,5.3,0.3,8,0.3c2.5,0.2,5.1-0.1,7.5-0.7c2.4-0.7,4.1-2.2,5.9-3.8
		c3.1-2.9,7-6.2,11.5-5c2.4,0.6,4.2,2.4,6.2,3.7c1.9,1.2,3.9,2.4,6.1,3.2c4.1,1.5,8.6,2.1,12.9,0.7c0-0.1,0.1-0.2,0.1-0.3
		c0.3-0.7-0.2-1.5-0.7-2c-0.8-0.6-1.9-1-2.9-1c-1.4-0.2-2.8-0.4-3.7-1.5c-1-1.1-1.1-2.6-0.3-3.9c1.5-2.2,4.6-1.3,6.8-1.1
		c1.5,0.2,2.9,0.2,4.4,0.2c0.7,0,1.5-0.1,2.1-0.1c0.2,0,0.3,0,0.6-0.1c-0.1-0.1-0.1-0.2-0.2-0.2c-0.3-0.5-0.7-1-1.1-1.5
		c-0.7-0.8-1.7-1.3-2.8-1.4c-3.2-0.3-6.4-0.3-9.7-0.6c-0.3,0-0.7-0.1-1-0.3c-0.9-0.1-1.7-0.2-2.6-0.5c-2.1-0.7-1-3.9,1.1-3.3
		c1.4,0.4,2.9,0.5,4.3,0.2c-2.9-2.1-6.4-2.9-10-3c-4.4-0.2-9.9,0.3-13.9,2.2c-2.3,1.1-3.9,3-5.9,4.4c-1.7,1.2-3.6,2.3-5.5,3.1
		c-4.1,1.9-8.6,3.9-13.3,3.7c-9.1-0.6-14.2-9.3-17.3-16.8c-1.7-4.2-3.3-8.4-5.7-12.3c-1.2-2.1-2.6-4.1-4.1-5.9
		c-1.4-1.7-2.9-3.6-5-4.3c-2.4-0.8-5.1-0.6-7.5-0.7l-7.5-0.3C-714.8-278.9-720.3-279.1-725.8-279.3z"/>
	<path id="Pfad_734" class="st0" d="M-650.9-287.7c-1.5,2.8-1.6,6.2-2.2,9.2c-0.9,4.7-3.4,8.6-8.6,8.6c-5.3,0-9.1-3.9-13.2-6.4
		c-8-5-17.6-7.7-26.9-5.6c1.5,0.1,2.9,0.1,4.3,0.2c2.4,0.1,4.8,0.5,6.8,1.9c3.7,2.6,6.4,6.8,8.6,10.6c2.4,4.1,4.1,8.5,5.9,12.9
		c1.7,4,3.6,8.2,6.9,11.1c3.7,3.3,8.2,3.9,12.9,2.4c4.7-1.5,9.3-3.7,13.1-6.9c3.6-3.2,7.7-4.4,12.3-5.1c7.7-1.1,16.5-0.7,22,5.5
		c0.3,0.3,0.5,0.9,0.4,1.4h0.1c1.7,0,3.4,0.2,5.1,0.6c-3.2-2.6-6.2-5.5-8.9-8.6c-3.7-4.6-6.7-9.7-9.5-14.9c-3-5.5-6-10.9-9.1-16.3
		c-0.1,0.7-0.3,1.5-0.5,2.1c-0.6,2.8-0.9,6-3.5,7.7c-2,1.2-4.6,1.3-6.6,0.2c-5.3-2.7-4.8-9.1-3.8-14.2
		C-647.6-291.6-649.8-289.7-650.9-287.7z"/>
	<path id="Pfad_735" class="st0" d="M-630.3-289.9c0.8-0.4,1.8-0.1,2.2,0.7c3.7,6.6,7.3,13.2,10.9,19.7c3.5,6.2,7.4,12,12.7,16.7
		c4.1,3.7,9.3,6.5,13,10.7c2.6,2.9,5.5,9.7,0.8,12.2c-0.3,0.2-0.6,0.2-0.9,0.3c2.7,0.6,5.2,1.5,6.6,4.1c1,2-2,3.5-3,1.5
		c-1-1.9-3.5-2.4-5.5-2.6c-2.6-0.4-5.3-0.7-7.6-2.1c-1.3,0.9-2.4,2.1-3,3.6c-1.2,2.4-2.4,4.2-4.9,5.1c-2.2,0.8-5.3,0.8-5.9,3.5
		c-0.7,2.8,0.7,5.7,0.8,8.4c0.2,2.4-0.6,4.8-2.3,6.5c-2.9,2.8-7.4,2.6-10.2,5.4c-2,2-0.9,5.2,0.1,7.5c1.2,2.9,2.9,5.5,4.6,8
		c1.4,2.1,2.4,4.5,2,7.1c-0.3,1.7-1.3,3.2-2.8,4.1c1.8,1,3.6,2,5.3,3c0.7-0.6,1.5-1,2.4-1.3c2.8-0.8,5.6-1.2,8.5-1.4
		c0-0.2,0-0.3,0.1-0.6c1.5-5.9-1.7-12.1-2.8-17.9c-0.5-2.9-0.7-5.8-0.5-8.7c0.1-2.4,0.2-5.9,2-7.8c1.5-1.5,3.8-1.9,5.8-2.3
		c2.1-0.4,4.4-0.7,6.4-1.7c2.2-1.1,3.1-3.4,4.4-5.3c1.2-1.9,2.9-3.5,4.7-4.8c1.8-1.3,3.8-2.3,5.9-2.9c1.3-0.3,2.4-0.3,2.9-1.8
		c0.3-1.1,0.8-2,1.3-3c1.1-1.9,2.9-3.7,3.2-5.8c0.3-2.4-1.5-4.8-2.7-6.8c-10.4-16.8-26.1-29.7-35.9-46.9c-0.1-0.2-0.2-0.3-0.2-0.6
		c-1.2,0.5-2.4,1-3.5,1.6c-1.6,0.8-3.3,1.6-5.1,1.4c-1.5-0.2-2.9-1.1-3.8-2.4c-1.6-2.1-2.8-4.6-3.2-7.2
		C-629.1-292.2-629.9-291.6-630.3-289.9z"/>
	<path id="Pfad_736" class="st0" d="M-617,108.8l-19.5,19.6c5.1-2.4,10.4-4.2,15.8-6.1C-619.8,117.8-618.6,113.2-617,108.8z"/>
	<path id="Pfad_737" class="st0" d="M-564,187.7c14.5,0,28.8,0.9,42.7-4.8c13.3-5.5,24.6-14.4,37.1-21.2c11.4-6.3,23.6-11.5,33.6-20
		c2.6-2.1,4.9-4.4,6.9-6.9c1.2-1.4,1.9-3.1,2.1-5c0.1-1.7-0.1-3.5-0.2-5.3c-0.5-5.9-0.3-12,0.3-17.9c-0.7,0.9-1.3,1.8-2,2.6
		c-2.8,3.7-6.1,6.9-9.8,9.6c-7.7,5.5-16.6,8.8-25.4,12.1c-2,0.8-3.7-2.4-1.5-3c9.5-3.5,19.5-7.2,27.4-13.8c3.7-3,6.4-6.8,9.1-10.6
		c1.4-2,3-3.9,4.7-5.5c1.5-1.4,3.2-2.6,4.9-3.8c1.7-1.3,3.5-2.7,4.6-4.6c1.2-2.1,1.4-4.6,1.5-6.9c0.2-5.6,0.3-11.2,0.5-16.8
		c0.3-10.3,0.7-20.7-1.5-30.8c-1.1-5-3.1-9.5-5.1-14.3c-1-2.2-1.8-4.5-2.4-6.8c-1.4,6.8-2.6,13.6-3.9,20.5c-0.6,3.3-0.8,7-2,10.2
		c-1.1,3-3.5,5.3-5.9,7.5c-9.7,9.5-20.8,17.2-32.9,23.2c-13.5,6.6-27.9,11.6-41.9,16.9c-14.2,5.3-28.4,10.4-42.7,15.2
		c-0.6,0.2-1.1,0.1-1.5-0.3c-8.4,2.7-16.6,5.7-24.9,8.7c-7.7,2.8-15.5,5.6-23.2,8.4c-7.1,2.6-14.4,4.9-21.4,8.2
		c-6.8,3.3-12.1,8.2-16.9,14.2c-5.1,6.4-10.4,16-17.8,19.8c2.2-1.2,4.7-1.9,7.3-1.6c2.9,0.3,5.5,1.6,8.2,3
		c10.3,5.5,20,12.3,30.9,16.2c17.6,6.4,35.6,4.2,53.9,3.7C-568.7,187.7-566.4,187.7-564,187.7z"/>
	<path id="Pfad_738" class="st0" d="M-367.8,61.3c-1.7-5.3-3.9-10.4-6.8-15.3c-1.5-2.4-3-4.8-4.6-7c-1.5-2-3.1-4.1-3.9-6.5
		c-1.6-5.1,0.4-10.1,1.2-15.1c0.8-5.1-0.1-10.3-1.5-15.3c-1.5-5.3-3.3-10.6-5.3-15.8c-1.9-4.9-4.4-9.8-5-15.1
		c-0.7-5.1,0.1-10.1,0.4-15.2c0.3-5.5,0.3-11.1-0.1-16.7c-0.2-3.8-0.7-7.7-1.2-11.5c-1,1.6-1.5,3.4-1.8,5.3c-0.1,2.2-3.5,2-3.5-0.2
		c0.2-4,2.9-6.9,4-10.7c0.1-0.3,0.2-0.7,0.2-1.1c-0.4-2.4-0.8-4.9-1.2-7.4c-0.4-1.6-0.9-3.2-1.3-4.8c-1.1-4-2.4-8.1-3.9-12
		c-1.2-3.4-2.6-6.9-4.6-10c-2-3-4.6-5-8.4-5.2c-3.9-0.2-7.3-0.1-10.8-2.1c-0.3-0.2-0.7-0.4-1.1-0.7c-0.3,0.2-0.7,0.3-1,0.3
		c-6.6,0.3-12.9-2.2-19.4-2.4c-2.9-0.1-5.8,0.6-8.4,1.9c-2.5,1.3-4.9,2.4-7.8,1.7c-2.1-0.6-1-3.8,1.1-3.3c2.6,0.7,5.3-1.8,7.7-2.7
		c2.6-0.9,5.5-1.3,8.2-1.1c4.9,0.2,9.7,1.7,14.6,2.2c-0.8-0.5-1.7-1-2.6-1.3c-2.9-1.2-5.9-2.1-8.8-3.2c-5.7-1.9-11.4-4.2-15.3-9.1
		c-1.4-1.7,1.2-4.1,2.6-2.3c0.8,1.1,1.8,2,2.9,2.9c-0.7-0.7-2.7-2.8-5.2-5.3c2.1-7.6,4.2-15.3,6.4-22.8c0.1-0.2,0.1-0.3,0.1-0.6
		c0,0.1,0,0.2-0.1,0.3c-3.2,11.1-6.2,22.3-9.5,33.4c-1.5,5-3.7,9.6-6.5,13.9c-1.1,1.5-2.2,3.2-3.2,4.9c0.5-0.3,1-0.7,1.5-1
		c2.1-1.2,4.6-1.7,7-1.4c5.9,0.6,11.8,1.5,17.7,2.1c2.2,0.2,2,3.7-0.2,3.5c-5.4-0.7-10.8-1.3-16.1-2c-2.3-0.3-4.4-0.6-6.4,0.6
		c-1.9,1.1-3.4,2.8-4.8,4.4c-0.1,0.1-0.3,0.3-0.5,0.3c0,0.8,0.2,1.7,0.5,2.4c0.8,2-2.4,3.7-3,1.5c-1.8-5-0.1-10,2.6-14.2
		c1.5-2.4,3.3-4.6,4.6-7c1.3-2.4,2.4-4.9,3.2-7.5c3.7-11.3,6.6-23,9.9-34.4c-0.8,0.7-1.9,1.1-2.9,1.2c-3.4,0.5-6.3-1.6-9.2-2.9
		c-1.6-0.7-3.7-1.5-5.3-0.4c-0.3,0.3-0.7,0.6-1,1c0.2,0.1,0.3,0.2,0.4,0.3c4.8,5.1,0.1,12.5-3.5,16.8c-2.2,2.7-4.7,5.3-6.4,8.4
		c-1.8,3.3-2.6,7.1-2.4,10.9c0.1,2.2-3.3,2-3.5-0.2c-0.2-6.9,2.6-12.9,6.9-18c2-2.4,4.2-4.8,5.9-7.6c1.3-2.4,2.5-5.7,0.5-8
		c0-0.1-0.1-0.1-0.1-0.1c-2.3,1.9-5.3,2.1-8.1,2.8c-1.2,0.2-2.4,0.8-3.3,1.5c-0.4,0.9-0.6,1.9-0.7,2.9c0,0.9-0.8,1.6-1.7,1.5
		c-0.1,0-0.2,0-0.2,0c-0.7,2.8-1,5.8-2.6,8.3c-1.7,2.9-4.8,4.4-7.7,5.9c-1.7,0.8-3.2,1.9-4.6,3.2c0.3,0.9-0.1,2-1,2.3
		c-0.1,0.1-0.2,0.1-0.3,0.1c-0.1,0.5-0.1,1-0.1,1.5c0.3,3.2,2.9,5.7,3.7,8.8c1.5,5.5-1.6,11.8-6.8,14.1c-2,0.9-3.6-2.1-1.6-3
		l-0.7-1.5c-1.1,1.5-2.3,2.9-3.5,4.2c-0.7,0.7-1.8,0.6-2.4-0.1c-0.1-0.1-0.2-0.2-0.2-0.3c-1.4-3.3-1.5-9.7,2.6-11.4
		c1.1-0.5,2.5-0.3,3.4,0.6c0.5-1.7,0.3-3.6-0.3-5.3c-0.9-2-2.4-3.6-3.7-5.4c0-0.1-0.1-0.1-0.1-0.1c-0.1,3.6-2.5,6.6-5.7,8.9
		c-2.1,1.5-4.5,2.6-6.2,4.5c-1.6,1.7-2.4,4-2.4,6.4c0.1,0.1,0.2,0.2,0.2,0.3c0.6,0.7,0.6,1.9-0.2,2.4c-0.2,0.2-0.5,0.3-0.7,0.3
		c-1,0.6-2.4,0.3-2.6-1c-0.1-0.3-0.1-0.7-0.1-1c-2.8-4.1-3-9.1-1.1-13.8c2-4.8,4.3-9.8,7.4-14c1.7-2.3,3.2-3.9,2.4-6.9
		c-0.4-1.4-1-2.7-1.7-3.9c-10.4,0.2-20.7,1.5-30.8,3.9c-4.6,1.1-9.2,2.2-13.5,4.4c-4.2,2.1-7.7,5.4-10.8,9
		c-5.9,6.6-11.7,13.6-15.9,21.4c-4.1,7.5-6.6,15.8-7.4,24.3c-0.9,9.2,0.7,18.2,2.3,27.2c1.5,9.2,2.8,18.5,4.9,27.7
		c0.4,1.8,1,3.5,1.5,5.3c1,0.3,1.5,1.5,1,2.4c0,0.1-0.1,0.1-0.1,0.2c2.1,5.6,4.7,11.1,6,17c1,4.2,1.5,8.4,2.2,12.6
		c0.3,2.3,0.7,4.6,1.2,6.8c0.3,1.9,0.6,4.3,1.5,5.9c1,1.8,4.4,2.1,6.2,2.8c2,0.7,4,1.5,5.9,2.4c3.3,1.7,6.4,3.7,9.1,6.2
		c5.5,4.6,10.6,9.8,17.6,11.6c2.1,0.6,1,3.8-1.1,3.3c-8.4-2.1-14.2-8.8-20.9-13.9c-3.7-2.8-8-5-12.5-6.4c-1.8-0.6-4-1-5.6-2.1
		c0.4,4.6,0.1,9.4-1,14c-1.2,5.1-3.3,9.9-6.2,14.2c-1.4,2.2-2.8,4.4-3.7,6.8c-0.8,2.5-0.8,5.2-0.2,7.7c1.2,5.3,4.3,10.1,6.8,14.8
		c2.9,5.2,5.7,10.4,8.6,15.7c1.1,2-2,3.5-3,1.5l-9.7-17.7c-1.9-3.3-3.7-6.8-5-10.4c-3.1,4.2-6.3,8.3-9.3,12.6
		c-0.8,1-1.5,2.1-1.9,3.4c-0.3,1.4-0.3,2.8-0.1,4.2c0.2,2.4,0.2,4.7,0,7.1c-1,9.4-5.1,18-7,27.2c1-0.3,2-0.7,2.9-1
		c15.8-5.7,31.5-11.8,47.6-16.9c0.6-0.2,1.1-0.1,1.5,0.3c15.3-5.2,30.7-10.6,45.8-16.4c13.6-5.1,27.7-10,40.5-16.9
		c5.8-3,11.3-6.6,16.6-10.6c5.1-3.9,10.5-8.2,14.7-13.2c2.4-2.8,2.6-6.4,3.2-9.9c0.6-3.5,1.2-7.1,1.9-10.6
		c1.4-7.3,2.8-14.4,4.3-21.7c3-14.6,6.4-29,10.1-43.6c0.1-0.6,0.5-1,1-1.1c0.6-3,1-6,1.3-9.1c1.3-14.4-0.5-29-5.3-42.6
		c-0.7-2.1,2.6-2.8,3.3-0.7c5.3,15.3,7.1,31.5,5,47.5c-2,14.7-9.1,28.8-5.7,43.8c1.6,7.3,4,14.5,6.4,21.6c2.3,7,5.1,13.8,8.6,20.2
		c1.5,3,3,6,3.3,9.5c0.3,3.5-0.6,6.8-1.5,10.1c-1,3.5-2.1,6.8-2.4,10.4c-0.2,3.7,0.1,7.3,0.8,11c2.9,14.4,11.4,26.7,15.7,40.4
		c0,0.1,0,0.1,0,0.1l31.7-59.2c0.6-0.2,1.1-0.7,1.1-1.3C-364.6,62.8-367.3,63-367.8,61.3z M-570.9,97.4c-0.3-2.9-0.7-5.9-1.8-8.5
		c-1.2-2.9-3.5-4.5-6-6.2c-2.6-1.7-4.7-3.7-6-6.4c-1.2-2.6-1.6-5.5-1.1-8.3c0.3-2.1,3.8-2,3.5,0.2c-0.6,2.8,0.1,5.6,1.6,8
		c1.7,2.6,4.5,3.7,6.8,5.5c4.8,3.6,5.9,9.3,6.6,15C-567.2,98.9-570.5,99.6-570.9,97.4L-570.9,97.4z M-562-73.4
		c0.6,0.1,1.1,0.2,1.7,0.3c0.6,0,1.1,0,1.5,0.1c0.5,0.1,0.9,0.3,1.2,0.6c2.5,0.7,4.9,1.7,7.1,2.9c0.8,0.6,1,1.6,0.5,2.4
		c-0.6,0.8-1.6,1-2.4,0.5c-0.8-0.4-1.6-0.8-2.5-1.2c0.2,0.5,0.3,0.9,0.6,1.4c0.8,1.8,2.3,3.7,4.1,4.4c0.5-0.1,1-0.2,1.5-0.3
		c1.3-0.4,2.7-0.6,3.7,0.6c0.7,0.7,0.6,1.9-0.2,2.4c-0.1,0.1-0.2,0.2-0.3,0.2c-1.5,0.7-3.1,1-4.7,0.7c-1.1,0.2-2.2,0.3-3.3,0.3
		c-2.4,0.1-4.9-0.4-7.3-1.3c-2-0.8-1-4.1,1.1-3.3c1.5,0.6,2.9,0.9,4.4,1c-0.3-0.3-0.6-0.7-0.8-1.1c-1-1.7-1.9-3.5-2.6-5.5
		c-0.1-0.3-0.3-0.8-0.6-1.1c-0.5-0.1-1-0.2-1.5-0.3c-0.1,0-0.2,0-0.2,0c-0.6,0-1.1-0.1-1.7-0.3c-0.8-0.3-1.2-1.1-1.1-2
		C-563.6-72.9-562.9-73.4-562-73.4z M-570.6-61.4c-1.2-1.9,1.9-3.4,3-1.5c3,4.6,7.8,6.2,13.1,6.7c5,0.4,10,1.1,14.9,2.3
		c9.1,2.1,17.9,5.5,27.2,6.6c2.4,0.3,4.6,0.3,7,0.3c1.9-0.1,4.1-0.1,5.7-1.1c1.9-1.1,2.3-3.6,2.7-5.5c0.5-2.4,0.9-4.8,1.3-7.2
		c1.6-9.5,3.1-19.4,2.8-29C-493-94.5-494-99-496-103c-2.1-3.8-4.8-7.3-8.1-10.2c-1.6-1.5,1-3.8,2.6-2.3c3.7,3.6,7.2,7.7,9.3,12.4
		c2.4,5.1,2.9,10.9,2.8,16.5c-0.2,10.9-1.9,22-4.1,32.7c-0.8,4.2-2,8.2-6.4,9.6c-4.5,1.4-10,0.8-14.4,0.1
		c-10.2-1.5-19.8-5.3-29.8-7.3c-5.1-1-10.4-0.9-15.4-2.1C-564.3-54.7-568.2-57.5-570.6-61.4L-570.6-61.4z M-546.1,18.9
		c-7.9-1-15.8,2.2-23.4-1.5c-2-1-0.1-3.8,1.9-2.9c3.9,1.9,8.5,1.5,12.7,1.1c4-0.3,8-0.6,12,0.4c3.5,1,6.8,2.6,9.7,4.6
		c3,2,5.7,4.4,8.8,6.2c1.5,0.9,3.5,1.7,5.3,1.2c1.5-0.4,2.6-1.6,3.3-2.9c1.9-3,3-6.7,4.2-10c6.1-15.4,11.7-31.8,10-48.7
		c-0.2-2.2,3.2-2.9,3.3-0.7c1,10.1-0.3,20.1-3,29.9c-2.4,8.7-5.7,17.1-9.1,25.5c-1.2,3.1-2.4,6.6-5.1,8.7c-2.9,2.4-6.5,2.1-9.7,0.6
		c-3.7-1.8-6.7-4.6-10-6.8C-538.5,21.4-542.1,19.4-546.1,18.9L-546.1,18.9z M-501.1,77.4c-0.6,2.3-3.3,2.1-5.1,1.9
		c-2.4-0.3-4.7-1.4-6.6-2.9c-0.8-0.7-1.7-1.4-2.6-1.9c-1-0.5-2.1-0.7-3.3-0.7c-2.8-0.1-5.5-0.2-8.3-0.4c-1.9-0.2-4.8-0.1-5.8-2.2
		c-0.9-1.8,0.5-3.6,2.3-4c1.2-0.2,2.5-0.2,3.7-0.1c1.3,0.1,2.7,0.1,4,0.2c2.9,0.1,5.7,0.3,8.6,0.5c1.8,0.1,2,2.4,0.9,3.2
		c1.1,0.3,2.3,0.8,3.4,1.2l7.7,3C-501.2,75.6-500.7,76.5-501.1,77.4L-501.1,77.4z M-497.8,67c-4.4-2.7-9.7-2-14.7-1.5
		c-5.1,0.6-10.2,1-15.3,0.1c-10.7-1.8-20.5-6.9-29.9-12c-2-1.1-0.1-3.9,1.9-2.9c9.5,5.2,19.6,10.6,30.7,11.8
		c5.2,0.6,10.2-0.2,15.4-0.7c4.8-0.4,9.5-0.2,13.8,2.4C-494,65.3-495.9,68.1-497.8,67L-497.8,67z M-431.7-36.2
		c-11.1,2.9-23,1.7-34.2,0.3c-4.8-0.6-9.8-1.6-13.8-4.5c-4.1-3-6.2-7.9-10.1-11.1c-1.7-1.4,0.2-4.3,1.9-2.9
		c3.7,2.9,5.7,7.3,9.1,10.4c3.7,3.3,8.8,4.2,13.6,4.8c10.9,1.2,22.1,2.4,32.8-0.3C-430.3-40.2-429.5-36.8-431.7-36.2L-431.7-36.2z
		 M-431.2-47.8c0.8,0.1,1.5,0.6,1.6,1.4c0.1,0.8-0.2,1.5-0.9,1.9c-3.5,2.1-7.5,2.9-11.5,2.2c-0.8-0.1-1.5-0.8-1.6-1.6
		c-0.7,0-1.5,0.1-2.1,0.1c-1-0.1-1.7-0.9-1.6-1.8c0.1-1,0.9-1.7,1.8-1.6L-431.2-47.8z"/>
	<path id="Pfad_739" class="st0" d="M-226.7-315.7c7.9-5.9,16.1-11.3,24.1-16.9c8.5-5.8,17-11.6,25.7-17.1
		c5.6-3.6,13.6-7.6,16.2-14.3c-10,3.3-20,6.7-29.9,10.4c-19.1,7-37.9,14.7-56.5,22.9c-9.3,4.1-18.5,8.4-27.7,12.9
		c-8.5,4.1-17.7,8-24.7,14.4c-0.1,0.4-0.5,0.8-0.9,1c-11.6,5-22.7,11-33.4,17.9c-18.8,12.3-35.6,28.1-47.4,47.4
		c-5.9,9.5-10.4,19.9-13.3,30.7c-1.5,5.5-2.4,11-3,16.6c-0.4,4.4-0.9,9.3,0.7,13.4c2.6-3.3,5.5-6.4,8.8-9.1c1.9-1.5,3.9-3,5.9-4.3
		c1.9-1.1,4.1-2.6,6.4-1.8c2,0.7,2.7,3,3.2,4.8c0.6,1.9,0.8,3.9,1,5.9c0.2,4.2-0.4,8.4-2,12.2c-3.1,7.6-9.5,12.2-15.5,17.5
		c-2.7,2.4-5.4,5.1-6.9,8.4c-1.5,3.2-1.6,7.5-5.2,9.3c-2,1-4.4,1-6.5,1.3c-2.2,0.3-4.4,0.7-6.6,1.3c-4.1,1.2-8,3.7-9.5,7.7
		c1.6,0.8,3.4,1.3,5.2,1.4c3.7,0.1,7.3,0.1,10.4,2.4c2.6,2,4.5,4.8,5.9,7.7c2.4,5,4.4,10.2,5.9,15.6c0.6,0.1,1.1,0.7,1.2,1.2
		c0.5,2.5,0.9,5,1.4,7.6c0.8,2.7,1.5,5.5,1.4,8.2c1.1,7,1.9,14,2.4,21.2c0.3,5.5,0.2,11.1-0.3,16.6c-0.4,5.2-1,10.4,0.5,15.4
		c1.5,5.2,3.9,10.2,5.7,15.3c1.9,5.1,3.5,10.3,4.8,15.6c1.1,4.8,1.2,9.9,0.2,14.7c-0.3,1.5-0.7,2.9-1,4.4c2.3-2,5.5-2.1,8.4-2.3
		c3.8-0.2,7.7-0.1,11.5,0.1c13.9,1,27.6,3.9,40.7,8.6c3.4,1.2,6.8,2.8,9.9,4.6c-2.8-5.5-5.1-11.2-7.2-17c-2.8-7.7-5.5-15.5-9.7-22.7
		c-4.1-7-9.3-13.3-14.9-19c-5.7-5.9-12-11.3-18.1-16.7c-3-2.7-6.1-5.4-9.1-8.2c-3.1-2.9-6.2-5.7-8.5-9.3c-1.2-1.9,1.9-3.4,3-1.5
		c2.6,4,6.4,7.2,9.9,10.4c3.3,3,6.8,6,10.2,9.1c12,10.5,24,21.6,31.6,35.8c7.7,14.3,10.4,30.9,19.6,44.4c0.5,0.5,1,0.9,1.4,1.4
		c-1.5-5.3-3-10.4-4.8-15.7c-7.7-21.8-18.5-42.5-32.1-61.2c-14.9-20.3-33.2-37.6-51.5-54.8c-1.6-1.5,1-3.8,2.6-2.3
		c10.6,10,21.3,20,31.3,30.6C-339.1-44-325.3-24.4-314.5-3c8.4,16.9,14.8,34.6,19.2,53c0.8-3,1.9-6.1,2.8-9.1
		c1.2-3.4,1.9-6.9,2.3-10.4c0.2-3.7-0.6-7.2-1.5-10.6c-2-7-4.4-13.8-1.9-21c1.3-3.7,3.4-7.3,5.3-10.8c2-3.7,4-7.5,5.9-11.3
		c0.9-1.7,1.7-3.7,3-5c1.2-1.1,2.8-1.5,4.4-1.7c0.5-0.1,1-0.2,1.5-0.2c-6.4-4-12.7-8-19.2-12.1c-12.2-7.7-24.5-15.3-36.7-23.2
		c-5.9-3.8-11.4-8-16.9-12.2c-5.5-4.2-11.6-7.9-18-10.9c-2-1-0.9-4.2,1.1-3.3c3.7,1.7,7.3,3.5,10.8,5.5c3.2,2,6.4,4.2,9.3,6.6
		c11.3,8.8,23.5,16.3,35.6,24l37.8,23.8c0.3,0.2,0.6,0.6,0.7,1c0.2,0,0.3-0.1,0.6-0.1c-0.1-0.1-0.1-0.1-0.1-0.1
		c-5.7-6.8-12-13.1-18.8-18.8c-25.4-21.8-55.9-36.4-86.2-49.9c-2-0.9-1-4.2,1.1-3.3c9,3.9,17.9,8,26.7,12.3
		c27.5,13.3,54.1,29.4,75.1,51.9c-1.7-2.3-3.3-4.6-4.6-7.3c-2.5-5.4-1.2-10.9,0.4-16.2c1.7-5.5,3.9-10.9,6.6-16.1
		c1.3-2.6,2.8-5.1,4.4-7.7c1.3-2.1,2.7-4.4,5.1-5.3c2.4-1,5.5-0.8,8-0.9l5-0.2c-4.8-4.1-10-7.7-15.7-10.9
		c-25-13.4-53.9-15.4-81.6-17.3c-2.2-0.2-2-3.6,0.2-3.5c8.6,0.6,17.1,1.1,25.7,2.1c23.9,2.6,48.5,8.2,68.1,22.5
		c-2.1-2.9-4.4-5.7-6.4-8.7c-2-2.9-3.7-6.2-4.8-9.5c-1.2-4-1.9-8.2-1.7-12.4c0-3.8,0.2-7.7,0.6-11.5c0.3-3.7,0.9-7.4,2.4-10.9
		c0.7-1.6,1.5-3.1,2.6-4.6c-21.5,7.1-43.7,12-66.2,14.7c-2.2,0.2-2.9-3.1-0.7-3.3c23.9-2.8,47.5-8.2,70.2-15.9
		c0.6-0.2,1.1-0.1,1.5,0.3c0.7-0.3,1.3-0.7,2-1c1.1-0.4,2.6-0.7,3.6-1.5c2.3-2-2.6-4.6-3.9-5.5c-2.7-2.1-5-4.6-6.6-7.5
		c-4-5.7-7.7-12.4-8.2-19.5c-0.2-3.3,0.4-6.7,1.9-9.7c1.5-3,3.8-5.5,5.7-8.3c0.7-1.1,1.3-2.1,1.8-3.3c-6,4.6-12.7,8.5-19.4,12
		c-6.2,3.3-12.5,6.4-18.5,10c-6.4,3.7-12.2,8.4-18.4,12.7c-6.1,4.2-12.6,8-19.2,11.4c-3.3,1.7-6.7,3.5-10.2,5
		c-3.3,1.5-6.7,2.3-10.4,1.5c-2.1-0.4-1.1-3.7,1.1-3.3c4.2,0.8,8.3-1.6,12-3.3c3.7-1.7,7.2-3.6,10.7-5.5c6.4-3.5,12.7-7.5,18.6-12
		c5.5-4.2,11.3-8,17.3-11.5c11.7-6.6,24.2-11.8,34.8-20.2c0.7-0.6,1.7-0.5,2.4,0.1c0.1-0.6,0.1-1.1,0.1-1.7c-0.2-3.1-2.1-4.5-5-5.2
		c-2.9-0.7-5.8-1.4-7.3-4.2c-1.5-2.8-1-6.4-0.5-9.4c1-5.6,3.1-11,6.3-15.8c-3.2,1.8-6.4,3.7-9.6,5.6c-7.7,4.6-15.1,9.5-22.6,14.4
		c-7.5,4.9-14.9,9.8-21.8,15.6c-5.9,5-10.9,10.9-16.7,16c-5.3,4.6-11.3,8.4-18.5,8.4c-2.2,0-2-3.4,0.2-3.5c8.1,0,14.4-5.7,19.8-11.1
		c5.7-5.7,11.3-11.3,17.8-16.2c6.8-5.1,13.8-9.7,20.9-14.3c13.1-8.6,26.4-17.1,40.5-24l-2.4-0.2c-0.8-0.1-1.8-0.9-1.6-1.8
		c1.8-9.9,4.9-19.6,10.2-28.1C-240.3-304.4-233.8-310.4-226.7-315.7z M-375.1-128.9c-6.5,4.6-15.7,4.9-21,11.1
		c-1.5,1.7-3.7-0.9-2.3-2.6c5.3-6.2,14-6.6,20.6-10.9c4.3-2.8,6.6-7.5,9.1-11.8c2.8-4.8,5.7-9.6,8.5-14.4c1.1-1.9,4,0,2.9,1.9
		l-8.8,15C-368.6-136.2-371-131.7-375.1-128.9L-375.1-128.9z M-350.6-147.4c7.7-0.9,15.3-2.1,23-3.7c13.3-2.7,26.3-6.4,39.3-9.9
		c12.9-3.5,26.1-5.8,39.5-6.8c2.2-0.2,2.9,3.2,0.7,3.3c-7.7,0.6-15.3,1.6-22.7,3c-13.3,2.5-26.1,6.6-39.1,9.9
		c-13.1,3.3-26.4,5.9-39.8,7.5C-352.1-143.7-352.8-147.1-350.6-147.4z M-334-117.5c14.1,1.8,28.1,4.2,42.1,7.3
		c12.1,2.7,24.5,5.7,34.6,13.5c1.7,1.3-0.1,4.2-1.9,2.9c-5.5-4.2-11.8-7-18.3-9.1c-12.7-4-26.1-6.4-39.3-8.6
		c-13.8-2.4-27.7-3.9-41.7-4.9c-2.2-0.1-2-3.6,0.2-3.5C-350.2-119.3-342.1-118.6-334-117.5z M-264.7-301.3
		c-12,7.7-24.2,15.1-36,23.1c-5.8,3.8-11.3,8-16.6,12.6c-4.6,4.1-8.9,8.4-13.3,12.7c-4.2,4.2-8.7,8.2-13.5,11.9
		c-5,3.7-10.4,6.4-16.1,9.1c-5.7,2.6-10.2,6-13.6,11.3c-3.2,5-5.2,10.6-7.2,16.1c-0.7,2.1-4,1-3.3-1.1c2.2-6.2,4.6-12.6,8.3-18
		c1.9-2.8,4.2-5.2,6.8-7.3c2.9-2,6-3.7,9.3-5.1c5.7-2.6,11.2-5.9,16.1-9.7c4.8-3.9,9.3-8.2,13.7-12.6c4.5-4.4,9-8.8,13.8-12.7
		c5.5-4.4,11.1-8.4,17-12.2c24.9-16.3,50.2-32,75.3-48c1.9-1.2,3.4,1.9,1.5,3C-236.6-319.1-250.6-310.2-264.7-301.3L-264.7-301.3z"
		/>
	<path id="Pfad_740" class="st0" d="M-504.2,76C-503.8,76-504,75.8-504.2,76z"/>
	<path id="Pfad_741" class="st0" d="M-753.5-267.2c1.2,2.1,2.1,4.3,2,6.8c0,0.5-0.2,0.9-0.6,1.2l0.1-0.1c0.9-0.3,1.9-0.6,2.8-0.9
		c-0.4-0.2-0.7-0.6-1-1c-0.6-1.1-0.4-2.6-0.5-3.7c-0.1-1.6-0.1-3.2,0-4.8c0.1-3.9,0.6-7.8,1.2-11.7c-1.9,0.7-3.7,1.6-5.5,2.8
		c-1.9,1.2-2.7,3-2.1,5.3C-756.4-271.2-754.8-269.2-753.5-267.2z"/>
	<path id="Pfad_742" class="st0" d="M-265.9-31.8c-0.1,0.1-0.1,0.1-0.1,0.2l0.2-0.1C-265.8-31.7-265.8-31.8-265.9-31.8z"/>
	<path id="Pfad_743" class="st0" d="M-717.2,25.9c-9.6,2.8-19.3,5.5-29,8.3c-9.1,2.6-18.5,4.6-27.1,8.8c-7.2,3.5-13.8,8.9-16.4,16.7
		c-0.1,0.3-0.3,0.7-0.7,0.9c0.1,0.2,0.1,0.6,0.1,0.8c-0.3,2.4,2.3,4.1,1.3,6.6c-1.1,3-5.3,2.6-7.9,2.8c-5.6,0.2-9.3,4.1-11.9,8.8
		c-3,5.5-4.2,11.4-1,17c1.4,2.4,3.1,4.5,5,6.4c1.9,2,4,4.3,6.4,5.6c2.8,1.5,6.7,1,9.7,1.2l7.5,0.3c-2-4.5-3.9-9-5.9-13.5
		c-0.8-2-1.5-5-3.6-6.1c-1.7-1-3.6-1.2-4.8-2.9c-1.2-1.6,0.8-3.7,2.2-2.6c0.4-0.1,0.9-0.1,1.3,0.2c9.1,5.5,19.3,8.9,29.4,12.1
		c2.4,0.8,4.6,1.6,7,0.7c2.1-0.8,4.1-1.9,6.1-2.9c4.1-2,8.2-4.2,12.2-6.4c7.8-4.5,15.6-9.5,22.3-15.5c3.1-2.8,5.9-5.9,8.2-9.4
		c1-1.7,2.4-3.7,2.8-5.7c0.3-1.7-1.9-4.3-2.8-5.8c-4.5-8-8.1-16.4-10.6-25.2C-717.3,26.5-717.3,26.2-717.2,25.9z M-710.6,61.7
		l-15.6-2.2c-5-0.7-10-1.6-14.9-2c-5-0.4-9.7,0.6-14.7,1.6c-4.3,1-8.8,2-12.4,4.6c-1.8,1.3-4.1-1.2-2.3-2.6
		c3.7-2.8,8.2-4.1,12.6-5.1c4.9-1.1,10-2.3,15-2.1c5.5,0.2,10.9,1.2,16.2,2c5.5,0.8,10.9,1.5,16.2,2.4
		C-708.3,58.6-708.5,62-710.6,61.7z"/>
	<path id="Pfad_744" class="st0" d="M-795.2-183.5c-0.2-0.6-0.4-1.1-0.7-1.7c-2.6,1.4-4.2,3.8-5.5,6.5c-1.5,3.6-2.9,7.3-3.9,11.1
		c-0.8,2.6-1.5,5.2-2.1,7.8c9.7-2.8,15.3-12.9,12.7-22.5C-795-182.7-795-183.1-795.2-183.5z"/>
	<path id="Pfad_745" class="st0" d="M-797.3-188.3c-1.5-2.6-2.7-5.2-3.8-7.9c-0.2,0.4-0.7,0.7-1.1,0.8c-7.1,1.5-10.4,9.1-11.7,15.6
		c-1.5,7.3-2,14.7-5.8,21.4c-3.7,6.4-9.1,11.8-13.7,17.6c-2.4,3.1-4.8,6.3-7.2,9.5c-2.3,3.2-4.7,6.4-5.9,10.1
		c-0.6,1.7-0.8,3.6-1,5.4c0.8-2.2,2-4.4,3.3-6.4c4.1-6,9.9-9.5,16.5-12.4c3.5-1.5,7.1-3,10-5.4c3-2.4,4.9-5.9,5.4-9.7
		c0.6-4,0.8-8,1.8-12c1-4.1,2.3-8.2,3.7-12.2C-805.1-179.3-802.7-185.6-797.3-188.3z"/>
	<path id="Pfad_746" class="st0" d="M-621.3-26.8c6.5-5.2,9.3-12.6,9.8-20.7c1.1-16.1-5.5-33.9,4-48.7c0.1-0.2,0.3-0.3,0.4-0.5
		c1.9-8.8,5.5-17.2,10.8-24.7c2.6-3.9,5.6-7.5,8.6-11.1c2.8-3.3,5.5-6.8,8.8-9.6c6.7-5.8,15.5-8,24-9.7c8.8-1.8,17.7-2.9,26.6-3.2
		c-1.1-2.4-1.2-5.1-0.6-7.7c-10.9-0.2-20.1-7.1-30.3-10.4c-4.9-1.7-10.2-1.9-15.2-0.7c-5.4,1.4-10.4,3.9-15.6,5.5
		c-5.9,1.8-11.9,1.9-17.9,2.6c-2.5,0.3-6.8,0.3-8.4,2.6c-1.5,2.1-1.9,5-2.9,7.3c-4.4,10.4-11.3,19.4-17.8,28.5
		c-7,9.8-12.8,20.5-17.2,31.6c-0.2,0.6-0.8,1-1.4,1.1c-2.8,4.3-6.6,8-10.6,11.1c-5.3,4.1-10.9,7.8-16.3,11.7c-1.4,1-2.8,2-4.2,2.9
		c0,0.9-0.8,1.7-1.7,1.6c-0.2,0-0.3-0.1-0.6-0.1c-0.2-0.1-0.3-0.1-0.5-0.2c-0.2,0.1-0.3,0.1-0.5,0.2c-2.8,0.9-5.7,0.9-8.6,1.1
		c-6.4,0.6-12.7,1.3-18.9,2.5c-11.5,2.1-22.9,5.8-33,11.8c-9.7,5.7-19.4,14-22.8,25c-3.8,12.4-4.6,26.2-3.1,39.1
		c0.2,1.9-2.1,2.6-3,1.5c-0.3,0.1-0.7,0-1-0.1c-1.2-0.5-2.4-1-3.5-1.5c-1.2-0.5-1.5-0.5-2.1,0.6c-1.2,1.8-2.1,3.7-3,5.7
		c-1.6,3.9-2.7,8.2-3.2,12.4c-1,8.1-0.4,16.2,0.5,24.2c3.4-7.1,9.9-12.2,16.9-15.7c9.4-4.5,19.9-6.8,29.9-9.6l58-16.6l29-8.3
		l7.3-2.1c2.2-0.7,4.8-1,6.8-2.1c1.9-1,2.4-2.9,3-4.8c0.7-1.9,1.5-3.7,2.4-5.5c1.9-3.6,4.4-6.8,7.3-9.7
		C-628.1-21.9-624.5-24.1-621.3-26.8z M-718.3-54.3c-21.1,12.2-38.9,29.4-51.9,50c-1.2,1.9-4.1,0-2.9-1.9c3-4.7,6.2-9.3,9.7-13.6
		c12.1-15.1,26.8-27.9,43.6-37.5C-717.9-58.6-716.4-55.5-718.3-54.3z"/>
	<path id="Pfad_747" class="st0" d="M-702-148.9c1.5,1.9,2.9,3.7,4.3,5.7c1.1,1.6,2.1,3.8,3.6,5.2c1.9,1.7,4.8,0.8,7.1,0.7
		c2.4-0.1,4.7,0.1,7,0.6c4.2,0.8,8.3,2.3,12.1,4.4c7.3,3.9,14.4,9.5,23.1,9c0.5-0.1,0.9,0.1,1.2,0.5c2-3.2,4.1-6.3,6.4-9.4
		c3.3-4.7,6.8-9.5,9.7-14.4c1.5-2.5,3-5.1,4.2-7.8c1.2-2.6,2-5.3,3.1-8c0.1-0.3,0.3-0.7,0.4-1c-2.4-1.7-5.1-3.1-7.9-4.2
		c-3.2-1.1-6.3-1-9.5-0.4c-6.4,1.2-13.1,1.5-19.6,0.8c-0.4,2.7-1.7,5.2-3.7,7.2c-1.5,1.5-3.9-1-2.3-2.6c4.8-4.8,2.5-12.2-0.4-17.4
		c-2.8-5.1-6.1-10.7-11.1-14c-4.6-3-10-4.2-14.9-6.3c-4.9-2.1-9.1-5.5-12-10c-3-4.3-5.3-9.1-9.1-12.7c-0.5-0.4-0.7-1.1-0.3-1.6
		c-0.2-0.3-0.2-0.8-0.2-1.2c0.8-4.2,1.7-8.6,2.6-12.8c0.8-3.9,1.5-7.9,0.2-11.8c-2.1-6.9-8.6-12.3-14.7-15.9
		c-0.3,0.1-0.6,0.1-0.9,0.2c-0.2,0.1-0.5,0.1-0.7,0.1c-0.1,0.1-0.3,0.1-0.4,0.1c-5.3,1.1-10,3.9-14.9,6.2c-2.4,1.1-4.8,2-7.3,2.8
		c-1.4,0.4-2.8,0.8-4.1,1.2c-0.7,0.2-1.4,0.5-2.1,0.8c-0.4,0.2-0.9,0.4-1.4,0.6c0.3,1,0.8,2,1.5,2.8c0.2,0.2,0.6,0.5,0.8,0.6
		c0.5-0.9,1.5-1.2,2.4-0.8c0.1,0.1,0.1,0.1,0.2,0.1c0.1-0.1,0.2-0.1,0.3-0.2c0.7-0.3,1.4-0.6,2-0.8c1.4-0.4,2.8-0.6,4.2-0.7
		c0.2,0,0.5,0.1,0.7,0.2c0.1-0.1,0.2-0.1,0.3-0.2c2.1-1,4.3-2,6.5-2.9c2.1-0.8,4.1-0.8,5.8,0.8c1.5,1.4,1.9,3.3,2.8,5.1
		c0.6,1.5,2,2.4,3.7,2.2c0.3-0.1,0.8,0,1.1,0.2c1-0.1,1.8,0.7,1.9,1.6c0,0.1,0,0.1,0,0.1c0,4.2-1.5,8.4-4.2,11.6
		c-1.4,1.6-3.2,3-4.2,5c-0.6,1.2-0.8,3.3,0.8,3.9c2.1,0.7,1,4-1.1,3.3c-2.1-0.8-3.6-2.8-3.7-5c-0.2-2.4,1.1-4.6,2.7-6.4
		c1.7-1.9,3.5-3.5,4.6-5.7c0.8-1.6,1.3-3.3,1.5-5.1c-1.5,0-3.1-0.6-4.3-1.6c-1.5-1.3-2.1-3.1-2.9-4.9c-0.2-0.7-0.7-1.4-1.2-1.9
		c-0.7-0.5-1.3-0.2-2,0.1c-1.4,0.6-2.8,1.2-4.1,1.8c-1,6.8-1.3,13.6-1.2,20.5c0.2,6.5,0.9,13,1.9,19.4c0.4,0.2,0.7,0.7,0.8,1.1
		c1.4,10.7,4.2,21.2,8.4,31.2c1.8,4.2,3.7,8.4,7,11.8c3.2,3.3,7.1,5.9,10.4,9C-707.8-155.5-704.7-152.3-702-148.9z"/>
	<path id="Pfad_748" class="st0" d="M-740.7-209.6c-1.1-6.8-1.9-13.8-2.1-20.7c-0.2-6.7,0.1-13.4,1-20.1c0,0-0.1,0-0.1-0.1
		c-0.3,0.3-0.8,0.5-1.2,0.5c-1.5,0.1-2.9,0.3-4.2,0.9c-0.6,0.2-1.1,0.6-1.7,0.8c-0.5,6.4-1,12.7-1.5,19c-0.1,0.4-0.1,0.9-0.1,1.3
		c0.1,0.1,0.2,0.2,0.3,0.3c2.7,3.7,2.5,8.3,1,12.5c-1.5,4.1-3.4,8.9-6.7,11.9c-7.1,6.5-17.4,4.4-26,4.2c0.7,1.7,1.1,3.4,1.5,5.1
		c0.3,2,0.6,4.1,0.7,6.1c0.1-0.1,0.2-0.1,0.3-0.2c0.2-0.1,0.4-0.1,0.7-0.1l1.2,0.1c0.2,0,0.3,0.1,0.5,0.1c4.2,0,8.3,1.9,12.6,1.6
		c3.9-0.2,7.7-2.7,11-4.6c3.5-2,6.8-4.3,9.1-7.7c2-3,3.3-6.6,4.6-10C-740.4-208.7-740.7-209.1-740.7-209.6z"/>
	<path id="Pfad_749" class="st0" d="M-682.5-75.6c9.2-6.5,20.2-12.7,25.6-23.2c0.2-0.3,0.4-0.6,0.7-0.7c3-7.2,6.6-14.1,10.7-20.7
		c-9.7,0.5-17.5-6.2-25.8-10.3c-4.6-2.3-9.5-3.5-14.7-3.6c-2.4,0-4.8,0.6-7.3,0.1c-2.1-0.4-3.6-1.9-4.8-3.6
		c-3.1-4.7-6.6-9.1-10.4-13.3c0,0.3-0.1,0.7-0.3,1c-2.4,3.7-4.8,7.4-7.3,11.2c-0.2,0.4-0.7,0.3,0,0.3c0.3,0,0.7,0,1,0
		c0.8-0.1,1.7-0.3,2.5-0.6c1.5-0.4,2.9-0.7,4.4-0.9c2.7-0.3,5.2,1.1,6.4,3.5c1.6,2.9,2.9,6,4,9.3c2.1,6.2,3.1,12.9,1.6,19.3
		c-0.3,1.3-0.7,2.6-1.2,3.8c7.6-4.5,16-7.3,24.8-8.5c2.2-0.3,2.9,3.1,0.7,3.3c-10.4,1.4-20.5,5.4-29,11.8c-0.2,0.2-0.6,0.3-0.8,0.3
		c-1.5,1.6-3,3-4.7,4.4c-2.6,1.9-5,3.9-7.3,6.2c-1.2,1.2-2.2,2.5-3,4c-0.3,0.7-0.7,1.3-0.9,2c3.1,0.3,6.2-1.2,9.3-1.5
		c1.2-0.1,2.4-0.1,3.7,0c0.2-2.8,3.5-5.1,5.7-6.4c2.8-1.8,5.9-2.9,9.1-3.9c3.3-1,6.4-2.4,9.5-3.9c3.3-1.9,6.4-4,10.2-4.9
		c2.1-0.5,2.9,2.9,0.7,3.3c-3.3,0.8-6,2.7-8.9,4.4c-2.6,1.5-5.3,2.6-8.2,3.5c-2.8,0.9-5.6,2-8.4,3.2c-1.2,0.6-2.4,1.2-3.5,2
		c-0.8,0.6-3.1,2.1-2.8,3.3c0.1,0.4,0.1,0.8-0.1,1.2c0.1,0.1,0.1,0.1,0.2,0.2c3.1,4,7.1,7.1,11.8,9.1
		C-686.9-72.1-684.7-74.1-682.5-75.6z"/>
	<path id="Pfad_750" class="st0" d="M-630.8,19.6c0.8-1.6,1.8-3.2,2.8-4.8c0.2-0.3,0.3-0.8,0.6-1.1c2.6-5.1,5.4-10,8.4-14.8
		c5.9-9.1,12.6-17.6,20-25.4l0,0c-1.5-4.5-2.6-9.1-3.3-13.8c-1.7-9.6-3.4-19.2-4.9-28.9c-0.8-5.1-1.1-10.3-1-15.5
		c-1.2,5.9-0.9,12.4-0.4,18.4c0.7,8.8,1.7,17.8-0.3,26.5c-0.8,3.6-2.4,7.1-4.5,10c-2.4,3.3-5.7,5.8-9.1,8.2
		c-3.7,2.7-7.1,5.9-9.9,9.6c0.2,0.2,0.3,0.5,0.3,0.7C-629.7-1-629.2,9.4-630.8,19.6z"/>
	<path id="Pfad_751" class="st0" d="M-790.5-215.6c0.2-1.9,1.2-3.8,3.3-4.1c2.3-0.3,3.9,1.6,5.3,3.2c3.1,3.9,6.8,8,12.3,7.5
		c2.7-0.2,5.3-1.4,7.7-2.4c2.4-1.1,4.4-2.3,5.5-4.8c2.1-5,2.2-10.9,2.6-16.1c0.3-5.1,0.8-10.2,1.1-15.3c-1.3-0.3-2.4-1-3.3-2.1
		c-0.2-0.2-0.3-0.4-0.4-0.6c-1.3,1.2-3.1,1.7-4.8,1.3c-0.3-0.1-0.6-0.2-0.9-0.3c0,0.7-0.3,1.2-0.8,1.5c-2,1.1-2.1,3.9-1.9,5.9
		c0.3,2.8,1.4,5.5,1.3,8.2c-0.1,4.7-3.5,8.2-8,9.3c-4.6,1.2-9.1-0.3-13.2-2.4c-1.2-0.6-2.4-1.3-3.5-2c-1-0.6-2.2-1.5-3.5-1.1
		c-1.8,0.6-3.3,3.2-4.3,4.6c-4.7,7.2-5.4,16.5-3.2,24.6c1.2,4.6,3.7,8.6,5.7,13c2,4.3,3.2,8.9,2.4,13.7c-1.2,8-6.7,14.7-14.3,17.4
		c0,0.1,0,0.1,0,0.1c-0.1,2.2-0.3,4.4-0.8,6.5c4.9-1.1,9.4-3.7,13.6-6.2c2.4-1.5,4.6-3.2,5.8-5.7c1.2-2.5,1.7-5.5,2-8.2
		c1.3-10.6,2.4-21.3-2.1-31.3C-788.6-206-791.1-210.7-790.5-215.6z"/>
	<path id="Pfad_752" class="st0" d="M-761-208.1c-2.4,1.2-5.1,2-7.7,2.4c-5.1,0.6-9.5-1.8-12.9-5.5c-1-1-1.9-2-2.7-3.2
		c-0.5-0.6-1.7-2.5-2.4-1.9c-0.7,0.6-0.2,3-0.1,3.7c0.2,1.2,0.6,2.4,1,3.6c0.8,2.3,1.8,4.4,2.8,6.6c0.2-0.1,0.6-0.2,0.8-0.2
		c7.5,0.1,16.6,2.4,23.2-2.4c3.1-2.3,4.6-5.9,6.1-9.5c0.6-1.4,1.1-2.8,1.5-4.3c-0.6,2.4-1.5,4.6-3,6.4
		C-756.5-210.2-758.7-209.1-761-208.1z"/>
	<path id="Pfad_753" class="st0" d="M-761.2-261.3c1.1,1.4,2.3,2.6,4,3.1c0.4,0.1,0.8,0.4,1,0.8c1-0.6,1.9-1.1,3-1.4
		c-0.9,0.1-1.7-0.6-1.7-1.5c0-0.1,0-0.2,0-0.2c0.2-2.7-1.6-5-3-7.2c-1.1-1.6-1.9-3.4-2.4-5.3c-0.4,0.4-1.1,0.6-1.7,0.3
		c-1.5-0.8-3.3-0.2-4.1,1.2c-0.8,1.6,0.2,3.3,1.1,4.6C-763.8-264.9-762.5-263.1-761.2-261.3z"/>
	<path id="Pfad_754" class="st0" d="M-760.6-252.6c0.4,0.2,1,0.2,1.4,0c0.5-0.2,0.9-0.6,1.2-1c-0.1-0.1-0.1-0.2-0.1-0.3
		c0-0.2,0-0.4,0-0.7c0-0.1,0-0.3,0.1-0.4c-0.1,0-0.2,0-0.2,0c-2.5-0.7-4.4-2.6-5.9-4.6c-0.9-1.2-1.8-2.4-2.7-3.6
		c-0.3-0.5-0.7-1-1.1-1.5c-0.1,0.9-0.1,1.7-0.2,2.6c-0.1,0.8-0.2,1.7-0.1,2.6c0.1,0.4,1,1.1,1.5,1.5l2.1,1.9c0.7,0.7,1.5,1.3,2.2,2
		C-761.8-253.6-761.3-253.1-760.6-252.6z"/>
	<path id="Pfad_755" class="st0" d="M-588.6,13.2c-2-8.9-2.4-18.3-5.4-27c-0.3-1.1-0.8-2.2-1.2-3.3c-2.1,8.6-9.7,14.6-16.5,19.8
		c-4.2,3.3-8.2,6.8-11.5,11.1c-0.6,0.8-1.2,1.7-1.7,2.5c-0.1,0.1-0.1,0.3-0.2,0.4c-1.4,2.8-2.8,5.5-4.3,8.1c-0.3,0.9-0.7,1.7-1,2.6
		c-0.1,0.5-0.6,0.8-1,1c6.5-1,12.2-6.2,18-8.8c7.7-3.4,16.4-4.5,24.8-3c0.2-0.3,0.5-0.6,0.8-0.7C-588.2,15.1-588.3,14-588.6,13.2z"
		/>
	<path id="Pfad_756" d="M-610.7,194.1l-0.1-0.1c-0.4,0.3-0.7,0.9-0.7,1.5C-611.5,194.9-611.1,194.4-610.7,194.1z"/>
	<path id="Pfad_757" d="M-397.2,122.4c0-0.2,0-0.4-0.1-0.7l-0.1,0.1C-397.2,122-397.2,122.2-397.2,122.4z"/>
	<path id="Pfad_758" d="M-255.6-259.6c0.1-0.2,0-0.5-0.1-0.7c0,0-0.1,0-0.1,0.1C-255.7-260-255.6-259.8-255.6-259.6z"/>
</g>
</svg>
